<?xml version="1.0" encoding="UTF-8"?>
<svg version="1.1" xmlns="http://www.w3.org/2000/svg" width="512" height="512">
<path d="M0 0 C7.49232023 5.85937864 10.48884919 13.27750224 13.0234375 22.23828125 C13.35085938 23.04394531 13.67828125 23.84960938 14.015625 24.6796875 C17.11516993 25.71286914 19.30591337 25.82234571 22.55688477 25.85327148 C24.25863609 25.87350624 24.25863609 25.87350624 25.99476624 25.89414978 C27.21981369 25.90458817 28.44486115 25.91502655 29.70703125 25.92578125 C32.28581088 25.95870457 34.86458684 25.99191646 37.44335938 26.02539062 C41.52103378 26.07397257 45.59873355 26.11781799 49.67651367 26.15649414 C53.60350226 26.19430644 57.53022004 26.2476164 61.45703125 26.30078125 C62.68410294 26.3091954 63.91117462 26.31760956 65.1754303 26.32627869 C66.87245338 26.35124168 66.87245338 26.35124168 68.60375977 26.37670898 C69.6028688 26.38701645 70.60197784 26.39732391 71.63136292 26.40794373 C74.015625 26.6796875 74.015625 26.6796875 76.015625 28.6796875 C76.2109375 31.9375 76.2109375 31.9375 76.140625 35.8046875 C76.12257813 37.08601563 76.10453125 38.36734375 76.0859375 39.6875 C76.05113281 41.16863281 76.05113281 41.16863281 76.015625 42.6796875 C76.77460083 42.67080505 77.53357666 42.66192261 78.31555176 42.652771 C85.49450212 42.57237255 92.67323188 42.51159581 99.85251617 42.47243881 C103.54282455 42.4516304 107.23275858 42.42343831 110.92285156 42.37792969 C114.48904561 42.33422807 118.05488131 42.31049974 121.62132263 42.30017853 C123.63312612 42.28927256 125.64478696 42.25808559 127.65637207 42.22650146 C136.24696736 42.22440953 141.87750355 43.00792577 148.4765625 48.86328125 C149.42402344 49.97896484 149.42402344 49.97896484 150.390625 51.1171875 C151.03773438 51.85839844 151.68484375 52.59960938 152.3515625 53.36328125 C156.48529657 59.1175167 156.28305291 64.38129906 156.2109375 71.23046875 C156.20669266 72.75138374 156.20669266 72.75138374 156.20236206 74.30302429 C156.19119125 77.53286677 156.16609211 80.76242921 156.140625 83.9921875 C156.1305912 86.18554286 156.12146605 88.37890258 156.11328125 90.57226562 C156.09126207 95.94150136 156.05781523 101.31057442 156.015625 106.6796875 C156.86304512 106.66790466 156.86304512 106.66790466 157.72758484 106.65588379 C160.32747825 106.62439107 162.9273313 106.60509129 165.52734375 106.5859375 C166.86001282 106.56708496 166.86001282 106.56708496 168.21960449 106.54785156 C185.55533322 106.45231597 201.49853599 113.54828985 213.93896484 125.47973633 C228.94340118 140.46621864 236.20759444 157.31548122 236.453125 178.5546875 C236.33090209 198.31254939 229.62018501 215.06313394 215.65625 229.1015625 C214.78484375 229.95234375 213.9134375 230.803125 213.015625 231.6796875 C212.04882812 232.67742187 212.04882812 232.67742187 211.0625 233.6953125 C198.8945091 245.44006893 182.13791202 251.00687526 165.55859375 250.7734375 C164.17722229 250.76328613 164.17722229 250.76328613 162.76794434 250.75292969 C160.51701454 250.73540704 158.26640044 250.71083872 156.015625 250.6796875 C156.01931217 251.89890144 156.02299934 253.11811539 156.02679825 254.37427521 C156.11345951 283.32633271 156.179402 312.27838796 156.21988632 341.23054519 C156.22488905 344.79529859 156.23006635 348.3600517 156.23535156 351.92480469 C156.2364008 352.63447252 156.23745005 353.34414035 156.23853108 354.07531327 C156.25592873 365.56096885 156.28746287 377.04654422 156.32423618 388.53215224 C156.36166347 400.32047522 156.38386462 412.10875625 156.39197898 423.89713621 C156.39697139 430.51723148 156.40946043 437.13717759 156.43854523 443.75721741 C156.46570077 449.98864016 156.47406955 456.2198062 156.46805573 462.4512825 C156.46915588 464.73776774 156.47710867 467.02426159 156.4924469 469.31069565 C156.51237639 472.43486202 156.50755275 475.55806179 156.49664307 478.68225098 C156.50829443 479.58499394 156.5199458 480.4877369 156.53195024 481.41783571 C156.46470073 488.5528015 154.59032841 493.77796452 149.83203125 499.140625 C148.71634766 500.08808594 148.71634766 500.08808594 147.578125 501.0546875 C146.83691406 501.70179688 146.09570312 502.34890625 145.33203125 503.015625 C141.17146274 506.00449884 137.57465067 506.92944162 132.48764324 506.93695641 C131.38186859 506.9434053 130.27609393 506.94985419 129.13681096 506.9564985 C127.92729246 506.9534013 126.71777397 506.9503041 125.47160339 506.94711304 C124.18257325 506.95164415 122.89354311 506.95617526 121.56545144 506.96084368 C117.98927002 506.973079 114.4131821 506.9728126 110.83698452 506.97045493 C106.97933629 506.9700469 103.1217181 506.98108463 99.26408386 506.99057007 C91.70681931 507.00718401 84.14958596 507.01267979 76.59230467 507.01379482 C70.4492762 507.01474512 64.30625802 507.01885451 58.1632328 507.02519608 C40.74663465 507.04280965 23.33006114 507.05203478 5.91345402 507.05053513 C4.97449222 507.05045522 4.03553042 507.0503753 3.06811523 507.05029297 C1.65795282 507.05017033 1.65795282 507.05017033 0.21930227 507.05004521 C-15.01662067 507.0492323 -30.25244475 507.06837085 -45.4883391 507.0965697 C-61.13243475 507.12529558 -76.77648219 507.13911016 -92.42060488 507.13738215 C-101.20359546 507.13671814 -109.98648241 507.14221521 -118.76944923 507.16373825 C-126.24754017 507.18194617 -133.72548049 507.18630063 -141.20358399 507.1727194 C-145.01829223 507.16618771 -148.8327115 507.16607954 -152.64739227 507.1834259 C-156.78494787 507.20204678 -160.92183394 507.18960748 -165.05940247 507.17416382 C-166.2622288 507.18445094 -167.46505513 507.19473807 -168.70433074 507.20533693 C-176.80098639 507.13846384 -182.22551066 506.0149338 -188.4453125 500.49609375 C-189.39277344 499.38041016 -189.39277344 499.38041016 -190.359375 498.2421875 C-191.33003906 497.13037109 -191.33003906 497.13037109 -192.3203125 495.99609375 C-196.27096753 490.49670776 -196.26671106 485.58723588 -196.22488403 479.04301453 C-196.22659288 478.06685694 -196.22830173 477.09069935 -196.23006237 476.08496124 C-196.23335875 472.81136777 -196.22235098 469.5379789 -196.21142578 466.2644043 C-196.2108617 463.91886907 -196.21117817 461.57333349 -196.21231079 459.22779846 C-196.21288542 452.85636607 -196.20111315 446.48500874 -196.18716288 440.11359382 C-196.17593901 434.13080453 -196.17391715 428.14801518 -196.17185913 422.16521738 C-196.16748324 410.31610405 -196.15417702 398.46701829 -196.13525391 386.61791992 C-196.11689236 375.10848122 -196.1027372 363.59905 -196.09423828 352.08959961 C-196.09371283 351.38000828 -196.09318739 350.67041695 -196.09264602 349.93932285 C-196.09003592 346.37946711 -196.08750851 342.81961132 -196.08502221 339.25975549 C-196.06429301 309.73304838 -196.02892156 280.20636842 -195.984375 250.6796875 C-196.55194016 250.68754272 -197.11950531 250.69539795 -197.70426941 250.70349121 C-200.31193483 250.73495105 -202.91956012 250.75427352 -205.52734375 250.7734375 C-206.866297 250.79229004 -206.866297 250.79229004 -208.2322998 250.81152344 C-225.208347 250.90490532 -240.85829219 243.41548813 -252.97998047 231.73901367 C-254.32753568 230.39860913 -255.65658121 229.03967023 -256.984375 227.6796875 C-257.64953125 227.03515625 -258.3146875 226.390625 -259 225.7265625 C-272.15113154 212.10151631 -276.6343024 193.9293649 -276.453125 175.57666016 C-275.78575015 153.45248857 -266.25991853 137.26334603 -250.5859375 122.40625 C-237.89828385 111.40466328 -222.16531752 106.44950516 -205.58984375 106.61328125 C-204.66441772 106.61807495 -203.7389917 106.62286865 -202.78552246 106.62780762 C-200.51839618 106.64024426 -198.25142504 106.6576657 -195.984375 106.6796875 C-195.99325745 106.12116089 -196.00213989 105.56263428 -196.0112915 104.98718262 C-196.10014124 99.14683317 -196.16026445 93.30667733 -196.20410156 87.46582031 C-196.22415264 85.28930862 -196.25140071 83.11285036 -196.28613281 80.93652344 C-196.33493712 77.79869357 -196.35740938 74.66157915 -196.375 71.5234375 C-196.39564514 70.55853394 -196.41629028 69.59363037 -196.43756104 68.5994873 C-196.44001351 61.12860603 -194.7919175 55.84382305 -189.80078125 50.21875 C-189.05699219 49.58710937 -188.31320313 48.95546875 -187.546875 48.3046875 C-186.43505859 47.33402344 -186.43505859 47.33402344 -185.30078125 46.34375 C-180.86742361 43.15890961 -177.13866375 42.43058653 -171.7253418 42.45263672 C-169.86397835 42.45286331 -169.86397835 42.45286331 -167.9650116 42.45309448 C-166.62120399 42.46330607 -165.27739805 42.47373804 -163.93359375 42.484375 C-162.5506867 42.48810819 -161.16777698 42.49095372 -159.78486633 42.49295044 C-156.1565716 42.50056288 -152.52843863 42.52019059 -148.90020752 42.5423584 C-145.19325956 42.56286851 -141.4862853 42.57196317 -137.77929688 42.58203125 C-130.51424941 42.60343895 -123.24933493 42.63754575 -115.984375 42.6796875 C-116.00757813 41.69226562 -116.03078125 40.70484375 -116.0546875 39.6875 C-116.07273438 38.40617187 -116.09078125 37.12484375 -116.109375 35.8046875 C-116.13257813 34.52851562 -116.15578125 33.25234375 -116.1796875 31.9375 C-115.984375 28.6796875 -115.984375 28.6796875 -113.984375 26.6796875 C-111.60011292 26.40794373 -111.60011292 26.40794373 -108.57250977 26.37670898 C-106.87548668 26.35174599 -106.87548668 26.35174599 -105.1441803 26.32627869 C-103.91710861 26.31786453 -102.69003693 26.30945038 -101.42578125 26.30078125 C-100.17055161 26.28378677 -98.91532196 26.2667923 -97.62205505 26.24928284 C-94.28099775 26.20504615 -90.94006288 26.16877481 -87.59887695 26.13708496 C-82.89327816 26.09145661 -78.18782864 26.03545997 -73.48240662 25.97438049 C-70.97617139 25.94238335 -68.46986473 25.91550588 -65.96351624 25.89414978 C-64.82901535 25.88065994 -63.69451447 25.8671701 -62.52563477 25.85327148 C-61.52573013 25.84375961 -60.5258255 25.83424774 -59.49562073 25.82444763 C-56.85592418 25.78193039 -56.85592418 25.78193039 -53.984375 24.6796875 C-52.92685408 22.13808261 -52.02647085 19.6629973 -51.171875 17.0546875 C-47.3360123 6.23869546 -42.45367021 0.82795478 -31.984375 -4.3203125 C-21.74926996 -7.92884312 -8.81597528 -5.86574733 0 0 Z " fill="#E9F8F9" transform="translate(275.984375,5.3203125)"/>
<path d="M0 0 C7.49232023 5.85937864 10.48884919 13.27750224 13.0234375 22.23828125 C13.35085938 23.04394531 13.67828125 23.84960938 14.015625 24.6796875 C17.11516993 25.71286914 19.30591337 25.82234571 22.55688477 25.85327148 C24.25863609 25.87350624 24.25863609 25.87350624 25.99476624 25.89414978 C27.21981369 25.90458817 28.44486115 25.91502655 29.70703125 25.92578125 C32.28581088 25.95870457 34.86458684 25.99191646 37.44335938 26.02539062 C41.52103378 26.07397257 45.59873355 26.11781799 49.67651367 26.15649414 C53.60350226 26.19430644 57.53022004 26.2476164 61.45703125 26.30078125 C62.68410294 26.3091954 63.91117462 26.31760956 65.1754303 26.32627869 C66.87245338 26.35124168 66.87245338 26.35124168 68.60375977 26.37670898 C69.6028688 26.38701645 70.60197784 26.39732391 71.63136292 26.40794373 C74.015625 26.6796875 74.015625 26.6796875 76.015625 28.6796875 C76.2109375 31.9375 76.2109375 31.9375 76.140625 35.8046875 C76.12257813 37.08601563 76.10453125 38.36734375 76.0859375 39.6875 C76.05113281 41.16863281 76.05113281 41.16863281 76.015625 42.6796875 C76.77460083 42.67080505 77.53357666 42.66192261 78.31555176 42.652771 C85.49450212 42.57237255 92.67323188 42.51159581 99.85251617 42.47243881 C103.54282455 42.4516304 107.23275858 42.42343831 110.92285156 42.37792969 C114.48904561 42.33422807 118.05488131 42.31049974 121.62132263 42.30017853 C123.63312612 42.28927256 125.64478696 42.25808559 127.65637207 42.22650146 C136.24696736 42.22440953 141.87750355 43.00792577 148.4765625 48.86328125 C149.42402344 49.97896484 149.42402344 49.97896484 150.390625 51.1171875 C151.03773438 51.85839844 151.68484375 52.59960938 152.3515625 53.36328125 C156.48529657 59.1175167 156.28305291 64.38129906 156.2109375 71.23046875 C156.20669266 72.75138374 156.20669266 72.75138374 156.20236206 74.30302429 C156.19119125 77.53286677 156.16609211 80.76242921 156.140625 83.9921875 C156.1305912 86.18554286 156.12146605 88.37890258 156.11328125 90.57226562 C156.09126207 95.94150136 156.05781523 101.31057442 156.015625 106.6796875 C156.86304512 106.66790466 156.86304512 106.66790466 157.72758484 106.65588379 C160.32747825 106.62439107 162.9273313 106.60509129 165.52734375 106.5859375 C166.86001282 106.56708496 166.86001282 106.56708496 168.21960449 106.54785156 C185.55533322 106.45231597 201.49853599 113.54828985 213.93896484 125.47973633 C228.94340118 140.46621864 236.20759444 157.31548122 236.453125 178.5546875 C236.33090209 198.31254939 229.62018501 215.06313394 215.65625 229.1015625 C214.78484375 229.95234375 213.9134375 230.803125 213.015625 231.6796875 C212.04882812 232.67742187 212.04882812 232.67742187 211.0625 233.6953125 C198.8945091 245.44006893 182.13791202 251.00687526 165.55859375 250.7734375 C164.17722229 250.76328613 164.17722229 250.76328613 162.76794434 250.75292969 C160.51701454 250.73540704 158.26640044 250.71083872 156.015625 250.6796875 C156.01931217 251.89890144 156.02299934 253.11811539 156.02679825 254.37427521 C156.11345951 283.32633271 156.179402 312.27838796 156.21988632 341.23054519 C156.22488905 344.79529859 156.23006635 348.3600517 156.23535156 351.92480469 C156.2364008 352.63447252 156.23745005 353.34414035 156.23853108 354.07531327 C156.25592873 365.56096885 156.28746287 377.04654422 156.32423618 388.53215224 C156.36166347 400.32047522 156.38386462 412.10875625 156.39197898 423.89713621 C156.39697139 430.51723148 156.40946043 437.13717759 156.43854523 443.75721741 C156.46570077 449.98864016 156.47406955 456.2198062 156.46805573 462.4512825 C156.46915588 464.73776774 156.47710867 467.02426159 156.4924469 469.31069565 C156.51237639 472.43486202 156.50755275 475.55806179 156.49664307 478.68225098 C156.50829443 479.58499394 156.5199458 480.4877369 156.53195024 481.41783571 C156.46470073 488.5528015 154.59032841 493.77796452 149.83203125 499.140625 C148.71634766 500.08808594 148.71634766 500.08808594 147.578125 501.0546875 C146.83691406 501.70179688 146.09570312 502.34890625 145.33203125 503.015625 C141.17146274 506.00449884 137.57465067 506.92944162 132.48764324 506.93695641 C131.38186859 506.9434053 130.27609393 506.94985419 129.13681096 506.9564985 C127.92729246 506.9534013 126.71777397 506.9503041 125.47160339 506.94711304 C124.18257325 506.95164415 122.89354311 506.95617526 121.56545144 506.96084368 C117.98927002 506.973079 114.4131821 506.9728126 110.83698452 506.97045493 C106.97933629 506.9700469 103.1217181 506.98108463 99.26408386 506.99057007 C91.70681931 507.00718401 84.14958596 507.01267979 76.59230467 507.01379482 C70.4492762 507.01474512 64.30625802 507.01885451 58.1632328 507.02519608 C40.74663465 507.04280965 23.33006114 507.05203478 5.91345402 507.05053513 C4.97449222 507.05045522 4.03553042 507.0503753 3.06811523 507.05029297 C1.65795282 507.05017033 1.65795282 507.05017033 0.21930227 507.05004521 C-15.01662067 507.0492323 -30.25244475 507.06837085 -45.4883391 507.0965697 C-61.13243475 507.12529558 -76.77648219 507.13911016 -92.42060488 507.13738215 C-101.20359546 507.13671814 -109.98648241 507.14221521 -118.76944923 507.16373825 C-126.24754017 507.18194617 -133.72548049 507.18630063 -141.20358399 507.1727194 C-145.01829223 507.16618771 -148.8327115 507.16607954 -152.64739227 507.1834259 C-156.78494787 507.20204678 -160.92183394 507.18960748 -165.05940247 507.17416382 C-166.2622288 507.18445094 -167.46505513 507.19473807 -168.70433074 507.20533693 C-176.80098639 507.13846384 -182.22551066 506.0149338 -188.4453125 500.49609375 C-189.39277344 499.38041016 -189.39277344 499.38041016 -190.359375 498.2421875 C-191.33003906 497.13037109 -191.33003906 497.13037109 -192.3203125 495.99609375 C-196.27096753 490.49670776 -196.26671106 485.58723588 -196.22488403 479.04301453 C-196.22659288 478.06685694 -196.22830173 477.09069935 -196.23006237 476.08496124 C-196.23335875 472.81136777 -196.22235098 469.5379789 -196.21142578 466.2644043 C-196.2108617 463.91886907 -196.21117817 461.57333349 -196.21231079 459.22779846 C-196.21288542 452.85636607 -196.20111315 446.48500874 -196.18716288 440.11359382 C-196.17593901 434.13080453 -196.17391715 428.14801518 -196.17185913 422.16521738 C-196.16748324 410.31610405 -196.15417702 398.46701829 -196.13525391 386.61791992 C-196.11689236 375.10848122 -196.1027372 363.59905 -196.09423828 352.08959961 C-196.09371283 351.38000828 -196.09318739 350.67041695 -196.09264602 349.93932285 C-196.09003592 346.37946711 -196.08750851 342.81961132 -196.08502221 339.25975549 C-196.06429301 309.73304838 -196.02892156 280.20636842 -195.984375 250.6796875 C-196.55194016 250.68754272 -197.11950531 250.69539795 -197.70426941 250.70349121 C-200.31193483 250.73495105 -202.91956012 250.75427352 -205.52734375 250.7734375 C-206.866297 250.79229004 -206.866297 250.79229004 -208.2322998 250.81152344 C-225.208347 250.90490532 -240.85829219 243.41548813 -252.97998047 231.73901367 C-254.32753568 230.39860913 -255.65658121 229.03967023 -256.984375 227.6796875 C-257.64953125 227.03515625 -258.3146875 226.390625 -259 225.7265625 C-272.15113154 212.10151631 -276.6343024 193.9293649 -276.453125 175.57666016 C-275.78575015 153.45248857 -266.25991853 137.26334603 -250.5859375 122.40625 C-237.89828385 111.40466328 -222.16531752 106.44950516 -205.58984375 106.61328125 C-204.66441772 106.61807495 -203.7389917 106.62286865 -202.78552246 106.62780762 C-200.51839618 106.64024426 -198.25142504 106.6576657 -195.984375 106.6796875 C-195.99325745 106.12116089 -196.00213989 105.56263428 -196.0112915 104.98718262 C-196.10014124 99.14683317 -196.16026445 93.30667733 -196.20410156 87.46582031 C-196.22415264 85.28930862 -196.25140071 83.11285036 -196.28613281 80.93652344 C-196.33493712 77.79869357 -196.35740938 74.66157915 -196.375 71.5234375 C-196.39564514 70.55853394 -196.41629028 69.59363037 -196.43756104 68.5994873 C-196.44001351 61.12860603 -194.7919175 55.84382305 -189.80078125 50.21875 C-189.05699219 49.58710937 -188.31320313 48.95546875 -187.546875 48.3046875 C-186.43505859 47.33402344 -186.43505859 47.33402344 -185.30078125 46.34375 C-180.86742361 43.15890961 -177.13866375 42.43058653 -171.7253418 42.45263672 C-169.86397835 42.45286331 -169.86397835 42.45286331 -167.9650116 42.45309448 C-166.62120399 42.46330607 -165.27739805 42.47373804 -163.93359375 42.484375 C-162.5506867 42.48810819 -161.16777698 42.49095372 -159.78486633 42.49295044 C-156.1565716 42.50056288 -152.52843863 42.52019059 -148.90020752 42.5423584 C-145.19325956 42.56286851 -141.4862853 42.57196317 -137.77929688 42.58203125 C-130.51424941 42.60343895 -123.24933493 42.63754575 -115.984375 42.6796875 C-116.00757813 41.69226562 -116.03078125 40.70484375 -116.0546875 39.6875 C-116.07273438 38.40617187 -116.09078125 37.12484375 -116.109375 35.8046875 C-116.13257813 34.52851562 -116.15578125 33.25234375 -116.1796875 31.9375 C-115.984375 28.6796875 -115.984375 28.6796875 -113.984375 26.6796875 C-111.60011292 26.40794373 -111.60011292 26.40794373 -108.57250977 26.37670898 C-106.87548668 26.35174599 -106.87548668 26.35174599 -105.1441803 26.32627869 C-103.91710861 26.31786453 -102.69003693 26.30945038 -101.42578125 26.30078125 C-100.17055161 26.28378677 -98.91532196 26.2667923 -97.62205505 26.24928284 C-94.28099775 26.20504615 -90.94006288 26.16877481 -87.59887695 26.13708496 C-82.89327816 26.09145661 -78.18782864 26.03545997 -73.48240662 25.97438049 C-70.97617139 25.94238335 -68.46986473 25.91550588 -65.96351624 25.89414978 C-64.82901535 25.88065994 -63.69451447 25.8671701 -62.52563477 25.85327148 C-61.52573013 25.84375961 -60.5258255 25.83424774 -59.49562073 25.82444763 C-56.85592418 25.78193039 -56.85592418 25.78193039 -53.984375 24.6796875 C-52.92685408 22.13808261 -52.02647085 19.6629973 -51.171875 17.0546875 C-47.3360123 6.23869546 -42.45367021 0.82795478 -31.984375 -4.3203125 C-21.74926996 -7.92884312 -8.81597528 -5.86574733 0 0 Z M-163.984375 77.6796875 C-164.49400776 79.58671463 -164.49400776 79.58671463 -164.51538086 81.70117188 C-164.55388657 82.50631226 -164.59239227 83.31145264 -164.63206482 84.14099121 C-164.65422562 85.00969849 -164.67638641 85.87840576 -164.69921875 86.7734375 C-164.72343399 87.67533813 -164.74764923 88.57723877 -164.77259827 89.50646973 C-164.81410205 91.41950232 -164.84627736 93.33275648 -164.86987305 95.24609375 C-164.90429899 97.1881695 -164.96545642 99.12997112 -165.05444336 101.0703125 C-165.96649858 112.91247311 -165.96649858 112.91247311 -161.37841797 123.34472656 C-158.51689305 126.17336998 -155.30611065 128.41530387 -151.984375 130.6796875 C-139.91913985 142.01026814 -133.11676397 159.0689451 -132.56738281 175.43041992 C-132.46621316 186.8348891 -134.12506415 197.79246963 -139.21484375 208.10546875 C-141.417528 215.47383891 -139.51912248 222.5545795 -137.484375 229.7421875 C-135.7433988 235.92030035 -134.68667017 241.24182064 -134.984375 247.6796875 C-141.25917819 247.96653565 -146.31531844 247.01330467 -152.296875 245.1796875 C-153.8752971 244.70756448 -155.45468992 244.23867149 -157.03515625 243.7734375 C-157.72262939 243.56396484 -158.41010254 243.35449219 -159.1184082 243.13867188 C-161.1496378 242.56025907 -161.1496378 242.56025907 -163.984375 242.6796875 C-164.05277242 271.80185 -164.10588315 300.92400468 -164.13757099 330.04623141 C-164.14132323 333.48223709 -164.14520619 336.91824261 -164.14916992 340.35424805 C-164.14995685 341.0383119 -164.15074378 341.72237575 -164.15155456 342.42716881 C-164.16461824 353.51202645 -164.18827735 364.59683754 -164.21583339 375.68166754 C-164.24386088 387.05073607 -164.26032097 398.41977003 -164.26664048 409.78887528 C-164.27055997 416.17684034 -164.27980583 422.56469973 -164.30156517 428.952631 C-164.32186302 434.95993816 -164.3282224 440.9670957 -164.32369804 446.9744339 C-164.32452625 449.1839981 -164.33053158 451.39356709 -164.34199142 453.60310173 C-164.3568306 456.61065366 -164.35335998 459.61763431 -164.34513855 462.62519836 C-164.35387707 463.507487 -164.3626156 464.38977564 -164.37161893 465.29880029 C-164.45822013 469.59553933 -164.45822013 469.59553933 -162.75910741 473.40268737 C-160.44622358 475.06691175 -159.05776392 475.05559198 -156.21951294 475.05721092 C-155.23307234 475.06503416 -154.24663174 475.07285741 -153.230299 475.08091772 C-152.14383646 475.07422555 -151.05737392 475.06753339 -149.93798828 475.06063843 C-148.20997577 475.06765839 -148.20997577 475.06765839 -146.44705391 475.07482016 C-143.24426415 475.0847376 -140.04181364 475.08113888 -136.83903217 475.07186151 C-133.38703385 475.06509033 -129.93508236 475.07554261 -126.48309326 475.08380127 C-119.71862606 475.09716153 -112.95425855 475.0942507 -106.18978739 475.08556335 C-100.69359422 475.0787962 -95.19742905 475.07786587 -89.70123291 475.0811348 C-88.91985368 475.0815945 -88.13847445 475.08205419 -87.33341706 475.08252782 C-85.74620484 475.08348697 -84.15899264 475.08445961 -82.57178044 475.0854456 C-67.6782863 475.09400621 -52.7848475 475.08415486 -37.89136243 475.0680445 C-25.10397952 475.0546407 -12.31667831 475.05696861 0.47070312 475.07080078 C15.3098415 475.08684477 30.14893133 475.09318217 44.98807716 475.08396399 C46.56954574 475.08300831 48.15101432 475.0820652 49.73248291 475.0811348 C50.51065491 475.08067197 51.2888269 475.08020914 52.09057987 475.07973229 C57.58202519 475.07713885 63.0734398 475.08152101 68.56488037 475.08857346 C75.25447337 475.09697556 81.94396073 475.09473562 88.63354158 475.07873122 C92.04859261 475.070831 95.46346732 475.06778644 98.87851715 475.07767868 C102.57560253 475.08582376 106.27218531 475.07565751 109.96923828 475.06063843 C111.05570082 475.06733059 112.14216335 475.07402276 113.261549 475.08091772 C114.2479896 475.07309447 115.2344302 475.06527123 116.25076294 475.05721092 C117.53158847 475.05648034 117.53158847 475.05648034 118.83828926 475.05573499 C121.54831465 474.58768671 122.43088113 473.9081913 124.015625 471.6796875 C124.30431709 468.59405586 124.406956 465.7114535 124.37638855 462.62519836 C124.37895182 461.6875016 124.3815151 460.74980483 124.38415605 459.78369302 C124.38911432 456.62816509 124.37256722 453.47311111 124.35620117 450.31762695 C124.35535534 448.06105562 124.35582918 445.80448345 124.35752869 443.5479126 C124.35839178 437.40978441 124.34071511 431.27183099 124.31980681 425.13374352 C124.30109237 418.72354527 124.29929371 412.31334331 124.29573059 405.90312195 C124.28745638 395.14004914 124.26869945 384.37705298 124.24194336 373.61401367 C124.21441159 362.52742841 124.19317371 351.44086059 124.18041992 340.35424805 C124.17963175 339.67101423 124.17884358 338.98778041 124.17803153 338.28384254 C124.17411645 334.85630224 124.17032532 331.42876181 124.16659582 328.0012213 C124.1354893 299.56066575 124.08242143 271.12018007 124.015625 242.6796875 C122.25472793 242.99395902 120.49412282 243.3098667 118.73364258 243.62646484 C117.75317459 243.80221039 116.7727066 243.97795593 115.76252747 244.1590271 C111.72615973 244.92409862 107.79756479 246.00308199 103.83984375 247.09375 C100.82673031 247.71887727 98.0843162 247.77940863 95.015625 247.6796875 C95.31356752 241.48248313 96.46257915 235.72062385 98.078125 229.7421875 C101.04793153 218.30677141 100.48285889 211.05691588 96.26171875 200.0078125 C90.21128098 183.84802259 91.76492653 165.40206935 98.67578125 149.765625 C103.16948992 140.3720638 109.52026094 131.4135407 118.01826477 125.22015381 C122.28197703 122.03290779 122.28197703 122.03290779 124.73995972 117.45507812 C124.98795644 114.90743082 124.9957336 112.47197978 124.90234375 109.9140625 C124.89813919 108.99884827 124.89393463 108.08363403 124.88960266 107.14068604 C124.87321368 105.21756139 124.83765943 103.29451426 124.78393555 101.37207031 C124.7029717 98.42410553 124.68145282 95.48022689 124.66992188 92.53125 C124.64667795 90.65880818 124.62010187 88.78640411 124.58984375 86.9140625 C124.58023117 86.03280701 124.57061859 85.15155151 124.56071472 84.24359131 C124.52232231 83.01651459 124.52232231 83.01651459 124.4831543 81.76464844 C124.45695259 80.68712311 124.45695259 80.68712311 124.43022156 79.58782959 C123.8835889 77.07200363 123.09319006 76.18241923 121.015625 74.6796875 C118.90208729 74.24720884 118.90208729 74.24720884 116.54418945 74.33911133 C115.19312859 74.33945122 115.19312859 74.33945122 113.81477356 74.33979797 C112.84593735 74.35528183 111.87710114 74.37076569 110.87890625 74.38671875 C109.38704048 74.39308601 109.38704048 74.39308601 107.86503601 74.39958191 C104.68579125 74.41638597 101.50717844 74.45404174 98.328125 74.4921875 C96.17383727 74.50723209 94.01953962 74.52092088 91.86523438 74.53320312 C86.58181533 74.56629506 81.29876531 74.61651158 76.015625 74.6796875 C76.00104248 75.25412598 75.98645996 75.82856445 75.97143555 76.42041016 C75.89648775 79.04914446 75.79998506 81.67667302 75.703125 84.3046875 C75.66928711 85.66013672 75.66928711 85.66013672 75.63476562 87.04296875 C75.42472615 92.27486115 74.9771795 96.18459647 72.015625 100.6796875 C66.65400714 104.81260127 62.95238066 105.80563988 56.27934265 105.78889465 C55.59089242 105.78848779 54.90244219 105.78808092 54.19312984 105.78766173 C51.88091327 105.78495941 49.56878727 105.774944 47.2565918 105.76489258 C45.60088172 105.76129721 43.94517076 105.75809214 42.28945923 105.75524902 C37.78728403 105.74586824 33.28516147 105.72953224 28.78301597 105.71087861 C25.9706347 105.69924271 23.1582512 105.68857499 20.34586525 105.67813683 C11.54763785 105.64489211 2.74944778 105.60683031 -6.0487321 105.56277162 C-16.20696739 105.51204938 -26.36508468 105.47780437 -36.5234254 105.45759088 C-44.37413004 105.44091113 -52.22468303 105.40903629 -60.07528561 105.36574477 C-64.7647556 105.34025109 -69.45403651 105.32131373 -74.14357948 105.31836891 C-78.5555228 105.31521575 -82.96697478 105.29322317 -87.37876511 105.25681305 C-88.996839 105.24670469 -90.6149717 105.24336656 -92.23307228 105.24734306 C-94.44499228 105.25173679 -96.65540234 105.23158605 -98.86714172 105.20539856 C-100.10397862 105.20041257 -101.34081553 105.19542658 -102.61513233 105.1902895 C-106.65169029 104.5785572 -108.81458361 103.20839759 -111.984375 100.6796875 C-115.58535607 95.56614081 -115.52109195 90.34462574 -115.671875 84.3046875 C-115.70603516 83.37785156 -115.74019531 82.45101562 -115.77539062 81.49609375 C-115.85737052 79.22407938 -115.92667994 76.95242646 -115.984375 74.6796875 C-122.33805697 74.60371001 -128.69162209 74.55111853 -135.0456543 74.51489258 C-137.20780821 74.49979306 -139.36993143 74.47931179 -141.53198242 74.45336914 C-144.637284 74.41703733 -147.74218114 74.39997288 -150.84765625 74.38671875 C-152.30091057 74.36349297 -152.30091057 74.36349297 -153.78352356 74.33979797 C-154.6842308 74.33957138 -155.58493805 74.33934479 -156.51293945 74.33911133 C-157.70207695 74.32911858 -157.70207695 74.32911858 -158.91523743 74.31892395 C-161.56082493 74.78019417 -162.41851888 75.51890744 -163.984375 77.6796875 Z " fill="#FD9638" transform="translate(275.984375,5.3203125)"/>
<path d="M0 0 C7.49232023 5.85937864 10.48884919 13.27750224 13.0234375 22.23828125 C13.51457031 23.44677734 13.51457031 23.44677734 14.015625 24.6796875 C17.11516993 25.71286914 19.30591337 25.82234571 22.55688477 25.85327148 C24.25863609 25.87350624 24.25863609 25.87350624 25.99476624 25.89414978 C27.21981369 25.90458817 28.44486115 25.91502655 29.70703125 25.92578125 C32.28581088 25.95870457 34.86458684 25.99191646 37.44335938 26.02539062 C41.52103378 26.07397257 45.59873355 26.11781799 49.67651367 26.15649414 C53.60350226 26.19430644 57.53022004 26.2476164 61.45703125 26.30078125 C62.68410294 26.3091954 63.91117462 26.31760956 65.1754303 26.32627869 C66.87245338 26.35124168 66.87245338 26.35124168 68.60375977 26.37670898 C69.6028688 26.38701645 70.60197784 26.39732391 71.63136292 26.40794373 C74.015625 26.6796875 74.015625 26.6796875 76.015625 28.6796875 C76.2109375 31.9375 76.2109375 31.9375 76.140625 35.8046875 C76.12257813 37.08601563 76.10453125 38.36734375 76.0859375 39.6875 C76.06273437 40.67492188 76.03953125 41.66234375 76.015625 42.6796875 C76.77460083 42.67080505 77.53357666 42.66192261 78.31555176 42.652771 C85.49450212 42.57237255 92.67323188 42.51159581 99.85251617 42.47243881 C103.54282455 42.4516304 107.23275858 42.42343831 110.92285156 42.37792969 C114.48904561 42.33422807 118.05488131 42.31049974 121.62132263 42.30017853 C123.63312612 42.28927256 125.64478696 42.25808559 127.65637207 42.22650146 C136.24696736 42.22440953 141.87750355 43.00792577 148.4765625 48.86328125 C149.42402344 49.97896484 149.42402344 49.97896484 150.390625 51.1171875 C151.03773438 51.85839844 151.68484375 52.59960938 152.3515625 53.36328125 C156.48529657 59.1175167 156.28305291 64.38129906 156.2109375 71.23046875 C156.20669266 72.75138374 156.20669266 72.75138374 156.20236206 74.30302429 C156.19119125 77.53286677 156.16609211 80.76242921 156.140625 83.9921875 C156.1305912 86.18554286 156.12146605 88.37890258 156.11328125 90.57226562 C156.09126207 95.94150136 156.05781523 101.31057442 156.015625 106.6796875 C156.86304512 106.66790466 156.86304512 106.66790466 157.72758484 106.65588379 C160.32747825 106.62439107 162.9273313 106.60509129 165.52734375 106.5859375 C166.86001282 106.56708496 166.86001282 106.56708496 168.21960449 106.54785156 C185.55533322 106.45231597 201.49853599 113.54828985 213.93896484 125.47973633 C228.94340118 140.46621864 236.20759444 157.31548122 236.453125 178.5546875 C236.33090209 198.31254939 229.62018501 215.06313394 215.65625 229.1015625 C214.78484375 229.95234375 213.9134375 230.803125 213.015625 231.6796875 C212.04882812 232.67742187 212.04882812 232.67742187 211.0625 233.6953125 C198.37844024 245.93818758 180.73999468 251.288963 163.49414062 251.08691406 C154.12082774 250.78258572 144.76261575 249.70321819 136.265625 245.4921875 C126.96577172 241.07347268 117.48318333 244.30221577 108.09643555 246.98803711 C103.35822711 248.30284726 99.90269403 249.01107498 95.015625 247.6796875 C93.44079403 241.89902054 94.86020529 237.5637554 96.453125 231.9921875 C99.69788534 219.68516417 99.86994933 212.07014976 95.26171875 200.0078125 C89.21128098 183.84802259 90.76492653 165.40206935 97.67578125 149.765625 C102.15415276 140.4041243 108.50168222 131.35633261 117.02197266 125.23924255 C121.33551888 122.02868737 121.33551888 122.02868737 123.71936035 117.35684204 C123.93878281 114.66230154 123.91776941 112.07158449 123.796875 109.37109375 C123.78881836 108.51318237 123.78076172 107.655271 123.77246094 106.7713623 C123.73088573 103.59408918 123.61919178 100.41804438 123.515625 97.2421875 C123.350625 90.1265625 123.185625 83.0109375 123.015625 75.6796875 C107.505625 75.3496875 91.995625 75.0196875 76.015625 74.6796875 C76.015625 81.2796875 76.015625 87.8796875 76.015625 94.6796875 C73.10564359 100.49965032 71.46581178 102.98397453 65.78761196 105.77472115 C62.40871411 106.87782477 59.59455529 106.92074159 56.03883362 106.90914917 C55.34867454 106.90959673 54.65851546 106.91004429 53.94744247 106.91050541 C51.64134667 106.90945747 49.33558129 106.89396076 47.02954102 106.87841797 C45.37353686 106.87453858 43.71753057 106.87149252 42.06152344 106.86921692 C37.56768356 106.86014168 33.07400063 106.83792831 28.58022809 106.81227255 C24.82771031 106.79171552 21.07517765 106.7767446 17.32263511 106.76151288 C8.4694982 106.72515766 -0.38352864 106.67731273 -9.23657227 106.62304688 C-18.36774468 106.56733835 -27.49881435 106.53390169 -36.6301226 106.51093948 C-44.47238589 106.49026555 -52.31448217 106.45430299 -60.15662628 106.4064151 C-64.83934884 106.37806589 -69.52190248 106.35585133 -74.20471001 106.34893417 C-78.6084918 106.34188338 -83.01175632 106.31578935 -87.41535187 106.27510643 C-89.03019547 106.26340275 -90.64510448 106.25845297 -92.25998878 106.26080132 C-94.46744245 106.26294805 -96.67335843 106.24056666 -98.88059998 106.21212769 C-100.11483924 106.20584288 -101.3490785 106.19955807 -102.62071896 106.19308281 C-107.90107187 105.38714178 -110.96286792 102.90283859 -114.33056641 98.87036133 C-117.33177148 93.00089139 -116.51433428 86.04595572 -116.4453125 79.62890625 C-116.44292538 78.16396751 -116.44202332 76.69902567 -116.4425354 75.23408508 C-116.43941948 72.17693689 -116.42294013 69.12026171 -116.39599609 66.06323242 C-116.36186672 62.1411135 -116.35437241 58.21950941 -116.35588646 54.29725933 C-116.35534355 51.27841767 -116.3443916 48.25968895 -116.32988358 45.24088478 C-116.32351492 43.79397243 -116.31957652 42.3470473 -116.31809616 40.90012169 C-116.31377259 38.88478368 -116.29470324 36.86949342 -116.27490234 34.85424805 C-116.26727875 33.70731979 -116.25965515 32.56039154 -116.25180054 31.37870789 C-115.984375 28.6796875 -115.984375 28.6796875 -113.984375 26.6796875 C-111.60011292 26.40794373 -111.60011292 26.40794373 -108.57250977 26.37670898 C-107.44116104 26.36006699 -106.30981232 26.34342499 -105.1441803 26.32627869 C-103.91710861 26.31786453 -102.69003693 26.30945038 -101.42578125 26.30078125 C-100.17055161 26.28378677 -98.91532196 26.2667923 -97.62205505 26.24928284 C-94.28099775 26.20504615 -90.94006288 26.16877481 -87.59887695 26.13708496 C-82.89327816 26.09145661 -78.18782864 26.03545997 -73.48240662 25.97438049 C-70.97617139 25.94238335 -68.46986473 25.91550588 -65.96351624 25.89414978 C-64.82901535 25.88065994 -63.69451447 25.8671701 -62.52563477 25.85327148 C-61.52573013 25.84375961 -60.5258255 25.83424774 -59.49562073 25.82444763 C-56.85592418 25.78193039 -56.85592418 25.78193039 -53.984375 24.6796875 C-52.92685408 22.13808261 -52.02647085 19.6629973 -51.171875 17.0546875 C-47.3360123 6.23869546 -42.45367021 0.82795478 -31.984375 -4.3203125 C-21.74926996 -7.92884312 -8.81597528 -5.86574733 0 0 Z " fill="#80D261" transform="translate(275.984375,5.3203125)"/>
<path d="M0 0 C1.55512163 -0.01713473 3.11024419 -0.03418547 4.66536713 -0.05120087 C5.5313759 -0.06070503 6.39738467 -0.07020919 7.28963614 -0.08000135 C11.21345408 -0.12081144 15.1373219 -0.14242344 19.0612793 -0.16479492 C21.22343321 -0.17989444 23.38555643 -0.20037571 25.54760742 -0.22631836 C28.652909 -0.26265017 31.75780614 -0.27971462 34.86328125 -0.29296875 C35.83211746 -0.30845261 36.80095367 -0.32393646 37.79914856 -0.33988953 C39.15020943 -0.34022942 39.15020943 -0.34022942 40.52856445 -0.34057617 C41.32132278 -0.34723801 42.11408112 -0.35389984 42.93086243 -0.36076355 C45.57644993 0.10050667 46.43414388 0.83921994 48 3 C48.44151306 4.88122559 48.44151306 4.88122559 48.53100586 7.02148438 C48.56951157 7.82662476 48.60801727 8.63176514 48.64768982 9.46130371 C48.66985062 10.33001099 48.69201141 11.19871826 48.71484375 12.09375 C48.73905899 12.99565063 48.76327423 13.89755127 48.78822327 14.82678223 C48.82972705 16.73981482 48.86190236 18.65306898 48.88549805 20.56640625 C48.91992399 22.508482 48.98108142 24.45028362 49.07006836 26.390625 C49.84780007 43.35299701 49.84780007 43.35299701 45.39404297 48.66503906 C42.53251805 51.49368248 39.32173565 53.73561637 36 56 C23.64527137 67.6010511 17.17845848 84.74340776 16.58300781 101.46313477 C16.48527651 111.7656432 18.00094134 121.71187257 22.1875 131.1875 C26.26250316 140.99593784 23.4962729 150.08911742 20.77954102 159.91943359 C19.55229466 164.40462798 18.69315279 168.29756656 19 173 C26.09995575 172.65865597 32.71507872 171.19986469 39.55273438 169.37207031 C42.46243626 168.60002186 44.97378771 168 48 168 C48.06839742 197.1221625 48.12150815 226.24431718 48.15319599 255.36654391 C48.15694823 258.80254959 48.16083119 262.23855511 48.16479492 265.67456055 C48.16558185 266.3586244 48.16636878 267.04268825 48.16717956 267.74748131 C48.18024324 278.83233895 48.20390235 289.91715004 48.23145839 301.00198004 C48.25948588 312.37104857 48.27594597 323.74008253 48.28226548 335.10918778 C48.28618497 341.49715284 48.29543083 347.88501223 48.31719017 354.2729435 C48.33748802 360.28025066 48.3438474 366.2874082 48.33932304 372.2947464 C48.34015125 374.5043106 48.34615658 376.71387959 48.35761642 378.92341423 C48.3724556 381.93096616 48.36898498 384.93794681 48.36076355 387.94551086 C48.36950207 388.8277995 48.3782406 389.71008814 48.38724393 390.61911279 C48.34340821 396.51709136 48.34340821 396.51709136 46.77473241 398.72299987 C44.46184858 400.38722425 43.07338892 400.37590448 40.23513794 400.37752342 C39.24869734 400.38534666 38.26225674 400.39316991 37.245924 400.40123022 C36.15946146 400.39453805 35.07299892 400.38784589 33.95361328 400.38095093 C32.80160494 400.3856309 31.6495966 400.39031087 30.46267891 400.39513266 C27.25988915 400.4050501 24.05743864 400.40145138 20.85465717 400.39217401 C17.40265885 400.38540283 13.95070736 400.39585511 10.49871826 400.40411377 C3.73425106 400.41747403 -3.03011645 400.4145632 -9.79458761 400.40587585 C-15.29078078 400.3991087 -20.78694595 400.39817837 -26.28314209 400.4014473 C-27.06452132 400.401907 -27.84590055 400.40236669 -28.65095794 400.40284032 C-30.23817016 400.40379947 -31.82538236 400.40477211 -33.41259456 400.4057581 C-48.3060887 400.41431871 -63.1995275 400.40446736 -78.09301257 400.388357 C-90.88039548 400.3749532 -103.66769669 400.37728111 -116.45507812 400.39111328 C-131.2942165 400.40715727 -146.13330633 400.41349467 -160.97245216 400.40427649 C-162.55392074 400.40332081 -164.13538932 400.4023777 -165.71685791 400.4014473 C-166.8841159 400.40075306 -166.8841159 400.40075306 -168.07495487 400.40004479 C-173.56640019 400.39745135 -179.0578148 400.40183351 -184.54925537 400.40888596 C-191.23884837 400.41728806 -197.92833573 400.41504812 -204.61791658 400.39904372 C-208.03296761 400.3911435 -211.44784232 400.38809894 -214.86289215 400.39799118 C-218.55997753 400.40613626 -222.25656031 400.39597001 -225.95361328 400.38095093 C-227.04007582 400.38764309 -228.12653835 400.39433526 -229.245924 400.40123022 C-230.2323646 400.39340697 -231.2188052 400.38558373 -232.23513794 400.37752342 C-233.08902163 400.37703637 -233.94290531 400.37654931 -234.82266426 400.37604749 C-237 400 -237 400 -238.77949333 398.74080908 C-240.29712563 396.57620961 -240.34883155 395.39508304 -240.29296875 392.76953125 C-240.28330078 391.96708984 -240.27363281 391.16464844 -240.26367188 390.33789062 C-240.23853516 389.50451172 -240.21339844 388.67113281 -240.1875 387.8125 C-240.17396484 386.96751953 -240.16042969 386.12253906 -240.14648438 385.25195312 C-240.11115799 383.16769616 -240.05735139 381.08376723 -240 379 C-238.94331714 378.99853344 -237.88663427 378.99706688 -236.79793072 378.99555588 C-211.06573734 378.95893245 -185.33367384 378.89944548 -159.60158825 378.81609726 C-147.15764848 378.77631762 -134.71377185 378.74391961 -122.26977539 378.72900391 C-111.42137622 378.71598189 -100.57311605 378.68900297 -89.72479516 378.64538693 C-83.98268468 378.62278473 -78.24074556 378.60708859 -72.49858665 378.60811615 C-67.08865999 378.60886348 -61.67911196 378.59088297 -56.26928329 378.55883217 C-54.28886327 378.55034657 -52.30840072 378.54857409 -50.3279705 378.55419731 C-34.33162737 378.59355072 -23.29269709 376.72999839 -11.28515625 365.37890625 C-4.33190759 358.00103172 -0.87022593 348.41343623 -0.87974548 338.38059902 C-0.87837113 337.25435759 -0.87699678 336.12811616 -0.87558079 334.9677462 C-0.87917575 333.73528555 -0.88277071 332.50282491 -0.88647461 331.23301697 C-0.88625132 329.26316931 -0.88625132 329.26316931 -0.88602352 327.25352675 C-0.88572795 323.60931251 -0.89166345 319.96513085 -0.89859343 316.32092416 C-0.90496699 312.38944264 -0.90553663 308.45795989 -0.9067688 304.526474 C-0.90965685 297.71070268 -0.9160992 290.89494217 -0.92483521 284.07917595 C-0.93739929 274.20294086 -0.94346879 264.32670977 -0.94776857 254.45046801 C-0.95483949 238.39820923 -0.96564074 222.34595547 -0.97949219 206.29370117 C-0.98032 205.3328157 -0.98114781 204.37193023 -0.98200071 203.38192702 C-0.98873852 195.59412119 -0.99565736 187.80631552 -1.00260353 180.01850986 C-1.00865186 173.23296172 -1.0146342 166.44741353 -1.02050781 159.66186523 C-1.02133594 158.70670035 -1.02216407 157.75153546 -1.02301729 156.76742619 C-1.03674364 140.7933175 -1.04648243 124.81920873 -1.05341816 108.84509569 C-1.05788081 99.00626937 -1.06588229 89.16745827 -1.07856297 79.32863904 C-1.08704369 72.57024293 -1.09189203 65.81185029 -1.09398818 59.05344921 C-1.09532201 55.16444129 -1.09825628 51.27545306 -1.10574722 47.38645172 C-1.13521519 31.5649015 -1.04560239 15.79374316 0 0 Z " fill="#D3F1F5" transform="translate(352,80)"/>
<path d="M0 0 C1.86136345 0.00022659 1.86136345 0.00022659 3.7603302 0.00045776 C5.1041378 0.01066936 6.44794374 0.02110132 7.79174805 0.03173828 C9.1746551 0.03547147 10.55756481 0.038317 11.94047546 0.04031372 C15.5687702 0.04792616 19.19690317 0.06755387 22.82513428 0.08972168 C26.53208183 0.11023178 30.23905647 0.11943625 33.94604492 0.12939453 C41.21116145 0.1497393 48.47583455 0.18889135 55.7409668 0.22705078 C55.7409668 10.78705078 55.7409668 21.34705078 55.7409668 32.22705078 C52.51573242 32.27603516 49.29049805 32.32501953 45.9675293 32.37548828 C42.85322315 32.42945594 39.73899569 32.48677999 36.62475586 32.54443359 C34.45586987 32.58278069 32.28691902 32.61762333 30.11791992 32.64892578 C27.00505348 32.69445216 23.89263574 32.75246651 20.7800293 32.81298828 C19.8060318 32.82453949 18.8320343 32.8360907 17.82852173 32.84799194 C16.47734756 32.87779648 16.47734756 32.87779648 15.09887695 32.90820312 C14.30389801 32.92152679 13.50891907 32.93485046 12.68984985 32.94857788 C10.50631308 33.06172087 10.50631308 33.06172087 8.7409668 35.22705078 C8.16751773 41.08385301 8.1131916 46.94570339 8.04077148 52.82788086 C8.00777096 54.79027951 7.95334186 56.75244358 7.87670898 58.71362305 C7.09083104 70.07977098 7.09083104 70.07977098 10.85766602 80.41162109 C13.3737423 82.66580961 15.89896526 84.41408643 18.7409668 86.22705078 C31.70606097 98.50777419 39.55621652 115.05690254 40.15795898 132.9777832 C40.25912863 144.38225238 38.60027765 155.33983291 33.51049805 165.65283203 C31.29920582 173.04999739 33.21817651 180.19264277 35.2409668 187.41455078 C38.35002996 198.66599827 38.35002996 198.66599827 37.7409668 203.22705078 C36.51049805 205.10595703 36.51049805 205.10595703 34.7409668 206.22705078 C29.00088222 206.84729568 23.21897137 204.83085988 17.8034668 203.16455078 C6.77947604 199.92989546 -0.25928892 200.91276035 -10.94262695 204.98095703 C-27.35528809 211.14778731 -46.23514645 209.68057529 -62.02856445 202.56689453 C-71.16339379 198.19087298 -78.21751271 192.4392748 -85.2590332 185.22705078 C-85.92418945 184.58251953 -86.5893457 183.93798828 -87.2746582 183.27392578 C-100.42578974 169.64887959 -104.90896061 151.47672818 -104.7277832 133.12402344 C-104.06040835 110.99985185 -94.53457674 94.81070931 -78.8605957 79.95361328 C-66.17294205 68.95202656 -50.43997572 63.99686845 -33.86450195 64.16064453 C-32.93907593 64.16543823 -32.0136499 64.17023193 -31.06018066 64.1751709 C-28.79305438 64.18760754 -26.52608324 64.20502898 -24.2590332 64.22705078 C-24.26791565 63.66852417 -24.2767981 63.10999756 -24.28594971 62.5345459 C-24.37479944 56.69419645 -24.43492265 50.85404062 -24.47875977 45.01318359 C-24.49881084 42.8366719 -24.52605891 40.66021364 -24.56079102 38.48388672 C-24.60959532 35.34605686 -24.63206758 32.20894243 -24.6496582 29.07080078 C-24.67030334 28.10589722 -24.69094849 27.14099365 -24.71221924 26.14685059 C-24.71467171 18.67596931 -23.0665757 13.39118634 -18.07543945 7.76611328 C-17.33165039 7.13447266 -16.58786133 6.50283203 -15.8215332 5.85205078 C-15.08032227 5.20494141 -14.33911133 4.55783203 -13.57543945 3.89111328 C-9.14208182 0.70627289 -5.41332195 -0.02205019 0 0 Z " fill="#E94545" transform="translate(104.259033203125,47.77294921875)"/>
<path d="M0 0 C7.49232023 5.85937864 10.48884919 13.27750224 13.0234375 22.23828125 C13.51457031 23.44677734 13.51457031 23.44677734 14.015625 24.6796875 C17.11516993 25.71286914 19.30591337 25.82234571 22.55688477 25.85327148 C24.25863609 25.87350624 24.25863609 25.87350624 25.99476624 25.89414978 C27.21981369 25.90458817 28.44486115 25.91502655 29.70703125 25.92578125 C32.28581088 25.95870457 34.86458684 25.99191646 37.44335938 26.02539062 C41.52103378 26.07397257 45.59873355 26.11781799 49.67651367 26.15649414 C53.60350226 26.19430644 57.53022004 26.2476164 61.45703125 26.30078125 C62.68410294 26.3091954 63.91117462 26.31760956 65.1754303 26.32627869 C66.87245338 26.35124168 66.87245338 26.35124168 68.60375977 26.37670898 C69.6028688 26.38701645 70.60197784 26.39732391 71.63136292 26.40794373 C74.015625 26.6796875 74.015625 26.6796875 76.015625 28.6796875 C76.27632141 31.38543701 76.27632141 31.38543701 76.2902832 34.87011719 C76.29981522 36.1719696 76.30934723 37.47382202 76.31916809 38.81512451 C76.31890659 40.24393745 76.31796918 41.6727504 76.31640625 43.1015625 C76.32029291 44.56406781 76.32462752 46.02657199 76.32939148 47.48907471 C76.33686225 50.55915986 76.33655744 53.62913007 76.33129883 56.69921875 C76.32552008 60.62450647 76.34239184 64.54931989 76.3656435 68.47452927 C76.38041632 71.49781018 76.38124745 74.52097802 76.37813377 77.54428864 C76.37864577 78.99070419 76.38386071 80.43712628 76.39394569 81.88350677 C76.40635236 83.91286081 76.39755595 85.94231051 76.38793945 87.97167969 C76.38856888 89.12480652 76.3891983 90.27793335 76.3898468 91.46600342 C75.82541051 96.31318208 74.17055196 99.58554617 70.640625 102.9296875 C65.72814841 106.20467189 61.93188684 106.92836179 56.03883362 106.90914917 C55.34867454 106.90959673 54.65851546 106.91004429 53.94744247 106.91050541 C51.64134667 106.90945747 49.33558129 106.89396076 47.02954102 106.87841797 C45.37353686 106.87453858 43.71753057 106.87149252 42.06152344 106.86921692 C37.56768356 106.86014168 33.07400063 106.83792831 28.58022809 106.81227255 C24.82771031 106.79171552 21.07517765 106.7767446 17.32263511 106.76151288 C8.4694982 106.72515766 -0.38352864 106.67731273 -9.23657227 106.62304688 C-18.36774468 106.56733835 -27.49881435 106.53390169 -36.6301226 106.51093948 C-44.47238589 106.49026555 -52.31448217 106.45430299 -60.15662628 106.4064151 C-64.83934884 106.37806589 -69.52190248 106.35585133 -74.20471001 106.34893417 C-78.6084918 106.34188338 -83.01175632 106.31578935 -87.41535187 106.27510643 C-89.03019547 106.26340275 -90.64510448 106.25845297 -92.25998878 106.26080132 C-94.46744245 106.26294805 -96.67335843 106.24056666 -98.88059998 106.21212769 C-100.11483924 106.20584288 -101.3490785 106.19955807 -102.62071896 106.19308281 C-107.90107187 105.38714178 -110.96286792 102.90283859 -114.33056641 98.87036133 C-117.33177148 93.00089139 -116.51433428 86.04595572 -116.4453125 79.62890625 C-116.44292538 78.16396751 -116.44202332 76.69902567 -116.4425354 75.23408508 C-116.43941948 72.17693689 -116.42294013 69.12026171 -116.39599609 66.06323242 C-116.36186672 62.1411135 -116.35437241 58.21950941 -116.35588646 54.29725933 C-116.35534355 51.27841767 -116.3443916 48.25968895 -116.32988358 45.24088478 C-116.32351492 43.79397243 -116.31957652 42.3470473 -116.31809616 40.90012169 C-116.31377259 38.88478368 -116.29470324 36.86949342 -116.27490234 34.85424805 C-116.26727875 33.70731979 -116.25965515 32.56039154 -116.25180054 31.37870789 C-115.984375 28.6796875 -115.984375 28.6796875 -113.984375 26.6796875 C-111.60011292 26.40794373 -111.60011292 26.40794373 -108.57250977 26.37670898 C-107.44116104 26.36006699 -106.30981232 26.34342499 -105.1441803 26.32627869 C-103.91710861 26.31786453 -102.69003693 26.30945038 -101.42578125 26.30078125 C-100.17055161 26.28378677 -98.91532196 26.2667923 -97.62205505 26.24928284 C-94.28099775 26.20504615 -90.94006288 26.16877481 -87.59887695 26.13708496 C-82.89327816 26.09145661 -78.18782864 26.03545997 -73.48240662 25.97438049 C-70.97617139 25.94238335 -68.46986473 25.91550588 -65.96351624 25.89414978 C-64.82901535 25.88065994 -63.69451447 25.8671701 -62.52563477 25.85327148 C-61.52573013 25.84375961 -60.5258255 25.83424774 -59.49562073 25.82444763 C-56.85592418 25.78193039 -56.85592418 25.78193039 -53.984375 24.6796875 C-52.92685408 22.13808261 -52.02647085 19.6629973 -51.171875 17.0546875 C-47.3360123 6.23869546 -42.45367021 0.82795478 -31.984375 -4.3203125 C-21.74926996 -7.92884312 -8.81597528 -5.86574733 0 0 Z " fill="#017297" transform="translate(275.984375,5.3203125)"/>
<path d="M0 0 C1.86136345 0.00022659 1.86136345 0.00022659 3.7603302 0.00045776 C5.1041378 0.01066936 6.44794374 0.02110132 7.79174805 0.03173828 C9.1746551 0.03547147 10.55756481 0.038317 11.94047546 0.04031372 C15.5687702 0.04792616 19.19690317 0.06755387 22.82513428 0.08972168 C26.53208183 0.11023178 30.23905647 0.11943625 33.94604492 0.12939453 C41.21116145 0.1497393 48.47583455 0.18889135 55.7409668 0.22705078 C55.7409668 10.78705078 55.7409668 21.34705078 55.7409668 32.22705078 C52.51573242 32.27603516 49.29049805 32.32501953 45.9675293 32.37548828 C42.85322315 32.42945594 39.73899569 32.48677999 36.62475586 32.54443359 C34.45586987 32.58278069 32.28691902 32.61762333 30.11791992 32.64892578 C27.00505348 32.69445216 23.89263574 32.75246651 20.7800293 32.81298828 C19.8060318 32.82453949 18.8320343 32.8360907 17.82852173 32.84799194 C16.92773895 32.86786163 16.02695618 32.88773132 15.09887695 32.90820312 C14.30389801 32.92152679 13.50891907 32.93485046 12.68984985 32.94857788 C10.50631308 33.06172087 10.50631308 33.06172087 8.7409668 35.22705078 C8.41207292 37.08241502 8.41207292 37.08241502 8.42211914 39.21777344 C8.40224945 40.03847321 8.38237976 40.85917297 8.36190796 41.70474243 C8.34458115 43.034496 8.34458115 43.034496 8.3269043 44.39111328 C8.30753815 45.29832123 8.288172 46.20552917 8.26821899 47.14022827 C8.20833464 50.04407282 8.16200263 52.94795682 8.1159668 55.85205078 C8.07779515 57.81821411 8.03874391 59.78436058 7.9987793 61.75048828 C7.90262589 66.57587248 7.8186278 71.40133496 7.7409668 76.22705078 C4.2658297 74.85114316 0.87464672 73.37750583 -2.5090332 71.78955078 C-9.76825645 68.48192083 -16.3485927 66.31965306 -24.2590332 65.22705078 C-24.36086671 58.68014893 -24.4306799 52.13345307 -24.47875977 45.5859375 C-24.49881367 43.36092496 -24.52606385 41.13596472 -24.56079102 38.91113281 C-24.60958255 35.70380713 -24.63206482 32.49718127 -24.6496582 29.28955078 C-24.67030334 28.30277344 -24.69094849 27.31599609 -24.71221924 26.29931641 C-24.71464266 18.75633585 -23.11698953 13.44800336 -18.07543945 7.76611328 C-16.95975586 6.81865234 -16.95975586 6.81865234 -15.8215332 5.85205078 C-15.08032227 5.20494141 -14.33911133 4.55783203 -13.57543945 3.89111328 C-9.14208182 0.70627289 -5.41332195 -0.02205019 0 0 Z " fill="#FD9638" transform="translate(104.259033203125,47.77294921875)"/>
<path d="M0 0 C7.93890768 -0.08405902 15.87618848 -0.16417444 23.81515503 -0.20700073 C27.5127074 -0.22805747 31.20988847 -0.25615984 34.90722656 -0.30175781 C38.47342061 -0.34545943 42.03925631 -0.36918776 45.60569763 -0.37950897 C47.61750112 -0.39041494 49.62916196 -0.42160191 51.64074707 -0.45318604 C60.23134236 -0.45527797 65.86187855 0.32823827 72.4609375 6.18359375 C73.40839844 7.29927734 73.40839844 7.29927734 74.375 8.4375 C75.34566406 9.54931641 75.34566406 9.54931641 76.3359375 10.68359375 C79.15072551 14.60183152 80.25295966 18.07598336 80.22705078 22.88208008 C80.22689972 23.82267776 80.22674866 24.76327545 80.22659302 25.7323761 C80.21627045 26.7346373 80.20594788 27.7368985 80.1953125 28.76953125 C80.1924826 29.80567062 80.18965271 30.84181 80.18673706 31.90934753 C80.17556454 35.21051707 80.15046505 38.51141281 80.125 41.8125 C80.11496643 44.05403253 80.10584124 46.29556933 80.09765625 48.53710938 C80.07563478 54.0248326 80.04218621 59.51239674 80 65 C78.63633301 65.25197144 78.63633301 65.25197144 77.24511719 65.5090332 C69.9968495 66.93830278 63.6973524 68.57880984 57.25 72.1875 C50.17250438 76 50.17250438 76 48 76 C47.67 61.81 47.34 47.62 47 33 C23.735 32.505 23.735 32.505 0 32 C0 21.44 0 10.88 0 0 Z " fill="#FD9738" transform="translate(352,48)"/>
<path d="M0 0 C0.83096191 -0.00945648 1.66192383 -0.01891296 2.51806641 -0.02865601 C3.41187012 -0.02258331 4.30567383 -0.01651062 5.2265625 -0.01025391 C6.14743652 -0.01312408 7.06831055 -0.01599426 8.01708984 -0.01895142 C9.96387344 -0.02099272 11.91067752 -0.01545824 13.85742188 -0.00292969 C16.84030949 0.01312303 19.82184211 -0.00277613 22.8046875 -0.02197266 C24.6953155 -0.01999024 26.58594265 -0.01614659 28.4765625 -0.01025391 C29.37036621 -0.0163266 30.26416992 -0.02239929 31.18505859 -0.02865601 C32.43150146 -0.01447128 32.43150146 -0.01447128 33.703125 0 C34.79874756 0.00358017 34.79874756 0.00358017 35.91650391 0.00723267 C38.45986924 0.50793967 39.33324096 1.30569741 40.8515625 3.38818359 C41.23251343 5.32324219 41.23251343 5.32324219 41.23974609 7.53662109 C41.24920258 8.36758301 41.25865906 9.19854492 41.2684021 10.0546875 C41.26232941 10.94849121 41.25625671 11.84229492 41.25 12.76318359 C41.25287018 13.68405762 41.25574036 14.60493164 41.25869751 15.55371094 C41.26073881 17.50049454 41.25520433 19.44729861 41.24267578 21.39404297 C41.22662306 24.37693059 41.24252222 27.35846321 41.26171875 30.34130859 C41.25973633 32.23193659 41.25589268 34.12256374 41.25 36.01318359 C41.25910904 37.35388916 41.25910904 37.35388916 41.2684021 38.72167969 C41.25894562 39.5526416 41.24948914 40.38360352 41.23974609 41.23974609 C41.23735931 41.97016113 41.23497253 42.70057617 41.23251343 43.453125 C40.73180643 45.99649034 39.93404868 46.86986205 37.8515625 48.38818359 C35.91650391 48.76913452 35.91650391 48.76913452 33.703125 48.77636719 C32.45668213 48.79055191 32.45668213 48.79055191 31.18505859 48.80502319 C30.29125488 48.7989505 29.39745117 48.79287781 28.4765625 48.78662109 C27.09525146 48.79092636 27.09525146 48.79092636 25.68603516 48.7953186 C23.73925156 48.79735991 21.79244748 48.79182543 19.84570312 48.77929688 C16.86281551 48.76324415 13.88128289 48.77914331 10.8984375 48.79833984 C9.0078095 48.79635742 7.11718235 48.79251377 5.2265625 48.78662109 C4.33275879 48.79269379 3.43895508 48.79876648 2.51806641 48.80502319 C1.27162354 48.79083847 1.27162354 48.79083847 0 48.77636719 C-0.73041504 48.77398041 -1.46083008 48.77159363 -2.21337891 48.76913452 C-4.75674424 48.26842752 -5.63011596 47.47066978 -7.1484375 45.38818359 C-7.52938843 43.453125 -7.52938843 43.453125 -7.53662109 41.23974609 C-7.54607758 40.40878418 -7.55553406 39.57782227 -7.5652771 38.72167969 C-7.55920441 37.82787598 -7.55313171 36.93407227 -7.546875 36.01318359 C-7.54974518 35.09230957 -7.55261536 34.17143555 -7.55557251 33.22265625 C-7.55761381 31.27587265 -7.55207933 29.32906857 -7.53955078 27.38232422 C-7.52349806 24.3994366 -7.53939722 21.41790398 -7.55859375 18.43505859 C-7.55661133 16.5444306 -7.55276768 14.65380345 -7.546875 12.76318359 C-7.55294769 11.86937988 -7.55902039 10.97557617 -7.5652771 10.0546875 C-7.55582062 9.22372559 -7.54636414 8.39276367 -7.53662109 7.53662109 C-7.53423431 6.80620605 -7.53184753 6.07579102 -7.52938843 5.32324219 C-6.68783977 1.04855522 -4.04755425 0.01322621 0 0 Z " fill="#6BD9E7" transform="translate(183.1484375,351.61181640625)"/>
<path d="M0 0 C0.83096191 -0.00945648 1.66192383 -0.01891296 2.51806641 -0.02865601 C3.41187012 -0.02258331 4.30567383 -0.01651062 5.2265625 -0.01025391 C6.14743652 -0.01312408 7.06831055 -0.01599426 8.01708984 -0.01895142 C9.96387344 -0.02099272 11.91067752 -0.01545824 13.85742188 -0.00292969 C16.84030949 0.01312303 19.82184211 -0.00277613 22.8046875 -0.02197266 C24.6953155 -0.01999024 26.58594265 -0.01614659 28.4765625 -0.01025391 C29.37036621 -0.0163266 30.26416992 -0.02239929 31.18505859 -0.02865601 C32.43150146 -0.01447128 32.43150146 -0.01447128 33.703125 0 C34.79874756 0.00358017 34.79874756 0.00358017 35.91650391 0.00723267 C38.45986924 0.50793967 39.33324096 1.30569741 40.8515625 3.38818359 C41.23251343 5.32324219 41.23251343 5.32324219 41.23974609 7.53662109 C41.24920258 8.36758301 41.25865906 9.19854492 41.2684021 10.0546875 C41.26232941 10.94849121 41.25625671 11.84229492 41.25 12.76318359 C41.25287018 13.68405762 41.25574036 14.60493164 41.25869751 15.55371094 C41.26073881 17.50049454 41.25520433 19.44729861 41.24267578 21.39404297 C41.22662306 24.37693059 41.24252222 27.35846321 41.26171875 30.34130859 C41.25973633 32.23193659 41.25589268 34.12256374 41.25 36.01318359 C41.25910904 37.35388916 41.25910904 37.35388916 41.2684021 38.72167969 C41.25894562 39.5526416 41.24948914 40.38360352 41.23974609 41.23974609 C41.23735931 41.97016113 41.23497253 42.70057617 41.23251343 43.453125 C40.73180643 45.99649034 39.93404868 46.86986205 37.8515625 48.38818359 C35.91650391 48.76913452 35.91650391 48.76913452 33.703125 48.77636719 C32.45668213 48.79055191 32.45668213 48.79055191 31.18505859 48.80502319 C30.29125488 48.7989505 29.39745117 48.79287781 28.4765625 48.78662109 C27.09525146 48.79092636 27.09525146 48.79092636 25.68603516 48.7953186 C23.73925156 48.79735991 21.79244748 48.79182543 19.84570312 48.77929688 C16.86281551 48.76324415 13.88128289 48.77914331 10.8984375 48.79833984 C9.0078095 48.79635742 7.11718235 48.79251377 5.2265625 48.78662109 C4.33275879 48.79269379 3.43895508 48.79876648 2.51806641 48.80502319 C1.27162354 48.79083847 1.27162354 48.79083847 0 48.77636719 C-0.73041504 48.77398041 -1.46083008 48.77159363 -2.21337891 48.76913452 C-4.75674424 48.26842752 -5.63011596 47.47066978 -7.1484375 45.38818359 C-7.52938843 43.453125 -7.52938843 43.453125 -7.53662109 41.23974609 C-7.54607758 40.40878418 -7.55553406 39.57782227 -7.5652771 38.72167969 C-7.55920441 37.82787598 -7.55313171 36.93407227 -7.546875 36.01318359 C-7.54974518 35.09230957 -7.55261536 34.17143555 -7.55557251 33.22265625 C-7.55761381 31.27587265 -7.55207933 29.32906857 -7.53955078 27.38232422 C-7.52349806 24.3994366 -7.53939722 21.41790398 -7.55859375 18.43505859 C-7.55661133 16.5444306 -7.55276768 14.65380345 -7.546875 12.76318359 C-7.55294769 11.86937988 -7.55902039 10.97557617 -7.5652771 10.0546875 C-7.55582062 9.22372559 -7.54636414 8.39276367 -7.53662109 7.53662109 C-7.53423431 6.80620605 -7.53184753 6.07579102 -7.52938843 5.32324219 C-6.68783977 1.04855522 -4.04755425 0.01322621 0 0 Z " fill="#6BD9E7" transform="translate(183.1484375,255.61181640625)"/>
<path d="M0 0 C0.83096191 -0.00945648 1.66192383 -0.01891296 2.51806641 -0.02865601 C3.41187012 -0.02258331 4.30567383 -0.01651062 5.2265625 -0.01025391 C6.14743652 -0.01312408 7.06831055 -0.01599426 8.01708984 -0.01895142 C9.96387344 -0.02099272 11.91067752 -0.01545824 13.85742188 -0.00292969 C16.84030949 0.01312303 19.82184211 -0.00277613 22.8046875 -0.02197266 C24.6953155 -0.01999024 26.58594265 -0.01614659 28.4765625 -0.01025391 C29.37036621 -0.0163266 30.26416992 -0.02239929 31.18505859 -0.02865601 C32.43150146 -0.01447128 32.43150146 -0.01447128 33.703125 0 C34.79874756 0.00358017 34.79874756 0.00358017 35.91650391 0.00723267 C38.45986924 0.50793967 39.33324096 1.30569741 40.8515625 3.38818359 C41.23251343 5.32324219 41.23251343 5.32324219 41.23974609 7.53662109 C41.24920258 8.36758301 41.25865906 9.19854492 41.2684021 10.0546875 C41.26232941 10.94849121 41.25625671 11.84229492 41.25 12.76318359 C41.25287018 13.68405762 41.25574036 14.60493164 41.25869751 15.55371094 C41.26073881 17.50049454 41.25520433 19.44729861 41.24267578 21.39404297 C41.22662306 24.37693059 41.24252222 27.35846321 41.26171875 30.34130859 C41.25973633 32.23193659 41.25589268 34.12256374 41.25 36.01318359 C41.25910904 37.35388916 41.25910904 37.35388916 41.2684021 38.72167969 C41.25894562 39.5526416 41.24948914 40.38360352 41.23974609 41.23974609 C41.23735931 41.97016113 41.23497253 42.70057617 41.23251343 43.453125 C40.73180643 45.99649034 39.93404868 46.86986205 37.8515625 48.38818359 C35.91650391 48.76913452 35.91650391 48.76913452 33.703125 48.77636719 C32.45668213 48.79055191 32.45668213 48.79055191 31.18505859 48.80502319 C30.29125488 48.7989505 29.39745117 48.79287781 28.4765625 48.78662109 C27.09525146 48.79092636 27.09525146 48.79092636 25.68603516 48.7953186 C23.73925156 48.79735991 21.79244748 48.79182543 19.84570312 48.77929688 C16.86281551 48.76324415 13.88128289 48.77914331 10.8984375 48.79833984 C9.0078095 48.79635742 7.11718235 48.79251377 5.2265625 48.78662109 C4.33275879 48.79269379 3.43895508 48.79876648 2.51806641 48.80502319 C1.27162354 48.79083847 1.27162354 48.79083847 0 48.77636719 C-0.73041504 48.77398041 -1.46083008 48.77159363 -2.21337891 48.76913452 C-4.75674424 48.26842752 -5.63011596 47.47066978 -7.1484375 45.38818359 C-7.52938843 43.453125 -7.52938843 43.453125 -7.53662109 41.23974609 C-7.54607758 40.40878418 -7.55553406 39.57782227 -7.5652771 38.72167969 C-7.55920441 37.82787598 -7.55313171 36.93407227 -7.546875 36.01318359 C-7.54974518 35.09230957 -7.55261536 34.17143555 -7.55557251 33.22265625 C-7.55761381 31.27587265 -7.55207933 29.32906857 -7.53955078 27.38232422 C-7.52349806 24.3994366 -7.53939722 21.41790398 -7.55859375 18.43505859 C-7.55661133 16.5444306 -7.55276768 14.65380345 -7.546875 12.76318359 C-7.55294769 11.86937988 -7.55902039 10.97557617 -7.5652771 10.0546875 C-7.55582062 9.22372559 -7.54636414 8.39276367 -7.53662109 7.53662109 C-7.53423431 6.80620605 -7.53184753 6.07579102 -7.52938843 5.32324219 C-6.68783977 1.04855522 -4.04755425 0.01322621 0 0 Z " fill="#6BD9E7" transform="translate(183.1484375,159.61181640625)"/>
<path d="M0 0 C1.10619186 -0.0071553 2.21238373 -0.01431061 3.35209656 -0.02168274 C5.18097412 -0.02571609 5.18097412 -0.02571609 7.04679871 -0.02983093 C8.32653061 -0.03640213 9.60626251 -0.04297333 10.92477417 -0.04974365 C14.44140196 -0.0671576 17.95801615 -0.07770648 21.47467637 -0.08594918 C23.67145095 -0.09109854 25.86822131 -0.0971743 28.0649929 -0.10346031 C34.93728279 -0.12251356 41.80956192 -0.13674437 48.68187314 -0.14507228 C56.61649002 -0.15484606 64.55082802 -0.1811684 72.48534662 -0.22157317 C78.61705158 -0.25172668 84.74867657 -0.26654041 90.88045424 -0.26985329 C94.54327013 -0.27220469 98.20578815 -0.2811761 101.86852455 -0.30631447 C105.95547179 -0.33391089 110.04179551 -0.32976646 114.12882996 -0.32279968 C115.34200897 -0.33560974 116.55518799 -0.3484198 117.80513 -0.36161804 C125.98208322 -0.310679 125.98208322 -0.310679 130.00631714 1.99295044 C132.33212084 4.81471507 132.85657034 6.4886245 132.78190613 10.14717102 C131.01151164 12.89433489 129.71898769 14.67863024 126.78190613 16.14717102 C125.04482162 16.24882393 123.30385148 16.28663692 121.56381226 16.29434204 C120.45762039 16.30149734 119.35142853 16.30865265 118.2117157 16.31602478 C116.99246399 16.31871368 115.77321228 16.32140259 114.51701355 16.32417297 C113.23728165 16.33074417 111.95754974 16.33731537 110.63903809 16.34408569 C107.1224103 16.36149964 103.60579611 16.37204852 100.08913589 16.38029122 C97.8923613 16.38544058 95.69559095 16.39151634 93.49881935 16.39780235 C86.62652947 16.4168556 79.75425034 16.43108641 72.88193911 16.43941432 C64.94732224 16.4491881 57.01298424 16.47551044 49.07846564 16.51591522 C42.94676068 16.54606872 36.81513569 16.56088245 30.68335801 16.56419533 C27.02054212 16.56654673 23.3580241 16.57551815 19.6952877 16.60065651 C15.60834047 16.62825294 11.52201674 16.62410851 7.4349823 16.61714172 C6.22180328 16.62995178 5.00862427 16.64276184 3.75868225 16.65596008 C-4.41827097 16.60502104 -4.41827097 16.60502104 -8.44250488 14.3013916 C-10.76830858 11.47962697 -11.29275809 9.80571754 -11.21809387 6.14717102 C-7.93880606 1.05862097 -5.8661442 0.02597605 0 0 Z " fill="#015F80" transform="translate(195.2180938720703,71.85282897949219)"/>
<path d="M0 0 C4.90234393 2.10265045 8.41752477 6.64260686 12.01513672 10.45361328 C12.88976562 11.3553125 13.76439453 12.25701172 14.66552734 13.18603516 C16.81707559 15.40812597 18.95336391 17.64298542 21.07763672 19.89111328 C24.5539585 18.41779879 26.61811914 16.49128283 29.15966797 13.72314453 C29.92730469 12.91296875 30.69494141 12.10279297 31.48583984 11.26806641 C33.08910963 9.5579988 34.68032812 7.83655248 36.25927734 6.10400391 C42.16206079 -0.06507052 42.16206079 -0.06507052 46.99560547 -0.29638672 C50.76519418 1.15602769 52.17593822 2.3254286 54.07763672 5.89111328 C53.83195628 10.9303395 52.40248069 13.17305222 48.82373047 16.63330078 C47.96972656 17.47119141 47.11572266 18.30908203 46.23583984 19.17236328 C45.33800781 20.02830078 44.44017578 20.88423828 43.51513672 21.76611328 C42.6134375 22.64525391 41.71173828 23.52439453 40.78271484 24.43017578 C38.5585309 26.59551888 36.32352856 28.74833132 34.07763672 30.89111328 C35.51961174 34.23419039 37.31233228 36.30618016 39.95654297 38.78955078 C40.71257812 39.51658203 41.46861328 40.24361328 42.24755859 40.99267578 C43.84077383 42.5065554 45.43974217 44.01440368 47.04443359 45.51611328 C52.80934117 51.08902137 52.80934117 51.08902137 54.20263672 55.25439453 C54.07763672 57.89111328 54.07763672 57.89111328 52.51513672 60.70361328 C50.07763672 62.89111328 50.07763672 62.89111328 47.32763672 64.14111328 C42.08556387 63.73787691 39.67064357 60.51872373 36.07763672 56.89111328 C34.94425118 55.7692825 33.8100772 54.64824795 32.67529297 53.52783203 C29.45506744 50.33604985 26.26174496 47.11890593 23.07763672 43.89111328 C19.73455961 45.3330883 17.66256984 47.12580885 15.17919922 49.77001953 C14.45216797 50.52605469 13.72513672 51.28208984 12.97607422 52.06103516 C11.4621946 53.65425039 9.95434632 55.25321873 8.45263672 56.85791016 C2.87839992 62.62419221 2.87839992 62.62419221 -1.28564453 64.01220703 C-3.92236328 63.89111328 -3.92236328 63.89111328 -6.73486328 62.39111328 C-9.57345492 59.14700855 -9.8101944 57.16979963 -9.92236328 52.89111328 C-8.19995117 50.26049805 -8.19995117 50.26049805 -5.64501953 47.83251953 C-4.73945312 46.95273438 -3.83388672 46.07294922 -2.90087891 45.16650391 C-1.93859375 44.27125 -0.97630859 43.37599609 0.01513672 42.45361328 C0.98504416 41.52385557 1.95316629 40.59223162 2.91943359 39.65869141 C5.2885701 37.38384889 7.67429131 35.12969408 10.07763672 32.89111328 C8.63765497 29.54848082 6.85389421 27.4971866 4.19873047 25.02783203 C3.44269531 24.3053125 2.68666016 23.58279297 1.90771484 22.83837891 C0.31642721 21.33542397 -1.28253712 19.84055438 -2.88916016 18.35400391 C-9.33895633 12.14655703 -9.33895633 12.14655703 -10.07470703 8.03564453 C-9.92236328 4.89111328 -9.92236328 4.89111328 -7.92236328 1.89111328 C-4.88193118 -0.13584145 -3.56413089 -0.63668637 0 0 Z " fill="#E9F7F8" transform="translate(49.92236328125,152.10888671875)"/>
<path d="M0 0 C3.62493334 -0.05787784 7.24974857 -0.0935542 10.875 -0.125 C11.90753906 -0.14175781 12.94007813 -0.15851562 14.00390625 -0.17578125 C14.99003906 -0.18222656 15.97617187 -0.18867188 16.9921875 -0.1953125 C18.35899658 -0.21102295 18.35899658 -0.21102295 19.75341797 -0.22705078 C22 0 22 0 24 2 C24.26069641 4.70574951 24.26069641 4.70574951 24.2746582 8.19042969 C24.28895622 10.14320831 24.28895622 10.14320831 24.30354309 12.13543701 C24.30328159 13.56424995 24.30234418 14.9930629 24.30078125 16.421875 C24.30466791 17.88438031 24.30900252 19.34688449 24.31376648 20.80938721 C24.32123725 23.87947236 24.32093244 26.94944257 24.31567383 30.01953125 C24.30989508 33.94481897 24.32676684 37.86963239 24.3500185 41.79484177 C24.36479132 44.81812268 24.36562245 47.84129052 24.36250877 50.86460114 C24.36302077 52.31101669 24.36823571 53.75743878 24.37832069 55.20381927 C24.39072736 57.23317331 24.38193095 59.26262301 24.37231445 61.29199219 C24.37294388 62.44511902 24.3735733 63.59824585 24.3742218 64.78631592 C23.79650704 69.74752536 22.13117936 72.9791796 18.4375 76.3125 C15.01549319 78.68158164 13.32656113 79.12244916 9.2109375 79.09765625 C8.26992188 79.09443359 7.32890625 79.09121094 6.359375 79.08789062 C5.37453125 79.07951172 4.3896875 79.07113281 3.375 79.0625 C2.38242187 79.05798828 1.38984375 79.05347656 0.3671875 79.04882812 C-2.0886016 79.03702145 -4.54427104 79.020554 -7 79 C-6.2575 78.46375 -5.515 77.9275 -4.75 77.375 C-0.84967507 74.00653756 1.70560838 70.93590246 2.49447632 65.74835205 C2.49162628 64.57746033 2.48877625 63.4065686 2.48583984 62.20019531 C2.48963654 61.54904251 2.49343323 60.89788971 2.49734497 60.227005 C2.50470256 58.09354128 2.48344765 55.96146572 2.4609375 53.828125 C2.45855117 52.33933675 2.45764815 50.85054545 2.4581604 49.36175537 C2.45504122 46.25155617 2.43853827 43.14182085 2.41162109 40.03173828 C2.37752363 36.04121154 2.36999632 32.05119082 2.37151146 28.06053543 C2.37096848 24.99108025 2.36001498 21.92173612 2.34550858 18.85231781 C2.33913837 17.38028554 2.33520116 15.90824069 2.33372116 14.43619537 C2.32939704 12.38465257 2.31191992 10.33365307 2.29052734 8.28222656 C2.28290375 7.11451721 2.27528015 5.94680786 2.26742554 4.74371338 C2.27915165 1.85570087 2.27915165 1.85570087 0 0 Z " fill="#025F80" transform="translate(328,32)"/>
<path d="M0 0 C2.375 1.5 2.375 1.5 4 4 C4.66319723 8.1192133 4.95165559 10.54830905 2.63052368 14.08905029 C0.61095416 16.36569457 -1.50233013 18.47979457 -3.69921875 20.5859375 C-4.486418 21.36893219 -5.27361725 22.15192688 -6.08467102 22.95864868 C-7.74919375 24.60673684 -9.42330143 26.24519316 -11.10620117 27.87451172 C-13.68028158 30.36800756 -16.22381428 32.88966826 -18.76367188 35.41796875 C-20.38631623 37.01735624 -22.01061142 38.61507097 -23.63671875 40.2109375 C-24.39836838 40.96297455 -25.16001801 41.7150116 -25.94474792 42.48983765 C-26.66511734 43.18461212 -27.38548676 43.8793866 -28.12768555 44.59521484 C-28.75611862 45.20618011 -29.3845517 45.81714539 -30.0320282 46.44662476 C-33.48595563 49.17290639 -36.92930551 50.39103926 -41.3125 50.0625 C-44.99598854 49.48228749 -46.96823493 48.52001629 -49.703125 46 C-50.39188721 45.36908447 -51.08064941 44.73816895 -51.7902832 44.08813477 C-52.51948975 43.39905029 -53.24869629 42.70996582 -54 42 C-54.7633667 41.28577881 -55.5267334 40.57155762 -56.31323242 39.83569336 C-58.71364964 37.56136666 -61.07814503 35.25434407 -63.4375 32.9375 C-64.25154297 32.16083984 -65.06558594 31.38417969 -65.90429688 30.58398438 C-66.67708984 29.82279297 -67.44988281 29.06160156 -68.24609375 28.27734375 C-68.94404053 27.59921631 -69.6419873 26.92108887 -70.36108398 26.22241211 C-72.40540093 23.45026596 -72.79841919 21.41597755 -73 18 C-71.09420123 14.42662731 -69.5760741 13.25347261 -65.875 11.625 C-59.53094269 12.23894103 -56.31793775 16.58873507 -52 21 C-50.97308817 22.01867809 -49.9443996 23.03556777 -48.9140625 24.05078125 C-46.25458139 26.67982965 -43.62177227 29.33336851 -41 32 C-38.15101954 30.70665553 -36.10820567 29.35207334 -33.91552734 27.12670898 C-33.34168304 26.54948593 -32.76783875 25.97226288 -32.17660522 25.37754822 C-31.56918488 24.75666824 -30.96176453 24.13578827 -30.3359375 23.49609375 C-29.70265533 22.85761002 -29.06937317 22.21912628 -28.41690063 21.56129456 C-26.39812011 19.52472625 -24.38616271 17.48158925 -22.375 15.4375 C-20.35583275 13.39072882 -18.33523099 11.34542734 -16.31167603 9.30299377 C-15.05351851 8.03256434 -13.79804361 6.75947158 -12.54550171 5.48350525 C-8.2193109 1.1075312 -6.26583001 -0.626583 0 0 Z " fill="#E7F8F7" transform="translate(474,159)"/>
<path d="M0 0 C0.81214462 -0.0071553 1.62428925 -0.01431061 2.46104431 -0.02168274 C5.13208123 -0.03852237 7.80142862 -0.01919775 10.47241211 0.00219727 C12.33516071 0.00136821 14.19790924 -0.00109257 16.06065369 -0.00511169 C19.95862937 -0.00796634 23.85602938 0.00670023 27.75390625 0.03417969 C32.74651419 0.06828568 37.73809464 0.06223326 42.73075199 0.04351711 C46.57499231 0.03294226 50.41899407 0.04188895 54.2632122 0.05690193 C56.1039808 0.06207905 57.94477436 0.06160765 59.78553963 0.05535698 C62.35887252 0.0498979 64.93074038 0.0703 67.50390625 0.09765625 C68.64099533 0.08786743 68.64099533 0.08786743 69.80105591 0.07788086 C73.43168255 0.14341039 75.53053445 0.53266899 78.63230896 2.48085022 C81.28030365 5.25165628 81.76526995 6.80841294 81.68725586 10.63110352 C79.91686137 13.37826738 78.62433742 15.16256273 75.68725586 16.63110352 C73.0593768 16.74499256 70.45738181 16.79893055 67.82861328 16.80810547 C66.61127251 16.81796227 66.61127251 16.81796227 65.36933899 16.82801819 C62.67713331 16.84776783 59.98498345 16.85941738 57.29272461 16.86938477 C56.37406427 16.87346029 55.45540394 16.87753582 54.50890541 16.88173485 C49.64672698 16.90260257 44.78457683 16.91690131 39.92236328 16.92626953 C34.8983786 16.93733625 29.87483656 16.9717371 24.85100842 17.01144123 C20.98968172 17.03757751 17.12846098 17.0459587 13.2670536 17.04955101 C11.41508303 17.05442461 9.56311743 17.06606058 7.71123314 17.084589 C5.11849196 17.1089175 2.52690223 17.10802719 -0.06591797 17.10107422 C-0.83026154 17.11388428 -1.5946051 17.12669434 -2.3821106 17.13989258 C-6.01212483 17.10442951 -8.1382105 16.73877915 -11.25395203 14.8165741 C-13.31274414 12.63110352 -13.31274414 12.63110352 -14.50024414 9.19360352 C-14.31274414 5.63110352 -14.31274414 5.63110352 -11.8205719 2.94789124 C-8.13235175 0.10142181 -4.53311015 -0.07010524 0 0 Z " fill="#09769A" transform="translate(262.312744140625,343.368896484375)"/>
<path d="M0 0 C0.81214462 -0.0071553 1.62428925 -0.01431061 2.46104431 -0.02168274 C5.13208123 -0.03852237 7.80142862 -0.01919775 10.47241211 0.00219727 C12.33516071 0.00136821 14.19790924 -0.00109257 16.06065369 -0.00511169 C19.95862937 -0.00796634 23.85602938 0.00670023 27.75390625 0.03417969 C32.74651419 0.06828568 37.73809464 0.06223326 42.73075199 0.04351711 C46.57499231 0.03294226 50.41899407 0.04188895 54.2632122 0.05690193 C56.1039808 0.06207905 57.94477436 0.06160765 59.78553963 0.05535698 C62.35887252 0.0498979 64.93074038 0.0703 67.50390625 0.09765625 C68.64099533 0.08786743 68.64099533 0.08786743 69.80105591 0.07788086 C73.43168255 0.14341039 75.53053445 0.53266899 78.63230896 2.48085022 C81.28030365 5.25165628 81.76526995 6.80841294 81.68725586 10.63110352 C79.91686137 13.37826738 78.62433742 15.16256273 75.68725586 16.63110352 C73.0593768 16.74499256 70.45738181 16.79893055 67.82861328 16.80810547 C66.61127251 16.81796227 66.61127251 16.81796227 65.36933899 16.82801819 C62.67713331 16.84776783 59.98498345 16.85941738 57.29272461 16.86938477 C56.37406427 16.87346029 55.45540394 16.87753582 54.50890541 16.88173485 C49.64672698 16.90260257 44.78457683 16.91690131 39.92236328 16.92626953 C34.8983786 16.93733625 29.87483656 16.9717371 24.85100842 17.01144123 C20.98968172 17.03757751 17.12846098 17.0459587 13.2670536 17.04955101 C11.41508303 17.05442461 9.56311743 17.06606058 7.71123314 17.084589 C5.11849196 17.1089175 2.52690223 17.10802719 -0.06591797 17.10107422 C-0.83026154 17.11388428 -1.5946051 17.12669434 -2.3821106 17.13989258 C-6.01212483 17.10442951 -8.1382105 16.73877915 -11.25395203 14.8165741 C-13.31274414 12.63110352 -13.31274414 12.63110352 -14.50024414 9.19360352 C-14.31274414 5.63110352 -14.31274414 5.63110352 -11.8205719 2.94789124 C-8.13235175 0.10142181 -4.53311015 -0.07010524 0 0 Z " fill="#09769A" transform="translate(262.312744140625,247.368896484375)"/>
<path d="M0 0 C0.81214462 -0.0071553 1.62428925 -0.01431061 2.46104431 -0.02168274 C5.13208123 -0.03852237 7.80142862 -0.01919775 10.47241211 0.00219727 C12.33516071 0.00136821 14.19790924 -0.00109257 16.06065369 -0.00511169 C19.95862937 -0.00796634 23.85602938 0.00670023 27.75390625 0.03417969 C32.74651419 0.06828568 37.73809464 0.06223326 42.73075199 0.04351711 C46.57499231 0.03294226 50.41899407 0.04188895 54.2632122 0.05690193 C56.1039808 0.06207905 57.94477436 0.06160765 59.78553963 0.05535698 C62.35887252 0.0498979 64.93074038 0.0703 67.50390625 0.09765625 C68.64099533 0.08786743 68.64099533 0.08786743 69.80105591 0.07788086 C73.43168255 0.14341039 75.53053445 0.53266899 78.63230896 2.48085022 C81.28030365 5.25165628 81.76526995 6.80841294 81.68725586 10.63110352 C79.91686137 13.37826738 78.62433742 15.16256273 75.68725586 16.63110352 C73.0593768 16.74499256 70.45738181 16.79893055 67.82861328 16.80810547 C66.61127251 16.81796227 66.61127251 16.81796227 65.36933899 16.82801819 C62.67713331 16.84776783 59.98498345 16.85941738 57.29272461 16.86938477 C56.37406427 16.87346029 55.45540394 16.87753582 54.50890541 16.88173485 C49.64672698 16.90260257 44.78457683 16.91690131 39.92236328 16.92626953 C34.8983786 16.93733625 29.87483656 16.9717371 24.85100842 17.01144123 C20.98968172 17.03757751 17.12846098 17.0459587 13.2670536 17.04955101 C11.41508303 17.05442461 9.56311743 17.06606058 7.71123314 17.084589 C5.11849196 17.1089175 2.52690223 17.10802719 -0.06591797 17.10107422 C-0.83026154 17.11388428 -1.5946051 17.12669434 -2.3821106 17.13989258 C-6.01212483 17.10442951 -8.1382105 16.73877915 -11.25395203 14.8165741 C-13.31274414 12.63110352 -13.31274414 12.63110352 -14.50024414 9.19360352 C-14.31274414 5.63110352 -14.31274414 5.63110352 -11.8205719 2.94789124 C-8.13235175 0.10142181 -4.53311015 -0.07010524 0 0 Z " fill="#09769A" transform="translate(262.312744140625,151.368896484375)"/>
<path d="M0 0 C1.13384628 -0.00241196 2.26769257 -0.00482391 3.43589783 -0.00730896 C5.82717393 -0.00633156 8.21847296 0.00703609 10.60961914 0.03198242 C14.26852241 0.06632346 17.92501432 0.05262519 21.58398438 0.03320312 C23.91016652 0.04010081 26.23634245 0.04977249 28.5625 0.0625 C29.65530777 0.05754013 30.74811554 0.05258026 31.8740387 0.04747009 C39.42189995 0.1645036 39.42189995 0.1645036 43.37670898 2.48071289 C45.77837758 5.28749758 46.29021031 6.93594473 46.21484375 10.62890625 C44.44444926 13.37607012 43.15192531 15.16036547 40.21484375 16.62890625 C38.57712656 16.73941804 36.93504548 16.78803959 35.29370117 16.8059082 C34.26891159 16.81874344 33.24412201 16.83157867 32.1882782 16.84480286 C30.52113518 16.85588326 30.52113518 16.85588326 28.8203125 16.8671875 C27.68080643 16.87525925 26.54130035 16.88333099 25.36726379 16.89164734 C22.95213344 16.90549612 20.53698345 16.91621471 18.12182617 16.92407227 C14.42784551 16.9412874 10.73475904 16.98516819 7.04101562 17.02929688 C4.69662118 17.03942331 2.35221911 17.04793956 0.0078125 17.0546875 C-1.65022148 17.08094963 -1.65022148 17.08094963 -3.3417511 17.10774231 C-10.9869949 17.08611624 -10.9869949 17.08611624 -14.94799805 14.81713867 C-17.5755356 11.68748829 -17.99922357 9.69618538 -17.78515625 5.62890625 C-12.68161422 -0.39030509 -7.53577819 -0.09159556 0 0 Z " fill="#09769A" transform="translate(265.78515625,375.37109375)"/>
<path d="M0 0 C1.13384628 -0.00241196 2.26769257 -0.00482391 3.43589783 -0.00730896 C5.82717393 -0.00633156 8.21847296 0.00703609 10.60961914 0.03198242 C14.26852241 0.06632346 17.92501432 0.05262519 21.58398438 0.03320312 C23.91016652 0.04010081 26.23634245 0.04977249 28.5625 0.0625 C29.65530777 0.05754013 30.74811554 0.05258026 31.8740387 0.04747009 C39.42189995 0.1645036 39.42189995 0.1645036 43.37670898 2.48071289 C45.77837758 5.28749758 46.29021031 6.93594473 46.21484375 10.62890625 C44.44444926 13.37607012 43.15192531 15.16036547 40.21484375 16.62890625 C38.57712656 16.73941804 36.93504548 16.78803959 35.29370117 16.8059082 C34.26891159 16.81874344 33.24412201 16.83157867 32.1882782 16.84480286 C30.52113518 16.85588326 30.52113518 16.85588326 28.8203125 16.8671875 C27.68080643 16.87525925 26.54130035 16.88333099 25.36726379 16.89164734 C22.95213344 16.90549612 20.53698345 16.91621471 18.12182617 16.92407227 C14.42784551 16.9412874 10.73475904 16.98516819 7.04101562 17.02929688 C4.69662118 17.03942331 2.35221911 17.04793956 0.0078125 17.0546875 C-1.65022148 17.08094963 -1.65022148 17.08094963 -3.3417511 17.10774231 C-10.9869949 17.08611624 -10.9869949 17.08611624 -14.94799805 14.81713867 C-17.5755356 11.68748829 -17.99922357 9.69618538 -17.78515625 5.62890625 C-12.68161422 -0.39030509 -7.53577819 -0.09159556 0 0 Z " fill="#09769A" transform="translate(265.78515625,279.37109375)"/>
<path d="M0 0 C1.13384628 -0.00241196 2.26769257 -0.00482391 3.43589783 -0.00730896 C5.82717393 -0.00633156 8.21847296 0.00703609 10.60961914 0.03198242 C14.26852241 0.06632346 17.92501432 0.05262519 21.58398438 0.03320312 C23.91016652 0.04010081 26.23634245 0.04977249 28.5625 0.0625 C29.65530777 0.05754013 30.74811554 0.05258026 31.8740387 0.04747009 C39.42189995 0.1645036 39.42189995 0.1645036 43.37670898 2.48071289 C45.77837758 5.28749758 46.29021031 6.93594473 46.21484375 10.62890625 C44.44444926 13.37607012 43.15192531 15.16036547 40.21484375 16.62890625 C38.57712656 16.73941804 36.93504548 16.78803959 35.29370117 16.8059082 C34.26891159 16.81874344 33.24412201 16.83157867 32.1882782 16.84480286 C30.52113518 16.85588326 30.52113518 16.85588326 28.8203125 16.8671875 C27.68080643 16.87525925 26.54130035 16.88333099 25.36726379 16.89164734 C22.95213344 16.90549612 20.53698345 16.91621471 18.12182617 16.92407227 C14.42784551 16.9412874 10.73475904 16.98516819 7.04101562 17.02929688 C4.69662118 17.03942331 2.35221911 17.04793956 0.0078125 17.0546875 C-1.65022148 17.08094963 -1.65022148 17.08094963 -3.3417511 17.10774231 C-10.9869949 17.08611624 -10.9869949 17.08611624 -14.94799805 14.81713867 C-17.5755356 11.68748829 -17.99922357 9.69618538 -17.78515625 5.62890625 C-12.68161422 -0.39030509 -7.53577819 -0.09159556 0 0 Z " fill="#09769A" transform="translate(265.78515625,183.37109375)"/>
<path d="M0 0 C3.72206393 1.34627844 5.01947413 2.61005343 6.9375 6.0625 C7.01854732 10.03381876 6.4063579 11.54005834 3.75 14.5 C0.9375 16.0625 0.9375 16.0625 -2.125 16.125 C-5.84706393 14.77872156 -7.14447413 13.51494657 -9.0625 10.0625 C-9.14354732 6.09118124 -8.5313579 4.58494166 -5.875 1.625 C-3.0625 0.0625 -3.0625 0.0625 0 0 Z " fill="#015F80" transform="translate(257.0625,23.9375)"/>
</svg>
