<?xml version="1.0" encoding="UTF-8"?>
<svg version="1.1" xmlns="http://www.w3.org/2000/svg" width="512" height="512">
<path d="M0 0 C1.93761902 -0.01059839 1.93761902 -0.01059839 3.91438186 -0.02141088 C5.35630312 -0.01915931 6.79822409 -0.01671278 8.24014473 -0.01409245 C9.76534925 -0.01854242 11.29055145 -0.02385566 12.81575024 -0.02996117 C17.01791916 -0.04418043 21.22001425 -0.04580372 25.42220378 -0.04536426 C29.949912 -0.047009 34.47758949 -0.06006902 39.00528145 -0.07155704 C48.91008186 -0.09443204 58.81486088 -0.1023302 68.71968412 -0.10738349 C74.90101854 -0.11063733 81.08234671 -0.11715787 87.2636776 -0.12438488 C104.36903559 -0.14395335 121.47438778 -0.16035635 138.57975769 -0.16326141 C140.22248718 -0.16354277 140.22248718 -0.16354277 141.89840312 -0.16382981 C144.11866069 -0.16419606 146.33891826 -0.16455976 148.55917583 -0.16492092 C149.66135437 -0.16510373 150.76353291 -0.16528654 151.89911079 -0.16547489 C153.0026302 -0.16565544 154.10614961 -0.16583599 155.243109 -0.16602201 C173.13247315 -0.16956523 191.02171704 -0.19659577 208.91103946 -0.23397278 C227.26595647 -0.27201658 245.62081374 -0.2914186 263.97577107 -0.29172093 C274.28622415 -0.29230635 284.59653375 -0.3008531 294.90695 -0.32971859 C303.68477412 -0.35417991 312.46240245 -0.36155094 321.24025141 -0.34647106 C325.72092456 -0.3392808 330.20121066 -0.34025017 334.6818409 -0.36288166 C338.78151792 -0.38339109 342.88050837 -0.38094745 346.9801773 -0.36000682 C348.46536699 -0.35649642 349.95060543 -0.36148721 351.43573116 -0.37571125 C353.45078254 -0.39377102 355.46605229 -0.37814707 357.48110962 -0.36076355 C358.60155698 -0.36157801 359.72200433 -0.36239246 360.87640464 -0.3632316 C364.82104526 0.45906849 366.32012035 2.21618953 368.86639595 5.26006222 C370.04239625 7.61206281 369.98724136 8.99740622 369.97992134 11.61797237 C369.97984581 12.51875515 369.97977028 13.41953793 369.97969246 14.34761715 C369.97453117 15.32161465 369.96936989 16.29561214 369.9640522 17.29912472 C369.96192978 18.79311291 369.96192978 18.79311291 369.95976448 20.31728268 C369.95415531 23.50657274 369.94160125 26.69579327 369.92889595 29.88506222 C369.92388213 32.04391537 369.91931902 34.20276962 369.91522408 36.36162472 C369.9041829 41.66112772 369.88743583 46.96059 369.86639595 52.26006222 C371.10647408 51.93650753 372.3465522 51.61295284 373.62420845 51.27959347 C382.72146892 48.90598393 390.74014457 50.5944115 398.99139595 54.88506222 C407.80585528 62.1665721 412.38900589 68.87519395 413.67889595 80.19756222 C414.29450486 90.9038042 410.54343327 98.74420326 405.86639595 108.26006222 C407.07295845 108.63131222 407.07295845 108.63131222 408.30389595 109.01006222 C410.86639595 110.26006222 410.86639595 110.26006222 411.6347065 112.04912472 C411.92795586 114.84750856 411.28904782 116.32731623 410.1359272 118.88506222 C409.74469673 119.75646847 409.35346626 120.62787472 408.95038033 121.52568722 C408.53079048 122.42803097 408.11120064 123.33037472 407.67889595 124.26006222 C407.27864204 125.16240597 406.87838814 126.06474972 406.46600533 126.99443722 C403.37878867 133.75929447 403.37878867 133.75929447 400.6281147 136.44756222 C398.06179319 139.08785752 398.33396244 141.64940989 397.86639595 145.26006222 C396.76865631 148.29314335 395.39567932 151.17087991 393.99139595 154.07256222 C393.63948189 154.83504269 393.28756783 155.59752316 392.9249897 156.38310909 C390.25155186 162.00329161 390.25155186 162.00329161 386.86639595 164.26006222 C383.67889595 163.88506222 383.67889595 163.88506222 380.86639595 163.26006222 C380.31209908 164.36865597 379.7578022 165.47724972 379.18670845 166.61943722 C372.86639595 179.26006222 372.86639595 179.26006222 371.82196558 181.03817856 C370.65480714 183.752047 370.61619201 185.78056576 370.61585617 188.73305225 C370.61085747 189.85200284 370.60585878 190.97095342 370.6007086 192.1238116 C370.60770342 193.96785066 370.60770342 193.96785066 370.61483955 195.84914303 C370.61186942 197.15506409 370.60889928 198.46098515 370.60583913 199.80647957 C370.59778816 203.4343965 370.60211108 207.06221053 370.60835791 210.69012713 C370.61288591 214.60159987 370.60585453 218.51305281 370.60005379 222.42452145 C370.59141495 229.20378352 370.58961406 235.9830195 370.59200096 242.76228619 C370.59509577 252.57054433 370.58346974 262.37874465 370.56745116 272.18698825 C370.5414789 288.10831373 370.52146534 304.02963925 370.50799751 319.95098019 C370.50718714 320.90414104 370.50637677 321.8573019 370.50554185 322.83934642 C370.49431965 336.36685543 370.48903916 349.89436032 370.48615472 363.42187335 C370.48595073 364.37442782 370.48574674 365.3269823 370.48553658 366.30840206 C370.48533664 367.25979733 370.4851367 368.21119261 370.48493071 369.19141804 C370.4811992 385.05019901 370.46212365 400.90891733 370.43044221 416.76766694 C370.41151394 426.55199987 370.40557451 436.33617225 370.41625939 446.12051846 C370.42257306 452.82420579 370.41455338 459.52777789 370.39520527 466.23143993 C370.38451056 470.10056396 370.38039308 473.96940829 370.39367676 477.83853054 C370.40792825 482.03159358 370.39142714 486.22397253 370.37191963 490.41701412 C370.38560662 492.25436101 370.38560662 492.25436101 370.39957011 494.12882602 C370.34224875 500.43757057 370.24993633 504.5381758 365.86639595 509.26006222 C362.3479921 511.60566478 360.92853044 511.51283154 356.76402664 511.52012444 C355.47924742 511.52719003 354.1944682 511.53425562 352.87075627 511.54153532 C351.43669551 511.53928374 350.00263504 511.53683722 348.56857491 511.53421688 C347.05161997 511.53866687 345.53466737 511.54398013 344.0177182 511.5500856 C339.83835233 511.56430462 335.65906069 511.56592816 331.4796741 511.5654887 C326.9765059 511.56713346 322.4733686 511.58019351 317.97021675 511.59168148 C308.11913364 511.61455631 298.26807203 511.62245462 288.41696596 511.62750793 C282.26913347 511.63076179 276.12130726 511.63728234 269.97347832 511.64450932 C252.96076661 511.66407776 235.94806075 511.68048078 218.93533707 511.68338585 C217.30151041 511.6836672 217.30151041 511.6836672 215.63467716 511.68395424 C213.42645319 511.6843205 211.21822922 511.6846842 209.01000525 511.68504535 C207.9138007 511.68522817 206.81759616 511.68541098 205.68817329 511.68559933 C204.04186603 511.68587015 204.04186603 511.68587015 202.36230002 511.68614645 C184.56993348 511.68968966 166.77768785 511.71672017 148.98536326 511.75409722 C130.72988731 511.79214122 112.47447141 511.81154304 94.21895492 511.81184536 C83.96439287 511.81243078 73.70997507 511.82097723 63.45545006 511.84984303 C54.72520276 511.87430462 45.99515234 511.88167519 37.26488008 511.8665955 C32.80850934 511.85940534 28.35252777 511.86037412 23.89620018 511.8830061 C19.81872697 511.90351612 15.74194407 511.90107135 11.664479 511.88013125 C10.18736459 511.87662097 8.71020118 511.88161118 7.23315109 511.89583569 C5.22899176 511.91389657 3.22461287 511.89827091 1.22044754 511.88088799 C0.10607571 511.88170244 -1.00829612 511.8825169 -2.1564368 511.88335603 C-6.09632525 511.05850882 -7.58542143 509.29844743 -10.13360405 506.26006222 C-12.55988467 501.98742122 -12.39383133 497.68651024 -12.32891655 492.89678097 C-12.32608665 492.10479809 -12.32325676 491.31281521 -12.32034111 490.49683285 C-12.30919268 487.98025223 -12.28409827 485.46403432 -12.25860405 482.94756222 C-12.24856734 481.23597883 -12.23944269 479.52438984 -12.2312603 477.81279659 C-12.20927086 473.62841316 -12.17477813 469.44429908 -12.13360405 465.26006222 C-13.10708794 465.27577267 -14.08057182 465.29148312 -15.08355522 465.30766964 C-18.70830772 465.36212461 -22.33302431 465.39646848 -25.95806694 465.42485714 C-27.52453512 465.43990844 -29.09096141 465.46035429 -30.65728569 465.48638058 C-32.91382011 465.52292655 -35.16979558 465.53982483 -37.4265728 465.55303097 C-38.12260109 465.56851482 -38.81862938 465.58399868 -39.53574944 465.59995174 C-43.9153043 465.60145465 -46.65194909 464.94840802 -50.13360405 462.26006222 C-51.72271172 459.08184687 -51.53781379 455.72066492 -51.13360405 452.26006222 C-49.32197138 449.58574732 -48.25599328 449.30085863 -45.13360405 448.26006222 C-42.62018788 448.17538943 -40.13468505 448.14396686 -37.6218853 448.16240597 C-36.97618584 448.16341305 -36.33048637 448.16442013 -35.66522026 448.16545773 C-33.25883006 448.17068011 -30.85246523 448.18464139 -28.44610405 448.19756222 C-23.06297905 448.21818722 -17.67985405 448.23881222 -12.13360405 448.26006222 C-12.13360405 434.73006222 -12.13360405 421.20006222 -12.13360405 407.26006222 C-23.47236731 407.4181659 -23.47236731 407.4181659 -34.81036186 407.62041378 C-36.2358054 407.63210033 -37.66126232 407.64229224 -39.08672905 407.65068722 C-39.82197807 407.67115108 -40.5572271 407.69161495 -41.31475639 407.71269894 C-44.85742223 407.71511055 -46.75397992 407.55202305 -49.60333061 405.36064816 C-51.25972371 403.08693944 -51.67702275 402.038859 -51.63360405 399.26006222 C-51.64391655 398.60006222 -51.65422905 397.94006222 -51.66485405 397.26006222 C-50.86375587 394.2441632 -49.60557308 393.16120092 -47.13360405 391.26006222 C-44.3168858 390.91125423 -41.8935135 390.7913172 -39.08672905 390.86943722 C-38.40272026 390.87346554 -37.71871147 390.87749386 -37.01397514 390.88164425 C-34.47024342 390.90249913 -31.92689549 390.95834512 -29.38360405 391.01006222 C-20.84485405 391.13381222 -20.84485405 391.13381222 -12.13360405 391.26006222 C-12.13360405 377.73006222 -12.13360405 364.20006222 -12.13360405 350.26006222 C-22.39483255 350.37843491 -22.39483255 350.37843491 -32.65557671 350.53032589 C-33.93996635 350.53781857 -35.224356 350.54531124 -36.54766655 350.55303097 C-37.85687065 350.56874142 -39.16607475 350.58445187 -40.51495171 350.60063839 C-44.4167742 350.23341113 -46.82002136 349.31690882 -50.13360405 347.26006222 C-51.72271172 344.08184687 -51.53781379 340.72066492 -51.13360405 337.26006222 C-49.32197138 334.58574732 -48.25599328 334.30085863 -45.13360405 333.26006222 C-42.62018788 333.17538943 -40.13468505 333.14396686 -37.6218853 333.16240597 C-36.97618584 333.16341305 -36.33048637 333.16442013 -35.66522026 333.16545773 C-33.25883006 333.17068011 -30.85246523 333.18464139 -28.44610405 333.19756222 C-23.06297905 333.21818722 -17.67985405 333.23881222 -12.13360405 333.26006222 C-12.13360405 319.73006222 -12.13360405 306.20006222 -12.13360405 292.26006222 C-23.09823731 292.4180459 -23.09823731 292.4180459 -34.06207085 292.62041378 C-35.44397556 292.63210409 -36.82589412 292.64229511 -38.2078228 292.65068722 C-38.91636406 292.67115108 -39.62490532 292.69161495 -40.35491753 292.71269894 C-44.01340396 292.71526315 -45.98047444 292.35845571 -49.08965874 290.36064816 C-51.13360405 288.26006222 -51.13360405 288.26006222 -51.7625103 286.26006222 C-51.74059624 285.60006222 -51.71868217 284.94006222 -51.69610405 284.26006222 C-51.69739311 283.60006222 -51.69868217 282.94006222 -51.7000103 282.26006222 C-50.85148878 279.26390348 -49.60247645 278.16051015 -47.13360405 276.26006222 C-44.3168858 275.91125423 -41.8935135 275.7913172 -39.08672905 275.86943722 C-38.40272026 275.87346554 -37.71871147 275.87749386 -37.01397514 275.88164425 C-34.47024342 275.90249913 -31.92689549 275.95834512 -29.38360405 276.01006222 C-20.84485405 276.13381222 -20.84485405 276.13381222 -12.13360405 276.26006222 C-12.13360405 262.40006222 -12.13360405 248.54006222 -12.13360405 234.26006222 C-23.47236731 234.4181659 -23.47236731 234.4181659 -34.81036186 234.62041378 C-36.2358054 234.63210033 -37.66126232 234.64229224 -39.08672905 234.65068722 C-39.82197807 234.67115108 -40.5572271 234.69161495 -41.31475639 234.71269894 C-44.85681019 234.71511014 -46.75313438 234.55293389 -49.60113335 232.36064816 C-51.24983801 230.10073818 -51.70150691 229.02632832 -51.69610405 226.26006222 C-51.71801811 225.60006222 -51.73993217 224.94006222 -51.7625103 224.26006222 C-50.75643755 221.0606259 -48.91786751 220.04909176 -46.13360405 218.26006222 C-43.35183595 217.91761145 -40.97545926 217.78950321 -38.2078228 217.86943722 C-37.54447929 217.87346554 -36.88113579 217.87749386 -36.19769096 217.88164425 C-33.73854408 217.90244755 -31.27979397 217.95829309 -28.82110405 218.01006222 C-23.31422905 218.09256222 -17.80735405 218.17506222 -12.13360405 218.26006222 C-12.13360405 204.73006222 -12.13360405 191.20006222 -12.13360405 177.26006222 C-22.76896799 177.37853522 -22.76896799 177.37853522 -33.40386772 177.53032589 C-34.74476211 177.53909404 -36.08566452 177.5467372 -37.4265728 177.55303097 C-38.11352226 177.56837887 -38.80047173 177.58372677 -39.50823784 177.59953976 C-43.91278379 177.60192532 -46.59199105 176.88832717 -50.13360405 174.26006222 C-51.13360405 173.26006222 -51.13360405 173.26006222 -51.44610405 169.44756222 C-51.41192076 166.26851621 -51.29221811 165.47337078 -49.32110405 162.82256222 C-45.30971955 159.95728758 -41.56735606 160.12661242 -36.8406353 160.16240597 C-35.54875298 160.16490353 -34.25687065 160.16740108 -32.92584038 160.16997433 C-31.28252739 160.17907833 -29.6392144 160.18818233 -27.94610405 160.19756222 C-20.11891655 160.22849972 -20.11891655 160.22849972 -12.13360405 160.26006222 C-12.13360405 146.73006222 -12.13360405 133.20006222 -12.13360405 119.26006222 C-23.47236731 119.4181659 -23.47236731 119.4181659 -34.81036186 119.62041378 C-36.2358054 119.63210033 -37.66126232 119.64229224 -39.08672905 119.65068722 C-39.82197807 119.67115108 -40.5572271 119.69161495 -41.31475639 119.71269894 C-44.85742223 119.71511055 -46.75397992 119.55202305 -49.60333061 117.36064816 C-51.25972371 115.08693944 -51.67702275 114.038859 -51.63360405 111.26006222 C-51.6490728 110.27006222 -51.6490728 110.27006222 -51.66485405 109.26006222 C-50.86375587 106.2441632 -49.60557308 105.16120092 -47.13360405 103.26006222 C-44.3168858 102.91125423 -41.8935135 102.7913172 -39.08672905 102.86943722 C-38.40272026 102.87346554 -37.71871147 102.87749386 -37.01397514 102.88164425 C-34.47024342 102.90249913 -31.92689549 102.95834512 -29.38360405 103.01006222 C-20.84485405 103.13381222 -20.84485405 103.13381222 -12.13360405 103.26006222 C-12.13360405 89.73006222 -12.13360405 76.20006222 -12.13360405 62.26006222 C-22.76896799 62.37853522 -22.76896799 62.37853522 -33.40386772 62.53032589 C-34.74476211 62.53909404 -36.08566452 62.5467372 -37.4265728 62.55303097 C-38.45699699 62.57605282 -38.45699699 62.57605282 -39.50823784 62.59953976 C-43.91278379 62.60192532 -46.59199105 61.88832717 -50.13360405 59.26006222 C-51.13360405 58.26006222 -51.13360405 58.26006222 -51.38360405 54.44756222 C-51.34792318 51.60328702 -51.19912245 50.38173925 -49.82110405 47.82256222 C-46.30211825 44.56424204 -42.11767705 45.12955535 -37.6218853 45.16240597 C-36.89366066 45.16382092 -36.16543602 45.16523586 -35.41514397 45.16669369 C-33.09208866 45.17228563 -30.76913017 45.1848366 -28.44610405 45.19756222 C-26.86993357 45.20257826 -25.29376157 45.20714099 -23.71758842 45.21123409 C-19.85622307 45.22225242 -15.99492997 45.23951148 -12.13360405 45.26006222 C-12.1493145 44.20617306 -12.16502495 43.1522839 -12.18121147 42.0664587 C-12.23577661 38.13229257 -12.27005017 34.19815948 -12.29839897 30.26372433 C-12.31342531 28.56542479 -12.33385227 26.86716367 -12.35992241 25.16899776 C-12.39657854 22.71878703 -12.41339194 20.26909221 -12.4265728 17.81865597 C-12.44205666 17.06732891 -12.45754051 16.31600185 -12.47349358 15.54190731 C-12.47511413 10.3910314 -11.59445707 6.81571772 -9.13360405 2.26006222 C-5.60844096 -0.09004651 -4.17430061 0.0072704 0 0 Z " fill="#E3E9F7" transform="translate(75.13360404968262,-0.26006221771240234)"/>
<path d="M0 0 C7.62466619 2.30587903 14.55301956 5.54200557 21.6875 9.0625 C24.07197994 10.22594507 26.45707649 11.38795358 28.84375 12.546875 C29.44056076 12.83701981 30.03737152 13.12716461 30.65226746 13.42610168 C39.68228303 17.80220204 48.8407432 21.90314047 58 26 C57.17657491 30.65307667 55.48470216 34.58109361 53.4375 38.8125 C53.12748047 39.46669922 52.81746094 40.12089844 52.49804688 40.79492188 C50.4846672 45.01399235 48.40222363 49.19659613 46.30148315 53.37278748 C41.32849315 63.26476087 36.55105419 73.24396348 31.8125 83.25 C31.39925476 84.1212854 30.98600952 84.9925708 30.5602417 85.89025879 C23.80789683 100.12721262 17.13018054 114.39677868 10.52392578 128.70214844 C7.87722941 134.42973168 5.21967918 140.15227432 2.5625 145.875 C2.02761963 147.02726074 1.49273926 148.17952148 0.94165039 149.36669922 C-4.76627185 161.65844845 -10.49939334 173.93840579 -16.23388672 186.21777344 C-17.99117103 189.98083466 -19.74765871 193.74426731 -21.50390625 197.5078125 C-21.93700104 198.43587708 -21.93700104 198.43587708 -22.37884521 199.38269043 C-23.83238959 202.49752981 -25.2857282 205.61246499 -26.73876953 208.72753906 C-29.40693101 214.44708629 -32.07651411 220.16594866 -34.75335693 225.88143921 C-35.6708359 227.84100017 -36.58714487 229.80110543 -37.50341797 231.76123047 C-38.69881196 234.31754693 -39.90022917 236.87090617 -41.10595703 239.42236328 C-43.64803151 244.81919892 -46.13333665 250.21156716 -48.31640625 255.765625 C-53.13356719 267.85977374 -59.48341001 275.51948814 -69.12280273 284.2175293 C-70.91691606 285.92110862 -72.5081194 287.67904027 -74.10546875 289.56640625 C-79.7275115 296.14827113 -86.03853694 302.10434315 -92.1875 308.1875 C-94.70476281 310.6780477 -97.21860465 313.17197755 -99.73046875 315.66796875 C-100.5852607 316.51031319 -100.5852607 316.51031319 -101.45732117 317.36967468 C-104.54087045 320.43428044 -107.28119533 323.60101544 -110 327 C-112.79870027 328.39935013 -114.90498792 328.25265405 -118 328 C-119.66796875 326.89819336 -119.66796875 326.89819336 -121 325 C-123.05904925 310.2750222 -119.95988302 294.13817359 -118.44873047 279.39819336 C-118.14523137 276.42406513 -117.86114113 273.44906792 -117.59423828 270.47143555 C-116.1391286 254.30360878 -114.77812669 240.03518423 -106 226 C-104.84900814 223.65955252 -103.73139969 221.30237997 -102.6484375 218.9296875 C-102.11476563 217.78242188 -101.58109375 216.63515625 -101.03125 215.453125 C-100.21140625 213.68195313 -100.21140625 213.68195313 -99.375 211.875 C-98.77368215 210.58061548 -98.17211304 209.28634767 -97.5703125 207.9921875 C-96.32814335 205.32043075 -95.08702374 202.64819044 -93.84667969 199.97558594 C-91.19615312 194.26662551 -88.53230051 188.56389013 -85.86895752 182.86090088 C-84.41204588 179.74087707 -82.95607219 176.62041563 -81.5 173.5 C-80.91667112 172.24999792 -80.33333779 170.99999792 -79.75 169.75 C-79.46125 169.13125 -79.1725 168.5125 -78.875 167.875 C-78 166 -77.125 164.125 -76.25 162.25 C-75.96125504 161.63126007 -75.67251007 161.01252014 -75.37501526 160.37503052 C-74.79163329 159.12492775 -74.20824909 157.87482603 -73.62486267 156.62472534 C-72.16725519 153.50130616 -70.70968633 150.37786897 -69.25219727 147.25439453 C-66.61857662 141.61050792 -63.98467178 135.96675483 -61.34933472 130.32366943 C-55.38643833 117.55517496 -49.43069229 104.78349647 -43.5 92 C-37.57840963 79.23612254 -31.63184795 66.48402791 -25.67785645 53.73524475 C-23.54553013 49.16921325 -21.41495971 44.60236501 -19.28515625 40.03515625 C-16.36651363 33.7763652 -13.44559151 27.51864309 -10.52294922 21.26171875 C-9.55766884 19.1943661 -8.59306716 17.12669632 -7.62939453 15.05859375 C-6.48405054 12.60064351 -5.33621992 10.14387378 -4.1875 7.6875 C-3.86797363 7.00002686 -3.54844727 6.31255371 -3.21923828 5.60424805 C-1.11443296 1.11443296 -1.11443296 1.11443296 0 0 Z " fill="#FDCA58" transform="translate(397,135)"/>
<path d="M0 0 C6.64766356 2.0229398 12.81944187 4.65072929 19.0625 7.6875 C20.3609082 8.31108398 20.3609082 8.31108398 21.68554688 8.94726562 C23.79270985 9.96010087 25.8974094 10.9777159 28 12 C27.38900267 15.71599742 26.3328685 18.77123179 24.7265625 22.171875 C24.24147217 23.20715332 23.75638184 24.24243164 23.2565918 25.30908203 C22.44895386 27.01233643 22.44895386 27.01233643 21.625 28.75 C21.04990412 29.97349824 20.47546153 31.19730373 19.90161133 32.42138672 C18.96510617 34.41891745 18.02817981 36.41624006 17.08937073 38.41268921 C14.5301624 43.85693761 11.9967371 49.31282375 9.47265625 54.7734375 C9.08395355 55.61429398 8.69525085 56.45515045 8.29476929 57.32148743 C7.49669642 59.04806241 6.69865186 60.77465046 5.90063477 62.50125122 C-0.80336051 77.00054671 -7.55622228 91.47584232 -14.37069702 105.92352295 C-19.88933986 117.62392582 -25.35352368 129.34845264 -30.79296875 141.0859375 C-34.16207923 148.35475969 -37.54815529 155.61559814 -40.9375 162.875 C-41.52856456 164.14119461 -42.11962901 165.40738927 -42.71069336 166.67358398 C-45.58174356 172.82342123 -48.45442455 178.97249441 -51.328125 185.12109375 C-57.8720395 199.12671344 -64.39593567 213.14155079 -70.90127563 227.16513062 C-71.75199644 228.99880162 -72.60304501 230.83232059 -73.45443726 232.66567993 C-74.65164618 235.24409075 -75.84749047 237.82313015 -77.04296875 240.40234375 C-77.39862915 241.16777496 -77.75428955 241.93320618 -78.12072754 242.72183228 C-80.15624577 247.11808977 -82.11325852 251.53778837 -84 256 C-88.31150883 255.44089466 -91.7168372 254.40244474 -95.6171875 252.49609375 C-97.14472656 251.75649414 -97.14472656 251.75649414 -98.703125 251.00195312 C-100.27320313 250.22754883 -100.27320313 250.22754883 -101.875 249.4375 C-102.94492187 248.91736328 -104.01484375 248.39722656 -105.1171875 247.86132812 C-107.74822149 246.58104819 -110.37558323 245.29377581 -113 244 C-112.37743151 240.13709618 -111.21576625 236.97603625 -109.55078125 233.44140625 C-109.03974854 232.34908691 -108.52871582 231.25676758 -108.00219727 230.13134766 C-107.44459717 228.95362793 -106.88699707 227.7759082 -106.3125 226.5625 C-105.7259383 225.31324301 -105.13993026 224.06372592 -104.55444336 222.81396484 C-103.32602957 220.19358129 -102.09476428 217.57456607 -100.86132812 214.95654297 C-99.07059784 211.15351391 -97.29105599 207.34534801 -95.515625 203.53515625 C-95.23128098 202.92497147 -94.94693695 202.31478668 -94.65397644 201.68611145 C-94.07905628 200.45228213 -93.50416106 199.21844118 -92.92929077 197.98458862 C-91.46620961 194.84573531 -90.00064605 191.7080418 -88.53515625 188.5703125 C-86.18809208 183.54460199 -83.84164787 178.51860296 -81.49609375 173.4921875 C-81.20781708 172.87442947 -80.91954041 172.25667145 -80.62252808 171.62019348 C-79.16135916 168.48893855 -77.70028186 165.35764089 -76.23925781 162.22631836 C-73.38645464 156.11232771 -70.53250581 149.99887861 -67.67578125 143.88671875 C-62.58700684 132.99558193 -57.5059311 122.10109722 -52.45703125 111.19140625 C-52.06392258 110.34198456 -51.6708139 109.49256287 -51.26579285 108.61740112 C-50.45930251 106.87465755 -49.65281963 105.13191053 -48.84634399 103.38916016 C-41.8347823 88.23811807 -34.77757348 73.11004694 -27.65478516 58.01098633 C-23.40536756 49.00078463 -19.18916899 39.97586783 -15 30.9375 C-7.26391057 14.25250956 -7.26391057 14.25250956 -4.25 7.8125 C-3.92644531 7.11697021 -3.60289062 6.42144043 -3.26953125 5.70483398 C-1.11598425 1.11598425 -1.11598425 1.11598425 0 0 Z " fill="#F3B538" transform="translate(397,135)"/>
<path d="M0 0 C3.41714903 1.10160285 6.61099285 2.54113127 9.8371582 4.09912109 C10.52030594 4.42331024 11.20345367 4.74749939 11.90730286 5.08151245 C14.12976738 6.13719526 16.3486227 7.20024963 18.56762695 8.26318359 C21.64330148 9.72654268 24.72076398 11.18612589 27.7980957 12.64599609 C28.56255005 13.0093103 29.32700439 13.37262451 30.11462402 13.74694824 C37.78794008 17.38971131 45.50707075 20.92795648 53.24267578 24.43652344 C54.96317579 25.21901117 56.68140388 26.00652429 58.39672852 26.80029297 C59.96957286 27.52582034 61.54981741 28.23551448 63.13696289 28.92919922 C68.53252152 31.39150555 68.53252152 31.39150555 69.57666016 33.72119141 C69.80329133 36.47300853 69.15716534 38.00116054 68.0246582 40.51318359 C67.63342773 41.38458984 67.24219727 42.25599609 66.83911133 43.15380859 C66.20972656 44.50732422 66.20972656 44.50732422 65.56762695 45.88818359 C64.96724609 47.24169922 64.96724609 47.24169922 64.35473633 48.62255859 C61.26751967 55.38741584 61.26751967 55.38741584 58.5168457 58.07568359 C55.95052419 60.71597889 56.22269344 63.27753127 55.75512695 66.88818359 C54.65738731 69.92126473 53.28441032 72.79900129 51.88012695 75.70068359 C51.35225586 76.8444043 51.35225586 76.8444043 50.8137207 78.01123047 C48.14028287 83.63141299 48.14028287 83.63141299 44.75512695 85.88818359 C39.75663957 85.60890104 35.79890767 83.62923645 31.45043945 81.32958984 C30.02719265 80.59751815 28.60300662 79.86727008 27.17797852 79.13867188 C26.44792603 78.76429993 25.71787354 78.38992798 24.96569824 78.00421143 C21.42568957 76.21700455 17.83975298 74.53173549 14.24731445 72.85302734 C13.53907532 72.52122467 12.83083618 72.189422 12.10113525 71.8475647 C9.9449103 70.83859606 7.78767942 69.83181004 5.63012695 68.82568359 C-24.243029 54.89002764 -24.243029 54.89002764 -26.24487305 52.88818359 C-25.85564604 47.0039871 -23.95690422 42.35841398 -21.43237305 37.07568359 C-21.08883789 36.31320313 -20.74530273 35.55072266 -20.39135742 34.76513672 C-20.04782227 34.03617188 -19.70428711 33.30720703 -19.3503418 32.55615234 C-18.88857544 31.57038208 -18.88857544 31.57038208 -18.41748047 30.56469727 C-16.97298123 28.49945133 -15.54657339 27.83767634 -13.24487305 26.88818359 C-13.44628906 26.15680176 -13.64770508 25.42541992 -13.85522461 24.671875 C-14.30263354 21.47553626 -13.86735488 20.21832683 -12.47924805 17.34912109 C-11.88563477 16.10775391 -11.88563477 16.10775391 -11.2800293 14.84130859 C-10.64387695 13.56513672 -10.64387695 13.56513672 -9.99487305 12.26318359 C-9.58624023 11.40466797 -9.17760742 10.54615234 -8.7565918 9.66162109 C-3.96566138 -0.19752832 -3.96566138 -0.19752832 0 0 Z " fill="#56A1FE" transform="translate(417.244873046875,78.11181640625)"/>
<path d="M0 0 C0.67530258 -0.00700928 1.35060516 -0.01401855 2.04637146 -0.02124023 C4.27360439 -0.03881234 6.4995613 -0.02720049 8.72680664 -0.01367188 C10.27853132 -0.01636737 11.83025436 -0.02025027 13.38197327 -0.02526855 C16.63274226 -0.03116275 19.88307127 -0.02260488 23.13378906 -0.00390625 C27.29470131 0.01886486 31.45458046 0.00577235 35.61545467 -0.01819611 C38.81974525 -0.03267282 42.02379224 -0.02803932 45.22809029 -0.01768494 C46.76184779 -0.01502181 48.29562761 -0.01827287 49.82935905 -0.02760315 C51.97667583 -0.03779828 54.12233732 -0.02222904 56.26953125 0 C57.48990585 0.00318237 58.71028046 0.00636475 59.96763611 0.00964355 C63.83103046 0.61683932 65.50644502 1.71647516 68.19946289 4.51757812 C68.76196289 8.01757812 68.76196289 8.01757812 68.19946289 11.51757812 C65.9808326 14.42474885 64.6800136 15.35739455 61.19946289 16.51757812 C61.07596206 22.30159685 60.98517098 28.08485022 60.92480469 33.86987305 C60.89964375 35.83810796 60.86551125 37.8062493 60.82226562 39.77416992 C60.76168219 42.60163431 60.73326982 45.42786495 60.71118164 48.25585938 C60.68537521 49.13720047 60.65956879 50.01854156 60.63298035 50.92658997 C60.63191991 53.23086895 60.66775792 55.27520876 61.19946289 57.51757812 C63.48785225 59.57223365 63.48785225 59.57223365 66.19946289 60.51757812 C68.19946289 62.51757812 68.19946289 62.51757812 68.57446289 65.89257812 C68.19946289 69.51757812 68.19946289 69.51757812 66.62011719 71.70605469 C63.34600641 74.15627173 61.16361877 74.06020851 57.09399414 74.12695312 C56.38942078 74.14367065 55.68484741 74.16038818 54.95892334 74.1776123 C52.64315912 74.22721554 50.32816247 74.24822724 48.01196289 74.26757812 C46.40443951 74.29337088 44.79693558 74.32040405 43.18945312 74.34863281 C39.02384534 74.41596642 34.8583655 74.45662571 30.69238281 74.4921875 C27.45586446 74.52515175 24.21991416 74.5808251 20.98371887 74.63641357 C17.9625695 74.68490289 14.9414192 74.71804247 11.92001343 74.74572754 C10.48899406 74.76021683 9.0580111 74.77896935 7.62710571 74.80212402 C5.63186083 74.83176696 3.63632367 74.83921992 1.64086914 74.84570312 C0.51366455 74.85504883 -0.61354004 74.86439453 -1.77490234 74.87402344 C-5.18771013 74.47196588 -7.05830954 73.55464375 -9.80053711 71.51757812 C-11.38964478 68.33936278 -11.20474685 64.97818083 -10.80053711 61.51757812 C-8.98890444 58.84326323 -7.92292634 58.55837454 -4.80053711 57.51757812 C-2.28712094 57.43290534 0.19838189 57.40148277 2.71118164 57.41992188 C3.3568811 57.42092896 4.00258057 57.42193604 4.66784668 57.42297363 C7.07423688 57.42819602 9.48060171 57.4421573 11.88696289 57.45507812 C17.27008789 57.47570312 22.65321289 57.49632812 28.19946289 57.51757812 C28.19946289 43.98757813 28.19946289 30.45757812 28.19946289 16.51757812 C16.86069963 16.6756818 16.86069963 16.6756818 5.52270508 16.87792969 C4.09726154 16.88961624 2.67180462 16.89980815 1.24633789 16.90820312 C0.51108887 16.92866699 -0.22416016 16.94913086 -0.98168945 16.97021484 C-4.52435529 16.97262646 -6.42091298 16.80953895 -9.27026367 14.61816406 C-10.92665677 12.34445534 -11.34395581 11.29637491 -11.30053711 8.51757812 C-11.31600586 7.52757812 -11.31600586 7.52757812 -11.33178711 6.51757812 C-9.76645016 0.62454489 -5.42665614 0.01416033 0 0 Z " fill="#C7D1E4" transform="translate(34.800537109375,390.482421875)"/>
<path d="M0 0 C1.94386597 -0.00338379 1.94386597 -0.00338379 3.92700195 -0.00683594 C5.34847269 -0.00279421 6.7699412 0.00211082 8.19140625 0.0078125 C8.90855804 0.01002808 9.62570984 0.01224365 10.36459351 0.01452637 C15.00905835 0.03119871 19.65320599 0.06573628 24.29748535 0.10998535 C25.94940949 0.12533643 27.60134777 0.13922781 29.2532959 0.1517334 C34.22679319 0.18957025 39.19910935 0.25004981 44.17190552 0.34234619 C45.76366563 0.36924644 47.35555054 0.38958905 48.94747925 0.40325928 C51.18193664 0.42442841 53.41453102 0.47072738 55.6484375 0.5234375 C57.56426636 0.5548584 57.56426636 0.5548584 59.51879883 0.58691406 C63.29821956 1.22466101 64.51945211 2.06280106 66.75390625 5.1328125 C67.25390625 8.6328125 67.25390625 8.6328125 66.75390625 12.1328125 C64.53527596 15.03998323 63.23445696 15.97262893 59.75390625 17.1328125 C59.75390625 30.6628125 59.75390625 44.1928125 59.75390625 58.1328125 C61.73390625 59.1228125 63.71390625 60.1128125 65.75390625 61.1328125 C67.1982148 64.02142959 67.13079131 65.92928951 66.75390625 69.1328125 C64.17302234 72.41679798 62.67177543 73.9544009 58.52207947 74.76100159 C57.30170486 74.76196335 56.08133026 74.76292511 54.82397461 74.76391602 C54.14691971 74.77107132 53.46986481 74.77822662 52.77229309 74.78559875 C50.54541523 74.80243965 48.32056375 74.78311617 46.09375 74.76171875 C44.54105971 74.7625478 42.98836951 74.76500853 41.4356842 74.76902771 C38.1865894 74.77188238 34.93818523 74.75721633 31.68920898 74.72973633 C27.52707197 74.69562462 23.36616723 74.70168375 19.20397091 74.7203989 C15.99969733 74.73097207 12.79571005 74.72202889 9.59146309 74.70701408 C8.05688896 74.70183598 6.5222849 74.70230959 4.98771477 74.70855904 C2.84263774 74.71401665 0.69931981 74.69362429 -1.44555664 74.66625977 C-2.66513565 74.66006119 -3.88471466 74.65386261 -5.14125061 74.6474762 C-8.82230893 74.03729816 -10.00068112 73.0532998 -12.24609375 70.1328125 C-12.77734375 68.1328125 -12.77734375 68.1328125 -12.74609375 66.1328125 C-12.7615625 65.1428125 -12.7615625 65.1428125 -12.77734375 64.1328125 C-11.97624557 61.11691348 -10.71806278 60.0339512 -8.24609375 58.1328125 C-5.4293755 57.78400451 -3.0060032 57.66406749 -0.19921875 57.7421875 C0.48479004 57.74621582 1.16879883 57.75024414 1.87353516 57.75439453 C4.41726688 57.77524941 6.96061481 57.8310954 9.50390625 57.8828125 C18.04265625 58.0065625 18.04265625 58.0065625 26.75390625 58.1328125 C26.75390625 44.6028125 26.75390625 31.0728125 26.75390625 17.1328125 C16.11854231 17.2512855 16.11854231 17.2512855 5.48364258 17.40307617 C4.14274819 17.41184432 2.80184578 17.41948748 1.4609375 17.42578125 C0.77398804 17.44112915 0.08703857 17.45647705 -0.62072754 17.47229004 C-5.02527349 17.4746756 -7.70448075 16.76107746 -11.24609375 14.1328125 C-12.24609375 13.1328125 -12.24609375 13.1328125 -12.49609375 9.3203125 C-12.46041288 6.4760373 -12.31161215 5.25448953 -10.93359375 2.6953125 C-7.66313418 -0.33289081 -4.23680195 0.0042005 0 0 Z " fill="#C7D1E4" transform="translate(36.24609375,44.8671875)"/>
<path d="M0 0 C0.66554901 -0.00540298 1.33109802 -0.01080597 2.01681519 -0.01637268 C4.21161711 -0.02885527 6.40510574 -0.01237239 8.59985352 0.00561523 C10.12915618 0.00546021 11.65845923 0.00397074 13.1877594 0.00120544 C16.3914631 -0.00017839 19.59471904 0.01237477 22.79833984 0.03515625 C26.89859098 0.06351727 30.99809691 0.0608101 35.09840298 0.04806614 C38.25635608 0.04109972 41.41413794 0.04890955 44.57206917 0.06132317 C46.08349004 0.06583003 47.59492935 0.06618115 49.10635185 0.06225777 C51.2223238 0.05933658 53.33728146 0.07589462 55.453125 0.09765625 C56.65573471 0.10305923 57.85834442 0.10846222 59.09739685 0.11402893 C62.88554181 0.57384461 65.57281623 1.78326545 68.29125977 4.50170898 C68.87898414 10.73158739 68.87898414 10.73158739 66.47875977 13.87670898 C64.29125977 15.50170898 64.29125977 15.50170898 61.29125977 16.50170898 C61.16775894 22.28572771 61.07696786 28.06898108 61.01660156 33.85400391 C60.99144062 35.82223882 60.95730812 37.79038016 60.9140625 39.75830078 C60.85347907 42.58576517 60.8250667 45.4119958 60.80297852 48.23999023 C60.77717209 49.12133133 60.75136566 50.00267242 60.72477722 50.91072083 C60.72371678 53.21499981 60.75955479 55.25933962 61.29125977 57.50170898 C63.57964913 59.55636451 63.57964913 59.55636451 66.29125977 60.50170898 C68.29125977 62.50170898 68.29125977 62.50170898 68.66625977 65.87670898 C68.29125977 69.50170898 68.29125977 69.50170898 66.71411133 71.69018555 C63.43060046 74.14520879 61.23044459 74.04450411 57.15063477 74.11108398 C56.4433725 74.12780151 55.73611023 74.14451904 55.00741577 74.16174316 C52.68525333 74.21132334 50.36385576 74.23235055 48.04125977 74.25170898 C46.43039968 74.27749191 44.81955913 74.30452427 43.20874023 74.33276367 C39.0566817 74.39985953 34.90474881 74.4405898 30.75231934 74.47631836 C27.58769661 74.50896761 24.42368046 74.56454615 21.25939941 74.62054443 C18.33801992 74.66896814 15.41663821 74.70211968 12.49499512 74.7298584 C11.11888479 74.74432336 9.74281217 74.7630608 8.36682129 74.78625488 C6.4485799 74.81595775 4.53003267 74.82335775 2.61157227 74.82983398 C1.53149902 74.83917969 0.45142578 74.84852539 -0.66137695 74.8581543 C-4.23578664 74.44006119 -6.63716593 73.34926402 -9.70874023 71.50170898 C-11.29784791 68.32349364 -11.11294998 64.96231169 -10.70874023 61.50170898 C-8.89710756 58.82739409 -7.83112947 58.54250539 -4.70874023 57.50170898 C-2.19532406 57.41703619 0.29017876 57.38561363 2.80297852 57.40405273 C3.44867798 57.40505981 4.09437744 57.40606689 4.75964355 57.40710449 C7.16603375 57.41232688 9.57239859 57.42628816 11.97875977 57.43920898 C17.36188477 57.45983398 22.74500977 57.48045898 28.29125977 57.50170898 C28.29125977 43.97170898 28.29125977 30.44170898 28.29125977 16.50170898 C17.3266265 16.65969266 17.3266265 16.65969266 6.36279297 16.86206055 C4.98088825 16.87375085 3.5989697 16.88394187 2.21704102 16.89233398 C1.50849976 16.91279785 0.7999585 16.93326172 0.06994629 16.9543457 C-3.58854014 16.95690991 -5.55561062 16.60010248 -8.66479492 14.60229492 C-10.70874023 12.50170898 -10.70874023 12.50170898 -11.33764648 10.50170898 C-11.31573242 9.84170898 -11.29381836 9.18170898 -11.27124023 8.50170898 C-11.2725293 7.84170898 -11.27381836 7.18170898 -11.27514648 6.50170898 C-9.62403707 0.67158471 -5.44254819 0.00075251 0 0 Z " fill="#C6D1E4" transform="translate(34.708740234375,275.498291015625)"/>
<path d="M0 0 C1.25071289 -0.00225586 2.50142578 -0.00451172 3.79003906 -0.00683594 C5.16341419 -0.00279296 6.536787 0.00211254 7.91015625 0.0078125 C8.95036926 0.01113586 8.95036926 0.01113586 10.01159668 0.01452637 C14.52806361 0.03127406 19.04420723 0.06597635 23.56048584 0.10998535 C25.18811731 0.12538815 26.81576379 0.13926894 28.44342041 0.1517334 C33.40399349 0.18975473 38.36339494 0.25040073 43.32327271 0.34234619 C44.91845095 0.36924934 46.51375381 0.38959053 48.10910034 0.40325928 C50.35087756 0.42443995 52.59080213 0.470759 54.83203125 0.5234375 C56.75740723 0.5548584 56.75740723 0.5548584 58.72167969 0.58691406 C62.51193403 1.22336711 63.73423161 2.05308224 65.97265625 5.1328125 C66.5418748 9.11734234 66.64414804 11.18774998 64.28515625 14.5078125 C61.97265625 16.1328125 61.97265625 16.1328125 56.97265625 17.1328125 C56.97265625 30.6628125 56.97265625 44.1928125 56.97265625 58.1328125 C59.28265625 58.7928125 61.59265625 59.4528125 63.97265625 60.1328125 C66.43589694 63.82767353 66.36257313 65.76574342 65.97265625 70.1328125 C64.14150418 72.74874403 63.06297259 73.10270705 59.97265625 74.1328125 C57.77090392 74.24252984 55.5659833 74.29183619 53.36157227 74.30981445 C52.69456299 74.31638565 52.02755371 74.32295685 51.34033203 74.32972717 C49.135741 74.34941908 46.93121785 74.36111145 44.7265625 74.37109375 C43.97305952 74.37516928 43.21955654 74.3792448 42.44322014 74.38344383 C38.45751089 74.40428372 34.47183589 74.41859628 30.48608398 74.42797852 C26.36887771 74.43905884 22.25220953 74.47348266 18.13519382 74.51315022 C14.96875496 74.53927914 11.80244532 74.54766682 8.63590813 74.55125999 C7.11803476 74.55613304 5.60016744 74.56776754 4.08239937 74.58629799 C1.95887453 74.61061958 -0.16324407 74.60973871 -2.28686523 74.6027832 C-4.09863503 74.61158257 -4.09863503 74.61158257 -5.94700623 74.62055969 C-9.62492071 74.03819089 -10.78481237 73.04431073 -13.02734375 70.1328125 C-13.59375 68.1328125 -13.59375 68.1328125 -13.58984375 66.1328125 C-13.61175781 65.4728125 -13.63367188 64.8128125 -13.65625 64.1328125 C-12.65017725 60.93337618 -10.81160721 59.92184204 -8.02734375 58.1328125 C-5.24557565 57.79036173 -2.86919896 57.66225349 -0.1015625 57.7421875 C0.56178101 57.74621582 1.22512451 57.75024414 1.90856934 57.75439453 C4.36771622 57.77519783 6.82646633 57.83104337 9.28515625 57.8828125 C14.79203125 57.9653125 20.29890625 58.0478125 25.97265625 58.1328125 C25.97265625 44.6028125 25.97265625 31.0728125 25.97265625 17.1328125 C15.33729231 17.2512855 15.33729231 17.2512855 4.70239258 17.40307617 C3.36149819 17.41184432 2.02059578 17.41948748 0.6796875 17.42578125 C-0.00726196 17.44112915 -0.69421143 17.45647705 -1.40197754 17.47229004 C-5.80652349 17.4746756 -8.48573075 16.76107746 -12.02734375 14.1328125 C-13.02734375 13.1328125 -13.02734375 13.1328125 -13.33984375 9.3203125 C-13.30566046 6.14126649 -13.18595781 5.34612106 -11.21484375 2.6953125 C-7.49043546 0.03502087 -4.45181761 0.00458242 0 0 Z " fill="#C4CFE2" transform="translate(37.02734375,159.8671875)"/>
<path d="M0 0 C1.06079828 -0.00935994 1.06079828 -0.00935994 2.14302683 -0.01890898 C4.50694772 -0.03483282 6.86983656 -0.02223801 9.23376465 -0.00964355 C10.9308075 -0.01506498 12.62784565 -0.02218775 14.32487488 -0.03088379 C18.93025694 -0.04911777 23.53528054 -0.04204934 28.14066887 -0.02936745 C32.96032553 -0.01924017 37.77995151 -0.02863237 42.59960938 -0.03491211 C50.69337474 -0.0421893 58.78699411 -0.03259891 66.8807373 -0.0135498 C76.23813849 0.00821908 85.59519106 0.00116776 94.95258379 -0.02085543 C102.98669688 -0.03900736 111.02070502 -0.04156876 119.05483198 -0.03110075 C123.85324792 -0.02486469 128.65149999 -0.0240333 133.4499054 -0.0372467 C137.9611372 -0.04880158 142.47191955 -0.04078621 146.9831028 -0.01766968 C148.63870815 -0.01238063 150.29435133 -0.01389974 151.94994164 -0.02272034 C154.21022101 -0.03365232 156.46906043 -0.01994274 158.72924805 0 C159.99390648 0.0015081 161.25856491 0.0030162 162.56154633 0.00457001 C166.44586468 0.59651134 168.11209412 1.75552505 170.86462402 4.50793457 C171.49353027 6.50793457 171.49353027 6.50793457 171.42712402 8.50793457 C171.42841309 9.16793457 171.42970215 9.82793457 171.43103027 10.50793457 C170.59396136 13.46365378 169.26606178 14.60538027 166.86462402 16.50793457 C163.65335941 17.01688576 163.65335941 17.01688576 159.77357483 17.02932739 C159.0590633 17.03697849 158.34455176 17.04462958 157.60838836 17.05251253 C155.21376472 17.07315339 152.82010194 17.06519324 150.42541504 17.05725098 C148.70881258 17.06594512 146.99221789 17.07631139 145.27563477 17.08822632 C140.61237419 17.11503025 135.94943754 17.11616118 131.28611493 17.11109972 C127.39433486 17.10896194 123.50262056 17.11872275 119.61085457 17.12831056 C110.43033912 17.15050906 101.24998732 17.15137108 92.06945801 17.13928223 C82.59551738 17.12719894 73.12217053 17.15183146 63.64833122 17.19442236 C55.51656636 17.22963683 47.38499064 17.24165997 39.25315231 17.23514688 C34.39537062 17.23151805 29.5380125 17.2368238 24.68029976 17.26457596 C20.11229997 17.28969602 15.54522679 17.28588163 10.97724152 17.25975418 C9.30066301 17.2550153 7.62401967 17.26051877 5.94751549 17.27700043 C3.65815014 17.29788452 1.37190919 17.28179021 -0.91734314 17.25637817 C-2.19804908 17.25671366 -3.47875502 17.25704914 -4.79827023 17.25739479 C-9.48412382 16.20502752 -10.53744126 14.48505601 -13.13537598 10.50793457 C-13.26037598 7.38293457 -13.26037598 7.38293457 -12.13537598 4.50793457 C-8.21188346 0.54087321 -5.49835813 0.00655678 0 0 Z " fill="#C8D2E5" transform="translate(190.1353759765625,102.4920654296875)"/>
<path d="M0 0 C0.33 0.66 0.66 1.32 1 2 C2.99045015 2.6946601 4.99306193 3.35452031 7 4 C9.67987488 5.14831316 12.30403872 6.40932327 14.93359375 7.66796875 C15.68858658 8.0258699 16.44357941 8.38377106 17.22145081 8.7525177 C19.62834591 9.89429111 22.03298216 11.04072995 24.4375 12.1875 C26.8021405 13.3114745 29.1672432 14.43447207 31.53237915 15.55740356 C33.08464127 16.29451286 34.63670614 17.03203766 36.18856812 17.76998901 C43.44180969 21.21709417 50.71716282 24.61595297 58 28 C54.04247722 32.76932233 49.88878474 37.1797614 45.44140625 41.49609375 C43.56406513 43.4214948 41.83745099 45.35253969 40.1015625 47.3984375 C34.37141179 54.00410283 28.02514794 60.04133982 21.8125 66.1875 C19.29523719 68.6780477 16.78139535 71.17197755 14.26953125 73.66796875 C13.4147393 74.51031319 13.4147393 74.51031319 12.54267883 75.36967468 C9.45912955 78.43428044 6.71880467 81.60101544 4 85 C1.20129973 86.39935013 -0.90498792 86.25265405 -4 86 C-5.67370605 84.96446228 -5.67370605 84.96446228 -7 83 C-7.26689972 80.34811269 -7.35404072 77.96402518 -7.28320312 75.31860352 C-7.27218819 74.56212052 -7.26117325 73.80563753 -7.24982452 73.02623081 C-7.08355322 65.27507792 -6.3392981 57.60165114 -5.46875 49.90234375 C-5.31101712 48.44699003 -5.15409238 46.99154852 -4.9979248 45.536026 C-4.59161841 41.7689805 -4.17460657 38.00320125 -3.75506592 34.23760986 C-3.32611112 30.36942091 -2.90768871 26.50009303 -2.48828125 22.63085938 C-1.66894366 15.08611088 -0.83825128 7.54267315 0 0 Z " fill="#F1D4B0" transform="translate(283,377)"/>
<path d="M0 0 C0.71198797 -0.00568326 1.42397594 -0.01136651 2.15753931 -0.01722199 C4.53787095 -0.03011775 6.91649945 -0.00734431 9.29673767 0.0153656 C11.00525265 0.01350138 12.71376643 0.00946438 14.42227173 0.00341797 C19.05869321 -0.00656011 23.69450374 0.01461854 28.33083653 0.04189801 C33.18163584 0.06572171 38.03242288 0.06278301 42.88327026 0.0632019 C51.02835946 0.06783037 59.17321494 0.09147588 67.31822205 0.12767029 C76.73804928 0.16941799 86.15766608 0.18698595 95.57758051 0.19029003 C105.60309459 0.19388845 115.62853284 0.21276115 125.6540153 0.23741031 C128.54459269 0.24364141 131.43516431 0.24727615 134.32574654 0.25044441 C138.86560755 0.25634183 143.40531795 0.27264613 147.94511604 0.29704857 C149.61242509 0.30449372 151.2797531 0.30856083 152.9470787 0.30902863 C155.22049007 0.31028494 157.49350336 0.323819 159.7668457 0.34057617 C161.03980027 0.34522668 162.31275484 0.34987719 163.62428379 0.35466862 C166.64172739 0.6002286 168.34344957 0.92290242 170.81993103 2.61473083 C172.37453408 5.72393693 172.54713796 9.24556111 171.81993103 12.61473083 C169.42783068 15.03173653 168.01568468 15.5917376 164.60587311 15.99225426 C162.68343151 15.99395087 162.68343151 15.99395087 160.72215271 15.99568176 C160.00693561 16.00036173 159.29171851 16.00504171 158.55482817 16.0098635 C156.15798118 16.02183067 153.76170415 16.01234985 151.36485291 16.00291443 C149.64663357 16.00697938 147.92841684 16.01232082 146.21020508 16.0188446 C141.54290178 16.03253318 136.87579719 16.0272132 132.20849037 16.01770735 C127.32697128 16.01011874 122.44546934 16.01715414 117.56394958 16.02186584 C109.36587973 16.02732573 101.16789093 16.02012568 92.96983337 16.00584412 C83.48808596 15.98951716 74.00653206 15.99480551 64.52478933 16.01132333 C56.3879663 16.02493157 48.25120156 16.0268611 40.11437082 16.01900733 C35.25284051 16.01432716 30.3914012 16.01371538 25.52987671 16.02361679 C20.95963914 16.03227454 16.38965139 16.0262864 11.81944084 16.00893402 C10.14083712 16.0049628 8.46221243 16.00611408 6.78361702 16.01272202 C4.49469605 16.02090269 2.2065789 16.01065882 -0.08229065 15.99568176 C-1.36391838 15.99455069 -2.64554611 15.99341961 -3.96601105 15.99225426 C-7.40631656 15.58815578 -8.79904732 15.09014405 -11.18006897 12.61473083 C-12.24256897 9.23973083 -12.24256897 9.23973083 -12.18006897 5.61473083 C-8.49796092 0.79852797 -5.95868084 -0.00941221 0 0 Z " fill="#C7D2E5" transform="translate(189.18006896972656,160.38526916503906)"/>
<path d="M0 0 C0.72126849 -0.00256327 1.44253698 -0.00512655 2.18566209 -0.0077675 C4.60880761 -0.0127192 7.03133363 0.00380983 9.454422 0.02018738 C11.18883245 0.02103335 12.92324398 0.02055909 14.65765381 0.01885986 C19.37229549 0.01799733 24.08670929 0.03566481 28.8012979 0.05658174 C33.72605094 0.07530557 38.6508089 0.07709558 43.57559204 0.08065796 C52.90410843 0.08999107 62.23251965 0.11462196 71.56098968 0.14470643 C82.1799476 0.17821108 92.79891048 0.19472654 103.41790807 0.20979273 C125.26452941 0.24117042 147.111056 0.29395549 168.95759583 0.36076355 C168.52616229 1.73767907 168.08708418 3.11219974 167.64509583 4.48576355 C167.40146301 5.25146667 167.1578302 6.0171698 166.90681458 6.80607605 C165.80183069 9.77998328 164.41448621 12.54492498 162.95759583 15.36076355 C141.0091511 15.47752591 119.06075753 15.56571698 97.11206532 15.61982441 C86.92106562 15.64561437 76.73025882 15.68078007 66.53938293 15.73796082 C57.6577899 15.78777148 48.77633655 15.8200488 39.89460772 15.83120602 C35.19101496 15.83772875 30.48782184 15.85307537 25.78435707 15.88941383 C21.3577485 15.92333645 16.93170439 15.93382413 12.50497818 15.92630196 C10.87997686 15.92767818 9.25495679 15.93763325 7.63006783 15.95679092 C5.41093879 15.9816727 3.19394033 15.97568923 0.97476196 15.96203613 C-0.26689319 15.9666451 -1.50854834 15.97125406 -2.7878294 15.97600269 C-6.9704903 15.18531977 -8.48086274 13.70210956 -11.04240417 10.36076355 C-11.04240417 6.91396246 -10.85034109 4.57617117 -8.92005444 1.67237377 C-6.01689644 -0.35559266 -3.50729983 -0.0074889 0 0 Z " fill="#C7D2E5" transform="translate(188.0424041748047,218.6392364501953)"/>
<path d="M0 0 C8.81445933 7.28150988 13.39760994 13.99013173 14.6875 25.3125 C15.29386078 35.84472305 11.82048208 43.18386821 6.875 52.375 C2.56207693 51.81781482 -0.81282004 50.7835114 -4.703125 48.85546875 C-5.77006592 48.33299561 -6.83700684 47.81052246 -7.9362793 47.2722168 C-9.07105713 46.70801025 -10.20583496 46.14380371 -11.375 45.5625 C-13.78165637 44.38353068 -16.18903755 43.20619032 -18.59765625 42.03125 C-19.21272537 41.73043015 -19.82779449 41.42961029 -20.46150208 41.11967468 C-27.1988678 37.83298533 -34.00031842 34.69084294 -40.8125 31.5625 C-41.94655273 31.04131592 -43.08060547 30.52013184 -44.24902344 29.9831543 C-46.87348701 28.7785394 -49.49872794 27.57566571 -52.125 26.375 C-48.74226112 15.59449571 -43.41876125 5.84034086 -33.56640625 -0.19140625 C-22.15681132 -6.14202708 -11.4089603 -5.93265936 0 0 Z " fill="#ED5354" transform="translate(474.125,54.625)"/>
<path d="M0 0 C3.41714903 1.10160285 6.61099285 2.54113127 9.8371582 4.09912109 C10.52030594 4.42331024 11.20345367 4.74749939 11.90730286 5.08151245 C14.12976738 6.13719526 16.3486227 7.20024963 18.56762695 8.26318359 C21.64330148 9.72654268 24.72076398 11.18612589 27.7980957 12.64599609 C28.56255005 13.0093103 29.32700439 13.37262451 30.11462402 13.74694824 C37.78794008 17.38971131 45.50707075 20.92795648 53.24267578 24.43652344 C54.96317579 25.21901117 56.68140388 26.00652429 58.39672852 26.80029297 C59.96957286 27.52582034 61.54981741 28.23551448 63.13696289 28.92919922 C68.53143521 31.3910098 68.53143521 31.3910098 69.57885742 33.71899414 C69.80387624 36.48809688 69.13812009 38.02509996 67.98950195 40.54833984 C67.59375977 41.42425781 67.19801758 42.30017578 66.7902832 43.20263672 C66.36618164 44.10949219 65.94208008 45.01634766 65.50512695 45.95068359 C64.89217773 47.31676758 64.89217773 47.31676758 64.2668457 48.71044922 C60.41457316 57.11484446 60.41457316 57.11484446 57.75512695 58.88818359 C53.11015001 58.67183552 49.4962445 57.01271507 45.37231445 54.96630859 C44.76815201 54.66982925 44.16398956 54.37334991 43.54151917 54.06788635 C41.56766301 53.09803995 39.59902991 52.11804046 37.63012695 51.13818359 C34.84963228 49.76809257 32.06626498 48.4038995 29.2824707 47.04052734 C28.22344292 46.52077583 28.22344292 46.52077583 27.14302063 45.99052429 C22.35444953 43.64765559 17.53957605 41.37004891 12.6965332 39.14208984 C12.05864868 38.84851593 11.42076416 38.55494202 10.7635498 38.25247192 C7.7347015 36.86130125 4.70237474 35.47840333 1.66674805 34.10205078 C-12.54713251 27.59306794 -12.54713251 27.59306794 -13.99804688 24.04785156 C-14.31247927 21.29664582 -13.67366861 19.93285723 -12.47924805 17.44677734 C-12.08350586 16.61597656 -11.68776367 15.78517578 -11.2800293 14.92919922 C-10.85592773 14.07003906 -10.43182617 13.21087891 -9.99487305 12.32568359 C-9.58624023 11.46265625 -9.17760742 10.59962891 -8.7565918 9.71044922 C-3.9680631 -0.19764795 -3.9680631 -0.19764795 0 0 Z " fill="#348DEF" transform="translate(417.244873046875,78.11181640625)"/>
<path d="M0 0 C1.25920761 -0.00549866 2.51841522 -0.01099731 3.81578064 -0.0166626 C5.20859146 -0.00250692 6.60139843 0.01203231 7.99420166 0.0269165 C9.46275298 0.02804495 10.93130656 0.02741117 12.39985657 0.02514648 C16.38522742 0.02399829 20.37011724 0.04752427 24.35537624 0.07544231 C28.5207062 0.10043858 32.68604704 0.10279656 36.85144043 0.10754395 C44.73854956 0.11997897 52.62543704 0.15280762 60.51244855 0.1929419 C69.49178292 0.2376433 78.47112785 0.25964253 87.45054579 0.27972364 C105.92127812 0.32153985 124.3918041 0.39190206 142.86236572 0.48101807 C141.88610541 2.79478486 140.9065144 5.10703869 139.92486572 7.41851807 C139.64707275 8.07787354 139.36927979 8.737229 139.08306885 9.41656494 C136.97564697 14.36773682 136.97564697 14.36773682 135.86236572 15.48101807 C134.02168594 15.58405103 132.17701936 15.61623572 130.33346558 15.62145996 C129.13320236 15.6271701 127.93293915 15.63288025 126.69630432 15.63876343 C125.35403453 15.64000891 124.01176462 15.64113398 122.66949463 15.64215088 C121.26536426 15.64677674 119.86123516 15.65180109 118.45710754 15.65719604 C114.63270762 15.67034461 110.80832527 15.6767698 106.98390627 15.6812067 C104.59669411 15.68413355 102.2094868 15.6882376 99.82227707 15.69271088 C92.35945139 15.70639243 84.89663674 15.71605579 77.43379939 15.71991277 C68.80757311 15.72439497 60.18150517 15.74194755 51.55532706 15.77091336 C44.89543919 15.79250325 38.23559596 15.80261561 31.57567346 15.80395389 C27.5943897 15.80500388 23.61325464 15.8109526 19.6320076 15.8287735 C15.8875263 15.84520778 12.14330623 15.84743252 8.3988018 15.83863449 C7.02293004 15.8378616 5.64704451 15.84223988 4.27120781 15.85209274 C2.39592517 15.86473672 0.52053842 15.85717136 -1.35476685 15.84851074 C-2.93046731 15.85071058 -2.93046731 15.85071058 -4.53800011 15.85295486 C-7.13763428 15.48101807 -7.13763428 15.48101807 -8.97171974 14.20414352 C-10.61498884 11.77552742 -10.55085037 9.38374133 -10.63372803 6.51617432 C-9.26698913 0.90931632 -5.17698519 -0.01743093 0 0 Z " fill="#C7D2E5" transform="translate(188.13763427734375,275.51898193359375)"/>
<path d="M0 0 C1.03202545 -0.00412399 2.0640509 -0.00824799 3.12734985 -0.01249695 C4.25375885 -0.00171112 5.38016785 0.00907471 6.54071045 0.02018738 C7.73123016 0.0197493 8.92174988 0.01931122 10.14834595 0.01885986 C13.40849037 0.02059104 16.66824783 0.03563017 19.92831516 0.05658174 C23.33691792 0.07534321 26.74552838 0.07709855 30.1541748 0.08065796 C36.60690409 0.08998001 43.05948079 0.11459585 49.5121429 0.14470643 C56.8591118 0.17824554 64.20608801 0.1947352 71.55311441 0.20979273 C86.66462466 0.24114534 101.77599213 0.29390885 116.88739014 0.36076355 C115.91112983 2.67453034 114.93153881 4.98678418 113.94989014 7.29826355 C113.67209717 7.95761902 113.3943042 8.61697449 113.10809326 9.29631042 C111.00067139 14.2474823 111.00067139 14.2474823 109.88739014 15.36076355 C108.40385327 15.46513213 106.91539181 15.50038592 105.4282074 15.50793457 C103.98337479 15.51866753 103.98337479 15.51866753 102.50935364 15.52961731 C101.44389816 15.53230621 100.37844269 15.53499512 99.28070068 15.5377655 C97.60762848 15.5476223 97.60762848 15.5476223 95.90075684 15.55767822 C92.1918736 15.57746716 88.48303094 15.58908589 84.77410889 15.5990448 C82.87985641 15.60515809 82.87985641 15.60515809 80.9473362 15.61139488 C74.95443288 15.63012244 68.96155433 15.6446831 62.96862954 15.65300685 C56.04652328 15.66277925 49.1247368 15.68909516 42.20274323 15.72950774 C36.21144161 15.76328822 30.22029541 15.77515041 24.22889137 15.77921104 C21.67833093 15.78409518 19.12777434 15.79576063 16.57727623 15.81424904 C13.01201026 15.83848793 9.44758559 15.83770303 5.88226318 15.83073425 C4.8228804 15.84354431 3.76349762 15.85635437 2.67201233 15.86955261 C-4.47398092 15.818486 -4.47398092 15.818486 -7.7665863 13.45858765 C-10.08991705 9.83759662 -9.6515189 7.60467218 -9.11260986 3.36076355 C-6.21470723 0.44282589 -4.03392319 -0.01245038 0 0 Z " fill="#C7D2E4" transform="translate(187.11260986328125,333.6392364501953)"/>
<path d="M0 0 C0.97594116 -0.00058411 1.95188232 -0.00116821 2.95739746 -0.00177002 C6.18257234 0.00101625 9.40682255 0.0321347 12.63183594 0.06347656 C14.86813858 0.070937 17.10444776 0.07663086 19.34075928 0.08062744 C25.22637993 0.09589919 31.11160568 0.13519474 36.99707031 0.17944336 C43.00287534 0.22036257 49.00874419 0.23863132 55.01464844 0.25878906 C66.7986761 0.30168712 78.58241068 0.36995746 90.36621094 0.45410156 C90.22511108 2.55859094 90.07816919 4.66268927 89.92871094 6.76660156 C89.80689453 8.52423828 89.80689453 8.52423828 89.68261719 10.31738281 C89.36621094 13.45410156 89.36621094 13.45410156 88.36621094 16.45410156 C75.80539866 16.54675903 63.24466762 16.61784519 50.68358326 16.66135025 C44.85102586 16.68222994 39.01870218 16.71055504 33.1862793 16.75585938 C27.55824675 16.79930277 21.93043909 16.8232358 16.30225182 16.83361053 C14.15442044 16.84100455 12.00660144 16.85544323 9.85886574 16.87702179 C6.85168428 16.90603522 3.84543354 16.91005836 0.83813477 16.90820312 C-0.05091049 16.92258423 -0.93995575 16.93696533 -1.85594177 16.95178223 C-5.99242535 16.92414696 -8.09869373 16.78773876 -11.68647766 14.55072021 C-13.78658915 12.28958575 -14.29694839 11.48572378 -14.19628906 8.45410156 C-14.19757813 7.79410156 -14.19886719 7.13410156 -14.20019531 6.45410156 C-12.16878358 -0.7188833 -6.18111848 -0.09654828 0 0 Z " fill="#C8D2E5" transform="translate(191.6337890625,390.5458984375)"/>
<path d="M0 0 C11.22 0 22.44 0 34 0 C33.67 0.66 33.34 1.32 33 2 C32.71525992 7.36789111 32.68624131 12.73684262 32.64990234 18.11157227 C32.63334909 19.90695158 32.6060671 21.70226516 32.56787109 23.49731445 C32.51303077 26.08840041 32.49121852 28.67794268 32.4765625 31.26953125 C32.45389313 32.06865433 32.43122375 32.8677774 32.40786743 33.69111633 C32.42402413 37.96524849 32.5874787 39.49959518 35.40771484 42.9206543 C36.26316895 43.60683838 37.11862305 44.29302246 38 45 C38.66 45.66 39.32 46.32 40 47 C35.39194479 47.12394421 30.78486719 47.21449675 26.17553711 47.2746582 C24.60895886 47.29974547 23.04249701 47.33382415 21.47631836 47.37719727 C19.21959691 47.43811226 16.96442706 47.46626499 14.70703125 47.48828125 C14.01100296 47.51408768 13.31497467 47.5398941 12.59785461 47.56648254 C8.82923385 47.56863796 7.15007449 47.11652224 4.14331055 44.78198242 C0.02134658 39.43173986 -0.28252617 35.03782633 -0.1953125 28.41796875 C-0.1924826 27.60378983 -0.18965271 26.7896109 -0.18673706 25.95075989 C-0.17558584 23.362854 -0.15049083 20.77530042 -0.125 18.1875 C-0.11496365 16.42773939 -0.10583894 14.66797333 -0.09765625 12.90820312 C-0.07736875 8.60522543 -0.03821119 4.30300482 0 0 Z " fill="#C7D2E5" transform="translate(63,464)"/>
<path d="M0 0 C1.05904289 0.00424484 1.05904289 0.00424484 2.13948059 0.00857544 C4.39133758 0.01975786 6.64279477 0.0448583 8.89453125 0.0703125 C10.42252029 0.08034483 11.95051558 0.08947024 13.47851562 0.09765625 C17.22150788 0.11969078 20.96420181 0.15420683 24.70703125 0.1953125 C23.89661377 0.99275879 23.08619629 1.79020508 22.2512207 2.61181641 C18.8878438 6.67088287 18.97621839 10.42749106 19 15.53125 C18.98487869 16.41060211 18.96975739 17.28995422 18.95417786 18.19595337 C18.91140049 20.98766929 18.90247267 23.7783019 18.89453125 26.5703125 C18.87137914 28.47008068 18.84601232 30.36982325 18.81835938 32.26953125 C18.75145854 36.91204365 18.7303987 41.55156349 18.70703125 46.1953125 C8.14703125 46.1953125 -2.41296875 46.1953125 -13.29296875 46.1953125 C-13.36207082 41.05360645 -13.42173311 35.91352998 -13.45776367 30.77172852 C-13.47279304 29.024928 -13.49322229 27.27816485 -13.51928711 25.53149414 C-13.55592955 23.01178735 -13.57275367 20.49258211 -13.5859375 17.97265625 C-13.60142136 17.19945541 -13.61690521 16.42625458 -13.63285828 15.62962341 C-13.6344533 10.41896961 -12.79153691 6.80032308 -10.29296875 2.1953125 C-6.69852692 -0.20098205 -4.14435223 -0.06250081 0 0 Z " fill="#C7D2E4" transform="translate(76.29296875,-0.1953125)"/>
<path d="M0 0 C10.56 0 21.12 0 32 0 C32 13.86 32 27.72 32 42 C21.44 42 10.88 42 0 42 C0 28.14 0 14.28 0 0 Z " fill="#C7D2E5" transform="translate(63,349)"/>
<path d="M0 0 C10.56 0 21.12 0 32 0 C32 13.86 32 27.72 32 42 C21.44 42 10.88 42 0 42 C0 28.14 0 14.28 0 0 Z " fill="#C7D2E5" transform="translate(63,234)"/>
<path d="M0 0 C10.56 0 21.12 0 32 0 C32 13.86 32 27.72 32 42 C21.44 42 10.88 42 0 42 C0 28.14 0 14.28 0 0 Z " fill="#C7D2E5" transform="translate(63,119)"/>
<path d="M0 0 C0.67530258 -0.00700928 1.35060516 -0.01401855 2.04637146 -0.02124023 C4.27360439 -0.03881234 6.4995613 -0.02720049 8.72680664 -0.01367188 C10.27853132 -0.01636737 11.83025436 -0.02025027 13.38197327 -0.02526855 C16.63274226 -0.03116275 19.88307127 -0.02260488 23.13378906 -0.00390625 C27.29470131 0.01886486 31.45458046 0.00577235 35.61545467 -0.01819611 C38.81974525 -0.03267282 42.02379224 -0.02803932 45.22809029 -0.01768494 C46.76184779 -0.01502181 48.29562761 -0.01827287 49.82935905 -0.02760315 C51.97667583 -0.03779828 54.12233732 -0.02222904 56.26953125 0 C57.48990585 0.00318237 58.71028046 0.00636475 59.96763611 0.00964355 C63.83103046 0.61683932 65.50644502 1.71647516 68.19946289 4.51757812 C68.76196289 8.01757812 68.76196289 8.01757812 68.19946289 11.51757812 C65.9808326 14.42474885 64.6800136 15.35739455 61.19946289 16.51757812 C59.02833098 16.62717845 56.85399782 16.67658646 54.68017578 16.69458008 C53.69429222 16.70443687 53.69429222 16.70443687 52.68849182 16.7144928 C50.51636639 16.73418299 48.34430984 16.74587669 46.17211914 16.75585938 C45.42964872 16.7599349 44.68717831 16.76401043 43.92220879 16.76820946 C39.99485428 16.78904861 36.06753452 16.80336149 32.14013672 16.81274414 C28.08346097 16.82382434 24.02733137 16.85824817 19.97084904 16.89791584 C16.85073317 16.9240462 13.73074843 16.93243257 10.61053276 16.93602562 C9.11498754 16.94089829 7.61944843 16.95253176 6.12401009 16.97106361 C4.03161187 16.9953884 1.94064056 16.99450383 -0.15185547 16.98754883 C-1.93697792 16.99634819 -1.93697792 16.99634819 -3.75816345 17.00532532 C-7.40863069 16.42008979 -8.57072357 15.40622937 -10.80053711 12.51757812 C-11.33178711 10.51757812 -11.33178711 10.51757812 -11.30053711 8.51757812 C-11.31600586 7.52757812 -11.31600586 7.52757812 -11.33178711 6.51757812 C-9.76645016 0.62454489 -5.42665614 0.01416033 0 0 Z " fill="#596676" transform="translate(34.800537109375,390.482421875)"/>
<path d="M0 0 C1.94386597 -0.00338379 1.94386597 -0.00338379 3.92700195 -0.00683594 C5.34847269 -0.00279421 6.7699412 0.00211082 8.19140625 0.0078125 C8.90855804 0.01002808 9.62570984 0.01224365 10.36459351 0.01452637 C15.00905835 0.03119871 19.65320599 0.06573628 24.29748535 0.10998535 C25.94940949 0.12533643 27.60134777 0.13922781 29.2532959 0.1517334 C34.22679319 0.18957025 39.19910935 0.25004981 44.17190552 0.34234619 C45.76366563 0.36924644 47.35555054 0.38958905 48.94747925 0.40325928 C51.18193664 0.42442841 53.41453102 0.47072738 55.6484375 0.5234375 C57.56426636 0.5548584 57.56426636 0.5548584 59.51879883 0.58691406 C63.29821956 1.22466101 64.51945211 2.06280106 66.75390625 5.1328125 C67.30306453 8.97692049 67.48901313 11.12281794 65.16674805 14.31347656 C61.89893589 16.77747901 59.72056506 16.67540183 55.6484375 16.7421875 C54.94386414 16.75890503 54.23929077 16.77562256 53.5133667 16.79284668 C51.19760248 16.84244991 48.88260583 16.86346162 46.56640625 16.8828125 C44.95888286 16.90860526 43.35137894 16.93563842 41.74389648 16.96386719 C37.5782887 17.0312008 33.41280886 17.07186009 29.24682617 17.10742188 C26.01030782 17.14038612 22.77435752 17.19605947 19.53816223 17.25164795 C16.51701286 17.30013727 13.49586256 17.33327685 10.47445679 17.36096191 C9.04343742 17.3754512 7.61245446 17.39420373 6.18154907 17.4173584 C4.18630419 17.44700133 2.19076703 17.4544543 0.1953125 17.4609375 C-0.93189209 17.4702832 -2.05909668 17.47962891 -3.22045898 17.48925781 C-6.63326677 17.08720025 -8.50386618 16.16987813 -11.24609375 14.1328125 C-12.83520142 10.95459715 -12.65030349 7.59341521 -12.24609375 4.1328125 C-9.26687582 -0.26508064 -4.90486173 0.00486283 0 0 Z " fill="#576574" transform="translate(36.24609375,447.8671875)"/>
<path d="M0 0 C0.66554901 -0.00540298 1.33109802 -0.01080597 2.01681519 -0.01637268 C4.21161711 -0.02885527 6.40510574 -0.01237239 8.59985352 0.00561523 C10.12915618 0.00546021 11.65845923 0.00397074 13.1877594 0.00120544 C16.3914631 -0.00017839 19.59471904 0.01237477 22.79833984 0.03515625 C26.89859098 0.06351727 30.99809691 0.0608101 35.09840298 0.04806614 C38.25635608 0.04109972 41.41413794 0.04890955 44.57206917 0.06132317 C46.08349004 0.06583003 47.59492935 0.06618115 49.10635185 0.06225777 C51.2223238 0.05933658 53.33728146 0.07589462 55.453125 0.09765625 C56.65573471 0.10305923 57.85834442 0.10846222 59.09739685 0.11402893 C62.88554181 0.57384461 65.57281623 1.78326545 68.29125977 4.50170898 C68.87898414 10.73158739 68.87898414 10.73158739 66.47875977 13.87670898 C62.68194931 16.69719675 59.475475 16.63999277 54.87963867 16.67871094 C53.91079491 16.68856773 53.91079491 16.68856773 52.92237854 16.69862366 C50.78752521 16.71831475 48.65274202 16.73000879 46.51782227 16.73999023 C45.78763256 16.74406576 45.05744286 16.74814129 44.30512619 16.75234032 C40.44145746 16.77318156 36.57782407 16.78749257 32.71411133 16.796875 C28.72703142 16.80794543 24.7405087 16.84235742 20.75362587 16.8820467 C17.68408174 16.90820629 14.61467067 16.91656612 11.54502487 16.92015648 C10.07542526 16.9250229 8.60583161 16.93663865 7.13634109 16.95519447 C5.07766893 16.97957777 3.02044267 16.97862384 0.96166992 16.97167969 C-0.20842621 16.97754593 -1.37852234 16.98341217 -2.58407593 16.98945618 C-6.35615199 16.40065068 -8.01789725 15.15860062 -10.70874023 12.50170898 C-11.33764648 10.50170898 -11.33764648 10.50170898 -11.27124023 8.50170898 C-11.2725293 7.84170898 -11.27381836 7.18170898 -11.27514648 6.50170898 C-9.62403707 0.67158471 -5.44254819 0.00075251 0 0 Z " fill="#596675" transform="translate(34.708740234375,275.498291015625)"/>
<path d="M0 0 C0.65418915 -0.00540298 1.3083783 -0.01080597 1.98239136 -0.01637268 C4.13992905 -0.02885551 6.29613064 -0.01237055 8.45361328 0.00561523 C9.95810008 0.0054602 11.46258727 0.00397041 12.96707153 0.00120544 C16.11950348 -0.00017846 19.27148043 0.01237446 22.42382812 0.03515625 C26.45448274 0.06349251 30.48437873 0.06081696 34.51508904 0.04806614 C37.62247128 0.04109191 40.72967988 0.04891883 43.83703995 0.06132317 C45.32251442 0.06582422 46.80800763 0.06618627 48.29348373 0.06225777 C50.37572785 0.05932953 52.45694815 0.0759287 54.5390625 0.09765625 C55.72168671 0.10305923 56.90431091 0.10846222 58.12277222 0.11402893 C61.80696485 0.54999384 64.24012757 1.58305283 67.39892578 3.50170898 C68.84323433 6.39032608 68.77581084 8.298186 68.39892578 11.50170898 C65.81804188 14.78569446 64.31679496 16.32329738 60.167099 17.12989807 C58.9467244 17.13085983 57.72634979 17.13182159 56.46899414 17.1328125 C55.45341179 17.14354546 55.45341179 17.14354546 54.41731262 17.15449524 C52.19043477 17.17133614 49.96558328 17.15201266 47.73876953 17.13061523 C46.18607924 17.13144428 44.63338904 17.13390501 43.08070374 17.13792419 C39.83160893 17.14077887 36.58320477 17.12611281 33.33422852 17.09863281 C29.1720915 17.06452111 25.01118676 17.07058023 20.84899044 17.08929539 C17.64471687 17.09986855 14.44072958 17.09092537 11.23648262 17.07591057 C9.7019085 17.07073247 8.16730443 17.07120607 6.6327343 17.07745552 C4.48765727 17.08291314 2.34433935 17.06252077 0.19946289 17.03515625 C-1.02011612 17.02895767 -2.23969513 17.02275909 -3.49623108 17.01637268 C-7.1772894 16.40619465 -8.35566159 15.42219629 -10.60107422 12.50170898 C-11.13232422 10.50170898 -11.13232422 10.50170898 -11.10107422 8.50170898 C-11.11654297 7.51170898 -11.11654297 7.51170898 -11.13232422 6.50170898 C-9.59239668 0.70433471 -5.3599621 0.00075413 0 0 Z " fill="#596675" transform="translate(34.60107421875,102.498291015625)"/>
<path d="M0 0 C1.94386597 -0.00338379 1.94386597 -0.00338379 3.92700195 -0.00683594 C5.34847269 -0.00279421 6.7699412 0.00211082 8.19140625 0.0078125 C8.90855804 0.01002808 9.62570984 0.01224365 10.36459351 0.01452637 C15.00905835 0.03119871 19.65320599 0.06573628 24.29748535 0.10998535 C25.94940949 0.12533643 27.60134777 0.13922781 29.2532959 0.1517334 C34.22679319 0.18957025 39.19910935 0.25004981 44.17190552 0.34234619 C45.76366563 0.36924644 47.35555054 0.38958905 48.94747925 0.40325928 C51.18193664 0.42442841 53.41453102 0.47072738 55.6484375 0.5234375 C57.56426636 0.5548584 57.56426636 0.5548584 59.51879883 0.58691406 C63.29821956 1.22466101 64.51945211 2.06280106 66.75390625 5.1328125 C67.30306453 8.97692049 67.48901313 11.12281794 65.16674805 14.31347656 C61.89893589 16.77747901 59.72056506 16.67540183 55.6484375 16.7421875 C54.94386414 16.75890503 54.23929077 16.77562256 53.5133667 16.79284668 C51.19760248 16.84244991 48.88260583 16.86346162 46.56640625 16.8828125 C44.95888286 16.90860526 43.35137894 16.93563842 41.74389648 16.96386719 C37.5782887 17.0312008 33.41280886 17.07186009 29.24682617 17.10742188 C26.01030782 17.14038612 22.77435752 17.19605947 19.53816223 17.25164795 C16.51701286 17.30013727 13.49586256 17.33327685 10.47445679 17.36096191 C9.04343742 17.3754512 7.61245446 17.39420373 6.18154907 17.4173584 C4.18630419 17.44700133 2.19076703 17.4544543 0.1953125 17.4609375 C-0.93189209 17.4702832 -2.05909668 17.47962891 -3.22045898 17.48925781 C-6.9217606 17.05321324 -9.59261258 15.78629367 -12.24609375 13.1328125 C-12.71373467 6.00128849 -12.71373467 6.00128849 -10.93359375 2.6953125 C-7.66313418 -0.33289081 -4.23680195 0.0042005 0 0 Z " fill="#576574" transform="translate(36.24609375,44.8671875)"/>
<path d="M0 0 C1.94386597 -0.00338379 1.94386597 -0.00338379 3.92700195 -0.00683594 C5.34847269 -0.00279421 6.7699412 0.00211082 8.19140625 0.0078125 C8.90855804 0.01002808 9.62570984 0.01224365 10.36459351 0.01452637 C15.00905835 0.03119871 19.65320599 0.06573628 24.29748535 0.10998535 C25.94940949 0.12533643 27.60134777 0.13922781 29.2532959 0.1517334 C34.22679319 0.18957025 39.19910935 0.25004981 44.17190552 0.34234619 C45.76366563 0.36924644 47.35555054 0.38958905 48.94747925 0.40325928 C51.18193664 0.42442841 53.41453102 0.47072738 55.6484375 0.5234375 C57.56426636 0.5548584 57.56426636 0.5548584 59.51879883 0.58691406 C63.29821956 1.22466101 64.51945211 2.06280106 66.75390625 5.1328125 C67.30289171 8.97571075 67.48829817 11.12240144 65.16894531 14.31347656 C61.89175587 16.78230144 59.6955729 16.67556712 55.61328125 16.7421875 C54.90601898 16.75890503 54.19875671 16.77562256 53.47006226 16.79284668 C51.14789982 16.84242685 48.82650224 16.86345407 46.50390625 16.8828125 C44.89304616 16.90859543 43.28220562 16.93562779 41.67138672 16.96386719 C37.51932818 17.03096304 33.3673953 17.07169332 29.21496582 17.10742188 C26.0503431 17.14007112 22.88632695 17.19564966 19.7220459 17.25164795 C16.8006664 17.30007166 13.87928469 17.3332232 10.9576416 17.36096191 C9.58153128 17.37542687 8.20545865 17.39416432 6.82946777 17.4173584 C4.91122639 17.44706126 2.99267916 17.45446126 1.07421875 17.4609375 C-0.54589111 17.47495605 -0.54589111 17.47495605 -2.19873047 17.48925781 C-5.77314015 17.07116471 -8.17451944 15.98036754 -11.24609375 14.1328125 C-12.83520142 10.95459715 -12.65030349 7.59341521 -12.24609375 4.1328125 C-9.26687582 -0.26508064 -4.90486173 0.00486283 0 0 Z " fill="#576574" transform="translate(36.24609375,332.8671875)"/>
<path d="M0 0 C1.25071289 -0.00225586 2.50142578 -0.00451172 3.79003906 -0.00683594 C5.16341419 -0.00279296 6.536787 0.00211254 7.91015625 0.0078125 C8.95036926 0.01113586 8.95036926 0.01113586 10.01159668 0.01452637 C14.52806361 0.03127406 19.04420723 0.06597635 23.56048584 0.10998535 C25.18811731 0.12538815 26.81576379 0.13926894 28.44342041 0.1517334 C33.40399349 0.18975473 38.36339494 0.25040073 43.32327271 0.34234619 C44.91845095 0.36924934 46.51375381 0.38959053 48.10910034 0.40325928 C50.35087756 0.42443995 52.59080213 0.470759 54.83203125 0.5234375 C56.75740723 0.5548584 56.75740723 0.5548584 58.72167969 0.58691406 C62.51193403 1.22336711 63.73423161 2.05308224 65.97265625 5.1328125 C66.52181453 8.97692049 66.70776313 11.12281794 64.38549805 14.31347656 C61.11768589 16.77747901 58.93931506 16.67540183 54.8671875 16.7421875 C54.16261414 16.75890503 53.45804077 16.77562256 52.7321167 16.79284668 C50.41635248 16.84244991 48.10135583 16.86346162 45.78515625 16.8828125 C44.17763286 16.90860526 42.57012894 16.93563842 40.96264648 16.96386719 C36.7970387 17.0312008 32.63155886 17.07186009 28.46557617 17.10742188 C25.22905782 17.14038612 21.99310752 17.19605947 18.75691223 17.25164795 C15.73576286 17.30013727 12.71461256 17.33327685 9.69320679 17.36096191 C8.26218742 17.3754512 6.83120446 17.39420373 5.40029907 17.4173584 C3.40505419 17.44700133 1.40951703 17.4544543 -0.5859375 17.4609375 C-1.71314209 17.4702832 -2.84034668 17.47962891 -4.00170898 17.48925781 C-7.7030106 17.05321324 -10.37386258 15.78629367 -13.02734375 13.1328125 C-13.61797511 5.92710985 -13.61797511 5.92710985 -11.21484375 2.6953125 C-7.49043546 0.03502087 -4.45181761 0.00458242 0 0 Z " fill="#576574" transform="translate(37.02734375,159.8671875)"/>
<path d="M0 0 C0.65051834 0.00274429 1.30103668 0.00548859 1.9712677 0.00831604 C4.11571875 0.02294731 6.25835588 0.06715868 8.40234375 0.11328125 C9.90183976 0.13306493 11.40135273 0.15159856 12.90087891 0.16894531 C16.06627894 0.21014385 19.23101125 0.2659188 22.39599609 0.33154297 C26.57459135 0.41654085 30.75265899 0.46290698 34.93193054 0.49885559 C38.22929791 0.53100527 41.52617705 0.58198691 44.82321167 0.63833618 C46.41242517 0.66321802 48.00174089 0.68227935 49.59109497 0.69540405 C51.81806524 0.71664846 54.04312479 0.76323037 56.26953125 0.81640625 C57.54038574 0.83735352 58.81124023 0.85830078 60.12060547 0.87988281 C63.88933622 1.51896077 65.11476225 2.35986975 67.33984375 5.42578125 C68.07118703 11.38100513 68.07118703 11.38100513 66.02734375 14.30078125 C62.38276362 16.73050134 58.97771584 16.56813048 54.72875977 16.6027832 C54.06175049 16.6093544 53.39474121 16.6159256 52.70751953 16.62269592 C50.5029285 16.64238783 48.29840535 16.6540802 46.09375 16.6640625 C45.34024702 16.66813803 44.58674404 16.67221355 43.81040764 16.67641258 C39.82469839 16.69725247 35.83902339 16.71156503 31.85327148 16.72094727 C27.73606521 16.73202759 23.61939703 16.76645141 19.50238132 16.80611897 C16.33594246 16.83224789 13.16963282 16.84063557 10.00309563 16.84422874 C8.48522226 16.84910179 6.96735494 16.86073629 5.44958687 16.87926674 C3.32606203 16.90358833 1.20394343 16.90270746 -0.91967773 16.89575195 C-2.73144753 16.90455132 -2.73144753 16.90455132 -4.57981873 16.91352844 C-8.25773321 16.33115964 -9.41762487 15.33727948 -11.66015625 12.42578125 C-12.2265625 10.42578125 -12.2265625 10.42578125 -12.22265625 8.42578125 C-12.24457031 7.76578125 -12.26648438 7.10578125 -12.2890625 6.42578125 C-10.48526629 0.68948523 -5.28965245 -0.0659794 0 0 Z " fill="#576574" transform="translate(35.66015625,217.57421875)"/>
<path d="M0 0 C5.04097918 0.56786699 9.16017248 2.25689443 13.671875 4.45703125 C14.39433411 4.80126633 15.11679321 5.1455014 15.86114502 5.50016785 C18.16089722 6.59720192 20.45566028 7.7041968 22.75 8.8125 C25.76361539 10.26073807 28.77987492 11.70336087 31.796875 13.14453125 C32.51709839 13.4916214 33.23732178 13.83871155 33.97937012 14.19631958 C38.63272661 16.41953762 43.30394276 18.35290472 48.22363281 19.92456055 C50.82268721 21.49806723 51.27180368 23.1065047 52 26 C51.58447266 28.03637695 51.58447266 28.03637695 50.6640625 29.98828125 C50.34179688 30.69404297 50.01953125 31.39980469 49.6875 32.12695312 C49.1615625 33.20879883 49.1615625 33.20879883 48.625 34.3125 C48.28210938 35.05306641 47.93921875 35.79363281 47.5859375 36.55664062 C46.73966685 38.37847328 45.87189321 40.19028995 45 42 C44.52637024 41.68918488 44.05274048 41.37836975 43.5647583 41.05813599 C38.5547025 37.83971689 33.44963745 35.17136959 28.046875 32.6796875 C27.22423157 32.29434845 26.40158813 31.9090094 25.55401611 31.51199341 C22.95491596 30.29479766 20.3528492 29.08415582 17.75 27.875 C14.30478449 26.27353292 10.862564 24.66585214 7.421875 23.0546875 C6.63641296 22.6921286 5.85095093 22.3295697 5.04168701 21.95602417 C-2.29809478 18.519155 -2.29809478 18.519155 -5 16 C-6.30853712 10.03888644 -2.7977427 5.05592074 0 0 Z " fill="#549FFE" transform="translate(435,88)"/>
<path d="M0 0 C4.16251471 1.30672816 8.01444601 2.87201586 11.9296875 4.79296875 C13.60720093 5.61027466 13.60720093 5.61027466 15.31860352 6.4440918 C16.49221436 7.0194165 17.6658252 7.59474121 18.875 8.1875 C27.33780045 12.31442209 35.80794408 16.38059922 44.50537109 19.99487305 C47.14644389 21.10595268 48.94876983 21.94876983 51 24 C50.8586665 30.64267465 47.88088502 36.12129366 45 42 C43.97648437 41.51273438 42.95296875 41.02546875 41.8984375 40.5234375 C40.3907121 39.80710831 38.88289021 39.09098219 37.375 38.375 C36.55845947 37.98691162 35.74191895 37.59882324 34.90063477 37.19897461 C29.32342282 34.55510948 23.73142575 31.94511414 18.12890625 29.35546875 C16.7631475 28.72289694 15.39742492 28.09024703 14.03173828 27.45751953 C11.98602405 26.50974037 9.93967018 25.56349735 7.89105225 24.62200928 C5.95549335 23.73236145 4.02247668 22.83738867 2.08984375 21.94140625 C0.96441162 21.42263916 -0.16102051 20.90387207 -1.32055664 20.36938477 C-4 19 -4 19 -6 17 C-5.86558424 10.54804357 -3.04277302 5.58028852 0 0 Z " fill="#89C1FE" transform="translate(423,114)"/>
<path d="M0 0 C8.08693939 2.41648566 15.50833324 5.97978042 23.0625 9.6875 C24.32201872 10.30063767 25.58178272 10.91327173 26.84179688 11.52539062 C29.89697241 13.0120086 32.94958362 14.50364753 36 16 C31.26375843 21.71090221 26.16192874 26.92431806 20.875 32.125 C16.33002468 36.59655084 11.93341629 40.97070654 8 46 C5.20129973 47.39935013 3.09501208 47.25265405 0 47 C-1.66796875 45.921875 -1.66796875 45.921875 -3 44 C-4.87130991 29.6165983 -1.77801978 14.26041221 0 0 Z " fill="#404D5C" transform="translate(279,416)"/>
<path d="M0 0 C6.99428988 3.86270016 13.14922165 9.98317708 15.5390625 17.7734375 C17.1447604 25.52977483 17.89207686 33.45692235 15 41 C14.34 41.66 13.68 42.32 13 43 C9.06580966 41.18843728 5.1331633 39.37357616 1.2019043 37.55566406 C-0.13524259 36.93789604 -1.47280467 36.3210259 -2.81079102 35.70507812 C-4.73564164 34.81877483 -6.65896828 33.92923666 -8.58203125 33.0390625 C-9.73936768 32.50490723 -10.8967041 31.97075195 -12.08911133 31.42041016 C-15 30 -15 30 -18 28 C-16.53244938 16.51556314 -10.40211978 8.08886444 -1.5625 1.0625 C-1.046875 0.711875 -0.53125 0.36125 0 0 Z " fill="#FE6A6A" transform="translate(472,54)"/>
<path d="M0 0 C4.03469667 1.27548475 7.80826546 2.7612968 11.6171875 4.6015625 C12.63554687 5.09140625 13.65390625 5.58125 14.703125 6.0859375 C15.74984375 6.59382813 16.7965625 7.10171875 17.875 7.625 C18.94492187 8.140625 20.01484375 8.65625 21.1171875 9.1875 C23.74635682 10.45513521 26.37388302 11.7260566 29 13 C25.65942663 16.97244032 22.29057819 20.81886998 18.5625 24.4375 C15.03579007 27.91663205 11.7196844 31.50297918 8.5078125 35.2734375 C5.54644351 38.66443515 5.54644351 38.66443515 4 40 C0.51967799 39.73897585 -1.05096298 38.96602468 -4 37 C-3.68946109 32.87484996 -3.37620677 28.74991025 -3.0625 24.625 C-2.97548828 23.46871094 -2.88847656 22.31242187 -2.79882812 21.12109375 C-2.39414296 15.8152216 -1.97846132 10.51037303 -1.49609375 5.2109375 C-1.38865845 4.02056885 -1.38865845 4.02056885 -1.27905273 2.80615234 C-1 1 -1 1 0 0 Z " fill="#F8E3C6" transform="translate(312,392)"/>
<path d="M0 0 C0.93714844 -0.00257813 1.87429687 -0.00515625 2.83984375 -0.0078125 C8.3409505 0.07021738 12.41789564 0.41789564 16.5 4.5 C16.97124825 11.80434783 16.97124825 11.80434783 15.1875 14.4375 C10.71919333 17.25087827 5.77841233 16.79494277 0.6875 16.875 C-0.64764648 16.93107422 -0.64764648 16.93107422 -2.00976562 16.98828125 C-6.42627418 17.04721168 -9.54620727 16.97343393 -13.09375 14.1640625 C-15.5 11.5 -15.5 11.5 -16.1875 8.5 C-14.17609382 -0.27704517 -7.55221964 -0.22854035 0 0 Z " fill="#C8D2E5" transform="translate(139.5,390.5)"/>
<path d="M0 0 C1.32741211 -0.00386719 1.32741211 -0.00386719 2.68164062 -0.0078125 C8.03072964 0.0724439 11.97231859 0.53481859 15.9375 4.5 C16.40874825 11.80434783 16.40874825 11.80434783 14.625 14.4375 C10.02366333 17.3346379 4.80436025 16.79708046 -0.4375 16.875 C-1.38367188 16.91238281 -2.32984375 16.94976562 -3.3046875 16.98828125 C-8.0300672 17.04801217 -10.30434654 17.06742899 -14.18359375 14.1640625 C-16.0625 11.5 -16.0625 11.5 -16.75 8.5 C-15.96759018 5.08584805 -14.72539772 3.69547095 -12.00366211 1.54296875 C-8.21322807 -0.49359699 -4.20095025 -0.13521713 0 0 Z " fill="#C8D2E5" transform="translate(140.0625,102.5)"/>
<path d="M0 0 C1.051875 -0.00515625 2.10375 -0.0103125 3.1875 -0.015625 C4.280625 -0.00015625 5.37375 0.0153125 6.5 0.03125 C8.1396875 0.00804687 8.1396875 0.00804687 9.8125 -0.015625 C10.864375 -0.01046875 11.91625 -0.0053125 13 0 C14.43859375 0.00676758 14.43859375 0.00676758 15.90625 0.01367188 C19.24634041 0.68018088 20.43931469 1.86237632 22.5 4.53125 C23 8.03125 23 8.03125 22.5 11.53125 C20.47502557 14.1268278 19.26558645 15.36697558 16.01391602 16.06469727 C13.02852986 16.10034761 10.04806728 16.12517702 7.0625 16.09375 C5.50692383 16.12952148 5.50692383 16.12952148 3.91992188 16.16601562 C-3.65657238 16.15141737 -3.65657238 16.15141737 -7.6875 13.1875 C-9.5 10.53125 -9.5 10.53125 -10.0625 7.46875 C-8.95750557 1.69822355 -5.57235554 0.02621404 0 0 Z " fill="#C7D2E5" transform="translate(133.5,333.46875)"/>
<path d="M0 0 C1.04091797 -0.01095703 2.08183594 -0.02191406 3.15429688 -0.03320312 C10.7773682 0.04033133 10.7773682 0.04033133 13.73413086 2.37915039 C15.4375 4.5625 15.4375 4.5625 15.9375 8.0625 C15.35184525 12.16208323 14.6346104 13.05395645 11.4375 15.5625 C8.84375 16.08007812 8.84375 16.08007812 5.9375 16.09375 C4.885625 16.09890625 3.83375 16.1040625 2.75 16.109375 C1.656875 16.09390625 0.56375 16.0784375 -0.5625 16.0625 C-2.2021875 16.08570313 -2.2021875 16.08570313 -3.875 16.109375 C-4.926875 16.10421875 -5.97875 16.0990625 -7.0625 16.09375 C-8.0215625 16.08923828 -8.980625 16.08472656 -9.96875 16.08007812 C-13.29556424 15.41621835 -14.48878731 14.19894074 -16.5625 11.5625 C-17.125 8.625 -17.125 8.625 -16.5625 5.5625 C-12.22206194 -0.79848681 -7.0276861 -0.16160621 0 0 Z " fill="#C7D2E5" transform="translate(140.5625,275.4375)"/>
<path d="M0 0 C1.051875 -0.00515625 2.10375 -0.0103125 3.1875 -0.015625 C4.280625 -0.00015625 5.37375 0.0153125 6.5 0.03125 C8.1396875 0.00804687 8.1396875 0.00804687 9.8125 -0.015625 C10.864375 -0.01046875 11.91625 -0.0053125 13 0 C14.43859375 0.00676758 14.43859375 0.00676758 15.90625 0.01367188 C19.24634041 0.68018088 20.43931469 1.86237632 22.5 4.53125 C23 8.03125 23 8.03125 22.5 11.53125 C20.47502557 14.1268278 19.26558645 15.36697558 16.01391602 16.06469727 C13.02852986 16.10034761 10.04806728 16.12517702 7.0625 16.09375 C5.50692383 16.12952148 5.50692383 16.12952148 3.91992188 16.16601562 C-3.65657238 16.15141737 -3.65657238 16.15141737 -7.6875 13.1875 C-9.5 10.53125 -9.5 10.53125 -10.0625 7.46875 C-8.95750557 1.69822355 -5.57235554 0.02621404 0 0 Z " fill="#C7D2E5" transform="translate(133.5,218.46875)"/>
<path d="M0 0 C1.04091797 -0.01095703 2.08183594 -0.02191406 3.15429688 -0.03320312 C10.7773682 0.04033133 10.7773682 0.04033133 13.73413086 2.37915039 C15.4375 4.5625 15.4375 4.5625 15.9375 8.0625 C15.35184525 12.16208323 14.6346104 13.05395645 11.4375 15.5625 C8.84375 16.08007812 8.84375 16.08007812 5.9375 16.09375 C4.885625 16.09890625 3.83375 16.1040625 2.75 16.109375 C1.656875 16.09390625 0.56375 16.0784375 -0.5625 16.0625 C-2.2021875 16.08570313 -2.2021875 16.08570313 -3.875 16.109375 C-4.926875 16.10421875 -5.97875 16.0990625 -7.0625 16.09375 C-8.0215625 16.08923828 -8.980625 16.08472656 -9.96875 16.08007812 C-13.29556424 15.41621835 -14.48878731 14.19894074 -16.5625 11.5625 C-17.125 8.625 -17.125 8.625 -16.5625 5.5625 C-12.22206194 -0.79848681 -7.0276861 -0.16160621 0 0 Z " fill="#C7D2E5" transform="translate(140.5625,160.4375)"/>
<path d="M0 0 C3.465 1.485 3.465 1.485 7 3 C6.04578192 4.14926266 5.08647955 5.29430541 4.125 6.4375 C3.59132813 7.07558594 3.05765625 7.71367187 2.5078125 8.37109375 C1 10 1 10 -1 11 C-0.67 7.37 -0.34 3.74 0 0 Z " fill="#616D79" transform="translate(308,429)"/>
</svg>
