<?xml version="1.0" encoding="UTF-8"?>
<svg version="1.1" xmlns="http://www.w3.org/2000/svg" width="512" height="512">
<path d="M0 0 C2.98650688 0.61198912 4.24464634 1.89821951 5.90625 4.390625 C5.90625 5.710625 5.90625 7.030625 5.90625 8.390625 C7.21819336 8.36967773 8.53013672 8.34873047 9.88183594 8.32714844 C14.74956344 8.2547453 19.61724335 8.20882387 24.48535156 8.17089844 C26.59220382 8.15078374 28.69900025 8.12348833 30.80566406 8.08886719 C33.83412447 8.04034332 36.86184678 8.01765484 39.890625 8 C41.30332672 7.96903229 41.30332672 7.96903229 42.74456787 7.93743896 C49.15482181 7.93523971 49.15482181 7.93523971 52.49902344 9.96191406 C54.43403792 13.30152615 54.42407342 15.78911443 54.4375 19.640625 C54.4413269 20.33575195 54.44515381 21.03087891 54.44909668 21.74707031 C54.4518118 23.21290541 54.44447835 24.67878928 54.42773438 26.14453125 C54.40631419 28.38391475 54.42754443 30.62009087 54.453125 32.859375 C54.45048165 34.28646539 54.4453565 35.71355379 54.4375 37.140625 C54.43298828 38.43484375 54.42847656 39.7290625 54.42382812 41.0625 C53.90625 44.390625 53.90625 44.390625 52.49902344 46.81933594 C48.4364701 49.28135037 44.54791327 48.88334201 39.890625 48.78125 C38.91965881 48.77559021 37.94869263 48.76993042 36.94830322 48.76409912 C33.85044831 48.74172811 30.75375467 48.69152973 27.65625 48.640625 C25.55470422 48.62056097 23.45314028 48.60231003 21.3515625 48.5859375 C16.2026783 48.5418608 11.05466097 48.47282758 5.90625 48.390625 C0.55523556 68.05123284 2.8017375 86.39797935 12.51989746 104.3142395 C24.3756237 124.98656635 42.66159192 144.30554808 65.90625 151.390625 C105.65821031 160.71807468 151.1830967 155.86712611 191.54896545 153.29046631 C193.66287573 153.16255981 195.7768501 153.03575777 197.89083409 152.90907633 C199.840178 152.78446478 201.78790115 152.63526386 203.7354641 152.48536968 C204.89247637 152.41385598 206.04948864 152.34234228 207.24156189 152.2686615 C208.24527297 152.19571837 209.24898405 152.12277525 210.28311062 152.04762173 C213.70777914 152.49543343 214.7689288 153.75265633 216.90625 156.390625 C218.11289978 158.5059967 218.11289978 158.5059967 219.11694336 160.80102539 C219.50091782 161.6661525 219.88489227 162.5312796 220.28050232 163.42262268 C220.88222008 164.81637367 220.88222008 164.81637367 221.49609375 166.23828125 C221.92249649 167.20535507 222.34889923 168.17242889 222.78822327 169.16880798 C224.14885747 172.25980669 225.49655869 175.35624701 226.84375 178.453125 C227.7458735 180.51014795 228.6488595 182.56679289 229.55273438 184.62304688 C230.8359312 187.54270258 232.11795358 190.46279903 233.39305115 193.38600159 C233.78017776 194.27319382 234.16730438 195.16038605 234.56616211 196.07446289 C234.94449188 196.94265656 235.32282166 197.81085022 235.71261597 198.70535278 C236.5531733 200.59632203 237.41518168 202.47782854 238.29251099 204.35202026 C238.74584808 205.3205191 239.19918518 206.28901794 239.66625977 207.28686523 C240.08118179 208.15907211 240.49610382 209.03127899 240.92359924 209.92991638 C242.45577658 213.76672406 242.5515307 216.30384722 241.90625 220.390625 C240.40625 222.890625 240.40625 222.890625 237.90625 224.390625 C235.26625 224.390625 232.62625 224.390625 229.90625 224.390625 C229.90625 295.670625 229.90625 366.950625 229.90625 440.390625 C236.50625 440.390625 243.10625 440.390625 249.90625 440.390625 C253.90625 444.390625 253.90625 444.390625 254.4375 446.390625 C254.4271875 447.050625 254.416875 447.710625 254.40625 448.390625 C254.4165625 449.050625 254.426875 449.710625 254.4375 450.390625 C253.63357157 453.4171791 252.39358327 454.48529413 249.90625 456.390625 C246.99554519 456.78253554 244.46407986 456.92818441 241.55407715 456.89398956 C240.69971982 456.89980333 239.84536249 456.90561709 238.96511555 456.91160703 C236.08258135 456.92628472 233.20088833 456.91228566 230.31835938 456.89855957 C228.23885409 456.90316541 226.15935205 456.90951618 224.07985687 456.91746855 C218.35013556 456.93422847 212.62067937 456.92588525 206.89095688 456.91352367 C200.7177319 456.90450271 194.54455369 456.9184282 188.37133789 456.92944336 C176.97186315 456.94623386 165.57249697 456.94473401 154.17302489 456.93379749 C143.64292871 456.92374435 133.11286367 456.92110421 122.58276367 456.92588806 C121.88490035 456.9261936 121.18703703 456.92649914 120.46802634 456.92681394 C117.6353351 456.92805925 114.80264388 456.92933284 111.96995267 456.930653 C85.3846706 456.94289532 58.79944263 456.93178514 32.21416891 456.91026541 C8.58285445 456.89128227 -15.0483738 456.89298076 -38.6796875 456.91210938 C-65.21562778 456.93351726 -91.75152024 456.94202718 -118.28746796 456.92966032 C-121.11506652 456.92837741 -123.94266509 456.92712605 -126.77026367 456.92588806 C-127.46651582 456.92557175 -128.16276797 456.92525544 -128.88011867 456.92492955 C-139.40487411 456.92037525 -149.92959504 456.92570895 -160.4543457 456.93580627 C-172.4187231 456.94722737 -184.38299863 456.9440319 -196.34737206 456.9226833 C-202.45615802 456.91214371 -208.56476865 456.90810052 -214.67355347 456.92127991 C-220.25953634 456.93314944 -225.84518043 456.92673139 -231.43113232 456.9053697 C-233.45798499 456.90088048 -235.48486596 456.90322143 -237.51170063 456.91287285 C-240.25540651 456.92494139 -242.99793405 456.91265961 -245.74157715 456.89398956 C-246.93698514 456.90803656 -246.93698514 456.90803656 -248.15654278 456.92236733 C-251.72889941 456.87338935 -253.70534843 456.68814585 -256.58255768 454.48416471 C-258.21999205 452.21573479 -258.63695599 451.15580809 -258.59375 448.390625 C-258.6040625 447.730625 -258.614375 447.070625 -258.625 446.390625 C-258.09375 444.390625 -258.09375 444.390625 -254.09375 440.390625 C-247.49375 440.390625 -240.89375 440.390625 -234.09375 440.390625 C-234.09375 369.110625 -234.09375 297.830625 -234.09375 224.390625 C-236.73375 224.390625 -239.37375 224.390625 -242.09375 224.390625 C-244.59375 222.890625 -244.59375 222.890625 -246.09375 220.390625 C-246.74545774 213.56592662 -245.0568038 209.02348457 -242.1484375 202.9140625 C-241.74094269 202.02635162 -241.33344788 201.13864075 -240.91360474 200.22402954 C-239.61273797 197.39779274 -238.29150543 194.58167372 -236.96875 191.765625 C-235.67565213 188.97665681 -234.3868137 186.18574988 -233.09844971 183.39459229 C-232.26130974 181.58404693 -231.42113076 179.77490343 -230.57781982 177.96722412 C-227.68186883 171.74518463 -224.98452189 165.46954977 -222.44970703 159.09228516 C-220.958632 156.12141079 -219.67451614 154.48177279 -217.09375 152.390625 C-214.47061062 152.04762173 -214.47061062 152.04762173 -211.42906189 152.2686615 C-210.27204962 152.34018905 -209.11503735 152.41171659 -207.9229641 152.48541164 C-206.65537569 152.58295774 -205.38778728 152.68050383 -204.08178711 152.78100586 C-202.7279078 152.86743545 -201.3738463 152.95104999 -200.01963234 153.0320673 C-197.85015382 153.16199656 -195.68086714 153.29334122 -193.5119071 153.43168682 C-111.86159562 161.95906814 -111.86159562 161.95906814 -38.70166016 134.68212891 C-36.18344853 132.32276039 -33.80303941 129.86888759 -31.46875 127.328125 C-30.89776329 126.70663322 -30.32677658 126.08514145 -29.73848724 125.44481659 C-7.4046461 100.39598222 -5.74781481 68.10685103 -7.58146572 35.97451019 C-7.99317986 29.55238161 -8.48024028 23.14931137 -9.19548035 16.75332642 C-9.32286056 15.5416094 -9.32286056 15.5416094 -9.4528141 14.30541325 C-9.61471935 12.80700984 -9.79547329 11.31046982 -9.99890709 9.81713772 C-10.37616587 6.33404804 -10.3992273 4.79364869 -8.2431488 1.94908142 C-5.3079734 -0.17911505 -3.51791388 -0.18377162 0 0 Z " fill="#FEC169" transform="translate(258.09375,27.609375)"/>
<path d="M0 0 C2.98650688 0.61198912 4.24464634 1.89821951 5.90625 4.390625 C5.90625 5.710625 5.90625 7.030625 5.90625 8.390625 C7.21819336 8.36967773 8.53013672 8.34873047 9.88183594 8.32714844 C14.74956344 8.2547453 19.61724335 8.20882387 24.48535156 8.17089844 C26.59220382 8.15078374 28.69900025 8.12348833 30.80566406 8.08886719 C33.83412447 8.04034332 36.86184678 8.01765484 39.890625 8 C41.30332672 7.96903229 41.30332672 7.96903229 42.74456787 7.93743896 C49.15482181 7.93523971 49.15482181 7.93523971 52.49902344 9.96191406 C54.43403792 13.30152615 54.42407342 15.78911443 54.4375 19.640625 C54.4413269 20.33575195 54.44515381 21.03087891 54.44909668 21.74707031 C54.4518118 23.21290541 54.44447835 24.67878928 54.42773438 26.14453125 C54.40631419 28.38391475 54.42754443 30.62009087 54.453125 32.859375 C54.45048165 34.28646539 54.4453565 35.71355379 54.4375 37.140625 C54.43298828 38.43484375 54.42847656 39.7290625 54.42382812 41.0625 C53.90625 44.390625 53.90625 44.390625 52.49902344 46.81933594 C48.4364701 49.28135037 44.54791327 48.88334201 39.890625 48.78125 C38.91965881 48.77559021 37.94869263 48.76993042 36.94830322 48.76409912 C33.85044831 48.74172811 30.75375467 48.69152973 27.65625 48.640625 C25.55470422 48.62056097 23.45314028 48.60231003 21.3515625 48.5859375 C16.2026783 48.5418608 11.05466097 48.47282758 5.90625 48.390625 C0.55523556 68.05123284 2.8017375 86.39797935 12.51989746 104.3142395 C24.3756237 124.98656635 42.66159192 144.30554808 65.90625 151.390625 C105.65821031 160.71807468 151.1830967 155.86712611 191.54896545 153.29046631 C193.66287573 153.16255981 195.7768501 153.03575777 197.89083409 152.90907633 C199.840178 152.78446478 201.78790115 152.63526386 203.7354641 152.48536968 C204.89247637 152.41385598 206.04948864 152.34234228 207.24156189 152.2686615 C208.24527297 152.19571837 209.24898405 152.12277525 210.28311062 152.04762173 C213.70777914 152.49543343 214.7689288 153.75265633 216.90625 156.390625 C218.11289978 158.5059967 218.11289978 158.5059967 219.11694336 160.80102539 C219.50091782 161.6661525 219.88489227 162.5312796 220.28050232 163.42262268 C220.88222008 164.81637367 220.88222008 164.81637367 221.49609375 166.23828125 C221.92249649 167.20535507 222.34889923 168.17242889 222.78822327 169.16880798 C224.14885747 172.25980669 225.49655869 175.35624701 226.84375 178.453125 C227.7458735 180.51014795 228.6488595 182.56679289 229.55273438 184.62304688 C230.8359312 187.54270258 232.11795358 190.46279903 233.39305115 193.38600159 C233.78017776 194.27319382 234.16730438 195.16038605 234.56616211 196.07446289 C234.94449188 196.94265656 235.32282166 197.81085022 235.71261597 198.70535278 C236.5531733 200.59632203 237.41518168 202.47782854 238.29251099 204.35202026 C238.74584808 205.3205191 239.19918518 206.28901794 239.66625977 207.28686523 C240.08118179 208.15907211 240.49610382 209.03127899 240.92359924 209.92991638 C242.45577658 213.76672406 242.5515307 216.30384722 241.90625 220.390625 C240.40625 222.890625 240.40625 222.890625 237.90625 224.390625 C235.26625 224.390625 232.62625 224.390625 229.90625 224.390625 C229.90625 229.670625 229.90625 234.950625 229.90625 240.390625 C214.65918822 240.48335129 199.41215924 240.55467006 184.16487885 240.59787369 C177.08475628 240.61847008 170.00481248 240.64653429 162.92480469 240.69238281 C156.09076751 240.73661727 149.2569161 240.75977063 142.42274475 240.77013397 C139.8168699 240.77751834 137.21100508 240.79193822 134.60520935 240.81354523 C130.95207862 240.84262886 127.29971246 240.84657874 123.64648438 240.84472656 C122.57185944 240.85910767 121.4972345 240.87348877 120.39004517 240.88830566 C109.26670009 240.82737784 104.02636275 236.96059913 96.24745178 229.22950745 C95.28457063 228.25247494 94.32188478 227.27524993 93.359375 226.29785156 C92.32458547 225.26193209 91.28891108 224.22689588 90.25242615 223.19267273 C87.45677368 220.3981626 84.67358165 217.59153903 81.89254379 214.78249454 C78.97829285 211.84314978 76.05262458 208.9152134 73.12817383 205.98602295 C67.599023 200.44446576 62.08014345 194.89279628 56.56492519 189.33737636 C50.2825967 183.01025726 43.98883524 176.69456333 37.69411087 170.37978029 C24.75210552 157.39602363 11.82445161 144.39806327 -1.09375 131.390625 C-4.56052365 132.8789864 -6.7855652 134.84386732 -9.43121338 137.51449585 C-10.29180862 138.37812241 -11.15240387 139.24174896 -12.03907776 140.13154602 C-12.98478815 141.09071343 -13.9304184 142.04995986 -14.87597656 143.00927734 C-15.87789052 144.01830598 -16.88027792 145.0268647 -17.88310242 146.0349884 C-20.04061709 148.20559671 -22.19508013 150.3791738 -24.34732819 152.55500412 C-27.75439791 155.99869906 -31.17018525 159.43365639 -34.58758545 162.86709595 C-44.30371467 172.63149455 -54.00809323 182.40752158 -63.70361328 192.19238281 C-69.05943179 197.59739842 -74.42249261 202.99512346 -79.793329 208.38521731 C-83.18808883 211.79302201 -86.57365544 215.20962123 -89.95259047 218.63311362 C-92.06288871 220.76697441 -94.18160151 222.89232544 -96.30271339 225.01543236 C-97.28012071 225.99711267 -98.25411079 226.98220993 -99.22427177 227.97105217 C-106.42250649 235.30240632 -112.18365695 240.79494863 -122.79743958 240.90733337 C-123.6101683 240.89601883 -124.42289703 240.88470428 -125.26025391 240.87304688 C-126.13935928 240.87695938 -127.01846466 240.88087189 -127.92420959 240.88490295 C-129.81914177 240.89084837 -131.71411994 240.88776174 -133.60902786 240.8764801 C-136.61087379 240.85914071 -139.61176338 240.86676696 -142.61361694 240.8807373 C-148.98206074 240.90601185 -155.35027648 240.90057855 -161.71875 240.890625 C-169.10848598 240.87908918 -176.49775494 240.88025438 -183.8874321 240.91468811 C-186.84014932 240.92177264 -189.792123 240.90512016 -192.74478149 240.88757324 C-194.55853677 240.89328128 -196.37228901 240.90009864 -198.18603516 240.90820312 C-199.00281235 240.89688858 -199.81958954 240.88557404 -200.66111755 240.87391663 C-205.92727901 240.93009022 -208.98332835 241.81195507 -213.09375 245.390625 C-216.78942921 249.98105736 -217.67492382 253.53398374 -217.61273193 259.287323 C-217.62023319 260.06424094 -217.62773444 260.84115889 -217.635463 261.6416198 C-217.65570213 264.23514959 -217.64764518 266.82780198 -217.63964844 269.42138672 C-217.64838552 271.28432579 -217.65887177 273.14725736 -217.67097473 275.01017761 C-217.69883874 280.06137381 -217.70223932 285.11232519 -217.70125484 290.16358709 C-217.70438358 295.44473601 -217.73000101 300.72577461 -217.75323486 306.00686646 C-217.7938013 316.00459274 -217.81413712 326.00225379 -217.82720876 336.00004971 C-217.84307659 347.38334401 -217.88149134 358.76652725 -217.92180204 370.14975715 C-218.00420985 393.56334574 -218.05749673 416.97692339 -218.09375 440.390625 C-223.37375 440.390625 -228.65375 440.390625 -234.09375 440.390625 C-234.09375 369.110625 -234.09375 297.830625 -234.09375 224.390625 C-236.73375 224.390625 -239.37375 224.390625 -242.09375 224.390625 C-244.59375 222.890625 -244.59375 222.890625 -246.09375 220.390625 C-246.74545774 213.56592662 -245.0568038 209.02348457 -242.1484375 202.9140625 C-241.53719528 201.58249619 -241.53719528 201.58249619 -240.91360474 200.22402954 C-239.61273797 197.39779274 -238.29150543 194.58167372 -236.96875 191.765625 C-235.67565213 188.97665681 -234.3868137 186.18574988 -233.09844971 183.39459229 C-232.26130974 181.58404693 -231.42113076 179.77490343 -230.57781982 177.96722412 C-227.68186883 171.74518463 -224.98452189 165.46954977 -222.44970703 159.09228516 C-220.958632 156.12141079 -219.67451614 154.48177279 -217.09375 152.390625 C-214.47061062 152.04762173 -214.47061062 152.04762173 -211.42906189 152.2686615 C-210.27204962 152.34018905 -209.11503735 152.41171659 -207.9229641 152.48541164 C-206.65537569 152.58295774 -205.38778728 152.68050383 -204.08178711 152.78100586 C-202.7279078 152.86743545 -201.3738463 152.95104999 -200.01963234 153.0320673 C-197.85015382 153.16199656 -195.68086714 153.29334122 -193.5119071 153.43168682 C-111.86159562 161.95906814 -111.86159562 161.95906814 -38.70166016 134.68212891 C-36.18344853 132.32276039 -33.80303941 129.86888759 -31.46875 127.328125 C-30.89776329 126.70663322 -30.32677658 126.08514145 -29.73848724 125.44481659 C-7.4046461 100.39598222 -5.74781481 68.10685103 -7.58146572 35.97451019 C-7.99317986 29.55238161 -8.48024028 23.14931137 -9.19548035 16.75332642 C-9.32286056 15.5416094 -9.32286056 15.5416094 -9.4528141 14.30541325 C-9.61471935 12.80700984 -9.79547329 11.31046982 -9.99890709 9.81713772 C-10.37616587 6.33404804 -10.3992273 4.79364869 -8.2431488 1.94908142 C-5.3079734 -0.17911505 -3.51791388 -0.18377162 0 0 Z " fill="#DB4755" transform="translate(258.09375,27.609375)"/>
<path d="M0 0 C3.77059003 1.56496671 6.13563249 3.90396432 8.98957825 6.78944397 C9.72233578 7.52598832 9.72233578 7.52598832 10.4698965 8.27741235 C12.10426971 9.92253347 13.73136118 11.57467257 15.35864258 13.22680664 C16.5296502 14.40820184 17.70114583 15.5891135 18.87309265 16.76957703 C21.39554309 19.31190441 23.91504626 21.85710491 26.43247414 24.40440559 C30.41392415 28.4319816 34.40512845 32.44979322 38.39836121 36.46568298 C49.75215227 47.88634384 61.09765963 59.3151413 72.42211914 70.76489258 C78.67698892 77.08880035 84.94251187 83.40194616 91.22010726 89.70329756 C94.54129541 93.03803067 97.85656272 96.37822298 101.15863991 99.73188972 C104.26410915 102.88587612 107.38318757 106.02572705 110.51324654 109.15530586 C111.6589242 110.30582634 112.79944945 111.46150432 113.93434525 112.62266159 C115.48581912 114.20852057 117.05481441 115.77474596 118.62947083 117.33753967 C119.93938098 118.65964242 119.93938098 118.65964242 121.27575397 120.00845432 C124.58189077 122.42538817 126.94729337 122.79235515 131 123 C133.35321848 122.53253634 133.35321848 122.53253634 135 121 C135.66 119.35 136.32 117.7 137 116 C168.68 116 200.36 116 233 116 C233 121.28 233 126.56 233 132 C217.75293822 132.09272629 202.50590924 132.16404506 187.25862885 132.20724869 C180.17850628 132.22784508 173.09856248 132.25590929 166.01855469 132.30175781 C159.18451751 132.34599227 152.3506661 132.36914563 145.51649475 132.37950897 C142.9106199 132.38689334 140.30475508 132.40131322 137.69895935 132.42292023 C134.04582862 132.45200386 130.39346246 132.45595374 126.74023438 132.45410156 C125.66560944 132.46848267 124.5909845 132.48286377 123.48379517 132.49768066 C112.36045009 132.43675284 107.12011275 128.56997413 99.34120178 120.83888245 C98.37832063 119.86184994 97.41563478 118.88462493 96.453125 117.90722656 C95.41833547 116.87130709 94.38266108 115.83627088 93.34617615 114.80204773 C90.55052368 112.0075376 87.76733165 109.20091403 84.98629379 106.39186954 C82.07204285 103.45252478 79.14637458 100.5245884 76.22192383 97.59539795 C70.692773 92.05384076 65.17389345 86.50217128 59.65867519 80.94675136 C53.3763467 74.61963226 47.08258524 68.30393833 40.78786087 61.98915529 C27.84585552 49.00539863 14.91820161 36.00743827 2 23 C-1.46677365 24.4883614 -3.6918152 26.45324232 -6.33746338 29.12387085 C-7.19805862 29.98749741 -8.05865387 30.85112396 -8.94532776 31.74092102 C-9.89103815 32.70008843 -10.8366684 33.65933486 -11.78222656 34.61865234 C-12.78414052 35.62768098 -13.78652792 36.6362397 -14.78935242 37.6443634 C-16.94686709 39.81497171 -19.10133013 41.9885488 -21.25357819 44.16437912 C-24.66064791 47.60807406 -28.07643525 51.04303139 -31.49383545 54.47647095 C-41.20996467 64.24086955 -50.91434323 74.01689658 -60.60986328 83.80175781 C-65.96568179 89.20677342 -71.32874261 94.60449846 -76.699579 99.99459231 C-80.09433883 103.40239701 -83.47990544 106.81899623 -86.85884047 110.24248862 C-88.96913871 112.37634941 -91.08785151 114.50170044 -93.20896339 116.62480736 C-94.18637071 117.60648767 -95.16036079 118.59158493 -96.13052177 119.58042717 C-103.32875649 126.91178132 -109.08990695 132.40432363 -119.70368958 132.51670837 C-120.5164183 132.50539383 -121.32914703 132.49407928 -122.16650391 132.48242188 C-123.04560928 132.48633438 -123.92471466 132.49024689 -124.83045959 132.49427795 C-126.72539177 132.50022337 -128.62036994 132.49713674 -130.51527786 132.4858551 C-133.51712379 132.46851571 -136.51801338 132.47614196 -139.51986694 132.4901123 C-145.88831074 132.51538685 -152.25652648 132.50995355 -158.625 132.5 C-166.01473598 132.48846418 -173.40400494 132.48962938 -180.7936821 132.52406311 C-183.74639932 132.53114764 -186.698373 132.51449516 -189.65103149 132.49694824 C-191.46478677 132.50265628 -193.27853901 132.50947364 -195.09228516 132.51757812 C-195.90906235 132.50626358 -196.72583954 132.49494904 -197.56736755 132.48329163 C-202.83352901 132.53946522 -205.88957835 133.42133007 -210 137 C-213.69567921 141.59043236 -214.58117382 145.14335874 -214.51898193 150.896698 C-214.52648319 151.67361594 -214.53398444 152.45053389 -214.541713 153.2509948 C-214.56195213 155.84452459 -214.55389518 158.43717698 -214.54589844 161.03076172 C-214.55463552 162.89370079 -214.56512177 164.75663236 -214.57722473 166.61955261 C-214.60508874 171.67074881 -214.60848932 176.72170019 -214.60750484 181.77296209 C-214.61063358 187.05411101 -214.63625101 192.33514961 -214.65948486 197.61624146 C-214.7000513 207.61396774 -214.72038712 217.61162879 -214.73345876 227.60942471 C-214.74932659 238.99271901 -214.78774134 250.37590225 -214.82805204 261.75913215 C-214.91045985 285.17272074 -214.96374673 308.58629839 -215 332 C-220.28 332 -225.56 332 -231 332 C-231 260.72 -231 189.44 -231 116 C-199.32 116 -167.64 116 -135 116 C-134.01 117.98 -133.02 119.96 -132 122 C-128.26992656 123.17428238 -126.14511304 123.56993816 -122.59574604 121.80337048 C-119.69569119 119.78858428 -117.33814935 117.58388369 -114.84306335 115.08357239 C-114.10161574 114.34468805 -114.10161574 114.34468805 -113.34518939 113.59087676 C-111.69759086 111.94656059 -110.05722174 110.2952209 -108.41674805 108.64379883 C-107.23418928 107.46067568 -106.05118947 106.27799322 -104.86778259 105.09571838 C-101.66120804 101.88971728 -98.46083425 98.67759033 -95.26153922 95.4643271 C-91.91523 92.10550929 -88.56325031 88.75236022 -85.21186829 85.39860535 C-78.86855907 79.04908175 -72.53036505 72.69447744 -66.19399339 66.33803147 C-58.97910214 59.10077996 -51.75852618 51.8692115 -44.53746736 44.63811457 C-29.68531128 29.76505744 -14.84030779 14.88487874 0 0 Z " fill="#FEA85E" transform="translate(255,136)"/>
<path d="M0 0 C1.47615532 -0.0168132 1.47615532 -0.0168132 2.98213196 -0.03396606 C4.05033676 -0.02070282 5.11854156 -0.00743958 6.21911621 0.00622559 C7.91991585 -0.00209793 7.91991585 -0.00209793 9.65507507 -0.0105896 C13.40276356 -0.02239943 17.14924666 0.00190505 20.89685059 0.02770996 C23.50089462 0.02942074 26.10494038 0.02935571 28.70898438 0.02758789 C34.16644923 0.02764142 39.6235674 0.04737373 45.08093262 0.07946777 C51.38456666 0.11635913 57.68774672 0.12514298 63.99147463 0.11817026 C70.06292336 0.11185831 76.13419186 0.12284587 82.20561218 0.14213562 C84.78601828 0.14917041 87.36643809 0.15228958 89.94685364 0.15144348 C93.55218329 0.15323976 97.1568669 0.1746085 100.76208496 0.20153809 C101.83028976 0.19860748 102.89849457 0.19567688 103.99906921 0.19265747 C113.12243587 0.29787843 113.12243587 0.29787843 116.99060059 3.62145996 C118.16486323 5.96998524 118.10568231 7.35920061 118.08825684 9.97302246 C118.08503418 10.82380371 118.08181152 11.67458496 118.07849121 12.55114746 C118.0701123 13.44060059 118.0617334 14.33005371 118.05310059 15.24645996 C118.04858887 16.14364746 118.04407715 17.04083496 118.03942871 17.96520996 C118.0276265 20.18402644 118.01116214 22.40271015 117.99060059 24.62145996 C118.95581509 24.61777279 119.92102959 24.61408562 120.91549301 24.61028671 C144.3835653 24.52155295 167.85161588 24.45578763 191.3198204 24.41421127 C202.66879991 24.39357169 214.0176687 24.36542438 225.36657715 24.31970215 C235.25640251 24.27987718 245.14614772 24.25403731 255.03605103 24.24510598 C260.27441723 24.23988389 265.51255406 24.22758103 270.75084686 24.19853973 C275.67888305 24.17143924 280.60659486 24.1630041 285.53469849 24.16902924 C287.34555065 24.16792659 289.15641339 24.15994083 290.96720123 24.14463806 C293.43599405 24.12479371 295.90355535 24.12949986 298.37237549 24.14044189 C299.0922224 24.12879053 299.81206932 24.11713916 300.55372977 24.10513473 C303.97277729 24.14621531 305.70112409 24.39571883 308.43353653 26.52652359 C310.12238672 28.7987703 310.53426884 29.82669154 310.49060059 32.62145996 C310.50091309 33.28145996 310.51122559 33.94145996 310.52185059 34.62145996 C309.71792215 37.64801406 308.47793386 38.71612909 305.99060059 40.62145996 C303.07989578 41.0133705 300.54843044 41.15901938 297.63842773 41.12482452 C296.78407041 41.13063829 295.92971308 41.13645205 295.04946613 41.14244199 C292.16693194 41.15711968 289.28523892 41.14312062 286.40270996 41.12939453 C284.32320468 41.13400037 282.24370264 41.14035114 280.16420746 41.14830351 C274.43448615 41.16506343 268.70502996 41.15672021 262.97530746 41.14435863 C256.80208249 41.13533767 250.62890427 41.14926316 244.45568848 41.16027832 C233.05621374 41.17706883 221.65684756 41.17556897 210.25737548 41.16463245 C199.7272793 41.15457931 189.19721425 41.15193917 178.66711426 41.15672302 C177.96925094 41.15702856 177.27138762 41.1573341 176.55237693 41.1576489 C173.71968569 41.15889421 170.88699446 41.1601678 168.05430326 41.16148796 C141.46902118 41.17373028 114.88379322 41.1626201 88.29851949 41.14110037 C64.66720504 41.12211724 41.03597679 41.12381572 17.40466309 41.14294434 C-9.1312772 41.16435222 -35.66716965 41.17286214 -62.20311737 41.16049528 C-65.03071593 41.15921237 -67.85831451 41.15796101 -70.68591309 41.15672302 C-71.38216523 41.15640671 -72.07841738 41.1560904 -72.79576808 41.15576451 C-83.32052353 41.15121021 -93.84524445 41.15654391 -104.36999512 41.16664124 C-116.33437251 41.17806233 -128.29864805 41.17486686 -140.26302147 41.15351826 C-146.37180743 41.14297867 -152.48041807 41.13893548 -158.58920288 41.15211487 C-164.17518576 41.1639844 -169.76082984 41.15756635 -175.34678173 41.13620466 C-177.37363441 41.13171544 -179.40051538 41.13405639 -181.42735004 41.14370781 C-184.17105592 41.15577635 -186.91358346 41.14349457 -189.65722656 41.12482452 C-190.85263455 41.13887152 -190.85263455 41.13887152 -192.07219219 41.1532023 C-195.64454882 41.10422431 -197.62099784 40.91898081 -200.49820709 38.71499968 C-202.13564146 36.44656975 -202.5526054 35.38664305 -202.50939941 32.62145996 C-202.52486816 31.63145996 -202.52486816 31.63145996 -202.54064941 30.62145996 C-201.74458627 27.62451636 -200.44950934 26.52431979 -198.00939941 24.62145996 C-195.33080477 24.23689689 -193.06637385 24.0971414 -190.39117432 24.14044189 C-189.62004877 24.1370242 -188.84892323 24.1336065 -188.05443025 24.13008523 C-185.46840475 24.12349226 -182.88341534 24.14550499 -180.29748535 24.1673584 C-178.4447024 24.16848657 -176.59191765 24.1678536 -174.73913574 24.16558838 C-169.70631906 24.16443913 -164.67388251 24.18798257 -159.64115429 24.21588421 C-154.38275763 24.24086276 -149.12435259 24.24323706 -143.86590576 24.24798584 C-133.90698478 24.26042604 -123.94823911 24.29326183 -113.98939538 24.3333838 C-102.65217909 24.37806898 -91.3149545 24.40008037 -79.9776721 24.42016554 C-56.65481729 24.4619935 -33.33211817 24.53236591 -10.00939941 24.62145996 C-10.09641113 22.65112793 -10.09641113 22.65112793 -10.18518066 20.64099121 C-10.23208989 18.90534973 -10.27758881 17.16966973 -10.32189941 15.43395996 C-10.38474121 14.13748535 -10.38474121 14.13748535 -10.44885254 12.81481934 C-10.53433852 8.35245126 -10.4729479 6.26736447 -7.80295563 2.54701996 C-4.83536588 0.50150103 -3.54525955 -0.00296588 0 0 Z " fill="#D9D7DA" transform="translate(202.0093994140625,443.3785400390625)"/>
<path d="M0 0 C19.0972922 -0.09339956 38.19453811 -0.16395769 57.29201126 -0.20724869 C66.15910726 -0.22788283 75.02606143 -0.25601962 83.89306641 -0.30175781 C91.62064576 -0.3415996 99.34812241 -0.36742662 107.07580161 -0.37635398 C111.16842342 -0.38157327 115.26075139 -0.3938579 119.35327911 -0.42292023 C123.20448135 -0.45004754 127.05526838 -0.45845057 130.90655708 -0.45243073 C132.32072518 -0.45353218 133.73490699 -0.46150244 135.14899254 -0.4768219 C137.0786576 -0.49670341 139.00854488 -0.48955896 140.93829346 -0.48101807 C142.01863483 -0.48470524 143.09897621 -0.48839241 144.21205521 -0.49219131 C147.68303959 0.12058566 148.81713762 1.29513834 151 4 C152.22683716 6.14228821 152.22683716 6.14228821 153.25830078 8.47387695 C153.65195831 9.35191483 154.04561584 10.2299527 154.45120239 11.13459778 C154.86175873 12.07631332 155.27231506 13.01802887 155.6953125 13.98828125 C156.34558914 15.45312202 156.34558914 15.45312202 157.00900269 16.94755554 C157.92267686 19.01086312 158.83184899 21.07616938 159.73681641 23.14331055 C161.11733317 26.29499682 162.51249772 29.43986806 163.91015625 32.58398438 C164.79774977 34.59336382 165.68449656 36.60311754 166.5703125 38.61328125 C166.9849173 39.5489241 167.39952209 40.48456696 167.82669067 41.44856262 C168.21404388 42.33605698 168.60139709 43.22355133 169.00048828 44.13793945 C169.33928009 44.90975052 169.6780719 45.68156158 170.02713013 46.47676086 C171.23084935 49.59873179 172.11691347 52.77445354 173 56 C154.50541451 57.68205875 135.99606191 58.80328267 117.4375 59.4375 C116.7594591 59.46132043 116.08141821 59.48514087 115.38283062 59.50968313 C54.27146243 61.59794009 54.27146243 61.59794009 30.8379364 40.14472961 C27.03654589 36.4766029 23.53815966 32.59137208 20.125 28.5625 C19.56833019 27.90685436 19.01166039 27.25120872 18.4381218 26.57569504 C0 4.58516569 0 4.58516569 0 0 Z " fill="#FE7F85" transform="translate(324,180)"/>
<path d="M0 0 C1.2423793 -0.00549866 2.48475861 -0.01099731 3.76478577 -0.0166626 C5.13870626 -0.00250697 6.51262285 0.01203226 7.88653564 0.0269165 C9.33538278 0.02804497 10.7842322 0.02741114 12.233078 0.02514648 C16.16473429 0.02399836 20.09590289 0.04752319 24.02744579 0.07544231 C28.13672097 0.10043975 32.2460072 0.10279665 36.35534668 0.10754395 C44.13620937 0.11997863 51.91684737 0.15280681 59.69761109 0.1929419 C68.55602835 0.23764436 77.41445631 0.2596428 86.27295828 0.27972364 C104.49486408 0.32153908 122.71656071 0.39190063 140.93829346 0.48101807 C140.54353065 0.92492669 140.14876785 1.36883532 139.74204254 1.82619572 C136.67967204 5.32372403 133.99043994 8.75053014 131.63165283 12.77374268 C127.35896032 19.70563799 122.62090255 26.15079265 117.43829346 32.41851807 C116.96565693 32.99077496 116.4930204 33.56303185 116.00606155 34.15262985 C102.822176 49.74211168 88.69173339 57.30223735 68.26902962 59.10615826 C53.47519924 60.11130592 38.68667239 59.99623468 23.87579346 59.54351807 C23.19143597 59.52301816 22.50707848 59.50251826 21.80198288 59.48139715 C3.81915248 58.93077431 -14.12779039 57.91987426 -32.06170654 56.48101807 C-28.98820684 47.04666218 -28.98820684 47.04666218 -27.04046631 42.57550049 C-26.67320938 41.7281987 -26.30595245 40.88089691 -25.92756653 40.00791931 C-25.5399968 39.12634659 -25.15242706 38.24477386 -24.75311279 37.33648682 C-24.34511948 36.40427811 -23.93712616 35.4720694 -23.51676941 34.51161194 C-22.65916777 32.55685472 -21.79935943 30.60306427 -20.93743896 28.65020752 C-19.6221006 25.66373652 -18.32123336 22.67122222 -17.02069092 19.67828369 C-16.18237734 17.77229782 -15.34321411 15.86668538 -14.50311279 13.96148682 C-14.11756729 13.06979294 -13.73202179 12.17809906 -13.33479309 11.25938416 C-12.964384 10.42784317 -12.59397491 9.59630219 -12.21234131 8.73956299 C-11.89273941 8.0117009 -11.57313751 7.28383881 -11.24385071 6.53392029 C-8.32094146 1.45801917 -5.83988932 -0.01993136 0 0 Z " fill="#FE8086" transform="translate(47.06170654296875,179.51898193359375)"/>
<path d="M0 0 C9.40583297 8.66034536 14.90332545 19.61472774 15.875 32.27734375 C16.41526455 47.12643292 11.59469749 59.79359319 1.62890625 70.7578125 C-7.92848872 79.89403413 -20.79907974 84.57185979 -33.90234375 84.31640625 C-47.96902189 83.31843246 -59.35029717 78.23475093 -69.07421875 67.984375 C-78.2897728 56.29253261 -81.39606897 43.7453546 -80.37109375 29.0703125 C-78.32577227 16.04213031 -71.56819526 5.30643295 -61.37109375 -2.9296875 C-41.58742521 -15.894713 -18.58093375 -15.12188019 0 0 Z " fill="#FFEFAE" transform="translate(288.37109375,231.9296875)"/>
<path d="M0 0 C0.82175217 -0.00554901 1.64350433 -0.01109802 2.49015808 -0.01681519 C5.19911515 -0.02859978 7.90639499 -0.00434938 10.61523438 0.02148438 C12.50183028 0.02319588 14.38842856 0.02312939 16.27502441 0.0213623 C20.22606199 0.02301487 24.17653173 0.04170121 28.12744141 0.07324219 C33.1883391 0.11291954 38.24849319 0.11728702 43.30951691 0.10977936 C47.20435379 0.10670774 51.09902394 0.11883701 54.99382019 0.13591003 C56.85970514 0.14293428 58.72560898 0.14606527 60.59150696 0.1452179 C63.20067401 0.14701848 65.80895517 0.16842221 68.41796875 0.1953125 C69.18694992 0.1923819 69.95593109 0.18945129 70.74821472 0.18643188 C75.22812538 0.25756011 78.15074365 0.83251037 81.70898438 3.61523438 C83.12595631 6.44917824 82.82844367 8.82397176 82.82250977 11.99267578 C82.8226303 12.65703329 82.82275084 13.3213908 82.82287502 14.00588036 C82.82212775 16.15955308 82.81450799 18.3131396 82.80664062 20.46679688 C82.80563354 21.78188232 82.80462646 23.09696777 82.80358887 24.4519043 C82.79834266 29.38135648 82.78438149 34.31079627 82.77148438 39.24023438 C82.75085938 50.25398438 82.73023438 61.26773438 82.70898438 72.61523438 C51.02898437 72.61523438 19.34898437 72.61523438 -13.29101562 72.61523438 C-13.39414063 61.66335938 -13.49726563 50.71148437 -13.60351562 39.42773438 C-13.64903564 35.9753833 -13.69455566 32.52303223 -13.74145508 28.96606445 C-13.75605768 26.2306414 -13.76879888 23.49520751 -13.77929688 20.75976562 C-13.79236374 20.05220627 -13.8054306 19.34464691 -13.81889343 18.61564636 C-13.85562888 16.52092787 -13.86054203 14.42824545 -13.85864258 12.33325195 C-13.86974564 11.15410721 -13.88084869 9.97496246 -13.89228821 8.76008606 C-12.40517795 0.98201447 -7.02967018 -0.12124645 0 0 Z " fill="#C38C66" transform="translate(221.291015625,371.384765625)"/>
<path d="M0 0 C2.98650688 0.61198912 4.24464634 1.89821951 5.90625 4.390625 C5.90625 5.710625 5.90625 7.030625 5.90625 8.390625 C7.21819336 8.36967773 8.53013672 8.34873047 9.88183594 8.32714844 C14.74956344 8.2547453 19.61724335 8.20882387 24.48535156 8.17089844 C26.59220382 8.15078374 28.69900025 8.12348833 30.80566406 8.08886719 C33.83412447 8.04034332 36.86184678 8.01765484 39.890625 8 C41.30332672 7.96903229 41.30332672 7.96903229 42.74456787 7.93743896 C49.15482181 7.93523971 49.15482181 7.93523971 52.49902344 9.96191406 C54.43403792 13.30152615 54.42407342 15.78911443 54.4375 19.640625 C54.44324036 20.68331543 54.44324036 20.68331543 54.44909668 21.74707031 C54.4518118 23.21290541 54.44447835 24.67878928 54.42773438 26.14453125 C54.40631419 28.38391475 54.42754443 30.62009087 54.453125 32.859375 C54.45048165 34.28646539 54.4453565 35.71355379 54.4375 37.140625 C54.43298828 38.43484375 54.42847656 39.7290625 54.42382812 41.0625 C53.90625 44.390625 53.90625 44.390625 52.49902344 46.81933594 C48.43675169 49.28117972 44.54829391 48.88378492 39.890625 48.78125 C39.02969238 48.77722168 38.16875977 48.77319336 37.28173828 48.76904297 C34.07302466 48.74815217 30.8646154 48.69230644 27.65625 48.640625 C20.47875 48.558125 13.30125 48.475625 5.90625 48.390625 C5.90625 62.910625 5.90625 77.430625 5.90625 92.390625 C3.92625 91.400625 1.94625 90.410625 -0.09375 89.390625 C-4.35033339 89.60706144 -6.53383224 90.01734649 -10.09375 92.390625 C-10.18638171 80.9860027 -10.2574804 69.58146972 -10.30099869 58.176548 C-10.32188408 52.88090997 -10.35021932 47.58552909 -10.39550781 42.29003906 C-10.43893128 37.18071715 -10.46287993 32.07164276 -10.47325897 26.96215057 C-10.48065661 25.01165621 -10.49510233 23.06117558 -10.51667023 21.11078644 C-10.54565772 18.38117572 -10.54970796 15.65259113 -10.54785156 12.92285156 C-10.56223267 12.11436768 -10.57661377 11.30588379 -10.59143066 10.47290039 C-10.56475075 6.85352094 -10.41585532 4.8137052 -8.19036865 1.89056396 C-5.28722471 -0.18637011 -3.4661826 -0.18106924 0 0 Z " fill="#FF8086" transform="translate(258.09375,27.609375)"/>
<path d="M0 0 C6.31402599 4.4892277 11.8946353 11.71801442 13.3125 19.4375 C14.20657597 29.85182936 12.23751752 38.84437212 6.1015625 47.3984375 C-0.02961272 54.38637083 -8.36373775 57.71299541 -17.44921875 58.75390625 C-26.61949028 59.1503894 -33.70969311 55.89525754 -40.83203125 50.265625 C-47.93308539 43.26921798 -50.63205347 34.68504696 -51.0625 25 C-50.86882644 16.23627125 -46.67605604 8.71689099 -40.6875 2.4375 C-28.21792185 -7.6590525 -13.76318937 -8.22065287 0 0 Z " fill="#FEFEFD" transform="translate(274.6875,241.5625)"/>
<path d="M0 0 C0.85169518 0.00071251 1.70339035 0.00142502 2.58089447 0.00215912 C3.56499802 -0.00904968 4.54910156 -0.02025848 5.56302643 -0.03180695 C6.63123123 -0.0185437 7.69943604 -0.00528046 8.80001068 0.0083847 C10.50081032 0.00006119 10.50081032 0.00006119 12.23596954 -0.00843048 C15.98365803 -0.02024031 19.73014113 0.00406417 23.47774506 0.02986908 C26.08178909 0.03157986 28.68583485 0.03151483 31.28987885 0.02974701 C36.7473437 0.02980054 42.20446187 0.04953285 47.66182709 0.08162689 C53.96546113 0.11851825 60.26864119 0.1273021 66.5723691 0.12032938 C72.64381783 0.11401743 78.71508633 0.12500499 84.78650665 0.14429474 C87.36691275 0.15132952 89.94733256 0.15444869 92.52774811 0.1536026 C96.13307776 0.15539888 99.73776137 0.17676762 103.34297943 0.2036972 C104.41118423 0.2007666 105.47938904 0.197836 106.57996368 0.19481659 C115.70333034 0.30003755 115.70333034 0.30003755 119.57149506 3.62361908 C122.70553753 9.89170403 120.57149506 17.61568707 120.57149506 24.62361908 C78.33149506 24.62361908 36.09149506 24.62361908 -7.42850494 24.62361908 C-7.42850494 1.90757586 -7.42850494 1.90757586 0 0 Z " fill="#C8C4C8" transform="translate(199.42850494384766,443.37638092041016)"/>
<path d="M0 0 C0.84026733 0.0050354 1.68053467 0.0100708 2.54626465 0.01525879 C5.67051551 0.04132357 8.79427812 0.11113107 11.91796875 0.17578125 C18.90984375 0.27890625 25.90171875 0.38203125 33.10546875 0.48828125 C33.10546875 16.32828125 33.10546875 32.16828125 33.10546875 48.48828125 C26.09296875 48.55015625 19.08046875 48.61203125 11.85546875 48.67578125 C9.64698242 48.70309326 7.43849609 48.73040527 5.16308594 48.75854492 C3.40951077 48.76730806 1.6559295 48.77495241 -0.09765625 48.78125 C-1.00563965 48.7965979 -1.91362305 48.8119458 -2.84912109 48.82775879 C-9.23901243 48.83041387 -9.23901243 48.83041387 -12.44433594 47.1574707 C-16.75814094 42.19223757 -15.20083375 33.0018761 -15.24462891 26.72851562 C-15.26119767 24.9884708 -15.28850014 23.2484943 -15.32666016 21.50878906 C-15.38150006 18.99378339 -15.40330985 16.48036718 -15.41796875 13.96484375 C-15.44063812 13.19073151 -15.4633075 12.41661926 -15.48666382 11.61904907 C-15.47202651 7.86626096 -15.00996107 5.66913259 -12.98022461 2.48901367 C-8.60975411 -0.34475528 -5.10292836 -0.144575 0 0 Z " fill="#DBE9FE" transform="translate(358.89453125,371.51171875)"/>
<path d="M0 0 C0.84026733 0.0050354 1.68053467 0.0100708 2.54626465 0.01525879 C5.67051551 0.04132357 8.79427812 0.11113107 11.91796875 0.17578125 C18.90984375 0.27890625 25.90171875 0.38203125 33.10546875 0.48828125 C33.10546875 16.32828125 33.10546875 32.16828125 33.10546875 48.48828125 C26.09296875 48.55015625 19.08046875 48.61203125 11.85546875 48.67578125 C9.64698242 48.70309326 7.43849609 48.73040527 5.16308594 48.75854492 C3.40951077 48.76730806 1.6559295 48.77495241 -0.09765625 48.78125 C-1.00563965 48.7965979 -1.91362305 48.8119458 -2.84912109 48.82775879 C-9.23901243 48.83041387 -9.23901243 48.83041387 -12.44433594 47.1574707 C-16.75814094 42.19223757 -15.20083375 33.0018761 -15.24462891 26.72851562 C-15.26119767 24.9884708 -15.28850014 23.2484943 -15.32666016 21.50878906 C-15.38150006 18.99378339 -15.40330985 16.48036718 -15.41796875 13.96484375 C-15.44063812 13.19073151 -15.4633075 12.41661926 -15.48666382 11.61904907 C-15.47202651 7.86626096 -15.00996107 5.66913259 -12.98022461 2.48901367 C-8.60975411 -0.34475528 -5.10292836 -0.144575 0 0 Z " fill="#DBE9FE" transform="translate(70.89453125,371.51171875)"/>
<path d="M0 0 C0.84026733 0.0050354 1.68053467 0.0100708 2.54626465 0.01525879 C5.67051551 0.04132357 8.79427812 0.11113107 11.91796875 0.17578125 C18.90984375 0.27890625 25.90171875 0.38203125 33.10546875 0.48828125 C33.10546875 16.32828125 33.10546875 32.16828125 33.10546875 48.48828125 C26.09296875 48.55015625 19.08046875 48.61203125 11.85546875 48.67578125 C9.64698242 48.70309326 7.43849609 48.73040527 5.16308594 48.75854492 C3.40951077 48.76730806 1.6559295 48.77495241 -0.09765625 48.78125 C-1.00563965 48.7965979 -1.91362305 48.8119458 -2.84912109 48.82775879 C-9.23901243 48.83041387 -9.23901243 48.83041387 -12.44433594 47.1574707 C-16.75814094 42.19223757 -15.20083375 33.0018761 -15.24462891 26.72851562 C-15.26119767 24.9884708 -15.28850014 23.2484943 -15.32666016 21.50878906 C-15.38150006 18.99378339 -15.40330985 16.48036718 -15.41796875 13.96484375 C-15.44063812 13.19073151 -15.4633075 12.41661926 -15.48666382 11.61904907 C-15.47202651 7.86626096 -15.00996107 5.66913259 -12.98022461 2.48901367 C-8.60975411 -0.34475528 -5.10292836 -0.144575 0 0 Z " fill="#DBE9FE" transform="translate(358.89453125,291.51171875)"/>
<path d="M0 0 C0.84026733 0.0050354 1.68053467 0.0100708 2.54626465 0.01525879 C5.67051551 0.04132357 8.79427812 0.11113107 11.91796875 0.17578125 C18.90984375 0.27890625 25.90171875 0.38203125 33.10546875 0.48828125 C33.10546875 16.32828125 33.10546875 32.16828125 33.10546875 48.48828125 C26.09296875 48.55015625 19.08046875 48.61203125 11.85546875 48.67578125 C9.64698242 48.70309326 7.43849609 48.73040527 5.16308594 48.75854492 C3.40951077 48.76730806 1.6559295 48.77495241 -0.09765625 48.78125 C-1.00563965 48.7965979 -1.91362305 48.8119458 -2.84912109 48.82775879 C-9.23901243 48.83041387 -9.23901243 48.83041387 -12.44433594 47.1574707 C-16.75814094 42.19223757 -15.20083375 33.0018761 -15.24462891 26.72851562 C-15.26119767 24.9884708 -15.28850014 23.2484943 -15.32666016 21.50878906 C-15.38150006 18.99378339 -15.40330985 16.48036718 -15.41796875 13.96484375 C-15.44063812 13.19073151 -15.4633075 12.41661926 -15.48666382 11.61904907 C-15.47202651 7.86626096 -15.00996107 5.66913259 -12.98022461 2.48901367 C-8.60975411 -0.34475528 -5.10292836 -0.144575 0 0 Z " fill="#DBE9FE" transform="translate(70.89453125,291.51171875)"/>
<path d="M0 0 C10.2403125 -0.0928125 10.2403125 -0.0928125 20.6875 -0.1875 C23.90826294 -0.22846802 23.90826294 -0.22846802 27.1940918 -0.27026367 C28.9041284 -0.27902904 30.61417127 -0.28667286 32.32421875 -0.29296875 C33.20549438 -0.30831665 34.08677002 -0.32366455 34.99475098 -0.33947754 C39.81289758 -0.34152752 43.11165115 -0.19107417 47 3 C48.59006531 6.18013063 48.18417077 9.61970657 48.203125 13.11328125 C48.20882507 13.91984665 48.21452515 14.72641205 48.22039795 15.55741882 C48.22985195 17.26637458 48.23638352 18.9753486 48.24023438 20.68432617 C48.2499232 23.29183041 48.280935 25.89854078 48.3125 28.50585938 C48.31903185 30.16666199 48.32428161 31.82747024 48.328125 33.48828125 C48.3404718 34.26553055 48.3528186 35.04277985 48.36553955 35.84358215 C48.34694428 40.39115483 47.92350081 43.43896364 45 47 C42.24414648 47.91861784 40.6403931 48.12204322 37.80395508 48.11352539 C36.95160278 48.11340454 36.09925049 48.11328369 35.22106934 48.11315918 C33.88380798 48.10548523 33.88380798 48.10548523 32.51953125 48.09765625 C31.69690796 48.09664917 30.87428467 48.09564209 30.0267334 48.09460449 C26.95530808 48.08937449 23.88390263 48.07541322 20.8125 48.0625 C13.944375 48.041875 7.07625 48.02125 0 48 C0 32.16 0 16.32 0 0 Z " fill="#EDF3FE" transform="translate(408,372)"/>
<path d="M0 0 C10.2403125 -0.0928125 10.2403125 -0.0928125 20.6875 -0.1875 C23.90826294 -0.22846802 23.90826294 -0.22846802 27.1940918 -0.27026367 C28.9041284 -0.27902904 30.61417127 -0.28667286 32.32421875 -0.29296875 C33.20549438 -0.30831665 34.08677002 -0.32366455 34.99475098 -0.33947754 C39.81289758 -0.34152752 43.11165115 -0.19107417 47 3 C48.59006531 6.18013063 48.18417077 9.61970657 48.203125 13.11328125 C48.20882507 13.91984665 48.21452515 14.72641205 48.22039795 15.55741882 C48.22985195 17.26637458 48.23638352 18.9753486 48.24023438 20.68432617 C48.2499232 23.29183041 48.280935 25.89854078 48.3125 28.50585938 C48.31903185 30.16666199 48.32428161 31.82747024 48.328125 33.48828125 C48.3404718 34.26553055 48.3528186 35.04277985 48.36553955 35.84358215 C48.34694428 40.39115483 47.92350081 43.43896364 45 47 C42.24414648 47.91861784 40.6403931 48.12204322 37.80395508 48.11352539 C36.95160278 48.11340454 36.09925049 48.11328369 35.22106934 48.11315918 C33.88380798 48.10548523 33.88380798 48.10548523 32.51953125 48.09765625 C31.69690796 48.09664917 30.87428467 48.09564209 30.0267334 48.09460449 C26.95530808 48.08937449 23.88390263 48.07541322 20.8125 48.0625 C13.944375 48.041875 7.07625 48.02125 0 48 C0 32.16 0 16.32 0 0 Z " fill="#EDF3FE" transform="translate(120,372)"/>
<path d="M0 0 C10.2403125 -0.0928125 10.2403125 -0.0928125 20.6875 -0.1875 C23.90826294 -0.22846802 23.90826294 -0.22846802 27.1940918 -0.27026367 C28.9041284 -0.27902904 30.61417127 -0.28667286 32.32421875 -0.29296875 C33.20549438 -0.30831665 34.08677002 -0.32366455 34.99475098 -0.33947754 C39.81289758 -0.34152752 43.11165115 -0.19107417 47 3 C48.59006531 6.18013063 48.18417077 9.61970657 48.203125 13.11328125 C48.20882507 13.91984665 48.21452515 14.72641205 48.22039795 15.55741882 C48.22985195 17.26637458 48.23638352 18.9753486 48.24023438 20.68432617 C48.2499232 23.29183041 48.280935 25.89854078 48.3125 28.50585938 C48.31903185 30.16666199 48.32428161 31.82747024 48.328125 33.48828125 C48.3404718 34.26553055 48.3528186 35.04277985 48.36553955 35.84358215 C48.34694428 40.39115483 47.92350081 43.43896364 45 47 C42.24414648 47.91861784 40.6403931 48.12204322 37.80395508 48.11352539 C36.95160278 48.11340454 36.09925049 48.11328369 35.22106934 48.11315918 C33.88380798 48.10548523 33.88380798 48.10548523 32.51953125 48.09765625 C31.69690796 48.09664917 30.87428467 48.09564209 30.0267334 48.09460449 C26.95530808 48.08937449 23.88390263 48.07541322 20.8125 48.0625 C13.944375 48.041875 7.07625 48.02125 0 48 C0 32.16 0 16.32 0 0 Z " fill="#EDF3FE" transform="translate(408,292)"/>
<path d="M0 0 C10.2403125 -0.0928125 10.2403125 -0.0928125 20.6875 -0.1875 C23.90826294 -0.22846802 23.90826294 -0.22846802 27.1940918 -0.27026367 C28.9041284 -0.27902904 30.61417127 -0.28667286 32.32421875 -0.29296875 C33.20549438 -0.30831665 34.08677002 -0.32366455 34.99475098 -0.33947754 C39.81289758 -0.34152752 43.11165115 -0.19107417 47 3 C48.59006531 6.18013063 48.18417077 9.61970657 48.203125 13.11328125 C48.20882507 13.91984665 48.21452515 14.72641205 48.22039795 15.55741882 C48.22985195 17.26637458 48.23638352 18.9753486 48.24023438 20.68432617 C48.2499232 23.29183041 48.280935 25.89854078 48.3125 28.50585938 C48.31903185 30.16666199 48.32428161 31.82747024 48.328125 33.48828125 C48.3404718 34.26553055 48.3528186 35.04277985 48.36553955 35.84358215 C48.34694428 40.39115483 47.92350081 43.43896364 45 47 C42.24414648 47.91861784 40.6403931 48.12204322 37.80395508 48.11352539 C36.95160278 48.11340454 36.09925049 48.11328369 35.22106934 48.11315918 C33.88380798 48.10548523 33.88380798 48.10548523 32.51953125 48.09765625 C31.69690796 48.09664917 30.87428467 48.09564209 30.0267334 48.09460449 C26.95530808 48.08937449 23.88390263 48.07541322 20.8125 48.0625 C13.944375 48.041875 7.07625 48.02125 0 48 C0 32.16 0 16.32 0 0 Z " fill="#EDF3FE" transform="translate(120,292)"/>
<path d="M0 0 C38.94 0 77.88 0 118 0 C120.30894309 4.61788618 120.30894309 4.61788618 120.375 8 C120.40335937 8.66 120.43171875 9.32 120.4609375 10 C119.73805856 13.13655948 118.60867523 14.08751118 116 16 C112.67007923 16.59280882 109.37291383 16.50474396 105.99902344 16.45410156 C104.47659027 16.45497772 104.47659027 16.45497772 102.92340088 16.45587158 C99.56837778 16.4530847 96.21424291 16.42196313 92.859375 16.390625 C90.53339117 16.38316479 88.20740105 16.37747082 85.88140869 16.37347412 C79.75906017 16.35820065 73.63709115 16.31890353 67.51489258 16.2746582 C61.26779311 16.23374276 55.02063233 16.21547104 48.7734375 16.1953125 C36.51545825 16.15241138 24.25776068 16.08413891 12 16 C11.55164795 15.06196533 11.1032959 14.12393066 10.64135742 13.1574707 C8.90142825 9.81037803 7.04148034 7.76706756 4.3125 5.1875 C2.86138998 3.80582108 1.41979322 2.41384021 0 1 C0 0.67 0 0.34 0 0 Z " fill="#E5636D" transform="translate(380,236)"/>
<path d="M0 0 C38.94 0 77.88 0 118 0 C112 7 112 7 109.1875 10.25 C106.85710129 12.85686693 106.85710129 12.85686693 106 16 C92.50922588 16.09260248 79.01852713 16.16371565 65.52750015 16.20724869 C59.26333659 16.22814037 52.99939015 16.2564874 46.73535156 16.30175781 C40.6923585 16.34515836 34.64957454 16.36912519 28.60643768 16.37950897 C26.29869036 16.38691069 23.99095472 16.40136418 21.6832962 16.42292023 C18.45560299 16.45187649 15.22877836 16.45595916 12.00097656 16.45410156 C11.04288086 16.46848267 10.08478516 16.48286377 9.09765625 16.49768066 C2.6237049 16.45725456 2.6237049 16.45725456 -0.59625244 14.09661865 C-2.12957877 11.80646288 -2.49205156 10.7241091 -2.375 8 C-2.36210937 7.34 -2.34921875 6.68 -2.3359375 6 C-2 4 -2 4 0 0 Z " fill="#E5636D" transform="translate(14,236)"/>
<path d="M0 0 C0.66 -0.0103125 1.32 -0.020625 2 -0.03125 C5.03501814 0.77492669 6.0954489 1.99840252 8 4.5 C8.37394577 7.47111559 8.50687929 10.06514263 8.45410156 13.03222656 C8.45468567 13.89112488 8.45526978 14.75002319 8.45587158 15.63494873 C8.45308745 18.47058695 8.42198017 21.30517069 8.390625 24.140625 C8.38316378 26.10788397 8.37747028 28.07515037 8.37347412 30.04241943 C8.35820849 35.21786045 8.31891849 40.39285178 8.2746582 45.56811523 C8.23372565 50.85003577 8.2154674 56.13202904 8.1953125 61.4140625 C8.15242529 71.77623914 8.08416255 82.13808216 8 92.5 C7.08605469 92.00113281 6.17210937 91.50226563 5.23046875 90.98828125 C1.26237194 89.16017377 -0.80882575 89.47197613 -5 90.5 C-6.485 91.49 -6.485 91.49 -8 92.5 C-8.09263171 81.0953777 -8.1637304 69.69084472 -8.20724869 58.285923 C-8.22813408 52.99028497 -8.25646932 47.69490409 -8.30175781 42.39941406 C-8.34518128 37.29009215 -8.36912993 32.18101776 -8.37950897 27.07152557 C-8.38690661 25.12103121 -8.40135233 23.17055058 -8.42292023 21.22016144 C-8.45190772 18.49055072 -8.45595796 15.76196613 -8.45410156 13.03222656 C-8.46848267 12.22374268 -8.48286377 11.41525879 -8.49768066 10.58227539 C-8.47100075 6.96289594 -8.32210532 4.9230802 -6.09661865 1.99993896 C-3.82726289 0.37642239 -2.75863165 -0.04310362 0 0 Z " fill="#FEC168" transform="translate(256,27.5)"/>
<path d="M0 0 C5.28 0 10.56 0 16 0 C16 23.76 16 47.52 16 72 C10.72 72 5.44 72 0 72 C0 48.24 0 24.48 0 0 Z " fill="#B57F5F" transform="translate(248,372)"/>
<path d="M0 0 C10.56 0 21.12 0 32 0 C32 10.56 32 21.12 32 32 C29.009375 32.061875 26.01875 32.12375 22.9375 32.1875 C22.00929443 32.21481201 21.08108887 32.24212402 20.12475586 32.27026367 C13.98011452 32.33132272 9.08748266 31.65828104 4.2578125 27.5 C1.10216631 23.32148918 -0.13070987 20.52144945 -0.09765625 15.33203125 C-0.09515869 14.52741455 -0.09266113 13.72279785 -0.09008789 12.89379883 C-0.08098389 11.87697021 -0.07187988 10.8601416 -0.0625 9.8125 C-0.041875 6.574375 -0.02125 3.33625 0 0 Z " fill="#ECF3FF" transform="translate(360,372)"/>
<path d="M0 0 C10.56 0 21.12 0 32 0 C32 10.56 32 21.12 32 32 C29.009375 32.061875 26.01875 32.12375 22.9375 32.1875 C22.00929443 32.21481201 21.08108887 32.24212402 20.12475586 32.27026367 C13.98011452 32.33132272 9.08748266 31.65828104 4.2578125 27.5 C1.10216631 23.32148918 -0.13070987 20.52144945 -0.09765625 15.33203125 C-0.09515869 14.52741455 -0.09266113 13.72279785 -0.09008789 12.89379883 C-0.08098389 11.87697021 -0.07187988 10.8601416 -0.0625 9.8125 C-0.041875 6.574375 -0.02125 3.33625 0 0 Z " fill="#ECF3FF" transform="translate(72,372)"/>
<path d="M0 0 C10.56 0 21.12 0 32 0 C32 10.56 32 21.12 32 32 C29.009375 32.061875 26.01875 32.12375 22.9375 32.1875 C22.00929443 32.21481201 21.08108887 32.24212402 20.12475586 32.27026367 C13.98011452 32.33132272 9.08748266 31.65828104 4.2578125 27.5 C1.10216631 23.32148918 -0.13070987 20.52144945 -0.09765625 15.33203125 C-0.09515869 14.52741455 -0.09266113 13.72279785 -0.09008789 12.89379883 C-0.08098389 11.87697021 -0.07187988 10.8601416 -0.0625 9.8125 C-0.041875 6.574375 -0.02125 3.33625 0 0 Z " fill="#ECF3FF" transform="translate(360,292)"/>
<path d="M0 0 C10.56 0 21.12 0 32 0 C32 10.56 32 21.12 32 32 C29.009375 32.061875 26.01875 32.12375 22.9375 32.1875 C22.00929443 32.21481201 21.08108887 32.24212402 20.12475586 32.27026367 C13.98011452 32.33132272 9.08748266 31.65828104 4.2578125 27.5 C1.10216631 23.32148918 -0.13070987 20.52144945 -0.09765625 15.33203125 C-0.09515869 14.52741455 -0.09266113 13.72279785 -0.09008789 12.89379883 C-0.08098389 11.87697021 -0.07187988 10.8601416 -0.0625 9.8125 C-0.041875 6.574375 -0.02125 3.33625 0 0 Z " fill="#ECF3FF" transform="translate(72,292)"/>
<path d="M0 0 C15.84 0 31.68 0 48 0 C48 11.55555556 48 11.55555556 45 15 C42.24414648 15.91861784 40.6403931 16.12204322 37.80395508 16.11352539 C36.96331009 16.11344986 36.1226651 16.11337433 35.25654602 16.11329651 C34.35333115 16.10813522 33.45011627 16.10297394 32.51953125 16.09765625 C31.59154221 16.0962413 30.66355316 16.09482635 29.70744324 16.09336853 C26.74242942 16.08776937 23.77749101 16.07521704 20.8125 16.0625 C18.80273547 16.05748489 16.79296975 16.052922 14.78320312 16.04882812 C9.85543968 16.03780021 4.92773263 16.02053617 0 16 C0 10.72 0 5.44 0 0 Z " fill="#DBE9FE" transform="translate(408,404)"/>
<path d="M0 0 C15.84 0 31.68 0 48 0 C48 11.55555556 48 11.55555556 45 15 C42.24414648 15.91861784 40.6403931 16.12204322 37.80395508 16.11352539 C36.96331009 16.11344986 36.1226651 16.11337433 35.25654602 16.11329651 C34.35333115 16.10813522 33.45011627 16.10297394 32.51953125 16.09765625 C31.59154221 16.0962413 30.66355316 16.09482635 29.70744324 16.09336853 C26.74242942 16.08776937 23.77749101 16.07521704 20.8125 16.0625 C18.80273547 16.05748489 16.79296975 16.052922 14.78320312 16.04882812 C9.85543968 16.03780021 4.92773263 16.02053617 0 16 C0 10.72 0 5.44 0 0 Z " fill="#DBE9FE" transform="translate(120,404)"/>
<path d="M0 0 C15.84 0 31.68 0 48 0 C48 11.55555556 48 11.55555556 45 15 C42.24414648 15.91861784 40.6403931 16.12204322 37.80395508 16.11352539 C36.96331009 16.11344986 36.1226651 16.11337433 35.25654602 16.11329651 C34.35333115 16.10813522 33.45011627 16.10297394 32.51953125 16.09765625 C31.59154221 16.0962413 30.66355316 16.09482635 29.70744324 16.09336853 C26.74242942 16.08776937 23.77749101 16.07521704 20.8125 16.0625 C18.80273547 16.05748489 16.79296975 16.052922 14.78320312 16.04882812 C9.85543968 16.03780021 4.92773263 16.02053617 0 16 C0 10.72 0 5.44 0 0 Z " fill="#DBE9FE" transform="translate(408,324)"/>
<path d="M0 0 C15.84 0 31.68 0 48 0 C48 11.55555556 48 11.55555556 45 15 C42.24414648 15.91861784 40.6403931 16.12204322 37.80395508 16.11352539 C36.96331009 16.11344986 36.1226651 16.11337433 35.25654602 16.11329651 C34.35333115 16.10813522 33.45011627 16.10297394 32.51953125 16.09765625 C31.59154221 16.0962413 30.66355316 16.09482635 29.70744324 16.09336853 C26.74242942 16.08776937 23.77749101 16.07521704 20.8125 16.0625 C18.80273547 16.05748489 16.79296975 16.052922 14.78320312 16.04882812 C9.85543968 16.03780021 4.92773263 16.02053617 0 16 C0 10.72 0 5.44 0 0 Z " fill="#DBE9FE" transform="translate(120,324)"/>
<path d="M0 0 C2.6192182 2.20996536 2.92701746 3.57122759 3.5 6.9375 C2.80132397 11.21689065 1.41637139 12.33523031 -2 15 C-3.7491837 15.66880553 -5.49924617 16.33531552 -7.25 17 C-9.94147417 18.09768256 -9.94147417 18.09768256 -12 20 C-12.85380775 23.39771699 -12.94194635 26.34775696 -12.83984375 29.84375 C-13.02238774 33.44120228 -13.85468775 35.14647623 -16 38 C-18.80915474 39.40457737 -20.88810534 39.24895157 -24 39 C-27.1359157 37.22015595 -27.84102736 36.47691793 -29 33 C-29.3042547 29.54690178 -29.3234943 26.08992872 -29.375 22.625 C-29.41238281 21.67882812 -29.44976562 20.73265625 -29.48828125 19.7578125 C-29.54444068 15.31497728 -29.57115705 12.81124035 -26.96484375 9.109375 C-23.48332954 6.63240837 -20.00205492 4.54124866 -16.1875 2.625 C-15.51396484 2.25761719 -14.84042969 1.89023438 -14.14648438 1.51171875 C-8.970513 -1.11341506 -5.66721542 -1.30499123 0 0 Z " fill="#867F88" transform="translate(277,253)"/>
<path d="M0 0 C5.28 0 10.56 0 16 0 C16 13.2 16 26.4 16 40 C10.72 40 5.44 40 0 40 C0 26.8 0 13.6 0 0 Z " fill="#E5646E" transform="translate(264,36)"/>
<path d="M0 0 C5.28 0 10.56 0 16 0 C16 10.56 16 21.12 16 32 C10.72 32 5.44 32 0 32 C0 21.44 0 10.88 0 0 Z " fill="#FFE09F" transform="translate(392,372)"/>
<path d="M0 0 C5.28 0 10.56 0 16 0 C16 10.56 16 21.12 16 32 C10.72 32 5.44 32 0 32 C0 21.44 0 10.88 0 0 Z " fill="#FFE09F" transform="translate(104,372)"/>
<path d="M0 0 C5.28 0 10.56 0 16 0 C16 10.56 16 21.12 16 32 C10.72 32 5.44 32 0 32 C0 21.44 0 10.88 0 0 Z " fill="#FFE09F" transform="translate(392,292)"/>
<path d="M0 0 C5.28 0 10.56 0 16 0 C16 10.56 16 21.12 16 32 C10.72 32 5.44 32 0 32 C0 21.44 0 10.88 0 0 Z " fill="#FFE09F" transform="translate(104,292)"/>
<path d="M0 0 C2.6192182 2.20996536 2.92701746 3.57122759 3.5 6.9375 C2.98002007 10.12237709 2.24773866 11.61321655 -0.15625 13.765625 C-4.12897346 16.42532969 -8.5935067 18.18646948 -13 20 C-13.06316406 19.31292969 -13.12632812 18.62585938 -13.19140625 17.91796875 C-13.69404067 12.67039421 -13.69404067 12.67039421 -16.69140625 8.66796875 C-18.82547627 7.74192582 -18.82547627 7.74192582 -22 7 C-15.20051397 1.69764851 -8.69378718 -2.5928839 0 0 Z " fill="#88818A" transform="translate(277,253)"/>
<path d="M0 0 C2.0625 1.5625 2.0625 1.5625 3 4 C3.17821261 6.85140177 2.92914963 9.292848 2 12 C-0.93837168 14.85194898 -2.53597436 15 -6.625 15 C-10 14 -10 14 -12 11.875 C-13.30782688 8.11499772 -13.06090617 5.81926223 -12 2 C-8.81688665 -2.07438508 -4.54417813 -1.38635943 0 0 Z " fill="#4E4251" transform="translate(261,261)"/>
</svg>
