<?xml version="1.0" encoding="UTF-8"?>
<svg version="1.1" xmlns="http://www.w3.org/2000/svg" width="512" height="512">
<path d="M0 0 C1.00628062 -0.00551503 1.00628062 -0.00551503 2.03289014 -0.01114148 C4.27969111 -0.02214999 6.52644579 -0.02601733 8.77326965 -0.02983093 C10.38485358 -0.03609775 11.99643606 -0.04274475 13.60801697 -0.04974365 C18.89982603 -0.07076144 24.19163531 -0.08114429 29.48347473 -0.09111023 C31.3071831 -0.09515872 33.13089132 -0.09927567 34.95459938 -0.10346031 C43.5237399 -0.12250741 52.09287183 -0.13673914 60.66202945 -0.14507228 C70.54411902 -0.15484159 80.42598442 -0.18115511 90.30799502 -0.22157317 C97.95231634 -0.25176286 105.5965735 -0.26654388 113.24095327 -0.26985329 C117.80369317 -0.27220062 122.36619345 -0.28111964 126.92886925 -0.30631447 C131.22418671 -0.32965007 135.5191077 -0.3338065 139.8144722 -0.32355309 C141.38617715 -0.32305894 142.95790199 -0.32934358 144.52954674 -0.34310913 C156.29072461 -0.44031251 164.56818912 0.8343023 173.39154243 9.01897812 C176.30051504 12.23673911 178.5048789 15.81037712 180.80672264 19.47658157 C192.61503741 37.82764705 209.09024126 57.44810573 231.17583466 62.72210693 C263.95261429 69.17151378 298.99971242 66.27388087 332.18200147 64.96772313 C341.73176249 64.59549035 351.27941652 64.33916734 360.83479309 64.16474915 C361.85141084 64.14613296 361.85141084 64.14613296 362.88856632 64.12714069 C366.96723165 64.05336096 371.04595729 63.98354305 375.1247191 63.91532823 C381.06716424 63.81579771 387.00952948 63.71193704 392.95184326 63.60484314 C394.22752574 63.58189418 395.50320822 63.55894523 396.81754774 63.53530085 C405.56583431 63.36891074 414.30889347 63.11592054 423.05380249 62.82402039 C426.50939698 62.71609449 429.96502876 62.60943952 433.42066956 62.50300789 C436.60277828 62.39789365 439.78343066 62.27007798 442.96466064 62.14144897 C444.88443506 62.08136708 446.80424374 62.02236685 448.72409058 61.96464539 C449.57035997 61.92277898 450.41662936 61.88091258 451.28854328 61.8377775 C460.33530489 61.618184 467.0808557 65.28238279 473.59284973 71.35420227 C479.25377406 77.24618474 481.56221866 83.3563993 481.57277489 91.45133686 C481.57922378 92.70478848 481.58567267 93.9582401 481.59231699 95.2496751 C481.58937498 96.63285062 481.58623957 98.01602574 481.58293152 99.39920044 C481.58666921 100.87464543 481.5912712 102.35008845 481.59666216 103.82552832 C481.6088929 107.87638288 481.60863161 111.92715484 481.60627341 115.97802365 C481.60586527 120.34828725 481.61690417 124.71852437 481.62638855 129.08877563 C481.64299981 137.64955105 481.64849815 146.21029893 481.64961331 154.77108911 C481.6505637 161.7297788 481.65467355 168.68845941 481.66101456 175.64714622 C481.67862713 195.37694615 481.68785338 215.10672431 481.68635361 234.83653215 C481.68623374 236.43191338 481.68623374 236.43191338 481.68611145 238.05952454 C481.68602969 239.12441082 481.68594793 240.18929711 481.68586369 241.28645267 C481.68505073 258.54565427 481.70419079 275.80476861 481.73238818 293.06394497 C481.7611136 310.78616909 481.77492867 328.50835064 481.77320063 346.23059863 C481.77253662 356.1800538 481.77803371 366.12941749 481.79955673 376.0788517 C481.81776398 384.54978278 481.82211959 393.0205809 481.80853789 401.49152306 C481.802006 405.81266641 481.80189894 410.13355465 481.81924438 414.45467377 C481.83497046 418.41311615 481.83211648 422.37110104 481.81467612 426.32953223 C481.81160519 427.75884611 481.81524222 429.18819409 481.82639627 430.61746774 C481.90910846 441.97126978 480.11921342 449.92821644 472.31550598 458.35420227 C465.42224358 464.5339043 458.63832406 466.29972514 449.60478783 466.2813921 C448.81976302 466.28374433 448.03473822 466.28609656 447.22592479 466.28852007 C444.57945101 466.29520914 441.93302633 466.29475187 439.2865448 466.29434204 C437.37631137 466.29764072 435.46607865 466.3013663 433.55584681 466.30548352 C428.29385905 466.31551113 423.0318827 466.31922154 417.76988673 466.32187283 C412.09963288 466.3257736 406.42938809 466.33535207 400.75914001 466.34408569 C387.05949193 466.36385612 373.35984311 466.37391687 359.66018432 466.38281348 C353.21109941 466.38719528 346.76201532 466.39256236 340.31293106 466.39780235 C318.87890193 466.41481492 297.44487411 466.42933455 276.01083946 466.43655109 C274.62466217 466.43702585 273.23848488 466.43750174 271.8523076 466.43797876 C271.16489007 466.43821513 270.47747254 466.43845151 269.76922419 466.43869505 C266.28644181 466.43989624 262.80365944 466.44111169 259.32087708 466.44233704 C258.28412526 466.44269726 258.28412526 466.44269726 257.22642897 466.44306476 C234.81819404 466.45095731 212.41001204 466.47438829 190.00180022 466.50689298 C166.30952928 466.54119753 142.61729871 466.56090167 118.92500079 466.56419533 C106.01045145 466.56636179 93.09597991 466.5751303 80.1814537 466.60065651 C69.18417117 466.62234281 58.18698533 466.63042408 47.18968384 466.62068973 C41.57835323 466.61613912 35.96722223 466.6180757 30.35591888 466.63745117 C25.21743346 466.65504086 20.07929391 466.65411904 14.94080503 466.63855388 C13.08341965 466.63617145 11.22601057 466.64053417 9.36866145 466.65238253 C-3.29129552 466.72813019 -13.41266235 466.0027437 -22.99699402 456.94013977 C-28.94895639 450.61617976 -30.93224927 444.44199969 -30.94176292 435.8747282 C-30.945269 435.16138456 -30.94877507 434.44804091 -30.95238739 433.71308079 C-30.96169229 431.32243647 -30.95678047 428.93203623 -30.95191956 426.54138184 C-30.95565627 424.81019957 -30.96025788 423.07901899 -30.9656502 421.34784108 C-30.9778929 416.59009237 -30.97761824 411.83241391 -30.97526145 407.07465303 C-30.97485361 401.94364802 -30.98588931 396.81266563 -30.99537659 391.68167114 C-31.01199437 381.62896135 -31.01748648 371.576275 -31.01860134 361.52355262 C-31.01955142 353.35300215 -31.02365969 345.18245942 -31.03000259 337.01191139 C-31.04761689 313.85118539 -31.05684113 290.69047793 -31.05534165 267.52974518 C-31.05526173 266.28096397 -31.05518182 265.03218276 -31.05509949 263.74555969 C-31.05501773 262.49525529 -31.05493596 261.24495089 -31.05485173 259.95675848 C-31.0540387 239.69062764 -31.07317999 219.42457111 -31.10137622 199.15846177 C-31.13009388 178.35356475 -31.14391714 157.54870398 -31.14218867 136.74378663 C-31.1415244 125.06170503 -31.14703308 113.37970132 -31.16854477 101.69763756 C-31.1867418 91.75182108 -31.19111601 81.80611782 -31.17752592 71.86029192 C-31.17098893 66.78576327 -31.17090558 61.7114519 -31.18823242 56.63694382 C-31.20393563 51.9901671 -31.20112762 47.34378046 -31.18366416 42.69701342 C-31.18058821 41.01736503 -31.18424903 39.33768774 -31.19538431 37.65807345 C-31.2690291 25.76027705 -30.04021279 16.96215508 -21.68449402 7.94013977 C-15.14951107 2.08162966 -8.61598736 0.03064805 0 0 Z " fill="#FFCF66" transform="translate(30.684494018554688,22.852828979492188)"/>
<path d="M0 0 C1.00628062 -0.00551503 1.00628062 -0.00551503 2.03289014 -0.01114148 C4.27969111 -0.02214999 6.52644579 -0.02601733 8.77326965 -0.02983093 C10.38485358 -0.03609775 11.99643606 -0.04274475 13.60801697 -0.04974365 C18.89982603 -0.07076144 24.19163531 -0.08114429 29.48347473 -0.09111023 C31.3071831 -0.09515872 33.13089132 -0.09927567 34.95459938 -0.10346031 C43.5237399 -0.12250741 52.09287183 -0.13673914 60.66202945 -0.14507228 C70.54411902 -0.15484159 80.42598442 -0.18115511 90.30799502 -0.22157317 C97.95231634 -0.25176286 105.5965735 -0.26654388 113.24095327 -0.26985329 C117.80369317 -0.27220062 122.36619345 -0.28111964 126.92886925 -0.30631447 C131.22418671 -0.32965007 135.5191077 -0.3338065 139.8144722 -0.32355309 C141.38617715 -0.32305894 142.95790199 -0.32934358 144.52954674 -0.34310913 C156.29072461 -0.44031251 164.56818912 0.8343023 173.39154243 9.01897812 C176.30051504 12.23673911 178.5048789 15.81037712 180.80672264 19.47658157 C192.61503741 37.82764705 209.09024126 57.44810573 231.17583466 62.72210693 C263.95261429 69.17151378 298.99971242 66.27388087 332.18200147 64.96772313 C341.73176249 64.59549035 351.27941652 64.33916734 360.83479309 64.16474915 C361.85141084 64.14613296 361.85141084 64.14613296 362.88856632 64.12714069 C366.96723165 64.05336096 371.04595729 63.98354305 375.1247191 63.91532823 C381.06716424 63.81579771 387.00952948 63.71193704 392.95184326 63.60484314 C394.22752574 63.58189418 395.50320822 63.55894523 396.81754774 63.53530085 C405.56583431 63.36891074 414.30889347 63.11592054 423.05380249 62.82402039 C426.50939698 62.71609449 429.96502876 62.60943952 433.42066956 62.50300789 C436.60277828 62.39789365 439.78343066 62.27007798 442.96466064 62.14144897 C444.88443506 62.08136708 446.80424374 62.02236685 448.72409058 61.96464539 C449.57035997 61.92277898 450.41662936 61.88091258 451.28854328 61.8377775 C460.33530489 61.618184 467.0808557 65.28238279 473.59284973 71.35420227 C479.25377406 77.24618474 481.56221866 83.3563993 481.57277489 91.45133686 C481.57922378 92.70478848 481.58567267 93.9582401 481.59231699 95.2496751 C481.58937498 96.63285062 481.58623957 98.01602574 481.58293152 99.39920044 C481.58666921 100.87464543 481.5912712 102.35008845 481.59666216 103.82552832 C481.6088929 107.87638288 481.60863161 111.92715484 481.60627341 115.97802365 C481.60586527 120.34828725 481.61690417 124.71852437 481.62638855 129.08877563 C481.64299981 137.64955105 481.64849815 146.21029893 481.64961331 154.77108911 C481.6505637 161.7297788 481.65467355 168.68845941 481.66101456 175.64714622 C481.67862713 195.37694615 481.68785338 215.10672431 481.68635361 234.83653215 C481.68623374 236.43191338 481.68623374 236.43191338 481.68611145 238.05952454 C481.68602969 239.12441082 481.68594793 240.18929711 481.68586369 241.28645267 C481.68505073 258.54565427 481.70419079 275.80476861 481.73238818 293.06394497 C481.7611136 310.78616909 481.77492867 328.50835064 481.77320063 346.23059863 C481.77253662 356.1800538 481.77803371 366.12941749 481.79955673 376.0788517 C481.81776398 384.54978278 481.82211959 393.0205809 481.80853789 401.49152306 C481.802006 405.81266641 481.80189894 410.13355465 481.81924438 414.45467377 C481.83497046 418.41311615 481.83211648 422.37110104 481.81467612 426.32953223 C481.81160519 427.75884611 481.81524222 429.18819409 481.82639627 430.61746774 C481.90910846 441.97126978 480.11921342 449.92821644 472.31550598 458.35420227 C465.50101597 464.46328609 458.88630711 466.28038849 449.92488098 466.24482727 C449.22026733 466.24341232 448.51565369 466.24199738 447.78968811 466.24053955 C445.54825014 466.23496036 443.30691355 466.22241175 441.06550598 466.20967102 C439.54206993 466.20465333 438.0186323 466.20009089 436.49519348 466.19599915 C432.76859826 466.18499776 429.04206202 466.16774749 425.31550598 466.14717102 C425.92668274 465.84319397 426.5378595 465.53921692 427.16755676 465.22602844 C436.99635002 460.28928857 444.06513771 455.19022452 448.48280764 444.89999878 C450.16644315 439.3340473 449.86958538 433.5800372 449.83448792 427.81549072 C449.84036587 426.37164025 449.84799248 424.92779603 449.85720825 423.48396301 C449.87742831 419.52668093 449.8728947 415.5697582 449.86429566 411.61244814 C449.85932808 407.27564556 449.87760415 402.93892841 449.89290237 398.60215855 C449.91911796 390.18940044 449.92489888 381.77675279 449.92348363 373.3639589 C449.92273158 363.62988781 449.94749136 353.89599096 449.97224426 344.16194153 C450.02500566 318.46955339 450.04313844 292.77710359 450.06550598 267.08467102 C450.14800598 209.68529602 450.23050598 152.28592102 450.31550598 93.14717102 C301.81550598 93.14717102 153.31550598 93.14717102 0.31550598 93.14717102 C0.31550598 123.83717102 0.31550598 154.52717102 0.31550598 186.14717102 C-5.12949402 187.13717102 -5.12949402 187.13717102 -10.68449402 188.14717102 C-18.60489012 191.33155562 -24.2224544 196.66140974 -27.71183777 204.43623352 C-28.43282156 206.31677189 -29.06818802 208.22977458 -29.68449402 210.14717102 C-30.01449402 210.14717102 -30.34449402 210.14717102 -30.68449402 210.14717102 C-30.77798541 185.9208742 -30.84849685 161.69460446 -30.89174271 137.46816349 C-30.9123573 126.21909615 -30.94045694 114.97014097 -30.98625183 103.72114563 C-31.02615321 93.91513968 -31.05193485 84.10921497 -31.060848 74.30313009 C-31.06605712 69.11211076 -31.07827769 63.92132386 -31.10741425 58.7303791 C-31.1346354 53.84090316 -31.14292544 48.95175461 -31.13692474 44.06221008 C-31.13802198 42.27119605 -31.14593584 40.48017067 -31.16131592 38.68922234 C-31.26167135 26.3966093 -30.3348554 17.2802929 -21.68449402 7.94013977 C-15.14951107 2.08162966 -8.61598736 0.03064805 0 0 Z " fill="#FEBC2B" transform="translate(30.684494018554688,22.852828979492188)"/>
<path d="M0 0 C148.5 0 297 0 450 0 C450 10.23 450 20.46 450 31 C442.9148291 30.99830811 442.9148291 30.99830811 435.68652344 30.99658203 C420.06419673 30.99721012 404.44206379 31.03039836 388.8198204 31.0802784 C379.34987399 31.1097228 369.88015118 31.12811683 360.41015625 31.12011719 C352.15205 31.11316972 343.89429012 31.12734263 335.63626885 31.16643608 C331.26724686 31.18639315 326.89876808 31.19607315 322.52971649 31.18042374 C318.40899598 31.16599848 314.28930858 31.1800228 310.16872025 31.21495247 C308.66442575 31.22285664 307.16003656 31.22077023 305.65578079 31.20739174 C296.08207643 31.12951469 287.79899955 31.93483532 280 38 C277.01229339 41.36297593 274.53923777 44.95846217 272.07227397 48.71455693 C258.72589345 68.54023175 240.29921364 90.14488523 216.01293361 95.40279686 C184.94020543 100.94728126 152.17448355 98.47289354 120.82754838 96.96146929 C107.6266507 96.33643672 94.42383868 96.04180584 81.2117368 95.7677983 C54.12091346 95.19890266 27.07095487 94.19442967 0 93 C0 62.31 0 31.62 0 0 Z " fill="#FFFEFE" transform="translate(31,116)"/>
<path d="M0 0 C148.5 0 297 0 450 0 C450 10.23 450 20.46 450 31 C301.5 31 153 31 0 31 C0 20.77 0 10.54 0 0 Z " fill="#BDF1FE" transform="translate(31,116)"/>
<path d="M0 0 C4.53484864 -0.09972601 9.0690432 -0.17186655 13.60473633 -0.21972656 C15.14391211 -0.23970121 16.68301338 -0.26689097 18.22192383 -0.30175781 C30.48991552 -0.57252167 39.02834528 0.58321359 48.27734375 9.20703125 C54.06758711 15.23361108 56.25919887 21.38589149 56.22705078 29.64794922 C56.22689972 30.94884491 56.22674866 32.2497406 56.22659302 33.59005737 C56.21638202 34.99493567 56.20595007 36.39981237 56.1953125 37.8046875 C56.19157846 39.25342615 56.18873333 40.70216734 56.18673706 42.15090942 C56.17913136 45.9485176 56.15950952 49.74597078 56.1373291 53.54351807 C56.11680438 57.42482405 56.10772122 61.30615529 56.09765625 65.1875 C56.07626045 72.79173704 56.04216191 80.39584673 56 88 C55.67 88 55.34 88 55 88 C54.84144531 87.35933594 54.68289063 86.71867187 54.51953125 86.05859375 C51.97865181 76.63909043 48.54212483 71.4037627 40.19921875 66.21875 C35.26316608 63.48331762 30.53309952 62.76161488 25 62 C25.00112793 60.91170898 25.00225586 59.82341797 25.00341797 58.70214844 C24.99970708 54.60886355 24.95655437 50.51672957 24.90234375 46.42382812 C24.88433507 44.66283658 24.87658738 42.90170554 24.87988281 41.140625 C24.89341625 29.23119925 24.32909654 19.1930206 16.05224609 9.78637695 C11.46099781 5.23555554 6.0676848 3.00183863 0 1 C0 0.67 0 0.34 0 0 Z " fill="#FEA436" transform="translate(456,85)"/>
<path d="M0 0 C10.23 0 20.46 0 31 0 C31 9.9 31 19.8 31 30 C20.77 30 10.54 30 0 30 C0 20.1 0 10.2 0 0 Z " fill="#8AE7FE" transform="translate(450,116)"/>
</svg>
