<?xml version="1.0" encoding="UTF-8"?>
<svg version="1.1" xmlns="http://www.w3.org/2000/svg" width="512" height="512">
<path d="M0 0 C1.81335411 -0.01035533 3.62669948 -0.02235027 5.44003296 -0.0358429 C10.32181989 -0.06664861 15.20331043 -0.07217329 20.08518291 -0.07091117 C24.17113271 -0.07174613 28.25701964 -0.08401905 32.34294993 -0.09586078 C41.97916239 -0.12313965 51.61522194 -0.12858785 61.25146484 -0.12109375 C71.18119513 -0.1138331 81.11021887 -0.14739291 91.03979582 -0.20015115 C99.58622838 -0.24391545 108.13243223 -0.26065008 116.67897516 -0.25611526 C121.77483208 -0.25379478 126.87011561 -0.26208281 131.96586418 -0.2971859 C136.75076098 -0.32912541 141.53448083 -0.32734576 146.31939316 -0.29974174 C148.07255125 -0.29528613 149.82578698 -0.30273605 151.57883263 -0.32308578 C164.82127108 -0.46638203 164.82127108 -0.46638203 169.10727882 2.10708427 C170.86837177 3.83948339 172.20695378 5.49446867 173.53930664 7.56518555 C174.15999023 8.25805664 174.78067383 8.95092773 175.42016602 9.66479492 C176.14429688 10.52814453 176.14429688 10.52814453 176.88305664 11.40893555 C181.02525425 16.2075975 185.52360138 20.62081844 190.03930664 25.06518555 C199.13800492 34.02014451 199.13800492 34.02014451 202.91430664 38.44018555 C207.64245703 43.94812381 212.87575697 48.97085678 218.03930664 54.06518555 C223.76837588 59.71745271 229.43439992 65.34575691 234.66625977 71.46948242 C238.90093375 76.20754831 243.51690451 80.6034093 248.03930664 85.06518555 C253.76837588 90.71745271 259.43439992 96.34575691 264.66625977 102.46948242 C268.90093375 107.20754831 273.51690451 111.6034093 278.03930664 116.06518555 C290.25165369 128.11381776 290.25165369 128.11381776 294.36320591 133.26242065 C296.18153732 135.18659157 297.76984403 136.49270285 299.90131283 138.00442505 C306.27784813 142.84870943 310.61225649 147.52372624 311.82496834 155.65704346 C312.40921353 162.66090393 312.34195635 169.66550091 312.20820248 176.68594646 C312.15343502 180.3779519 312.18052018 184.06953039 312.19706726 187.76177979 C312.21684325 194.97786827 312.16285562 202.19157493 312.08401508 209.40718508 C311.99524259 217.82392619 311.98389045 226.24025497 311.97622745 234.65739608 C311.96025034 249.68381833 311.87972132 264.70917996 311.76025391 279.73510742 C311.64464332 294.28852066 311.56670613 308.84141964 311.53466797 323.39526367 C311.53268605 324.29171655 311.53070413 325.18816944 311.52866215 326.11178756 C311.52078323 329.71607355 311.51299653 333.32035972 311.50537348 336.92464626 C311.47321402 351.67198579 311.41250301 366.41922812 311.34657741 381.1664505 C311.33161755 384.5177199 311.31765425 387.86899117 311.30453038 391.22026825 C311.26944688 400.02864359 311.22468937 408.83680593 311.15299553 417.64496756 C311.12342131 421.28418568 311.09803835 424.92327947 311.08533859 428.56259918 C311.07123161 432.5201955 311.03387246 436.47738699 310.99427795 440.43481445 C310.9934668 441.56733328 310.99265565 442.6998521 310.99181992 443.86668968 C310.8419387 454.92999349 309.13102771 465.97936947 303.85180664 475.81518555 C303.5044043 476.48283936 303.15700195 477.15049316 302.79907227 477.83837891 C294.33623107 493.60709179 280.87245611 504.88672746 263.93551636 510.6502533 C252.55252391 513.81261339 240.77278298 513.13124571 229.05151367 513.09863281 C226.37591607 513.10569899 223.70036283 513.11431181 221.02478027 513.1247406 C214.53884848 513.14627248 208.05309286 513.14628161 201.56713714 513.13811506 C196.2901315 513.13178943 191.01317686 513.13297544 185.73617172 513.13938713 C184.98223917 513.14028879 184.22830661 513.14119044 183.45152762 513.14211942 C181.91942278 513.14397081 180.38731796 513.14583338 178.85521315 513.14770698 C164.52018168 513.164248 150.18524891 513.15559807 135.85022341 513.1387214 C122.76711997 513.12403027 109.68424632 513.13865107 96.60117246 513.16749156 C83.13087918 513.19696194 69.66069166 513.20783549 56.19036758 513.19830936 C54.66360277 513.19728693 53.13683794 513.19629231 51.61007309 513.19532585 C50.8590881 513.19484946 50.10810311 513.19437307 49.33436099 513.19388225 C44.07178501 513.19172804 38.8093103 513.20146896 33.54675674 513.21609688 C27.12161034 513.23370896 20.69675649 513.23337696 14.27162112 513.21074522 C11.00055479 513.19968215 7.73010236 513.19901319 4.4590416 513.21504593 C-18.99887805 513.3208696 -37.35366612 509.98625751 -54.99194336 493.15893555 C-70.08202831 477.30479566 -73.94098605 458.19183389 -73.84164429 437.01806641 C-73.84510862 435.39078681 -73.84987836 433.76350956 -73.85582602 432.13623714 C-73.86825916 427.70261151 -73.86220098 423.26918155 -73.85286736 418.83555555 C-73.84604545 414.03929337 -73.8565736 409.2430635 -73.86480713 404.44680786 C-73.87811327 395.0659375 -73.87528065 385.68513935 -73.86656921 376.30426621 C-73.85978076 368.67694906 -73.85888095 361.04965207 -73.86214066 353.42233276 C-73.86260035 352.33477941 -73.86306005 351.24722607 -73.86353368 350.12671655 C-73.86449291 347.91704026 -73.86546555 345.70736398 -73.86645146 343.4976877 C-73.87499622 322.80098355 -73.86518557 302.10431934 -73.84905036 281.40762174 C-73.83564802 263.66747979 -73.83797637 245.92739675 -73.85180664 228.18725586 C-73.86787861 207.56216876 -73.87417233 186.93711661 -73.86496985 166.31202412 C-73.86401425 164.11069553 -73.86307114 161.90936693 -73.86214066 159.70803833 C-73.86167783 158.62507868 -73.861215 157.54211903 -73.86073815 156.42634243 C-73.85815312 148.81244847 -73.86250876 141.19857678 -73.86957932 133.58468628 C-73.87801249 124.2998034 -73.87567603 115.01499655 -73.85973708 105.73012233 C-73.85187881 100.99722534 -73.8487209 96.26445491 -73.85868454 91.53155899 C-73.8676828 87.19143826 -73.86261489 82.85156036 -73.84675188 78.51146138 C-73.84342567 76.9490594 -73.84504893 75.38663652 -73.85237925 73.82424819 C-73.90735813 61.12270447 -72.88594436 48.70396694 -66.77319336 37.31518555 C-66.42579102 36.64753174 -66.07838867 35.97987793 -65.72045898 35.29199219 C-57.18711976 19.39192115 -43.57000904 7.94444451 -26.35520935 2.48210144 C-17.55686785 0.02992275 -9.08159201 -0.02063868 0 0 Z " fill="#00733B" transform="translate(137.460693359375,-0.565185546875)"/>
<path d="M0 0 C3.40191479 1.7009574 4.71447866 2.48987878 7.109375 5.1328125 C7.98239258 6.08317383 7.98239258 6.08317383 8.87304688 7.05273438 C9.49244141 7.73658203 10.11183594 8.42042969 10.75 9.125 C16.82385841 15.72859036 23.05059809 22.13612079 29.45605469 28.41845703 C32.51416152 31.43622153 35.45804369 34.48324394 38.25 37.75 C43.02931769 43.29271826 48.29385972 48.36365158 53.5 53.5 C59.22906924 59.15226717 64.89509328 64.78057137 70.12695312 70.90429688 C74.36162711 75.64236276 78.97759787 80.03822375 83.5 84.5 C89.22906924 90.15226717 94.89509328 95.78057137 100.12695312 101.90429688 C104.36162711 106.64236276 108.97759787 111.03822375 113.5 115.5 C119.31134999 121.23344488 125.07090537 126.94174913 130.37744141 133.15478516 C133.2371322 136.40689816 136.34418073 139.4096478 139.4375 142.4375 C140.68843431 143.6630861 141.93726253 144.89082695 143.18359375 146.12109375 C143.72556396 146.6514624 144.26753418 147.18183105 144.82592773 147.72827148 C146 149 146 149 146 150 C97.82 150 49.64 150 0 150 C0 100.5 0 51 0 0 Z " fill="#4E9E77" transform="translate(302,0)"/>
<path d="M0 0 C6.1578898 3.32359869 10.97735704 7.58287989 14.35546875 13.78125 C15.0390625 17.0625 15.0390625 17.0625 15.35546875 19.78125 C12.44428662 21.12679945 9.52571222 22.45549529 6.60546875 23.78125 C5.78046875 24.1628125 4.95546875 24.544375 4.10546875 24.9375 C3.30625 25.2984375 2.50703125 25.659375 1.68359375 26.03125 C0.95043945 26.36640625 0.21728516 26.7015625 -0.53808594 27.046875 C-2.64453125 27.78125 -2.64453125 27.78125 -6.64453125 27.78125 C-7.05703125 26.688125 -7.46953125 25.595 -7.89453125 24.46875 C-9.26903676 21.2594093 -10.53053414 19.53287337 -13.64453125 17.78125 C-16.59279888 16.79849412 -18.57105629 16.64710275 -21.64453125 16.65625 C-22.51078125 16.65367187 -23.37703125 16.65109375 -24.26953125 16.6484375 C-26.7946482 16.68530795 -26.7946482 16.68530795 -29.64453125 17.78125 C-29.64453125 20.42125 -29.64453125 23.06125 -29.64453125 25.78125 C-28.33225783 26.17783386 -27.01968449 26.57342515 -25.70703125 26.96875 C-24.80210937 27.24332031 -23.8971875 27.51789063 -22.96484375 27.80078125 C-20.48525436 28.53298941 -18.00497431 29.23565807 -15.51171875 29.91796875 C-2.55955575 33.50443363 6.85260873 36.97667396 14.23046875 48.78125 C16.86304802 55.69177057 16.52146023 65.31281757 14.23046875 72.28125 C9.1269039 81.80790438 2.21458419 85.69923028 -7.64453125 89.78125 C-17.55888997 92.4880273 -28.68623848 91.87045123 -37.89453125 87.37890625 C-47.18530118 81.98128565 -53.12040173 76.16740409 -56.64453125 65.78125 C-56.79296875 62.91796875 -56.79296875 62.91796875 -56.64453125 60.78125 C-41.21595982 54.78125 -41.21595982 54.78125 -35.64453125 54.78125 C-35.49757813 55.37292969 -35.350625 55.96460938 -35.19921875 56.57421875 C-33.51088627 62.52219466 -31.80783622 65.33904669 -26.64453125 68.78125 C-23.87400944 69.70475727 -22.07764367 69.94454585 -19.20703125 69.96875 C-18.44519531 69.98292969 -17.68335938 69.99710937 -16.8984375 70.01171875 C-14.37127205 69.75330842 -12.79028093 69.12529101 -10.64453125 67.78125 C-9.1028995 64.6979865 -9.3470559 62.17246901 -9.64453125 58.78125 C-12.83191246 55.54569678 -16.89563264 54.61491922 -21.14453125 53.40625 C-46.14038628 45.87224001 -46.14038628 45.87224001 -52.14453125 34.78125 C-54.78628895 27.87477135 -55.20423725 19.25332739 -52.76171875 12.25 C-42.00122273 -6.27800639 -17.93768547 -8.26670291 0 0 Z " fill="#FBFDFC" transform="translate(356.64453125,283.21875)"/>
<path d="M0 0 C8.18261774 -1.23403748 16.98037686 -2.52115847 25 0 C30.56231122 4.68675144 33.42758728 11.52283136 36.06811523 18.1640625 C36.37563721 18.76992188 36.68315918 19.37578125 37 20 C37.66 20 38.32 20 39 20 C40.3120843 18.20545543 40.3120843 18.20545543 41.56640625 15.87890625 C42.05173828 15.02619141 42.53707031 14.17347656 43.03710938 13.29492188 C43.54048828 12.39322266 44.04386719 11.49152344 44.5625 10.5625 C45.56260908 8.79229421 46.56385141 7.02272803 47.56640625 5.25390625 C48.00927979 4.46314697 48.45215332 3.6723877 48.90844727 2.85766602 C50 1 50 1 51 0 C52.85369611 -0.08737645 54.71067541 -0.10698153 56.56640625 -0.09765625 C57.69111328 -0.09443359 58.81582031 -0.09121094 59.97460938 -0.08789062 C61.15861328 -0.07951172 62.34261719 -0.07113281 63.5625 -0.0625 C64.75037109 -0.05798828 65.93824219 -0.05347656 67.16210938 -0.04882812 C70.10812226 -0.03699675 73.05403681 -0.02051287 76 0 C72.71697342 6.16636646 69.3042209 12.24075295 65.73046875 18.2421875 C65.36084015 18.86434143 64.99121155 19.48649536 64.61038208 20.12750244 C63.08095011 22.69993699 61.55006214 25.27140577 60.0090332 27.83691406 C58.8679245 29.73899978 57.73603105 31.64631962 56.60546875 33.5546875 C55.93668701 34.67343262 55.26790527 35.79217773 54.57885742 36.94482422 C52.58440977 40.7966803 52.58440977 40.7966803 52 45 C53.24783341 48.06772364 53.24783341 48.06772364 55.234375 51.19921875 C55.58381668 51.78788223 55.93325836 52.37654572 56.29328918 52.98304749 C57.43181886 54.89313728 58.59050195 56.79007989 59.75 58.6875 C60.53372467 59.99371458 61.31619176 61.30068452 62.09741211 62.60839844 C64.37901237 66.41743021 66.68632555 70.21039028 69 74 C69.62342285 75.02367676 70.2468457 76.04735352 70.88916016 77.10205078 C73.90562868 82.05123993 73.90562868 82.05123993 76.95019531 86.9831543 C80 91.90039447 80 91.90039447 80 93 C58.71428822 95.52995889 58.71428822 95.52995889 52.93115234 91.59082031 C49.64293852 87.90394428 47.70197624 83.58177183 45.86279297 79.03515625 C44.6621544 76.20308972 43.04559678 73.70097689 41.375 71.125 C39 67.25414365 39 67.25414365 39 65 C36.05552188 67.52067626 34.85191069 70.24267915 33.3046875 73.76171875 C24.704662 91.62331017 24.704662 91.62331017 17.84912109 94.17089844 C10.49988859 95.20314738 3.25490537 94.39931409 -4 93 C-2.46323216 89.03767599 -0.65188519 85.57325181 1.5625 81.9375 C2.11623291 81.01735107 2.11623291 81.01735107 2.68115234 80.07861328 C5.16102786 75.97062455 7.68873163 71.89444128 10.24076843 67.83088684 C11.81531615 65.31831244 13.37798356 62.79844784 14.93966675 60.27786255 C15.72841797 59.01164888 16.52262236 57.74881547 17.32229614 56.48947144 C18.46025593 54.6964059 19.57930572 52.89272341 20.6953125 51.0859375 C21.6855542 49.5088501 21.6855542 49.5088501 22.69580078 47.89990234 C24.23086198 44.48667566 24.29794461 43.46765288 23 40 C21.68910056 37.5085954 20.34474651 35.12404101 18.88671875 32.72265625 C18.27048393 31.68920326 18.27048393 31.68920326 17.64179993 30.63487244 C16.3304716 28.43994407 15.00898609 26.25132428 13.6875 24.0625 C12.80991264 22.59478008 11.93295294 21.12668467 11.05664062 19.65820312 C6.54617845 12.05914345 6.54617845 12.05914345 1.71801758 4.66186523 C0 2 0 2 0 0 Z " fill="#FBFDFC" transform="translate(144,280)"/>
<path d="M0 0 C7.59 0 15.18 0 23 0 C23 24.09 23 48.18 23 73 C36.53 73 50.06 73 64 73 C64 79.6 64 86.2 64 93 C42.88 93 21.76 93 0 93 C0 62.31 0 31.62 0 0 Z " fill="#FDFEFD" transform="translate(233,280)"/>
</svg>
