<?xml version="1.0" encoding="UTF-8"?>
<svg version="1.1" xmlns="http://www.w3.org/2000/svg" width="32" height="32">
<path d="M0 0 C3.72389553 2.71534049 5.92799276 5.49756958 7 10 C6.566875 11.670625 6.566875 11.670625 6.125 13.375 C5.59385702 16.96942786 5.59385702 16.96942786 7.671875 18.96875 C9.722893 20.74338969 11.81468952 22.39502093 14 24 C15 25 15 25 15.125 28 C15 31 15 31 14 32 C11.25 32.4375 11.25 32.4375 8 32 C5.99439977 30.17969979 4.61841639 28.20284453 3 26 C2.34 25.67 1.68 25.34 1 25 C0.67 24.34 0.34 23.68 0 23 C-1.5159375 23.3403125 -1.5159375 23.3403125 -3.0625 23.6875 C-7.69424649 24.05509893 -9.97134009 23.24675264 -14 21 C-17.43054082 17.2889243 -17.55974367 14.3720259 -17.4296875 9.48046875 C-16.73257257 5.45621441 -14.96066221 3.74918634 -12 1 C-8.2781653 -0.86091735 -4.05280619 -0.5680311 0 0 Z " fill="#435E70" transform="translate(17,0)"/>
<path d="M0 0 C2.9375 1.4375 2.9375 1.4375 5 4 C5.89487669 8.27813857 5.70907738 11.73599249 3.5625 15.5625 C-0.26400751 17.70907738 -3.72186143 17.89487669 -8 17 C-11.31578076 14.33120085 -11.89008359 12.68392436 -12.5625 8.5 C-12 5 -12 5 -9.9375 2.0625 C-6.2404927 -0.53327109 -4.43355658 -0.71253588 0 0 Z " fill="#8ED6F5" transform="translate(15,3)"/>
<path d="M0 0 C1.70884005 1.62339805 3.37446717 3.29319053 5 5 C5.66 5.66 6.32 6.32 7 7 C7.1875 10.0625 7.1875 10.0625 7 13 C6 14 6 14 3.25 14.4375 C-0.32965179 13.9556238 -0.62318144 13.70836357 -2.75 11.0625 C-3.4925 10.051875 -4.235 9.04125 -5 8 C-5.66 7.67 -6.32 7.34 -7 7 C-3.86206897 0 -3.86206897 0 0 0 Z " fill="#F3705A" transform="translate(25,18)"/>
<path d="M0 0 C0.66 1.32 1.32 2.64 2 4 C-0.97 6.475 -0.97 6.475 -4 9 C-4.99 8.34 -5.98 7.68 -7 7 C-3.86206897 0 -3.86206897 0 0 0 Z " fill="#E96854" transform="translate(25,18)"/>
</svg>
