<?xml version="1.0" encoding="UTF-8"?>
<svg version="1.1" xmlns="http://www.w3.org/2000/svg" width="512" height="512">
<path d="M0 0 C1.95019531 1.19238281 1.95019531 1.19238281 3.828125 2.703125 C4.89123901 3.54568848 4.89123901 3.54568848 5.97583008 4.40527344 C7.10154419 5.31841309 7.10154419 5.31841309 8.25 6.25 C9.86269738 7.53198484 11.47599309 8.8132173 13.08984375 10.09375 C13.90694824 10.74601562 14.72405273 11.39828125 15.56591797 12.0703125 C19.27744893 15.01273383 23.04283183 17.88269184 26.8125 20.75 C28.22021993 21.82399878 29.62777546 22.89821309 31.03515625 23.97265625 C32.03893311 24.73860107 32.03893311 24.73860107 33.06298828 25.52001953 C38.05284325 29.33253539 43.02470368 33.1685218 48 37 C50.16644651 38.66695292 52.33322497 40.33347413 54.5 42 C55.58333938 42.83332547 56.66667272 43.6666588 57.75 44.5 C58.554375 45.11875 58.554375 45.11875 59.375 45.75 C65.33333333 50.33333333 71.29166667 54.91666667 77.25 59.5 C77.78689453 59.9129834 78.32378906 60.3259668 78.87695312 60.75146484 C79.95382451 61.57985237 81.03064789 62.40830228 82.10742188 63.23681641 C84.9142207 65.39635041 87.72199335 67.55460149 90.53125 69.7109375 C91.11197266 70.15695313 91.69269531 70.60296875 92.29101562 71.0625 C93.90209218 72.2998068 95.51353429 73.53663757 97.125 74.7734375 C99.77074321 76.82245058 102.38689843 78.90951874 105 81 C105.33 69.78 105.66 58.56 106 47 C130.75 47 155.5 47 181 47 C180.86335938 53.55101562 180.72671875 60.10203125 180.5859375 66.8515625 C180.53951233 71.02646839 180.49847174 75.20006852 180.4765625 79.375 C180.44134968 85.98872614 180.38732649 92.59820436 180.21484375 99.20996094 C180.07685218 104.54758481 180.02862794 109.87947156 180.04002762 115.21879196 C180.02907833 117.24513632 179.98692186 119.27158247 179.91166306 121.29655838 C179.35232517 132.37071886 179.35232517 132.37071886 183.71976471 142.1807785 C187.93721912 146.25784164 192.65021322 149.43119175 197.63364029 152.49291611 C201.55417389 154.98982011 205.16074085 157.88110866 208.8125 160.75 C210.21847848 161.82627752 211.62582631 162.90077103 213.03515625 163.97265625 C217.65967855 167.5014574 222.27049346 171.04785514 226.87890625 174.59765625 C229.03064155 176.25387303 231.18397505 177.90778214 233.33984375 179.55859375 C239.95606732 184.62856678 246.5165562 189.76055784 253 195 C252.39180659 198.29541063 251.26899242 200.26061077 249.19140625 202.87109375 C248.61422852 203.60368408 248.03705078 204.33627441 247.44238281 205.09106445 C246.82202148 205.86538818 246.20166016 206.63971191 245.5625 207.4375 C244.27705239 209.06487407 242.9918977 210.69247955 241.70703125 212.3203125 C241.07361816 213.11856445 240.44020508 213.91681641 239.78759766 214.73925781 C237.41322485 217.74208385 235.07697207 220.77288977 232.75 223.8125 C231.96109375 224.83988281 231.1721875 225.86726562 230.359375 226.92578125 C229.58078125 227.94027344 228.8021875 228.95476562 228 230 C225.91867272 232.70720977 223.83621164 235.41354719 221.75341797 238.11962891 C219.64256286 240.86266485 217.53400431 243.60741287 215.4296875 246.35546875 C210.36340193 252.96630658 205.235345 259.52162617 200 266 C196.39980743 264.38376153 193.4490267 262.19462028 190.3125 259.8125 C189.33925781 259.07644531 188.36601562 258.34039062 187.36328125 257.58203125 C184.66060338 255.51564187 181.97461824 253.42814321 179.28979492 251.33862305 C178.48483078 250.71223434 177.67986664 250.08584564 176.85050964 249.44047546 C175.93450737 248.72744011 175.93450737 248.72744011 175 248 C174.99576806 248.92159629 174.99153612 249.84319258 174.98717594 250.79271603 C174.88401868 273.18327137 174.77540365 295.57379439 174.66066074 317.96429348 C174.6053053 328.79202109 174.55181956 339.61975199 174.50268555 350.44750977 C174.45987208 359.88136478 174.41360137 369.3151953 174.36312145 378.74901253 C174.33649758 383.74740049 174.31164402 388.74578353 174.29092598 393.74419975 C174.27139459 398.44317391 174.24726152 403.14210136 174.21950912 407.84103394 C174.21012009 409.57087929 174.20245153 411.30073491 174.19658089 413.03059578 C174.18835103 415.38185339 174.1740835 417.73299666 174.15821838 420.08421326 C174.14853956 422.0628419 174.14853956 422.0628419 174.1386652 424.08144283 C174 427 174 427 173 428 C171.2410657 428.09632045 169.47822841 428.1218751 167.71665955 428.12025452 C166.57095993 428.12162918 165.42526031 428.12300385 164.24484253 428.12442017 C162.97673737 428.12082489 161.7086322 428.11722961 160.40209961 428.11352539 C159.06206769 428.11324352 157.72203561 428.11340125 156.38200378 428.1139679 C152.73340562 428.11425587 149.08484005 428.1083592 145.43624949 428.10139394 C141.62722484 428.09516034 137.8181995 428.0945566 134.00917053 428.09336853 C126.79142246 428.09025523 119.57368946 428.08204186 112.35594803 428.07201904 C102.60601027 428.0587726 92.85606841 428.05335798 83.10612392 428.04751682 C67.73740465 428.03810197 52.36871719 428.01818305 37 428 C37 383.78 37 339.56 37 294 C12.58 294 -11.84 294 -37 294 C-37 338.22 -37 382.44 -37 428 C-72.56966676 428.04030303 -72.56966676 428.04030303 -87.42773438 428.04882812 C-97.70369971 428.05477134 -107.97965688 428.06177362 -118.25561523 428.07543945 C-125.73815417 428.08538565 -133.22068651 428.09185327 -140.70323187 428.09408849 C-144.66764586 428.09539571 -148.63204095 428.09848226 -152.5964489 428.10573006 C-156.32360213 428.11248926 -160.05072857 428.11461717 -163.77788734 428.11310768 C-165.14975505 428.11338406 -166.5216236 428.11538978 -167.89348602 428.11920547 C-169.75860963 428.12414108 -171.62374744 428.12239794 -173.48887634 428.12025452 C-174.53511138 428.12117631 -175.58134642 428.1220981 -176.65928555 428.12304783 C-179 428 -179 428 -180 427 C-180.10943182 424.69673272 -180.14693895 422.39005112 -180.15821838 420.08421326 C-180.16562535 418.98649781 -180.16562535 418.98649781 -180.17318195 417.8666063 C-180.18863182 415.39601794 -180.1969377 412.9254557 -180.20532227 410.45483398 C-180.21489492 408.69115974 -180.22490463 406.92748782 -180.23532104 405.16381836 C-180.26244264 400.36032657 -180.28341279 395.55682489 -180.30332303 390.75329852 C-180.325138 385.73908337 -180.35254857 380.72489898 -180.37937927 375.71070862 C-180.42936706 366.20865469 -180.47428323 356.70658375 -180.51740164 347.20449644 C-180.56672211 336.38966477 -180.62165943 325.57486395 -180.67708123 314.7600621 C-180.79099467 292.50673679 -180.89781321 270.25338204 -181 248 C-182.02552979 248.82274414 -183.05105957 249.64548828 -184.10766602 250.49316406 C-185.46888648 251.58401717 -186.83013469 252.67483565 -188.19140625 253.765625 C-189.20249451 254.57700928 -189.20249451 254.57700928 -190.23400879 255.40478516 C-194.75809333 259.02846518 -199.32823812 262.56768515 -204 266 C-207.18101579 264.63291294 -208.90853148 263.21214954 -210.99609375 260.46484375 C-211.54813477 259.74643311 -212.10017578 259.02802246 -212.66894531 258.2878418 C-213.25256836 257.512229 -213.83619141 256.73661621 -214.4375 255.9375 C-215.05077148 255.13546143 -215.66404297 254.33342285 -216.29589844 253.50708008 C-217.57347373 251.83472812 -218.84768501 250.1598013 -220.11865234 248.48242188 C-221.89082468 246.14405589 -223.67172522 243.81272232 -225.45703125 241.484375 C-227.63224853 238.64706557 -229.80430412 235.80740335 -231.97265625 232.96484375 C-235.4963997 228.3469496 -239.03785731 223.74284761 -242.58203125 219.140625 C-244.28933322 216.92306315 -245.99517898 214.70443968 -247.69921875 212.484375 C-248.14692627 211.90139648 -248.59463379 211.31841797 -249.0559082 210.71777344 C-250.29535194 209.10372085 -251.53440804 207.48937063 -252.7734375 205.875 C-254.95525959 202.98702176 -254.95525959 202.98702176 -257.3515625 200.375 C-259 198 -259 198 -258.77905273 196.01367188 C-257.44005673 192.55267562 -254.30617392 190.68937366 -251.4375 188.5 C-250.76565674 187.97519043 -250.09381348 187.45038086 -249.40161133 186.90966797 C-244.05458643 182.75286935 -238.63457525 178.69060039 -233.20166016 174.64697266 C-225.7337693 169.08347512 -218.40759023 163.34049119 -211.06738281 157.61035156 C-206.06518414 153.71397669 -201.02999186 149.86037495 -196 146 C-193.83289153 144.33390747 -191.66645047 142.66694801 -189.5 141 C-188.41667876 140.16665095 -187.33334544 139.33331759 -186.25 138.5 C-185.445625 137.88125 -185.445625 137.88125 -184.625 137.25 C-36.75 23.5 -36.75 23.5 -35.12402344 22.24926758 C-34.0439211 21.41840713 -32.96384285 20.58751536 -31.88378906 19.7565918 C-29.12622134 17.63516183 -26.36819866 15.51432773 -23.609375 13.39453125 C-22.7730957 12.75124878 -22.7730957 12.75124878 -21.91992188 12.0949707 C-20.81853761 11.24912691 -19.71570185 10.4051693 -18.61132812 9.56323242 C-16.15020791 7.68237326 -13.73116027 5.774111 -11.359375 3.78125 C-10.58078125 3.1315625 -9.8021875 2.481875 -9 1.8125 C-8.34 1.24144531 -7.68 0.67039063 -7 0.08203125 C-4.26035661 -1.40015863 -2.9560104 -0.83286173 0 0 Z " fill="#FF9A00" transform="translate(259,43)"/>
<path d="M0 0 C0 97.35 0 194.7 0 295 C-11.22 295 -22.44 295 -34 295 C-34 339.22 -34 383.44 -34 429 C-69.56966676 429.04030303 -69.56966676 429.04030303 -84.42773438 429.04882812 C-94.70369971 429.05477134 -104.97965688 429.06177362 -115.25561523 429.07543945 C-122.73815417 429.08538565 -130.22068651 429.09185327 -137.70323187 429.09408849 C-141.66764586 429.09539571 -145.63204095 429.09848226 -149.5964489 429.10573006 C-153.32360213 429.11248926 -157.05072857 429.11461717 -160.77788734 429.11310768 C-162.14975505 429.11338406 -163.5216236 429.11538978 -164.89348602 429.11920547 C-166.75860963 429.12414108 -168.62374744 429.12239794 -170.48887634 429.12025452 C-171.53511138 429.12117631 -172.58134642 429.1220981 -173.65928555 429.12304783 C-176 429 -176 429 -177 428 C-177.10943182 425.69673272 -177.14693895 423.39005112 -177.15821838 421.08421326 C-177.16562535 419.98649781 -177.16562535 419.98649781 -177.17318195 418.8666063 C-177.18863182 416.39601794 -177.1969377 413.9254557 -177.20532227 411.45483398 C-177.21489492 409.69115974 -177.22490463 407.92748782 -177.23532104 406.16381836 C-177.26244264 401.36032657 -177.28341279 396.55682489 -177.30332303 391.75329852 C-177.325138 386.73908337 -177.35254857 381.72489898 -177.37937927 376.71070862 C-177.42936706 367.20865469 -177.47428323 357.70658375 -177.51740164 348.20449644 C-177.56672211 337.38966477 -177.62165943 326.57486395 -177.67708123 315.7600621 C-177.79099467 293.50673679 -177.89781321 271.25338204 -178 249 C-179.02552979 249.82274414 -180.05105957 250.64548828 -181.10766602 251.49316406 C-182.46888648 252.58401717 -183.83013469 253.67483565 -185.19140625 254.765625 C-186.20249451 255.57700928 -186.20249451 255.57700928 -187.23400879 256.40478516 C-191.75809333 260.02846518 -196.32823812 263.56768515 -201 267 C-204.18101579 265.63291294 -205.90853148 264.21214954 -207.99609375 261.46484375 C-208.54813477 260.74643311 -209.10017578 260.02802246 -209.66894531 259.2878418 C-210.25256836 258.512229 -210.83619141 257.73661621 -211.4375 256.9375 C-212.05077148 256.13546143 -212.66404297 255.33342285 -213.29589844 254.50708008 C-214.57347373 252.83472812 -215.84768501 251.1598013 -217.11865234 249.48242188 C-218.89082468 247.14405589 -220.67172522 244.81272232 -222.45703125 242.484375 C-224.63224853 239.64706557 -226.80430412 236.80740335 -228.97265625 233.96484375 C-232.4963997 229.3469496 -236.03785731 224.74284761 -239.58203125 220.140625 C-241.28933322 217.92306315 -242.99517898 215.70443968 -244.69921875 213.484375 C-245.14692627 212.90139648 -245.59463379 212.31841797 -246.0559082 211.71777344 C-247.29535194 210.10372085 -248.53440804 208.48937063 -249.7734375 206.875 C-251.95525959 203.98702176 -251.95525959 203.98702176 -254.3515625 201.375 C-256 199 -256 199 -255.77905273 197.01367188 C-254.44005673 193.55267562 -251.30617392 191.68937366 -248.4375 189.5 C-247.76565674 188.97519043 -247.09381348 188.45038086 -246.40161133 187.90966797 C-241.05458643 183.75286935 -235.63457525 179.69060039 -230.20166016 175.64697266 C-222.7337693 170.08347512 -215.40759023 164.34049119 -208.06738281 158.61035156 C-203.06518414 154.71397669 -198.02999186 150.86037495 -193 147 C-190.83289153 145.33390747 -188.66645047 143.66694801 -186.5 142 C-185.41667876 141.16665095 -184.33334544 140.33331759 -183.25 139.5 C-182.445625 138.88125 -182.445625 138.88125 -181.625 138.25 C-33.75 24.5 -33.75 24.5 -32.12402344 23.24926758 C-31.0439211 22.41840713 -29.96384285 21.58751536 -28.88378906 20.7565918 C-26.12622134 18.63516183 -23.36819866 16.51432773 -20.609375 14.39453125 C-20.05161377 13.96575684 -19.49385254 13.53698242 -18.91918945 13.09521484 C-17.81920623 12.24991546 -16.71879311 11.40517517 -15.61791992 10.56103516 C-11.60831456 7.48259371 -7.64433271 4.34998218 -3.70703125 1.1796875 C-2 0 -2 0 0 0 Z " fill="#FFB64E" transform="translate(256,42)"/>
<path d="M0 0 C2.60632921 1.27845639 4.93829539 2.5795767 7.2578125 4.328125 C7.87422607 4.79105957 8.49063965 5.25399414 9.12573242 5.73095703 C9.78549072 6.23224121 10.44524902 6.73352539 11.125 7.25 C12.16974487 8.03866455 12.16974487 8.03866455 13.2355957 8.84326172 C20.12105062 14.05763822 26.93426376 19.36474888 33.7421875 24.6796875 C39.47052127 29.15151649 45.23502845 33.57554916 51 38 C53.16710847 39.66609253 55.33354953 41.33305199 57.5 43 C58.58332124 43.83334905 59.66665456 44.66668241 60.75 45.5 C67.25 50.5 73.75 55.5 80.25 60.5 C80.78689453 60.9129834 81.32378906 61.3259668 81.87695312 61.75146484 C82.95382451 62.57985237 84.03064789 63.40830228 85.10742188 64.23681641 C87.9142207 66.39635041 90.72199335 68.55460149 93.53125 70.7109375 C94.11197266 71.15695313 94.69269531 71.60296875 95.29101562 72.0625 C96.90209218 73.2998068 98.51353429 74.53663757 100.125 75.7734375 C102.77074321 77.82245058 105.38689843 79.90951874 108 82 C108.33 70.78 108.66 59.56 109 48 C133.75 48 158.5 48 184 48 C183.86335937 54.55101562 183.72671875 61.10203125 183.5859375 67.8515625 C183.53951233 72.02646839 183.49847174 76.20006852 183.4765625 80.375 C183.44134968 86.98872614 183.38732649 93.59820436 183.21484375 100.20996094 C183.07685218 105.54758481 183.02862794 110.87947156 183.04002762 116.21879196 C183.02907833 118.24513632 182.98692186 120.27158247 182.91166306 122.29655838 C182.35232517 133.37071886 182.35232517 133.37071886 186.71976471 143.1807785 C190.93721912 147.25784164 195.65021322 150.43119175 200.63364029 153.49291611 C204.55417389 155.98982011 208.16074085 158.88110866 211.8125 161.75 C213.21847848 162.82627752 214.62582631 163.90077103 216.03515625 164.97265625 C220.65967855 168.5014574 225.27049346 172.04785514 229.87890625 175.59765625 C232.03064155 177.25387303 234.18397505 178.90778214 236.33984375 180.55859375 C242.95606732 185.62856678 249.5165562 190.76055784 256 196 C255.39180659 199.29541063 254.26899242 201.26061077 252.19140625 203.87109375 C251.61422852 204.60368408 251.03705078 205.33627441 250.44238281 206.09106445 C249.82202148 206.86538818 249.20166016 207.63971191 248.5625 208.4375 C247.27705239 210.06487407 245.9918977 211.69247955 244.70703125 213.3203125 C244.07361816 214.11856445 243.44020508 214.91681641 242.78759766 215.73925781 C240.41322485 218.74208385 238.07697207 221.77288977 235.75 224.8125 C234.96109375 225.83988281 234.1721875 226.86726562 233.359375 227.92578125 C232.19148438 229.44751953 232.19148438 229.44751953 231 231 C228.91867272 233.70720977 226.83621164 236.41354719 224.75341797 239.11962891 C222.64256286 241.86266485 220.53400431 244.60741287 218.4296875 247.35546875 C213.36340193 253.96630658 208.235345 260.52162617 203 267 C191.31649972 261.73965627 180.84627046 251.24351721 171.125 243.0625 C166.22222521 238.96120052 161.19764074 235.08189463 156.0625 231.27734375 C152.87065376 228.90381523 149.71188344 226.49184923 146.5625 224.0625 C146.02246338 223.64613281 145.48242676 223.22976563 144.92602539 222.80078125 C143.83089831 221.95609463 142.73592792 221.11120483 141.64111328 220.26611328 C138.92977871 218.17432793 136.21471548 216.08739443 133.5 214 C132.41664851 213.16669027 131.33331518 212.33335693 130.25 211.5 C129.71375 211.0875 129.1775 210.675 128.625 210.25 C123.75 206.5 123.75 206.5 122.12597656 205.25073242 C121.03941221 204.41492624 119.95282355 203.57915165 118.86621094 202.7434082 C116.20711452 200.69816364 113.5485006 198.65230009 110.890625 196.60546875 C104.76896543 191.8924 98.63839588 187.19125402 92.5 182.5 C85.32218908 177.01437558 78.15754953 171.51203249 71 166 C68.83355349 164.33304708 66.66677503 162.66652587 64.5 161 C63.41666062 160.16667453 62.33332728 159.3333412 61.25 158.5 C60.71375 158.0875 60.1775 157.675 59.625 157.25 C49.33333333 149.33333333 39.04166667 141.41666667 28.75 133.5 C28.21318604 133.08709717 27.67637207 132.67419434 27.12329102 132.2487793 C26.04553314 131.41967244 24.9678954 130.5904094 23.89038086 129.76098633 C21.09773347 127.61165805 18.30272912 125.4655009 15.50390625 123.32421875 C14.92769531 122.88271484 14.35148437 122.44121094 13.7578125 121.98632812 C12.16339387 120.76479773 10.56805593 119.54446755 8.97265625 118.32421875 C7.99167969 117.55722656 7.01070313 116.79023438 6 116 C4.96273773 115.34892776 3.92547546 114.69785553 2.85678101 114.02705383 C0.83597045 112.31819405 0.08975499 111.3686467 -0.54183578 108.77454185 C-0.74030752 105.91406502 -0.7417856 103.10979423 -0.68115234 100.24291992 C-0.6820285 99.15954346 -0.68290466 98.07616699 -0.68380737 96.95996094 C-0.67963067 93.38272748 -0.63297039 89.80737421 -0.5859375 86.23046875 C-0.57474577 83.74897791 -0.56620548 81.2674738 -0.56021118 78.78596497 C-0.53731165 72.25736839 -0.47837659 65.72957383 -0.4119873 59.20129395 C-0.3473462 52.53864667 -0.32320147 45.8757661 -0.29296875 39.21289062 C-0.22863623 26.14158508 -0.12739615 13.07083521 0 0 Z " fill="#FF4E19" transform="translate(256,42)"/>
<path d="M0 0 C0.28102163 14.29930612 0.49146761 28.59818086 0.62174606 42.89968681 C0.68428854 49.54146817 0.76905368 56.18057586 0.90527344 62.82128906 C1.03598896 69.23405237 1.10747732 75.64503179 1.13852692 82.05902481 C1.16064265 84.50161953 1.20383372 86.94412019 1.26876068 89.385952 C1.78270834 109.52204647 1.78270834 109.52204647 -2.54260254 114.62506104 C-5.39220765 117.28477584 -8.5880219 119.12450806 -12 121 C-13.99830789 122.47440371 -15.98027074 123.97148624 -17.9375 125.5 C-18.9275 126.23347656 -19.9175 126.96695313 -20.9375 127.72265625 C-24.12934624 130.09618477 -27.28811656 132.50815077 -30.4375 134.9375 C-30.97753662 135.35386719 -31.51757324 135.77023438 -32.07397461 136.19921875 C-33.16910169 137.04390537 -34.26407208 137.88879517 -35.35888672 138.73388672 C-38.07022129 140.82567207 -40.78528452 142.91260557 -43.5 145 C-44.58335149 145.83330973 -45.66668482 146.66664307 -46.75 147.5 C-144.25 222.5 -144.25 222.5 -145.87573242 223.75048828 C-146.95672121 224.58206811 -148.03761349 225.41377342 -149.1184082 226.24560547 C-151.86182666 228.35681792 -154.60699919 230.46567891 -157.35546875 232.5703125 C-166.0018949 239.19557815 -174.54046436 245.92178842 -182.875 252.9375 C-188.75136902 257.85991301 -194.82077825 262.46418829 -201 267 C-204.18101579 265.63291294 -205.90853148 264.21214954 -207.99609375 261.46484375 C-208.54813477 260.74643311 -209.10017578 260.02802246 -209.66894531 259.2878418 C-210.25256836 258.512229 -210.83619141 257.73661621 -211.4375 256.9375 C-212.05077148 256.13546143 -212.66404297 255.33342285 -213.29589844 254.50708008 C-214.57347373 252.83472812 -215.84768501 251.1598013 -217.11865234 249.48242188 C-218.89082468 247.14405589 -220.67172522 244.81272232 -222.45703125 242.484375 C-224.63224853 239.64706557 -226.80430412 236.80740335 -228.97265625 233.96484375 C-232.4963997 229.3469496 -236.03785731 224.74284761 -239.58203125 220.140625 C-241.28933322 217.92306315 -242.99517898 215.70443968 -244.69921875 213.484375 C-245.14692627 212.90139648 -245.59463379 212.31841797 -246.0559082 211.71777344 C-247.29535194 210.10372085 -248.53440804 208.48937063 -249.7734375 206.875 C-251.95525959 203.98702176 -251.95525959 203.98702176 -254.3515625 201.375 C-256 199 -256 199 -255.77905273 197.01367188 C-254.44005673 193.55267562 -251.30617392 191.68937366 -248.4375 189.5 C-247.76565674 188.97519043 -247.09381348 188.45038086 -246.40161133 187.90966797 C-241.05458643 183.75286935 -235.63457525 179.69060039 -230.20166016 175.64697266 C-222.7337693 170.08347512 -215.40759023 164.34049119 -208.06738281 158.61035156 C-203.06518414 154.71397669 -198.02999186 150.86037495 -193 147 C-190.83289153 145.33390747 -188.66645047 143.66694801 -186.5 142 C-185.41667876 141.16665095 -184.33334544 140.33331759 -183.25 139.5 C-182.445625 138.88125 -182.445625 138.88125 -181.625 138.25 C-33.75 24.5 -33.75 24.5 -32.12402344 23.24926758 C-31.0439211 22.41840713 -29.96384285 21.58751536 -28.88378906 20.7565918 C-26.12622134 18.63516183 -23.36819866 16.51432773 -20.609375 14.39453125 C-20.05161377 13.96575684 -19.49385254 13.53698242 -18.91918945 13.09521484 C-17.81920623 12.24991546 -16.71879311 11.40517517 -15.61791992 10.56103516 C-11.60831456 7.48259371 -7.64433271 4.34998218 -3.70703125 1.1796875 C-2 0 -2 0 0 0 Z " fill="#FF7D3C" transform="translate(256,42)"/>
</svg>
