<?xml version="1.0" encoding="UTF-8"?>
<svg version="1.1" xmlns="http://www.w3.org/2000/svg" width="512" height="512">
<path d="M0 0 C1.30044264 -0.16333651 1.30044264 -0.16333651 2.62715685 -0.32997274 C84.09132826 -10.41863744 180.41302683 -17.99882611 249.43774414 34.62841797 C255.72939755 39.59717615 261.72042702 44.87475588 267.62329102 50.29638672 C268.3584557 50.96686035 269.09362038 51.63733398 269.85106277 52.328125 C320.47193672 98.9159243 329.96946994 156.61063142 332.78236175 222.07051277 C335.94081309 300.11946646 332.6967366 378.54537849 327.25914301 456.42792374 C327.09759517 458.75786798 326.94077244 461.08809268 326.78472078 463.41841078 C326.54166999 467.01550369 326.27975825 470.61073561 326.0021418 474.20532198 C325.85798826 476.11094109 325.72871367 478.01766798 325.60006928 479.92439687 C324.81232256 489.54995755 322.19143003 498.35990338 315.43579102 505.54638672 C305.83944805 513.63854101 295.59418648 514.99626965 283.37988281 514.92733765 C281.45429677 514.9343576 281.45429677 514.9343576 279.48980999 514.94151938 C275.95153411 514.95397088 272.41350292 514.94788596 268.8752265 514.93856072 C265.04966469 514.9317464 261.22414367 514.94226323 257.39859009 514.95050049 C249.91417442 514.96381468 242.4298492 514.96097043 234.94543004 514.95226257 C228.86069705 514.9454773 222.77598935 514.94457294 216.69125366 514.94783401 C215.82403236 514.94829371 214.95681106 514.94875341 214.06331033 514.94922704 C212.30136497 514.95018625 210.53941962 514.95115889 208.77747428 514.95214482 C192.26993324 514.96069193 175.76244223 514.95087523 159.2549094 514.93474372 C145.10196207 514.92134115 130.94908857 514.92366944 116.79614258 514.9375 C100.34618954 514.95356781 83.89628032 514.95986802 67.44632053 514.95066321 C65.69098982 514.9497076 63.9356591 514.94876449 62.18032837 514.94783401 C60.88496793 514.94713978 60.88496793 514.94713978 59.56343859 514.94643151 C53.48860124 514.94384522 47.41379177 514.94820482 41.33895874 514.95527267 C33.93205655 514.96370122 26.52524969 514.96137911 19.11835837 514.94543044 C15.34189977 514.93756591 11.56559991 514.93442493 7.78914261 514.9443779 C3.68985762 514.955018 -0.40902926 514.94228204 -4.50830078 514.92733765 C-6.28701301 514.93737589 -6.28701301 514.93737589 -8.10165882 514.94761693 C-19.19474188 514.86925888 -27.74415842 512.79862747 -36.12670898 505.23388672 C-42.78511934 497.89256248 -45.87920466 491.76950977 -45.82147789 481.61801434 C-45.82498396 480.833759 -45.82849004 480.04950366 -45.83210236 479.241483 C-45.84141729 476.60962303 -45.8364928 473.97798429 -45.83163452 471.34611511 C-45.83537073 469.44169141 -45.83997213 467.53726924 -45.84536517 465.63284951 C-45.85761415 460.39623649 -45.85733246 455.15968725 -45.85497642 449.92306316 C-45.85456873 444.27671691 -45.86560275 438.63039125 -45.87509155 432.98405457 C-45.89171276 421.92067945 -45.8972016 410.85732564 -45.89831631 399.79393908 C-45.89926622 390.80245056 -45.90337366 381.81096909 -45.90971756 372.8194828 C-45.92446584 351.48230412 -45.93676697 330.14513203 -45.93572044 308.80794811 C-45.93568929 308.12558973 -45.93565813 307.44323136 -45.93562603 306.74019545 C-45.93545981 303.28172631 -45.93526173 299.82325716 -45.93505661 296.36478802 C-45.93501672 295.67792471 -45.93497683 294.9910614 -45.93493573 294.28338405 C-45.93485486 292.89437911 -45.93477126 291.50537417 -45.93468495 290.11636923 C-45.93345942 268.50536833 -45.94847303 246.8944302 -45.97583008 225.28344727 C-46.0065536 201.00308345 -46.02373708 176.72277369 -46.02190363 152.44238645 C-46.02123922 139.58658931 -46.02675398 126.73086295 -46.04825974 113.87508202 C-46.06645141 102.9301487 -46.07083538 91.98531826 -46.05724089 81.04037639 C-46.05070121 75.45548782 -46.05063028 69.87079672 -46.06794739 64.28592682 C-46.08363863 59.17285561 -46.08085474 54.06013907 -46.06337912 48.94707672 C-46.06030054 47.09784684 -46.06397381 45.24859076 -46.07509927 43.39939179 C-46.17420711 25.75725582 -46.17420711 25.75725582 -41.56420898 18.54638672 C-41.18626485 17.89905978 -40.80832072 17.25173284 -40.41892374 16.58478993 C-35.97236236 9.22130313 -28.7650538 5.66383305 -20.77020073 3.3253746 C-13.94340304 1.6666078 -6.96297718 0.86880649 0 0 Z " fill="#23A566" transform="translate(116.564208984375,-2.54638671875)"/>
<path d="M0 0 C0.68674138 -0.00367669 1.37348276 -0.00735338 2.08103448 -0.01114148 C4.39943342 -0.02222022 6.71778761 -0.02602924 9.03620911 -0.02983093 C10.69162642 -0.03609254 12.34704232 -0.04273907 14.00245667 -0.04974365 C18.51298213 -0.0671843 23.02349698 -0.07771422 27.53404784 -0.08594918 C30.35077777 -0.09109394 33.16750437 -0.09716997 35.98423195 -0.10346031 C44.79311388 -0.12252284 53.60198738 -0.13675045 62.41088599 -0.14507228 C72.5862154 -0.15484289 82.76132717 -0.18115332 92.93657988 -0.22157317 C100.79565403 -0.25172273 108.65466577 -0.26654014 116.51379663 -0.26985329 C121.21006269 -0.27220557 125.90609652 -0.28118856 130.60230064 -0.30631447 C135.02232378 -0.32957925 139.44196156 -0.3338349 143.86203003 -0.32355309 C145.48336887 -0.32305719 147.10472656 -0.32939362 148.72600746 -0.34310913 C150.94231162 -0.36080719 153.15722982 -0.35373365 155.37353516 -0.34057617 C157.23268696 -0.3441587 157.23268696 -0.3441587 159.12939739 -0.34781361 C163.21211256 0.25099631 165.3425222 1.52806535 168.50422668 4.14717102 C170.80871059 7.33482097 170.75938461 10.21891623 170.77165222 14.08584595 C170.78444717 15.90899826 170.78444717 15.90899826 170.79750061 17.76898193 C170.79680161 19.11289991 170.79587856 20.45681779 170.79475403 21.80073547 C170.80073958 23.21852472 170.80754519 24.6363107 170.81510925 26.05409241 C170.83277543 29.90339378 170.83746493 33.75260622 170.83874083 37.60194421 C170.84016282 40.00813931 170.84443336 42.41431183 170.84973526 44.82050133 C170.8682387 53.21871246 170.87640562 61.6168601 170.87483215 70.01509094 C170.87363117 77.83702313 170.89472401 85.6586792 170.92631948 93.48054153 C170.95249563 100.20085899 170.96319887 106.92108636 170.96192133 113.6414544 C170.96141202 117.65303929 170.96707772 121.66437885 170.98827744 125.67591286 C171.00768218 129.45088958 171.00776942 133.22538758 170.99324417 137.00038147 C170.9911576 138.38263844 170.99584803 139.76492554 171.00796509 141.14713097 C171.11816053 154.5926008 171.11816053 154.5926008 166.50422668 160.14717102 C162.50240245 162.23851968 159.07036174 162.40034212 154.59663391 162.40786743 C153.91393637 162.41169298 153.23123883 162.41551853 152.52785349 162.41946 C150.24711243 162.42975413 147.9666248 162.42580478 145.68586731 162.42182922 C144.04794075 162.42617764 142.41001623 162.43136122 140.77209473 162.43731689 C136.327959 162.45070287 131.88390835 162.45128611 127.43975639 162.4487536 C123.72937476 162.44768381 120.01901033 162.45256733 116.30863237 162.45735902 C107.55627181 162.46845238 98.80395416 162.46889228 90.05158997 162.46284485 C81.02143651 162.45680148 71.99143872 162.46912566 62.96131182 162.49041492 C55.20747143 162.50802325 47.45368064 162.51403357 39.699821 162.51077718 C35.06909419 162.50896327 30.43847848 162.51161139 25.80776978 162.52549171 C21.45421065 162.5380533 17.10089458 162.53614186 12.74733925 162.52308083 C11.14977754 162.52071201 9.5521988 162.52346066 7.9546566 162.53170395 C5.77342795 162.54214748 3.59301856 162.53409094 1.41181946 162.52139282 C0.19140709 162.52156056 -1.02900528 162.52172831 -2.28639984 162.52190113 C-5.84886448 162.10594369 -7.68897036 161.35676911 -10.49577332 159.14717102 C-12.81337022 155.91597319 -12.75325898 152.94508104 -12.76992798 149.04318237 C-12.78489067 147.16520966 -12.78489067 147.16520966 -12.80015564 145.2492981 C-12.80105139 143.86442579 -12.80171499 142.47955331 -12.8021698 141.09468079 C-12.80979239 139.63423743 -12.81822006 138.17379809 -12.82739258 136.71336365 C-12.8493319 132.74850745 -12.85813544 128.78372837 -12.86321902 124.81881833 C-12.8668626 122.3416148 -12.87310259 119.86443147 -12.88022041 117.38723564 C-12.90471081 108.74494921 -12.91776638 100.1027228 -12.92131042 91.46040344 C-12.92494767 83.40434982 -12.95485736 75.34867672 -12.99671501 67.29273945 C-13.03139671 60.37542716 -13.04685848 53.45824114 -13.04755646 46.54084247 C-13.04834986 42.40965335 -13.05711746 38.27885205 -13.08555412 34.14775276 C-13.11169958 30.26273127 -13.11396037 26.37842017 -13.09789848 22.49335098 C-13.09608127 21.06831884 -13.10279954 19.64324617 -13.11871719 18.21830177 C-13.13913524 16.27168744 -13.12565118 14.32480579 -13.11050415 12.37814331 C-13.11251548 11.28917031 -13.11452681 10.20019732 -13.11659908 9.07822514 C-12.29452699 5.19704313 -10.45195422 3.69224594 -7.49577332 1.14717102 C-5.62953851 -0.71906379 -2.48932776 0.0085961 0 0 Z " fill="#FBFDFC" transform="translate(177.4957733154297,254.8528289794922)"/>
<path d="M0 0 C7.1183149 5.81791376 13.51241597 12.36418605 20.00366211 18.85839844 C21.31482444 20.16656541 22.62619057 21.47452814 23.93774414 22.78230286 C27.48303631 26.31879628 31.02511178 29.85849432 34.56632686 33.39906979 C36.77844089 35.61047179 38.99126591 37.82115975 41.20434761 40.03159332 C48.92269423 47.74070523 56.63847013 55.45237923 64.35180664 63.16650391 C71.54837657 70.36367643 78.75052522 77.55523297 85.9552688 84.7442224 C92.14150657 90.91741312 98.32391195 97.09442401 104.50330931 103.27446198 C108.19418848 106.96559668 111.88661966 110.65514613 115.58289909 114.34087372 C119.05190078 117.80024036 122.51613072 121.26431335 125.97666168 124.73215294 C127.25044864 126.00699099 128.5259626 127.28010601 129.80327797 128.55140877 C131.53945694 130.27993968 133.26943456 132.01444192 134.99790955 133.75067139 C135.51063083 134.25824911 136.02335212 134.76582683 136.55161041 135.2887857 C140 138.77172717 140 138.77172717 140 141 C125.58705635 141.09371369 111.17416041 141.16384447 96.76097393 141.20724869 C90.06766972 141.22781659 83.37458348 141.25633102 76.68139648 141.30175781 C70.21692206 141.34535562 63.75264459 141.3691668 57.28803444 141.37950897 C54.82698277 141.38687528 52.36594136 141.40125978 49.90497398 141.42292023 C46.44642577 141.45213853 42.98868192 141.45594819 39.5300293 141.45410156 C38.52229462 141.46848267 37.51455994 141.48286377 36.47628784 141.49768066 C26.44439659 141.44007069 17.75980782 138.51858985 10.0078125 132.05859375 C1.74483605 123.58663152 -0.30564958 114.27031358 -0.22705078 102.85400391 C-0.22734283 101.7412207 -0.22763489 100.6284375 -0.22793579 99.48193359 C-0.22654537 95.81339653 -0.21099741 92.14506398 -0.1953125 88.4765625 C-0.19158136 85.92923087 -0.18873486 83.38189779 -0.18673706 80.83456421 C-0.17988781 74.82109197 -0.16413388 68.80770716 -0.14403808 62.79426992 C-0.12164944 55.94542014 -0.11067821 49.09656678 -0.10064721 42.24768949 C-0.07976674 28.16508592 -0.04460931 14.08254697 0 0 Z " fill="#8CD0AF" transform="translate(301,0)"/>
<path d="M0 0 C37.95 0.33 75.9 0.66 115 1 C115 31.36 115 61.72 115 93 C111.11639182 90.41092788 107.66622754 88.00975167 104.125 85.0625 C103.17496094 84.27746094 102.22492188 83.49242187 101.24609375 82.68359375 C100.72901855 82.25546387 100.21194336 81.82733398 99.67919922 81.38623047 C96.52740053 78.78432396 93.35789291 76.20419337 90.1875 73.625 C89.50598877 73.07030029 88.82447754 72.51560059 88.12231445 71.9440918 C83.72259282 68.37246749 79.28307119 64.85733967 74.8125 61.375 C69.72644232 57.41129866 64.78366342 53.31010108 59.88500977 49.11791992 C55.52046797 45.39953824 51.03761304 41.85494744 46.51171875 38.3359375 C41.77263532 34.63841087 37.12837727 30.83488174 32.5 27 C25.61077598 21.29506751 18.62590972 15.72994269 11.57373047 10.22851562 C9.08446433 8.28529701 6.60173947 6.33415997 4.125 4.375 C3.32320313 3.74335938 2.52140625 3.11171875 1.6953125 2.4609375 C1.13585937 1.97882813 0.57640625 1.49671875 0 1 C0 0.67 0 0.34 0 0 Z " fill="#1C8653" transform="translate(326,140)"/>
<path d="M0 0 C20.13 0 40.26 0 61 0 C61 8.58 61 17.16 61 26 C40.87 26 20.74 26 0 26 C0 17.42 0 8.84 0 0 Z " fill="#2BA86B" transform="translate(266,370)"/>
<path d="M0 0 C20.13 0 40.26 0 61 0 C61 8.58 61 17.16 61 26 C40.87 26 20.74 26 0 26 C0 17.42 0 8.84 0 0 Z " fill="#2BA86B" transform="translate(185,370)"/>
<path d="M0 0 C19.47 0 38.94 0 59 0 C59 8.58 59 17.16 59 26 C39.53 26 20.06 26 0 26 C0 17.42 0 8.84 0 0 Z " fill="#23A566" transform="translate(267,323)"/>
<path d="M0 0 C19.47 0 38.94 0 59 0 C59 8.58 59 17.16 59 26 C39.53 26 20.06 26 0 26 C0 17.42 0 8.84 0 0 Z " fill="#23A566" transform="translate(186,323)"/>
<path d="M0 0 C19.47 0 38.94 0 59 0 C59 8.25 59 16.5 59 25 C39.53 25 20.06 25 0 25 C0 16.75 0 8.5 0 0 Z " fill="#23A566" transform="translate(267,276)"/>
<path d="M0 0 C19.47 0 38.94 0 59 0 C59 8.25 59 16.5 59 25 C39.53 25 20.06 25 0 25 C0 16.75 0 8.5 0 0 Z " fill="#23A566" transform="translate(186,276)"/>
</svg>
