<svg width="512" height="512" version="1.1" xmlns="http://www.w3.org/2000/svg" desc="Created with imagetracer.js version 1.2.6" ><path fill="rgb(233,4,84)" stroke="rgb(233,4,84)" stroke-width="1" opacity="0.996078431372549" d="M 408.5 34 L 433.5 34 L 437.5 35 Q 447.8 38.7 454 46.5 L 459 54.5 L 461 61.5 L 461 153 L 437 153 L 437 127.5 L 436.5 127 L 17.5 127 L 17 126.5 L 17 112 L 436.5 112 L 437 111.5 L 437 62.5 Q 433.6 47.4 422.5 40 Q 417.3 35.7 408.5 35 L 408.5 34 Z " /><path fill="rgb(233,4,84)" stroke="rgb(233,4,84)" stroke-width="1" opacity="0.996078431372549" d="M 99.5 61 L 118.5 61 Q 119.8 61.3 119 67.5 L 123 75.5 L 100.5 76 L 95 71.5 Q 93.8 64.3 97.5 62 L 99.5 61 Z " /><path fill="rgb(233,4,84)" stroke="rgb(233,4,84)" stroke-width="1" opacity="0.996078431372549" d="M 163 61 L 182.5 61 L 186 64.5 L 187 70.5 L 183.5 75 L 181.5 76 L 159.5 76 L 160 74.5 L 163 61 Z " /><path fill="rgb(233,4,84)" stroke="rgb(233,4,84)" stroke-width="1" opacity="0.996078431372549" d="M 295.5 61 L 314.5 61 Q 315.5 61 315 65.5 L 316 70.5 L 319 75.5 L 296.5 76 L 292 72.5 L 291 65.5 L 295.5 61 Z " /><path fill="rgb(233,4,84)" stroke="rgb(233,4,84)" stroke-width="1" opacity="0.996078431372549" d="M 359 61 L 378.5 61 L 382 63.5 L 383 70.5 L 379.5 75 L 377.5 76 L 355.5 76 L 357 73.5 L 359 61 Z " /><path fill="rgb(254,69,85)" stroke="rgb(254,69,85)" stroke-width="1" opacity="0.996078431372549" d="M 162.5 34 L 163 60.5 L 162 60.5 L 162.5 34 Z " /><path fill="rgb(254,69,85)" stroke="rgb(254,69,85)" stroke-width="1" opacity="0.996078431372549" d="M 315.5 34 L 316 60.5 L 315 60.5 L 315.5 34 Z " /><path fill="rgb(254,69,85)" stroke="rgb(254,69,85)" stroke-width="1" opacity="0.996078431372549" d="M 119.5 61 L 120 66.5 L 119 66.5 L 119.5 61 Z " /><path fill="rgb(254,69,85)" stroke="rgb(254,69,85)" stroke-width="1" opacity="0.996078431372549" d="M 158.5 76 L 157.5 78 L 158.5 76 Z " /><path fill="rgb(254,69,85)" stroke="rgb(254,69,85)" stroke-width="1" opacity="0.996078431372549" d="M 319.5 76 L 320.5 78 L 319.5 76 Z " /><path fill="rgb(254,69,85)" stroke="rgb(254,69,85)" stroke-width="1" opacity="0.996078431372549" d="M 124.5 78 L 126.5 81 L 124.5 78 Z " /><path fill="rgb(254,69,85)" stroke="rgb(254,69,85)" stroke-width="1" opacity="0.996078431372549" d="M 353.5 78 L 352.5 80 L 353.5 78 Z " /><path fill="rgb(254,69,85)" stroke="rgb(254,69,85)" stroke-width="1" opacity="0.996078431372549" d="M 323.5 80 L 325.5 83 L 323.5 80 Z " /><path fill="rgb(254,69,85)" stroke="rgb(254,69,85)" stroke-width="1" opacity="0.996078431372549" d="M 128.5 81 L 129.5 83 L 128.5 81 Z " /><path fill="rgb(254,69,85)" stroke="rgb(254,69,85)" stroke-width="1" opacity="0.996078431372549" d="M 153.5 81 L 152.5 83 L 153.5 81 Z " /><path fill="rgb(254,69,85)" stroke="rgb(254,69,85)" stroke-width="1" opacity="0.996078431372549" d="M 137.5 85 L 140 85.5 L 137.5 86 L 137.5 85 Z " /><path fill="rgb(254,69,85)" stroke="rgb(254,69,85)" stroke-width="1" opacity="0.996078431372549" d="M 142.5 85 L 145 85.5 L 142.5 86 L 142.5 85 Z " /><path fill="rgb(254,69,85)" stroke="rgb(254,69,85)" stroke-width="1" opacity="0.996078431372549" d="M 333.5 85 L 336 85.5 L 333.5 86 L 333.5 85 Z " /><path fill="rgb(254,69,85)" stroke="rgb(254,69,85)" stroke-width="1" opacity="0.996078431372549" d="M 338.5 85 L 341 85.5 L 338.5 86 L 338.5 85 Z " /><path fill="rgb(254,69,85)" stroke="rgb(254,69,85)" stroke-width="1" opacity="0.996078431372549" d="M 17.5 153 L 437 153.5 L 17.5 154 L 17.5 153 Z " /><path fill="rgb(254,69,85)" stroke="rgb(254,69,85)" stroke-width="1" opacity="0.996078431372549" d="M 363.5 367 L 373.5 368 L 381 374.5 L 383 377.5 L 384 386.5 Q 382.8 394.8 376.5 398 L 369.5 401 L 364.5 401 Q 355.6 399.4 352 392.5 L 350 386.5 L 350 381.5 Q 351.6 372.6 358.5 369 L 363.5 367 Z " /><path fill="rgb(0,0,0)" stroke="rgb(0,0,0)" stroke-width="1" opacity="0" d="M 0 0 L 134 0.5 Q 125.4 2.4 122 9.5 L 119 16.5 L 119 34 L 43.5 34 Q 30 37.5 23 47.5 L 17 60.5 L 17 400.5 Q 20.3 413.2 29.5 420 L 44.5 427 L 246 427 Q 258.3 462.5 285.5 484 Q 300.3 496.3 319.5 504 L 339.5 510 L 351 511.5 L 0 512 L 0 0 Z " /><path fill="rgb(0,0,0)" stroke="rgb(0,0,0)" stroke-width="1" opacity="0" d="M 148.5 0 L 330 0.5 Q 322.7 2.7 319 8.5 L 315 18.5 L 315 34 L 163.5 34 L 163 33.5 L 163 19.5 Q 161.3 8.2 153.5 3 L 148.5 1 L 148.5 0 Z " /><path fill="rgb(0,0,0)" stroke="rgb(0,0,0)" stroke-width="1" opacity="0" d="M 344.5 0 L 511.5 0 L 512 0.5 L 512 512 L 383 511.5 L 402.5 508 L 425.5 499 Q 449.4 486.4 466 466.5 Q 482.8 447.3 491 419.5 L 495 399.5 L 495 368.5 L 491 348.5 L 483 327.5 Q 474.4 309.6 461 296.5 L 461 61.5 Q 457.9 47.1 447.5 40 L 434.5 34 L 359 34 L 359 17.5 L 358 13.5 L 349.5 3 L 344.5 1 L 344.5 0 Z " /><path fill="rgb(255,65,85)" stroke="rgb(255,65,85)" stroke-width="1" opacity="1" d="M 43.5 34 L 119 34 L 119 61 L 99.5 61 L 96 63.5 L 95 71.5 L 100.5 76 L 122.5 76 L 124 77.5 L 126.5 81 Q 132.3 86.7 144.5 86 Q 154.8 83.8 159.5 76 L 181.5 76 L 186 72.5 L 187 66.5 L 182.5 61 L 163.5 61 L 163 63.5 L 162 63.5 L 163 60.5 L 163 34 L 314.5 34 L 315 34.5 L 315 60.5 L 316 65.5 L 315 65.5 Q 315.5 61 314.5 61 L 295.5 61 L 291 65.5 L 291 70.5 L 294.5 75 L 296.5 76 L 318.5 76 Q 323.6 86.9 340.5 86 Q 349.1 84.1 354 78.5 L 355.5 76 L 377.5 76 L 382 72.5 L 383 65.5 L 380.5 62 L 378.5 61 L 359 61 L 359 34 L 407.5 34 Q 423.6 36.9 431 48.5 L 437 62.5 L 437 112 L 17.5 112 L 17 111.5 L 17 61.5 Q 19.7 48.7 28.5 42 L 31.5 40 L 43.5 34 Z " /><path fill="rgb(255,65,85)" stroke="rgb(255,65,85)" stroke-width="1" opacity="1" d="M 17 127 L 436.5 127 L 437 127.5 L 437 153 L 460.5 153 L 460.5 154 L 437.5 154 L 436.5 153 L 17 153 L 17 127 Z " /><path fill="rgb(228,238,246)" stroke="rgb(228,238,246)" stroke-width="1" opacity="0.9372549019607843" d="M 134.5 0 L 137 0.5 L 134.5 1 L 134.5 0 Z " /><path fill="rgb(228,238,246)" stroke="rgb(228,238,246)" stroke-width="1" opacity="0.9372549019607843" d="M 144.5 0 L 150 1.5 L 148.5 2 L 144.5 1 L 144.5 0 Z " /><path fill="rgb(228,238,246)" stroke="rgb(228,238,246)" stroke-width="1" opacity="0.9372549019607843" d="M 330.5 0 L 333 0.5 L 328.5 2 L 328.5 1 L 330.5 0 Z " /><path fill="rgb(228,238,246)" stroke="rgb(228,238,246)" stroke-width="1" opacity="0.9372549019607843" d="M 341.5 0 L 346 1.5 L 344.5 2 L 341.5 1 L 341.5 0 Z " /><path fill="rgb(228,238,246)" stroke="rgb(228,238,246)" stroke-width="1" opacity="0.9372549019607843" d="M 130.5 2 L 129.5 4 L 130.5 2 Z " /><path fill="rgb(228,238,246)" stroke="rgb(228,238,246)" stroke-width="1" opacity="0.9372549019607843" d="M 151.5 2 L 159 8.5 L 160 10.5 L 158 9.5 L 153.5 4 L 151.5 2 Z " /><path fill="rgb(228,238,246)" stroke="rgb(228,238,246)" stroke-width="1" opacity="0.9372549019607843" d="M 326.5 2 L 325.5 4 L 326.5 2 Z " /><path fill="rgb(228,238,246)" stroke="rgb(228,238,246)" stroke-width="1" opacity="0.9372549019607843" d="M 347.5 2 L 356 9.5 L 357 12.5 L 356 12.5 Q 354.6 6.4 349.5 4 L 347.5 2 Z " /><path fill="rgb(228,238,246)" stroke="rgb(228,238,246)" stroke-width="1" opacity="0.9372549019607843" d="M 323.5 4 L 322.5 6 L 323.5 4 Z " /><path fill="rgb(228,238,246)" stroke="rgb(228,238,246)" stroke-width="1" opacity="0.9372549019607843" d="M 160.5 12 L 162 16.5 L 161 16.5 L 160.5 12 Z " /><path fill="rgb(228,238,246)" stroke="rgb(228,238,246)" stroke-width="1" opacity="0.9372549019607843" d="M 358.5 17 L 359 34.5 L 358 34.5 L 358.5 17 Z " /><path fill="rgb(228,238,246)" stroke="rgb(228,238,246)" stroke-width="1" opacity="0.9372549019607843" d="M 315.5 18 L 316 20.5 L 315 20.5 L 315.5 18 Z " /><path fill="rgb(228,238,246)" stroke="rgb(228,238,246)" stroke-width="1" opacity="0.9372549019607843" d="M 162.5 19 L 163 33.5 L 162 33.5 L 162.5 19 Z " /><path fill="rgb(228,238,246)" stroke="rgb(228,238,246)" stroke-width="1" opacity="0.9372549019607843" d="M 189.5 219 L 190.5 221 L 189.5 219 Z " /><path fill="rgb(48,73,146)" stroke="rgb(48,73,146)" stroke-width="1" opacity="1" d="M 56.5 188 L 80.5 188 L 85 192.5 L 85 216.5 L 81.5 221 L 79.5 222 L 57.5 222 L 52 217.5 Q 49.3 209.2 51 196.5 L 53 190 L 56.5 188 Z " /><path fill="rgb(48,73,146)" stroke="rgb(48,73,146)" stroke-width="1" opacity="1" d="M 125.5 188 L 148.5 188 L 152 190.5 L 154 194.5 L 154 214.5 L 149.5 221 L 147.5 222 L 125.5 222 L 121 218.5 L 120 216.5 L 120 192.5 L 125.5 188 Z " /><path fill="rgb(48,73,146)" stroke="rgb(48,73,146)" stroke-width="1" opacity="1" d="M 193.5 188 L 216.5 188 L 221 191.5 L 222 193.5 L 222 215.5 L 217.5 221 L 215.5 222 L 194.5 222 L 190 220 L 188 216.5 L 188 193.5 L 191.5 189 L 193.5 188 Z " /><path fill="rgb(48,73,146)" stroke="rgb(48,73,146)" stroke-width="1" opacity="1" d="M 261.5 188 L 284.5 188 L 289 191.5 L 290 193.5 L 290 216.5 L 286.5 221 L 283.5 222 L 262.5 222 L 257 217.5 L 256 215.5 L 256 194.5 L 259.5 189 L 261.5 188 Z " /><path fill="rgb(48,73,146)" stroke="rgb(48,73,146)" stroke-width="1" opacity="1" d="M 329.5 188 L 353.5 188 L 358 192.5 L 358 216.5 L 354.5 221 L 352.5 222 L 330.5 222 L 325 217.5 L 325 192.5 L 329.5 188 Z " /><path fill="rgb(48,73,146)" stroke="rgb(48,73,146)" stroke-width="1" opacity="1" d="M 398.5 188 L 421.5 188 L 425 190.5 L 427 194.5 L 427 214.5 L 422.5 221 L 420.5 222 L 398.5 222 L 394 218.5 L 393 216.5 L 393 193.5 L 396.5 189 L 398.5 188 Z " /><path fill="rgb(48,73,146)" stroke="rgb(48,73,146)" stroke-width="1" opacity="1" d="M 57.5 256 L 79.5 256 L 84 259.5 L 85 261.5 L 85 285.5 L 79.5 290 L 57.5 290 L 52 285.5 Q 49.3 277.2 51 264.5 L 52 260.5 L 55.5 257 L 57.5 256 Z " /><path fill="rgb(48,73,146)" stroke="rgb(48,73,146)" stroke-width="1" opacity="1" d="M 125.5 256 L 147.5 256 L 153 260.5 L 154 263.5 L 154 282.5 L 148.5 290 L 125.5 290 L 121 286.5 L 120 284.5 L 120 261.5 L 123.5 257 L 125.5 256 Z " /><path fill="rgb(48,73,146)" stroke="rgb(48,73,146)" stroke-width="1" opacity="1" d="M 193.5 256 L 216.5 256 L 220 258 L 222 262.5 L 222 283.5 L 218.5 289 L 216.5 290 L 193.5 290 L 189 286.5 L 188 284.5 L 188 261.5 L 190.5 258 L 193.5 256 Z " /><path fill="rgb(48,73,146)" stroke="rgb(48,73,146)" stroke-width="1" opacity="1" d="M 262.5 256 L 284.5 256 L 289 259.5 L 290 261.5 L 290 281.5 L 280.5 290 L 262.5 290 L 257 285.5 L 256 282.5 L 256 263.5 L 260.5 257 L 262.5 256 Z " /><path fill="rgb(48,73,146)" stroke="rgb(48,73,146)" stroke-width="1" opacity="1" d="M 364.5 317 Q 371 316 373 319.5 L 374 321.5 L 374 368 Q 370.2 366.2 362.5 367 L 360.5 368 L 359 366.5 L 359 324.5 L 362.5 318 L 364.5 317 Z " /><path fill="rgb(48,73,146)" stroke="rgb(48,73,146)" stroke-width="1" opacity="1" d="M 57.5 324 L 78.5 324 L 84 327.5 L 85 329.5 L 85 353.5 L 80.5 358 L 56.5 358 L 53 355.5 L 51 350.5 L 51 332.5 L 52 328.5 L 55.5 325 L 57.5 324 Z " /><path fill="rgb(48,73,146)" stroke="rgb(48,73,146)" stroke-width="1" opacity="1" d="M 126.5 324 L 146.5 324 L 153 328.5 L 154 331.5 L 154 351.5 L 150.5 357 L 148.5 358 L 124.5 358 L 120 353.5 L 120 329.5 L 122.5 326 L 126.5 324 Z " /><path fill="rgb(48,73,146)" stroke="rgb(48,73,146)" stroke-width="1" opacity="1" d="M 194.5 324 L 215.5 324 L 221 328.5 L 222 330.5 L 222 352.5 L 218.5 357 L 216.5 358 L 193.5 358 L 189 354.5 L 188 352.5 L 188 330.5 L 192.5 325 L 194.5 324 Z " /><path fill="rgb(48,73,146)" stroke="rgb(48,73,146)" stroke-width="1" opacity="1" d="M 383 377 L 412.5 377 L 416 379.5 L 417 386.5 L 414.5 390 L 412.5 391 L 383 391 Q 384.7 387.6 384 380.5 L 383 377 Z " /><path fill="rgb(235,245,252)" stroke="rgb(235,245,252)" stroke-width="1" opacity="0.996078431372549" d="M 129.5 2 L 129 3.5 L 127.5 6 L 125 7.5 L 121 17 L 119 16.5 Q 122.2 7.2 129.5 2 Z " /><path fill="rgb(235,245,252)" stroke="rgb(235,245,252)" stroke-width="1" opacity="0.996078431372549" d="M 324.5 3 L 325 4.5 L 319 9.5 L 321.5 6 L 324 4.5 L 324.5 3 Z " /><path fill="rgb(235,245,252)" stroke="rgb(235,245,252)" stroke-width="1" opacity="0.996078431372549" d="M 317 11 L 319 11.5 L 316.5 18 L 316 14.5 L 317 11 Z " /><path fill="rgb(235,245,252)" stroke="rgb(235,245,252)" stroke-width="1" opacity="0.996078431372549" d="M 119.5 18 L 120 33.5 L 119 33.5 L 119.5 18 Z " /><path fill="rgb(235,245,252)" stroke="rgb(235,245,252)" stroke-width="1" opacity="0.996078431372549" d="M 315.5 21 L 316 33.5 L 315 33.5 L 315.5 21 Z " /><path fill="rgb(235,245,252)" stroke="rgb(235,245,252)" stroke-width="1" opacity="0.996078431372549" d="M 17.5 154 L 18 361.5 L 17 361.5 L 17.5 154 Z " /><path fill="rgb(235,245,252)" stroke="rgb(235,245,252)" stroke-width="1" opacity="1" d="M 129.5 4 Q 135.4 8.1 138 15.5 L 138 69.5 Q 135.9 76.9 130.5 81 L 128.5 81 L 123 75.5 L 120 68.5 L 120 17.5 L 126.5 6 L 129.5 4 Z " /><path fill="rgb(235,245,252)" stroke="rgb(235,245,252)" stroke-width="1" opacity="1" d="M 325.5 4 L 330 7.5 L 335 18.5 L 335 66.5 Q 333.2 76.2 326.5 81 L 324.5 81 L 320 76.5 L 316 67.5 L 316 18.5 Q 318 8.5 325.5 4 Z " /><path fill="rgb(235,245,252)" stroke="rgb(235,245,252)" stroke-width="1" opacity="1" d="M 18 154 L 436.5 154 L 437 154.5 L 437 275.5 L 435.5 275 Q 419.5 264.5 398.5 259 L 381.5 256 L 352.5 256 L 325.5 262 Q 306.2 268.7 291.5 280 L 291 263.5 L 285.5 256 L 260.5 256 L 256 260.5 L 256 285.5 L 260.5 290 L 278 291.5 Q 257.1 310.6 246 339.5 L 242 352.5 L 239 369.5 L 239 393 L 50.5 393 Q 49 390.5 43.5 392 L 33.5 388 L 24 379.5 L 18 367.5 L 18 154 Z M 58 187 L 53 189 L 51 193 L 51 217 L 52 219 L 57 222 L 81 222 L 83 221 L 86 216 L 86 195 L 85 192 L 79 187 L 58 187 Z M 126 187 L 124 188 L 119 194 L 119 217 L 120 219 L 125 222 L 149 222 L 151 221 L 154 217 L 154 194 L 153 192 L 148 187 L 126 187 Z M 195 187 L 192 188 L 187 195 L 187 216 L 189 220 L 193 222 L 218 222 L 222 218 L 222 193 L 221 191 L 216 187 L 195 187 Z M 263 187 L 259 189 L 256 193 L 256 218 L 261 222 L 286 222 L 291 215 L 291 196 L 289 191 L 284 187 L 263 187 Z M 331 187 L 326 189 L 324 193 L 324 217 L 325 219 L 330 222 L 354 222 L 356 221 L 359 216 L 359 194 L 358 192 L 352 187 L 331 187 Z M 400 187 L 397 188 L 392 194 L 392 216 L 393 219 L 398 222 L 422 222 L 424 221 L 427 217 L 427 193 L 421 187 L 400 187 Z M 56 256 L 51 261 L 51 286 L 59 291 L 78 291 L 82 290 L 86 284 L 86 263 L 85 260 L 81 256 L 56 256 Z M 125 256 L 123 257 L 119 262 L 119 285 L 120 287 L 127 291 L 147 291 L 150 290 L 154 285 L 154 262 L 153 260 L 150 256 L 125 256 Z M 193 256 L 191 257 L 187 263 L 187 284 L 188 287 L 196 291 L 215 291 L 218 290 L 222 286 L 222 261 L 218 256 L 193 256 Z M 57 324 L 55 325 L 51 330 L 51 354 L 52 356 L 58 359 L 80 359 L 82 358 L 86 353 L 86 331 L 84 326 L 81 324 L 57 324 Z M 125 324 L 123 325 L 119 330 L 119 353 L 120 355 L 126 359 L 148 359 L 152 357 L 154 353 L 154 330 L 153 328 L 149 324 L 125 324 Z M 193 324 L 189 326 L 187 331 L 187 352 L 188 355 L 194 359 L 216 359 L 219 358 L 222 354 L 222 330 L 221 328 L 217 324 L 193 324 Z " /><path fill="rgb(235,245,252)" stroke="rgb(235,245,252)" stroke-width="1" opacity="1" d="M 353.5 291 L 363.5 292 L 379.5 297 L 397.5 307 L 411 318 L 424 335.5 L 431 349.5 L 437 373.5 L 437 394.5 Q 429.8 436.8 401.5 458 Q 383.9 473.4 354.5 477 Q 317.1 470.4 297 446.5 Q 286.5 435 280 419.5 L 274 397.5 L 274 385.5 L 273 383.5 L 274 382.5 L 274 370.5 L 280 348.5 Q 288.8 327.8 304.5 314 Q 322.8 296.3 353.5 291 Z M 365 316 L 363 317 L 359 322 L 359 369 Q 352 372 350 382 L 350 387 L 352 393 Q 356 399 365 401 L 370 401 L 377 398 L 381 392 L 413 392 L 415 391 L 418 386 L 416 379 L 413 376 L 382 376 L 381 375 L 375 370 L 375 322 L 374 320 Q 372 315 365 316 Z " /><path fill="rgb(66,161,242)" stroke="rgb(66,161,242)" stroke-width="1" opacity="0.9882352941176471" d="M 327.5 189 L 326.5 191 L 327.5 189 Z " /><path fill="rgb(66,161,242)" stroke="rgb(66,161,242)" stroke-width="1" opacity="0.9882352941176471" d="M 355.5 189 L 356.5 191 L 355.5 189 Z " /><path fill="rgb(66,161,242)" stroke="rgb(66,161,242)" stroke-width="1" opacity="0.9882352941176471" d="M 324.5 194 L 325 215.5 L 324 215.5 L 324.5 194 Z " /><path fill="rgb(66,161,242)" stroke="rgb(66,161,242)" stroke-width="1" opacity="0.9882352941176471" d="M 85.5 195 L 86 213.5 L 85 213.5 L 85.5 195 Z " /><path fill="rgb(66,161,242)" stroke="rgb(66,161,242)" stroke-width="1" opacity="0.9882352941176471" d="M 358.5 195 L 359 214.5 L 358 214.5 L 358.5 195 Z " /><path fill="rgb(66,161,242)" stroke="rgb(66,161,242)" stroke-width="1" opacity="0.9882352941176471" d="M 119.5 196 L 120 213.5 L 119 213.5 L 119.5 196 Z " /><path fill="rgb(66,161,242)" stroke="rgb(66,161,242)" stroke-width="1" opacity="0.9882352941176471" d="M 220.5 218 L 218.5 221 L 220.5 218 Z " /><path fill="rgb(66,161,242)" stroke="rgb(66,161,242)" stroke-width="1" opacity="0.9882352941176471" d="M 356.5 256 L 379.5 256 Q 381 258.5 386.5 257 L 404.5 261 L 415.5 265 Q 446 278 466 301.5 Q 482.8 320.7 491 348.5 L 495 368.5 L 495 399.5 L 491 419.5 L 483 440.5 Q 470.3 465.8 449.5 483 Q 430.3 499.8 402.5 508 L 382.5 512 L 351.5 512 L 331.5 508 L 306.5 498 Q 283.2 485.4 267 465.5 Q 253.7 449.8 246 428.5 L 246 424.5 L 244 420.5 L 240 402.5 L 239 375.5 L 244 347.5 L 255 321.5 Q 267.5 299.5 286.5 284 L 314.5 267 L 334.5 260 L 356.5 256 Z M 357 290 L 342 293 L 331 297 Q 314 304 302 316 Q 290 327 282 343 L 276 359 L 273 374 L 273 395 L 279 419 Q 286 437 299 450 Q 312 463 331 471 L 342 475 L 357 478 L 378 478 L 402 472 Q 419 465 432 453 Q 455 432 461 395 L 461 374 L 455 350 Q 448 332 436 320 Q 422 304 402 296 L 378 290 L 357 290 Z " /><path fill="rgb(66,161,242)" stroke="rgb(66,161,242)" stroke-width="1" opacity="0.9882352941176471" d="M 85.5 264 L 86 281.5 L 85 281.5 L 85.5 264 Z " /><path fill="rgb(66,161,242)" stroke="rgb(66,161,242)" stroke-width="1" opacity="0.9882352941176471" d="M 119.5 264 L 120 281.5 L 119 281.5 L 119.5 264 Z " /><path fill="rgb(66,161,242)" stroke="rgb(66,161,242)" stroke-width="1" opacity="0.9882352941176471" d="M 53.5 287 L 54.5 289 L 53.5 287 Z " /><path fill="rgb(66,161,242)" stroke="rgb(66,161,242)" stroke-width="1" opacity="0.9882352941176471" d="M 151.5 287 L 150.5 289 L 151.5 287 Z " /><path fill="rgb(66,161,242)" stroke="rgb(66,161,242)" stroke-width="1" opacity="0.9882352941176471" d="M 374.5 323 L 375 367.5 L 374 367.5 L 374.5 323 Z " /><path fill="rgb(66,161,242)" stroke="rgb(66,161,242)" stroke-width="1" opacity="0.9882352941176471" d="M 190.5 326 L 189.5 328 L 190.5 326 Z " /><path fill="rgb(66,161,242)" stroke="rgb(66,161,242)" stroke-width="1" opacity="0.9882352941176471" d="M 85.5 332 L 86 350.5 L 85 350.5 L 85.5 332 Z " /><path fill="rgb(66,161,242)" stroke="rgb(66,161,242)" stroke-width="1" opacity="0.9882352941176471" d="M 119.5 332 L 120 349.5 L 119 349.5 L 119.5 332 Z " /><path fill="rgb(66,161,242)" stroke="rgb(66,161,242)" stroke-width="1" opacity="0.9882352941176471" d="M 83.5 355 L 82.5 357 L 83.5 355 Z " /><path fill="rgb(66,161,242)" stroke="rgb(66,161,242)" stroke-width="1" opacity="0.9882352941176471" d="M 121.5 355 L 122.5 357 L 121.5 355 Z " /><path fill="rgb(66,161,242)" stroke="rgb(66,161,242)" stroke-width="1" opacity="0.9882352941176471" d="M 58.5 358 L 78 358.5 L 58.5 359 L 58.5 358 Z " /><path fill="rgb(66,161,242)" stroke="rgb(66,161,242)" stroke-width="1" opacity="0.9882352941176471" d="M 126.5 358 L 147 358.5 L 126.5 359 L 126.5 358 Z " /><path fill="rgb(66,161,242)" stroke="rgb(66,161,242)" stroke-width="1" opacity="0.9882352941176471" d="M 195.5 358 L 215 358.5 L 195.5 359 L 195.5 358 Z " /><path fill="rgb(66,161,242)" stroke="rgb(66,161,242)" stroke-width="1" opacity="0.9882352941176471" d="M 383.5 376 L 411 376.5 L 383.5 377 L 383.5 376 Z " /><path fill="rgb(66,161,242)" stroke="rgb(66,161,242)" stroke-width="1" opacity="0.9882352941176471" d="M 383.5 391 L 411 391.5 L 383.5 392 L 383.5 391 Z " /><path fill="rgb(178,204,236)" stroke="rgb(178,204,236)" stroke-width="1" opacity="0.9568627450980393" d="M 58.5 187 L 79 187.5 L 58.5 188 L 58.5 187 Z " /><path fill="rgb(178,204,236)" stroke="rgb(178,204,236)" stroke-width="1" opacity="0.9568627450980393" d="M 126.5 187 L 147 187.5 L 126.5 188 L 126.5 187 Z " /><path fill="rgb(178,204,236)" stroke="rgb(178,204,236)" stroke-width="1" opacity="0.9568627450980393" d="M 194.5 187 L 215 187.5 L 194.5 188 L 194.5 187 Z " /><path fill="rgb(178,204,236)" stroke="rgb(178,204,236)" stroke-width="1" opacity="0.9568627450980393" d="M 263.5 187 L 283 187.5 L 263.5 188 L 263.5 187 Z " /><path fill="rgb(178,204,236)" stroke="rgb(178,204,236)" stroke-width="1" opacity="0.9568627450980393" d="M 331.5 187 L 352 187.5 L 331.5 188 L 331.5 187 Z " /><path fill="rgb(178,204,236)" stroke="rgb(178,204,236)" stroke-width="1" opacity="0.9568627450980393" d="M 399.5 187 L 420 187.5 L 399.5 188 L 399.5 187 Z " /><path fill="rgb(178,204,236)" stroke="rgb(178,204,236)" stroke-width="1" opacity="0.9568627450980393" d="M 82.5 189 L 83.5 191 L 82.5 189 Z " /><path fill="rgb(178,204,236)" stroke="rgb(178,204,236)" stroke-width="1" opacity="0.9568627450980393" d="M 190.5 189 L 189.5 191 L 190.5 189 Z " /><path fill="rgb(178,204,236)" stroke="rgb(178,204,236)" stroke-width="1" opacity="0.9568627450980393" d="M 287.5 189 L 288.5 191 L 287.5 189 Z " /><path fill="rgb(178,204,236)" stroke="rgb(178,204,236)" stroke-width="1" opacity="0.9568627450980393" d="M 395.5 189 L 393.5 192 L 395.5 189 Z " /><path fill="rgb(178,204,236)" stroke="rgb(178,204,236)" stroke-width="1" opacity="0.9568627450980393" d="M 392.5 194 L 393 215.5 L 392 215.5 L 392.5 194 Z " /><path fill="rgb(178,204,236)" stroke="rgb(178,204,236)" stroke-width="1" opacity="0.9568627450980393" d="M 187.5 195 L 188 213.5 L 187 213.5 L 187.5 195 Z " /><path fill="rgb(178,204,236)" stroke="rgb(178,204,236)" stroke-width="1" opacity="0.9568627450980393" d="M 290.5 196 L 291 213.5 L 290 213.5 L 290.5 196 Z " /><path fill="rgb(178,204,236)" stroke="rgb(178,204,236)" stroke-width="1" opacity="0.9568627450980393" d="M 52.5 218 L 54.5 221 L 52.5 218 Z " /><path fill="rgb(178,204,236)" stroke="rgb(178,204,236)" stroke-width="1" opacity="0.9568627450980393" d="M 152.5 218 L 150.5 221 L 152.5 218 Z " /><path fill="rgb(178,204,236)" stroke="rgb(178,204,236)" stroke-width="1" opacity="0.9568627450980393" d="M 325.5 218 L 327.5 221 L 325.5 218 Z " /><path fill="rgb(178,204,236)" stroke="rgb(178,204,236)" stroke-width="1" opacity="0.9568627450980393" d="M 425.5 218 L 423.5 221 L 425.5 218 Z " /><path fill="rgb(178,204,236)" stroke="rgb(178,204,236)" stroke-width="1" opacity="0.9568627450980393" d="M 122.5 257 L 121.5 259 L 122.5 257 Z " /><path fill="rgb(178,204,236)" stroke="rgb(178,204,236)" stroke-width="1" opacity="0.9568627450980393" d="M 259.5 257 L 257.5 260 L 259.5 257 Z " /><path fill="rgb(178,204,236)" stroke="rgb(178,204,236)" stroke-width="1" opacity="0.9568627450980393" d="M 187.5 263 L 188 282.5 L 187 282.5 L 187.5 263 Z " /><path fill="rgb(178,204,236)" stroke="rgb(178,204,236)" stroke-width="1" opacity="0.9568627450980393" d="M 290.5 264 L 291 280.5 L 290 280.5 L 290.5 264 Z " /><path fill="rgb(178,204,236)" stroke="rgb(178,204,236)" stroke-width="1" opacity="0.9568627450980393" d="M 445.5 282 L 446.5 284 L 445.5 282 Z " /><path fill="rgb(178,204,236)" stroke="rgb(178,204,236)" stroke-width="1" opacity="0.9568627450980393" d="M 120.5 286 L 122.5 289 L 120.5 286 Z " /><path fill="rgb(178,204,236)" stroke="rgb(178,204,236)" stroke-width="1" opacity="0.9568627450980393" d="M 450.5 286 L 453.5 290 L 450.5 286 Z " /><path fill="rgb(178,204,236)" stroke="rgb(178,204,236)" stroke-width="1" opacity="0.9568627450980393" d="M 83.5 287 L 82.5 289 L 83.5 287 Z " /><path fill="rgb(178,204,236)" stroke="rgb(178,204,236)" stroke-width="1" opacity="0.9568627450980393" d="M 59.5 290 L 77 290.5 L 59.5 291 L 59.5 290 Z " /><path fill="rgb(178,204,236)" stroke="rgb(178,204,236)" stroke-width="1" opacity="0.9568627450980393" d="M 127.5 290 L 146 290.5 L 127.5 291 L 127.5 290 Z " /><path fill="rgb(178,204,236)" stroke="rgb(178,204,236)" stroke-width="1" opacity="0.9568627450980393" d="M 196.5 290 L 214 290.5 L 196.5 291 L 196.5 290 Z " /><path fill="rgb(178,204,236)" stroke="rgb(178,204,236)" stroke-width="1" opacity="0.9568627450980393" d="M 264.5 290 L 280 290.5 L 272 297.5 L 277.5 291 L 264.5 291 L 264.5 290 Z " /><path fill="rgb(178,204,236)" stroke="rgb(178,204,236)" stroke-width="1" opacity="0.9568627450980393" d="M 356.5 290 L 359 290.5 L 356.5 291 L 356.5 290 Z " /><path fill="rgb(178,204,236)" stroke="rgb(178,204,236)" stroke-width="1" opacity="0.9568627450980393" d="M 375.5 290 L 378 290.5 L 375.5 291 L 375.5 290 Z " /><path fill="rgb(178,204,236)" stroke="rgb(178,204,236)" stroke-width="1" opacity="0.9568627450980393" d="M 264.5 307 L 263.5 309 L 264.5 307 Z " /><path fill="rgb(178,204,236)" stroke="rgb(178,204,236)" stroke-width="1" opacity="0.9568627450980393" d="M 424.5 309 L 425.5 311 L 424.5 309 Z " /><path fill="rgb(178,204,236)" stroke="rgb(178,204,236)" stroke-width="1" opacity="0.9568627450980393" d="M 431.5 315 L 435.5 320 L 431.5 315 Z " /><path fill="rgb(178,204,236)" stroke="rgb(178,204,236)" stroke-width="1" opacity="0.9568627450980393" d="M 301.5 316 L 299.5 319 L 301.5 316 Z " /><path fill="rgb(178,204,236)" stroke="rgb(178,204,236)" stroke-width="1" opacity="0.9568627450980393" d="M 365.5 316 L 369 316.5 L 365.5 317 L 365.5 316 Z " /><path fill="rgb(178,204,236)" stroke="rgb(178,204,236)" stroke-width="1" opacity="0.9568627450980393" d="M 440.5 325 L 441.5 327 L 440.5 325 Z " /><path fill="rgb(178,204,236)" stroke="rgb(178,204,236)" stroke-width="1" opacity="0.9568627450980393" d="M 53.5 326 L 52.5 328 L 53.5 326 Z " /><path fill="rgb(178,204,236)" stroke="rgb(178,204,236)" stroke-width="1" opacity="0.9568627450980393" d="M 187.5 332 L 188 350.5 L 187 350.5 L 187.5 332 Z " /><path fill="rgb(178,204,236)" stroke="rgb(178,204,236)" stroke-width="1" opacity="0.9568627450980393" d="M 119.5 350 L 120 352.5 L 119 352.5 L 119.5 350 Z " /><path fill="rgb(178,204,236)" stroke="rgb(178,204,236)" stroke-width="1" opacity="0.9568627450980393" d="M 189.5 355 L 190.5 357 L 189.5 355 Z " /><path fill="rgb(178,204,236)" stroke="rgb(178,204,236)" stroke-width="1" opacity="0.9568627450980393" d="M 240.5 363 L 241 365.5 L 240 365.5 L 240.5 363 Z " /><path fill="rgb(178,204,236)" stroke="rgb(178,204,236)" stroke-width="1" opacity="0.9568627450980393" d="M 239.5 371 L 240 374.5 L 239 374.5 L 239.5 371 Z " /><path fill="rgb(178,204,236)" stroke="rgb(178,204,236)" stroke-width="1" opacity="0.9568627450980393" d="M 273.5 373 L 274 376.5 L 273 376.5 L 273.5 373 Z " /><path fill="rgb(178,204,236)" stroke="rgb(178,204,236)" stroke-width="1" opacity="0.9568627450980393" d="M 460.5 373 L 461 375.5 L 460 375.5 L 460.5 373 Z " /><path fill="rgb(178,204,236)" stroke="rgb(178,204,236)" stroke-width="1" opacity="0.9568627450980393" d="M 273.5 391 L 274 394.5 L 273 394.5 L 273.5 391 Z " /><path fill="rgb(178,204,236)" stroke="rgb(178,204,236)" stroke-width="1" opacity="0.9568627450980393" d="M 460.5 391 L 461 394.5 L 460 394.5 L 460.5 391 Z " /><path fill="rgb(178,204,236)" stroke="rgb(178,204,236)" stroke-width="1" opacity="0.9568627450980393" d="M 239.5 394 L 240 398.5 L 239 398.5 L 239.5 394 Z " /><path fill="rgb(178,204,236)" stroke="rgb(178,204,236)" stroke-width="1" opacity="0.9568627450980393" d="M 240.5 403 L 241 405.5 L 240 405.5 L 240.5 403 Z " /><path fill="rgb(178,204,236)" stroke="rgb(178,204,236)" stroke-width="1" opacity="0.9568627450980393" d="M 435.5 448 L 431.5 453 L 435.5 448 Z " /><path fill="rgb(178,204,236)" stroke="rgb(178,204,236)" stroke-width="1" opacity="0.9568627450980393" d="M 299.5 449 L 301.5 452 L 299.5 449 Z " /><path fill="rgb(178,204,236)" stroke="rgb(178,204,236)" stroke-width="1" opacity="0.9568627450980393" d="M 425.5 457 L 424.5 459 L 425.5 457 Z " /><path fill="rgb(178,204,236)" stroke="rgb(178,204,236)" stroke-width="1" opacity="0.9568627450980393" d="M 356.5 477 L 359 477.5 L 356.5 478 L 356.5 477 Z " /><path fill="rgb(178,204,236)" stroke="rgb(178,204,236)" stroke-width="1" opacity="0.9568627450980393" d="M 375.5 477 L 378 477.5 L 375.5 478 L 375.5 477 Z " /><path fill="rgb(211,220,250)" stroke="rgb(211,220,250)" stroke-width="1" opacity="0.9921568627450981" d="M 137.5 0 L 140 0.5 L 137.5 1 L 137.5 0 Z " /><path fill="rgb(211,220,250)" stroke="rgb(211,220,250)" stroke-width="1" opacity="0.9921568627450981" d="M 333.5 0 L 336 0.5 L 333.5 1 L 333.5 0 Z " /><path fill="rgb(211,220,250)" stroke="rgb(211,220,250)" stroke-width="1" opacity="0.9921568627450981" d="M 153.5 4 L 157.5 9 L 153.5 4 Z " /><path fill="rgb(211,220,250)" stroke="rgb(211,220,250)" stroke-width="1" opacity="0.9921568627450981" d="M 460.5 154 L 461 295.5 L 460 295.5 L 460.5 154 Z " /><path fill="rgb(211,220,250)" stroke="rgb(211,220,250)" stroke-width="1" opacity="0.9921568627450981" d="M 17.5 364 L 18 399.5 Q 21.5 413 31.5 420 L 45.5 426 L 246 426.5 L 45.5 427 Q 31.5 424 24 414.5 Q 18.7 408.8 17 399.5 L 17.5 364 Z " /><path fill="rgb(211,220,251)" stroke="rgb(211,220,251)" stroke-width="1" opacity="1" d="M 140.5 0 Q 153.9 1.1 159 10.5 L 162 19.5 L 162 69.5 Q 159.9 76.9 154.5 81 Q 149.3 85.3 140.5 86 Q 139.2 83.8 134.5 85 L 129 81.5 L 134 77.5 L 138 69.5 L 138 15.5 L 130 3 L 140.5 0 Z " /><path fill="rgb(211,220,251)" stroke="rgb(211,220,251)" stroke-width="1" opacity="1" d="M 336.5 0 L 343.5 1 L 354 8.5 L 358 17.5 L 359 64.5 Q 356.8 65.8 358 70.5 L 355 76.5 L 349.5 82 L 343.5 85 L 336.5 86 L 328.5 84 L 325 81.5 L 331 76.5 L 335 66.5 L 335 18.5 Q 333.1 9.9 327.5 5 Q 324.9 5.7 326 3 L 336.5 0 Z " /><path fill="rgb(211,220,251)" stroke="rgb(211,220,251)" stroke-width="1" opacity="1" d="M 119.5 35 L 120 60.5 L 119 60.5 L 119.5 35 Z " /><path fill="rgb(211,220,251)" stroke="rgb(211,220,251)" stroke-width="1" opacity="1" d="M 124.5 77 L 127.5 81 L 124.5 77 Z " /><path fill="rgb(211,220,251)" stroke="rgb(211,220,251)" stroke-width="1" opacity="1" d="M 321.5 78 L 322.5 80 L 321.5 78 Z " /><path fill="rgb(211,220,251)" stroke="rgb(211,220,251)" stroke-width="1" opacity="1" d="M 437 154 L 459.5 154 L 460 154.5 L 460 294.5 L 450.5 286 L 437 277 L 437 154 Z " /><path fill="rgb(211,220,251)" stroke="rgb(211,220,251)" stroke-width="1" opacity="1" d="M 258.5 189 L 257.5 191 L 258.5 189 Z " /><path fill="rgb(211,220,251)" stroke="rgb(211,220,251)" stroke-width="1" opacity="1" d="M 83.5 219 L 82.5 221 L 83.5 219 Z " /><path fill="rgb(211,220,251)" stroke="rgb(211,220,251)" stroke-width="1" opacity="1" d="M 356.5 219 L 355.5 221 L 356.5 219 Z " /><path fill="rgb(211,220,251)" stroke="rgb(211,220,251)" stroke-width="1" opacity="1" d="M 394.5 219 L 395.5 221 L 394.5 219 Z " /><path fill="rgb(211,220,251)" stroke="rgb(211,220,251)" stroke-width="1" opacity="1" d="M 190.5 257 L 189.5 259 L 190.5 257 Z " /><path fill="rgb(211,220,251)" stroke="rgb(211,220,251)" stroke-width="1" opacity="1" d="M 292.5 279 L 291.5 281 L 292.5 279 Z " /><path fill="rgb(211,220,251)" stroke="rgb(211,220,251)" stroke-width="1" opacity="1" d="M 189.5 287 L 190.5 289 L 189.5 287 Z " /><path fill="rgb(211,220,251)" stroke="rgb(211,220,251)" stroke-width="1" opacity="1" d="M 359 290 L 382.5 291 L 405.5 298 Q 426.3 307.7 440 324.5 Q 452 339 458 359.5 L 461 376.5 L 461 390.5 L 460 391.5 L 460 399.5 L 458 408.5 L 450 428.5 Q 440.9 445.4 426.5 457 Q 412.1 469.1 391.5 475 L 374.5 478 L 359 478 Q 357.6 474.3 363.5 476 Q 398.4 467.4 417 442.5 Q 428.2 428.7 434 409.5 L 437 394.5 L 437 373.5 L 431 349.5 L 424 335.5 L 411 318 L 391.5 303 L 374.5 295 L 359 292 L 359 290 Z " /><path fill="rgb(211,220,251)" stroke="rgb(211,220,251)" stroke-width="1" opacity="1" d="M 271.5 298 L 269.5 301 L 271.5 298 Z " /><path fill="rgb(211,220,251)" stroke="rgb(211,220,251)" stroke-width="1" opacity="1" d="M 266.5 304 L 265.5 306 L 266.5 304 Z " /><path fill="rgb(211,220,251)" stroke="rgb(211,220,251)" stroke-width="1" opacity="1" d="M 307.5 311 L 305.5 314 L 307.5 311 Z " /><path fill="rgb(211,220,251)" stroke="rgb(211,220,251)" stroke-width="1" opacity="1" d="M 372.5 318 L 373.5 320 L 372.5 318 Z " /><path fill="rgb(211,220,251)" stroke="rgb(211,220,251)" stroke-width="1" opacity="1" d="M 296.5 322 L 294.5 325 L 296.5 322 Z " /><path fill="rgb(211,220,251)" stroke="rgb(211,220,251)" stroke-width="1" opacity="1" d="M 122.5 325 L 121.5 327 L 122.5 325 Z " /><path fill="rgb(211,220,251)" stroke="rgb(211,220,251)" stroke-width="1" opacity="1" d="M 18.5 368 Q 21.5 379 29.5 385 L 37.5 390 L 50.5 393 L 239 393 Q 239.5 411.8 246 425.5 L 45.5 426 Q 31.1 422.9 24 412.5 L 18 399.5 L 18.5 368 Z " /><path fill="rgb(211,220,251)" stroke="rgb(211,220,251)" stroke-width="1" opacity="1" d="M 273.5 377 L 274 382.5 L 273 382.5 L 273.5 377 Z " /><path fill="rgb(211,220,251)" stroke="rgb(211,220,251)" stroke-width="1" opacity="1" d="M 273.5 385 L 274 390.5 L 273 390.5 L 273.5 385 Z " /><path fill="rgb(211,220,251)" stroke="rgb(211,220,251)" stroke-width="1" opacity="1" d="M 294.5 443 L 296.5 446 L 294.5 443 Z " /><path fill="rgb(211,220,251)" stroke="rgb(211,220,251)" stroke-width="1" opacity="1" d="M 305.5 454 L 307.5 457 L 305.5 454 Z " /></svg>