<svg xmlns="http://www.w3.org/2000/svg" width="24" height="24" viewBox="0 0 24 24">
  <title>Tag-question-mark SVG Icon</title>
  <g fill="none" stroke="#1e3a8a" stroke-linecap="round" stroke-width="1.5">
    <path stroke-linejoin="round" d="M21.25 12v3.38a3.38 3.38 0 0 1-3.38 3.382H8.661a3.38 3.38 0 0 1-2.389-.992L3.22 13.6a2.964 2.964 0 0 1 0-3.2l3.054-4.17a3.38 3.38 0 0 1 2.39-.992h9.206a3.38 3.38 0 0 1 3.38 3.382z"/>
    <path stroke-miterlimit="10" d="M10.911 9.543a1.9 1.9 0 0 1 2.07-1.076a1.842 1.842 0 0 1 1.351.962a1.598 1.598 0 0 1-.931 2.2a1.18 1.18 0 0 0-.761 1.066v.44"/>
    <path stroke-linejoin="round" d="M12.606 15.565h.004"/>
  </g>
</svg>