<svg width="512" height="512" version="1.1" xmlns="http://www.w3.org/2000/svg" desc="Created with imagetracer.js version 1.2.6" ><path fill="rgb(32,150,243)" stroke="rgb(32,150,243)" stroke-width="1" opacity="0.4549019607843137" d="M 283.5 0 L 289 0.5 L 283.5 1 L 283.5 0 Z " /><path fill="rgb(32,150,243)" stroke="rgb(32,150,243)" stroke-width="1" opacity="0.4549019607843137" d="M 290.5 1 Q 315.5 6 328 23.5 L 337 39.5 L 336 39.5 Q 330 23.5 317.5 14 L 302.5 5 L 290.5 2 L 290.5 1 Z " /><path fill="rgb(32,150,243)" stroke="rgb(32,150,243)" stroke-width="1" opacity="0.4549019607843137" d="M 337.5 41 L 339 45.5 L 338 45.5 L 337.5 41 Z " /><path fill="rgb(32,150,243)" stroke="rgb(32,150,243)" stroke-width="1" opacity="0.4549019607843137" d="M 339.5 47 L 340 49.5 L 339 49.5 L 339.5 47 Z " /><path fill="rgb(32,150,243)" stroke="rgb(32,150,243)" stroke-width="1" opacity="0.4549019607843137" d="M 340.5 51 L 341 54.5 L 340 54.5 L 340.5 51 Z " /><path fill="rgb(32,150,243)" stroke="rgb(32,150,243)" stroke-width="1" opacity="0.4549019607843137" d="M 341.5 57 L 342 150 L 292 149.5 L 341 149 L 341.5 57 Z " /><path fill="rgb(32,150,243)" stroke="rgb(32,150,243)" stroke-width="1" opacity="0.4549019607843137" d="M 285.5 150 L 290 150.5 Q 262.8 155.3 249 173.5 Q 242.3 181.8 238.5 193 L 238 191.5 Q 244.6 173.6 258.5 163 Q 269.2 153.7 285.5 150 Z " /><path fill="rgb(32,150,243)" stroke="rgb(32,150,243)" stroke-width="1" opacity="0.4549019607843137" d="M 237.5 194 L 238 196.5 L 236.5 201 L 236 197.5 L 237.5 194 Z " /><path fill="rgb(32,150,243)" stroke="rgb(32,150,243)" stroke-width="1" opacity="0.4549019607843137" d="M 235.5 202 L 236 206.5 L 235 206.5 L 235.5 202 Z " /><path fill="rgb(32,150,243)" stroke="rgb(32,150,243)" stroke-width="1" opacity="0.4549019607843137" d="M 234.5 211 L 235 215.5 L 234 215.5 L 234.5 211 Z " /><path fill="rgb(32,150,243)" stroke="rgb(32,150,243)" stroke-width="1" opacity="0.4549019607843137" d="M 235.5 220 L 236 224.5 L 235 224.5 L 235.5 220 Z " /><path fill="rgb(32,150,243)" stroke="rgb(32,150,243)" stroke-width="1" opacity="0.4549019607843137" d="M 236.5 226 L 237 228.5 L 236 228.5 L 236.5 226 Z " /><path fill="rgb(32,150,243)" stroke="rgb(32,150,243)" stroke-width="1" opacity="0.4549019607843137" d="M 237.5 230 L 241 239.5 L 240 239.5 L 237 232.5 L 237.5 230 Z " /><path fill="rgb(32,150,243)" stroke="rgb(32,150,243)" stroke-width="1" opacity="0.4549019607843137" d="M 241.5 241 Q 246.8 252.2 255.5 260 L 269 269.5 L 267.5 269 Q 256.8 264.2 250 255.5 L 241 242.5 L 241.5 241 Z " /><path fill="rgb(32,150,243)" stroke="rgb(32,150,243)" stroke-width="1" opacity="0.4549019607843137" d="M 272.5 271 L 282 274.5 L 279.5 275 L 272.5 272 L 272.5 271 Z " /><path fill="rgb(32,150,243)" stroke="rgb(32,150,243)" stroke-width="1" opacity="0.4549019607843137" d="M 283.5 275 L 286 275.5 L 283.5 276 L 283.5 275 Z " /><path fill="rgb(32,150,243)" stroke="rgb(32,150,243)" stroke-width="1" opacity="0.4549019607843137" d="M 287.5 276 L 292 276.5 L 287.5 277 L 287.5 276 Z " /><path fill="rgb(32,150,243)" stroke="rgb(32,150,243)" stroke-width="1" opacity="0.4549019607843137" d="M 297.5 277 L 342 277 L 342 390.5 L 341 390.5 L 341 278 L 297.5 278 L 297.5 277 Z " /><path fill="rgb(32,150,243)" stroke="rgb(32,150,243)" stroke-width="1" opacity="0.4549019607843137" d="M 340.5 393 L 341 396.5 L 340 396.5 L 340.5 393 Z " /><path fill="rgb(32,150,243)" stroke="rgb(32,150,243)" stroke-width="1" opacity="0.4549019607843137" d="M 339.5 398 L 340 400.5 L 339 400.5 L 339.5 398 Z " /><path fill="rgb(32,150,243)" stroke="rgb(32,150,243)" stroke-width="1" opacity="0.4549019607843137" d="M 338.5 402 L 339 404.5 L 337.5 407 L 337 405.5 L 338.5 402 Z " /><path fill="rgb(32,150,243)" stroke="rgb(32,150,243)" stroke-width="1" opacity="0.4549019607843137" d="M 336.5 408 L 337 409.5 Q 330.1 425.1 317.5 435 L 302.5 444 L 290.5 447 L 290.5 446 Q 314.7 441.2 327 424.5 L 336.5 408 Z " /><path fill="rgb(32,150,243)" stroke="rgb(32,150,243)" stroke-width="1" opacity="0.4549019607843137" d="M 283.5 447 L 289 447.5 L 283.5 448 L 283.5 447 Z " /><path fill="rgb(0,0,0)" stroke="rgb(0,0,0)" stroke-width="1" opacity="0" d="M 0 0 L 34 0.5 Q 16.8 4.3 8 16.5 Q 2.4 22.9 0.5 33 L 0 0 Z " /><path fill="rgb(0,0,0)" stroke="rgb(0,0,0)" stroke-width="1" opacity="0" d="M 289.5 0 L 512 0 L 512 206.5 L 511 206.5 L 508 199.5 L 418.5 110 Q 412.9 105.6 402.5 106 Q 391.7 107.7 387 115.5 L 384 121.5 L 384 192 L 292.5 192 L 282 198.5 L 277 208.5 L 277 218.5 Q 279.4 227.5 286.5 232 L 293.5 235 L 384 235 L 384 304.5 Q 386.1 311.9 391.5 316 Q 397.5 322 411.5 320 L 420.5 315 L 507 228.5 L 511.5 220 L 512 512 L 180 511.5 Q 195.6 508.1 204 497.5 L 213 479.5 L 214 474.5 L 214 448 L 288.5 448 L 293.5 447 Q 315.6 440.6 328 424.5 L 337 409.5 L 342 390.5 L 342 277 L 292.5 277 Q 291.3 274.8 286.5 276 Q 264.5 271 252 256.5 Q 243.7 247.8 239 235.5 L 235 219.5 L 235 207.5 L 238 193.5 L 243 182.5 Q 249 171.5 258.5 164 Q 270.8 153.3 290.5 150 L 342 150 L 342 57.5 Q 339.7 56.2 341 51.5 Q 335.3 26.2 317.5 13 L 302.5 4 L 293.5 1 L 289.5 1 L 289.5 0 Z " /><path fill="rgb(0,0,0)" stroke="rgb(0,0,0)" stroke-width="1" opacity="0" d="M 0.5 436 Q 3.9 451.6 14.5 460 L 28.5 468 L 161 511.5 L 0 512 L 0.5 436 Z " /><path fill="rgb(92,176,246)" stroke="rgb(92,176,246)" stroke-width="1" opacity="0.5607843137254902" d="M 34.5 0 L 39 0.5 L 34.5 1 L 34.5 0 Z " /><path fill="rgb(92,176,246)" stroke="rgb(92,176,246)" stroke-width="1" opacity="0.5607843137254902" d="M 30.5 1 L 33 1.5 L 30.5 2 L 30.5 1 Z " /><path fill="rgb(92,176,246)" stroke="rgb(92,176,246)" stroke-width="1" opacity="0.5607843137254902" d="M 27.5 2 L 29 2.5 Q 16.3 6.8 9 16.5 L 4.5 24 L 4 22.5 L 16.5 8 L 27.5 2 Z " /><path fill="rgb(92,176,246)" stroke="rgb(92,176,246)" stroke-width="1" opacity="0.5607843137254902" d="M 3.5 25 L 4 26.5 L 2.5 29 L 2 27.5 L 3.5 25 Z " /><path fill="rgb(92,176,246)" stroke="rgb(92,176,246)" stroke-width="1" opacity="0.5607843137254902" d="M 0.5 33 L 1 37.5 L 0 37.5 L 0.5 33 Z " /><path fill="rgb(92,176,246)" stroke="rgb(92,176,246)" stroke-width="1" opacity="0.5607843137254902" d="M 0.5 431 L 1 435.5 L 0 435.5 L 0.5 431 Z " /><path fill="rgb(92,176,246)" stroke="rgb(92,176,246)" stroke-width="1" opacity="0.5607843137254902" d="M 1.5 437 L 6 448.5 L 12 457 L 25 465.5 L 23.5 466 L 9 454.5 L 2 442.5 L 1.5 437 Z " /><path fill="rgb(92,176,246)" stroke="rgb(92,176,246)" stroke-width="1" opacity="0.5607843137254902" d="M 213.5 448 L 214 474.5 L 213 474.5 L 213.5 448 Z " /><path fill="rgb(92,176,246)" stroke="rgb(92,176,246)" stroke-width="1" opacity="0.5607843137254902" d="M 26.5 466 L 160 510.5 L 157.5 511 L 28.5 468 L 26.5 466 Z " /><path fill="rgb(92,176,246)" stroke="rgb(92,176,246)" stroke-width="1" opacity="0.5607843137254902" d="M 212.5 476 L 213 479.5 L 212 479.5 L 212.5 476 Z " /><path fill="rgb(92,176,246)" stroke="rgb(92,176,246)" stroke-width="1" opacity="0.5607843137254902" d="M 210.5 484 L 211 485.5 Q 207.1 495.6 199.5 502 Q 192.5 508.5 181.5 511 L 181.5 510 Q 197.9 505.9 206 493.5 L 210.5 484 Z " /><path fill="rgb(92,176,246)" stroke="rgb(92,176,246)" stroke-width="1" opacity="0.5607843137254902" d="M 161.5 511 L 166 511.5 L 161.5 512 L 161.5 511 Z " /><path fill="rgb(92,176,246)" stroke="rgb(92,176,246)" stroke-width="1" opacity="0.5607843137254902" d="M 175.5 511 L 180 511.5 L 175.5 512 L 175.5 511 Z " /><path fill="rgb(100,181,246)" stroke="rgb(100,181,246)" stroke-width="1" opacity="0.996078431372549" d="M 39.5 0 L 48 0.5 L 39.5 1 L 39.5 0 Z " /><path fill="rgb(100,181,246)" stroke="rgb(100,181,246)" stroke-width="1" opacity="0.996078431372549" d="M 16.5 9 L 9.5 17 L 16.5 9 Z " /><path fill="rgb(100,181,246)" stroke="rgb(100,181,246)" stroke-width="1" opacity="0.996078431372549" d="M 0.5 38 L 1 42.5 L 0 42.5 L 0.5 38 Z " /><path fill="rgb(100,181,246)" stroke="rgb(100,181,246)" stroke-width="1" opacity="0.996078431372549" d="M 0.5 426 L 1 430.5 L 0 430.5 L 0.5 426 Z " /><path fill="rgb(100,181,246)" stroke="rgb(100,181,246)" stroke-width="1" opacity="0.996078431372549" d="M 8.5 451 L 9.5 453 L 8.5 451 Z " /><path fill="rgb(100,181,246)" stroke="rgb(100,181,246)" stroke-width="1" opacity="0.996078431372549" d="M 17.5 460 L 18.5 462 L 17.5 460 Z " /><path fill="rgb(100,181,246)" stroke="rgb(100,181,246)" stroke-width="1" opacity="0.996078431372549" d="M 205.5 493 L 203.5 496 L 205.5 493 Z " /><path fill="rgb(100,181,246)" stroke="rgb(100,181,246)" stroke-width="1" opacity="0.996078431372549" d="M 196.5 502 L 195.5 504 L 196.5 502 Z " /><path fill="rgb(100,181,246)" stroke="rgb(100,181,246)" stroke-width="1" opacity="0.996078431372549" d="M 166.5 511 L 170 511.5 L 166.5 512 L 166.5 511 Z " /><path fill="rgb(100,181,246)" stroke="rgb(100,181,246)" stroke-width="1" opacity="0.996078431372549" d="M 171.5 511 L 175 511.5 L 171.5 512 L 171.5 511 Z " /><path fill="rgb(100,181,246)" stroke="rgb(100,181,246)" stroke-width="1" opacity="1" d="M 48.5 0 L 188.5 46 Q 198.5 51 205 59.5 Q 210.7 66.8 213 77.5 L 213 473.5 L 209 487.5 L 197.5 502 L 185.5 509 L 170.5 512 L 169.5 511 L 158.5 510 L 26.5 466 Q 16.4 461.6 10 453.5 L 3 441.5 L 0 425.5 L 0 43.5 L 1 42.5 L 2 30.5 L 6 21.5 L 18.5 8 L 31.5 2 L 47.5 1 L 48.5 0 Z " /><path fill="rgb(99,124,138)" stroke="rgb(99,124,138)" stroke-width="1" opacity="0.48627450980392156" d="M 402.5 106 L 409 106.5 L 402.5 107 L 402.5 106 Z " /><path fill="rgb(99,124,138)" stroke="rgb(99,124,138)" stroke-width="1" opacity="0.48627450980392156" d="M 410.5 107 L 418.5 110 L 508 199.5 L 511 205.5 L 510 205.5 L 507 199.5 L 419.5 112 L 410.5 108 L 410.5 107 Z " /><path fill="rgb(99,124,138)" stroke="rgb(99,124,138)" stroke-width="1" opacity="0.48627450980392156" d="M 395.5 108 L 397 108.5 L 388 115.5 L 386.5 118 L 387 116.5 L 392.5 110 L 395.5 108 Z " /><path fill="rgb(99,124,138)" stroke="rgb(99,124,138)" stroke-width="1" opacity="0.48627450980392156" d="M 385.5 119 L 386 120.5 L 384.5 125 L 384 121.5 L 385.5 119 Z " /><path fill="rgb(99,124,138)" stroke="rgb(99,124,138)" stroke-width="1" opacity="0.48627450980392156" d="M 292.5 192 L 295 192.5 L 292.5 193 L 292.5 192 Z " /><path fill="rgb(99,124,138)" stroke="rgb(99,124,138)" stroke-width="1" opacity="0.48627450980392156" d="M 289.5 193 L 291 193.5 Q 284.2 195.7 281 201.5 L 279.5 204 L 280 202.5 L 283.5 197 L 289.5 193 Z " /><path fill="rgb(99,124,138)" stroke="rgb(99,124,138)" stroke-width="1" opacity="0.48627450980392156" d="M 511.5 207 L 512 209.5 L 511 209.5 L 511.5 207 Z " /><path fill="rgb(99,124,138)" stroke="rgb(99,124,138)" stroke-width="1" opacity="0.48627450980392156" d="M 277.5 208 L 278 218.5 L 277 218.5 L 277.5 208 Z " /><path fill="rgb(99,124,138)" stroke="rgb(99,124,138)" stroke-width="1" opacity="0.48627450980392156" d="M 511.5 216 L 512 219.5 L 507 228.5 L 420.5 315 L 417.5 317 L 509 224.5 L 511.5 216 Z " /><path fill="rgb(99,124,138)" stroke="rgb(99,124,138)" stroke-width="1" opacity="0.48627450980392156" d="M 278.5 220 Q 280.7 227.3 286.5 231 L 292 233.5 L 290.5 234 L 280 225.5 L 278.5 220 Z " /><path fill="rgb(99,124,138)" stroke="rgb(99,124,138)" stroke-width="1" opacity="0.48627450980392156" d="M 293.5 234 L 384 234.5 L 293.5 235 L 293.5 234 Z " /><path fill="rgb(99,124,138)" stroke="rgb(99,124,138)" stroke-width="1" opacity="0.48627450980392156" d="M 384.5 302 L 385 304.5 L 384 304.5 L 384.5 302 Z " /><path fill="rgb(99,124,138)" stroke="rgb(99,124,138)" stroke-width="1" opacity="0.48627450980392156" d="M 385.5 306 L 391.5 315 L 398 318.5 L 396.5 319 L 388 312.5 L 385 307.5 L 385.5 306 Z " /><path fill="rgb(99,124,138)" stroke="rgb(99,124,138)" stroke-width="1" opacity="0.48627450980392156" d="M 415.5 317 L 414.5 319 L 408.5 320 L 408.5 319 L 415.5 317 Z " /><path fill="rgb(99,124,138)" stroke="rgb(99,124,138)" stroke-width="1" opacity="0.48627450980392156" d="M 399.5 319 L 402 319.5 L 399.5 320 L 399.5 319 Z " /><path fill="rgb(33,150,243)" stroke="rgb(33,150,243)" stroke-width="1" opacity="0.996078431372549" d="M 49.5 0 L 282.5 0 L 293.5 2 L 308.5 8 Q 319.4 14 327 23.5 Q 337.7 35.8 341 55.5 L 341 149 L 292.5 149 L 281.5 151 Q 260.3 157.8 248 173.5 Q 234.9 188.4 234 215.5 L 237 232.5 L 241 242.5 Q 247.6 254.4 257.5 263 Q 269.1 273.4 287.5 277 L 296.5 277 L 297.5 278 L 341 278 L 341 392.5 Q 335.8 419.8 317.5 434 L 302.5 443 L 282.5 448 L 213 448 L 213 77.5 Q 208.9 60.1 196.5 51 L 180.5 43 L 177.5 43 L 174.5 41 L 171.5 41 L 168.5 39 L 162.5 38 L 159.5 36 L 153.5 35 L 150.5 33 L 147.5 33 L 144.5 31 L 132.5 28 L 129.5 26 L 120.5 24 L 63.5 4 L 49.5 1 L 49.5 0 Z " /><path fill="rgb(96,124,138)" stroke="rgb(96,124,138)" stroke-width="1" opacity="0.996078431372549" d="M 400.5 107 L 409.5 107 L 419.5 112 L 507 199.5 Q 512.3 204.7 512 215.5 L 509 224.5 L 416.5 317 L 407.5 320 L 402.5 320 Q 393.9 318.1 389 312.5 L 384 301.5 L 384 234 L 292.5 234 Q 285.1 231.4 281 225.5 Q 276 220 278 207.5 Q 280.9 199.4 287.5 195 L 295.5 192 L 384 192 L 384 125.5 Q 385.5 115.5 392.5 111 L 400.5 107 Z " /></svg>