<?xml version="1.0" encoding="UTF-8"?>
<svg version="1.1" xmlns="http://www.w3.org/2000/svg" width="512" height="512">
<path d="M0 0 C1.41952217 -0.01058945 1.41952217 -0.01058945 2.86772156 -0.02139282 C42.38370862 -0.24928599 42.38370862 -0.24928599 58.8671875 3.203125 C59.84204102 3.40180176 60.81689453 3.60047852 61.82128906 3.80517578 C110.2031649 13.92579694 154.19147019 35.8423127 189.8671875 70.203125 C190.8562207 71.15131104 190.8562207 71.15131104 191.86523438 72.11865234 C201.35349055 81.26309979 210.0933919 90.56046509 217.8671875 101.203125 C218.72524902 102.35417517 219.58332201 103.50521677 220.44140625 104.65625 C226.47955579 112.84743114 231.83814271 121.36116605 236.8671875 130.203125 C237.23166992 130.83492676 237.59615234 131.46672852 237.97167969 132.11767578 C259.57753748 169.86595072 269.34416845 212.63252497 269.1796875 255.828125 C269.17753235 256.84603119 269.1753772 257.86393738 269.17315674 258.91268921 C269.12348604 273.52176023 268.87258941 287.85388353 265.8671875 302.203125 C265.56917236 303.66540527 265.56917236 303.66540527 265.26513672 305.15722656 C255.14451556 353.5391024 233.2279998 397.52740769 198.8671875 433.203125 C198.23506348 433.86248047 197.60293945 434.52183594 196.95166016 435.20117188 C187.80721271 444.68942805 178.50984741 453.4293294 167.8671875 461.203125 C166.71613733 462.06118652 165.56509573 462.91925951 164.4140625 463.77734375 C156.22287893 469.81604074 147.71721401 475.1869759 138.8671875 480.203125 C138.17592773 480.59999512 137.48466797 480.99686523 136.77246094 481.40576172 C99.00965119 502.8956135 56.24916069 512.66819404 13.0546875 512.578125 C12.06884674 512.57758118 11.08300598 512.57703735 10.06729126 512.57647705 C-61.58086164 512.39542484 -124.36322738 482.25544087 -174.41040039 432.10888672 C-179.69450908 426.74395402 -184.58483362 421.21146407 -189.1328125 415.203125 C-189.75567139 414.39488281 -189.75567139 414.39488281 -190.39111328 413.5703125 C-214.89196365 381.70044953 -231.38423384 345.14731259 -239.4453125 305.765625 C-239.59266846 305.04673096 -239.74002441 304.32783691 -239.8918457 303.5871582 C-242.86570338 287.94086891 -243.50581612 272.46744454 -243.4453125 256.578125 C-243.44315735 255.56021881 -243.4410022 254.54231262 -243.43878174 253.49356079 C-243.38911104 238.88448977 -243.13821441 224.55236647 -240.1328125 210.203125 C-239.93413574 209.22827148 -239.73545898 208.25341797 -239.53076172 207.24902344 C-230.47951324 163.97930976 -212.09510579 123.77793166 -183.1328125 90.203125 C-182.49859375 89.45804687 -181.864375 88.71296875 -181.2109375 87.9453125 C-169.39979735 74.44032667 -156.64921022 61.76893757 -142.1328125 51.203125 C-140.98286419 50.34663434 -139.83312661 49.48986067 -138.68359375 48.6328125 C-130.49191794 42.59163836 -121.9844275 37.22017444 -113.1328125 32.203125 C-112.09592285 31.60781982 -112.09592285 31.60781982 -111.03808594 31.00048828 C-82.79263031 14.92671997 -51.2702171 5.40340388 -19.1328125 1.203125 C-18.48144318 1.11724121 -17.83007385 1.03135742 -17.15896606 0.94287109 C-11.42742775 0.23974821 -5.77120175 0.02864185 0 0 Z " fill="#C7DFFD" transform="translate(243.1328125,-0.203125)"/>
<path d="M0 0 C0 4.50874546 -1.99944452 8.15655477 -3.7109375 12.28515625 C-17.97124897 53.38078113 1.63888688 104.71520674 17 143 C18.37665013 139.00589101 19.54811804 135.02522993 20.55078125 130.921875 C20.83501953 129.76888916 21.11925781 128.61590332 21.41210938 127.42797852 C21.70923828 126.21424561 22.00636719 125.0005127 22.3125 123.75 C24.56700375 114.57950936 26.86528426 105.44059327 29.6652832 96.41894531 C30.80942027 92.54942121 31.49323516 89.80205258 30 86 C28.29681805 83.47414484 26.39161922 81.14719675 24.4375 78.8125 C19 72.24302974 19 72.24302974 19 70 C20.6953125 68.4765625 20.6953125 68.4765625 23.125 66.625 C26.3937701 64.10231152 29.5459084 61.54304505 32.60546875 58.76953125 C33.52658447 57.94364502 33.52658447 57.94364502 34.46630859 57.10107422 C35.6842237 56.00362995 36.89191927 54.89472258 38.08837891 53.77392578 C42.26677404 50.04589659 42.26677404 50.04589659 45.55859375 49.83984375 C48.83086848 51.3948287 51.20221439 53.60999535 53.75 56.125 C54.79953845 57.12637201 55.85164457 58.12505948 56.90625 59.12109375 C57.42445313 59.61077637 57.94265625 60.10045898 58.4765625 60.60498047 C61.79199882 63.64094251 65.38928653 66.32843675 69 69 C67.36229236 74.17020494 63.99773717 77.7579716 60.28125 81.56835938 C58.07740631 84.14900968 57.01063905 85.98274323 56.97460938 89.42773438 C57.45959231 92.68600003 58.18896763 95.80618537 59 99 C59.17349976 99.70597321 59.34699951 100.41194641 59.52575684 101.13931274 C60.73230602 106.04521809 62.00651002 110.93100585 63.31347656 115.81103516 C64.00386676 118.38944121 64.68617827 120.96988328 65.3671875 123.55078125 C65.80682819 125.20845632 66.24691639 126.86601279 66.6875 128.5234375 C66.99071167 129.66732437 66.99071167 129.66732437 67.30004883 130.83432007 C68.40189328 134.94118964 69.60759871 138.97936181 71 143 C86.17943552 104.63653916 106.24971345 51.23070674 91 10 C89.77319027 7.25275066 88.43041624 4.64891896 87 2 C87.33 1.34 87.66 0.68 88 0 C88.60419769 0.30431946 89.20839539 0.60863892 89.8309021 0.92218018 C96.15579436 4.10685863 102.48356454 7.28576335 108.81298828 10.46142578 C111.17049279 11.64518713 113.52727531 12.83038752 115.88330078 14.01708984 C119.28226043 15.7287858 122.68383727 17.43518135 126.0859375 19.140625 C127.12801361 19.66682434 128.17008972 20.19302368 129.2437439 20.73516846 C138.44305927 25.33552078 147.69695671 29.04058028 157.5234375 32.05859375 C159.30471142 32.61515783 161.08596066 33.1718009 162.8671875 33.72851562 C165.61987072 34.58364925 168.37311664 35.43691771 171.12695312 36.28833008 C193.47366194 43.21077821 213.40083374 49.85968663 225.05395508 71.89501953 C231.21602252 85.60581835 233.4069181 102.27923182 230 117 C226.19209365 124.4439413 219.60901324 129.16087738 213 134 C211.74038016 135.02633359 210.48840358 136.06215532 209.24609375 137.109375 C205.92466527 139.87544309 202.48945615 142.45117113 199 145 C197.84894983 145.85806152 196.69790823 146.71613451 195.546875 147.57421875 C187.35569143 153.61291574 178.85002651 158.9838509 170 164 C169.30874023 164.39687012 168.61748047 164.79374023 167.90527344 165.20263672 C130.14246369 186.6924885 87.38197319 196.46506904 44.1875 196.375 C43.20165924 196.37445618 42.21581848 196.37391235 41.20010376 196.37335205 C-22.03943587 196.21354809 -85.95829641 172.38803298 -131.36083984 127.54272461 C-133.06774663 125.89337812 -133.06774663 125.89337812 -135.33056641 124.14672852 C-138.99543048 121.01227679 -141.60334799 118.62691563 -142.76879883 113.84667969 C-142.9947251 110.25335175 -142.9344669 106.78268312 -142.75 103.1875 C-142.73453125 101.99318359 -142.7190625 100.79886719 -142.703125 99.56835938 C-142.20559678 80.52753995 -135.66584261 65.98632558 -122 53 C-116.46785406 47.96383956 -110.45349543 45.23236672 -103.5078125 42.71484375 C-102.68117096 42.41289093 -101.85452942 42.11093811 -101.00283813 41.79983521 C-90.3291905 37.96173628 -79.45183945 34.7677196 -68.57958984 31.546875 C-65.8497296 30.73561813 -63.12399268 29.91152373 -60.3984375 29.0859375 C-59.58579437 28.84934418 -58.77315125 28.61275085 -57.93588257 28.36898804 C-53.01043359 26.86834342 -48.74565451 24.90591844 -44.29705811 22.31988525 C-40.26935552 20.00557495 -36.0920802 17.98490862 -31.93359375 15.91796875 C-31.01409439 15.45892654 -30.09459503 14.99988434 -29.14723206 14.52693176 C-26.24493166 13.07855334 -23.34124454 11.63298061 -20.4375 10.1875 C-18.4549853 9.1987538 -16.47256255 8.20982324 -14.49023438 7.22070312 C-9.66121634 4.81167111 -4.83106034 2.40493353 0 0 Z " fill="#375E7D" transform="translate(212,316)"/>
<path d="M0 0 C3.49010734 2.39990609 5.96431345 5.4833144 7.86328125 9.28125 C7.95714054 11.20223676 8.04617646 13.123676 8.10205078 15.04614258 C8.21516583 25.86233561 8.21516583 25.86233561 12.86328125 35.28125 C18.69844526 39.57882139 23.68374253 39.92422686 30.80078125 40.03125 C31.77080078 40.06089844 32.74082031 40.09054688 33.74023438 40.12109375 C36.11466423 40.19127394 38.48814211 40.24422324 40.86328125 40.28125 C40.93768255 44.60453804 40.99200093 48.92748255 41.02807617 53.2512207 C41.04312191 54.72068782 41.06356363 56.19011034 41.08959961 57.65942383 C41.1261708 59.7769677 41.14304926 61.89391565 41.15625 64.01171875 C41.17981567 65.92053833 41.17981567 65.92053833 41.20385742 67.86791992 C40.8363365 71.55129624 40.08349997 73.35791296 37.86328125 76.28125 C34.78719947 78.67375805 32.69408862 80.15891601 28.8125 80.73046875 C25.74280497 81.93741482 25.74280497 81.93741482 25.04077148 84.33764648 C24.41222699 87.18354889 23.93417167 90.02609436 23.48828125 92.90625 C19.76112702 112.95662791 9.62747701 130.94826433 -7.01171875 143.28125 C-10.13671875 145.28125 -10.13671875 145.28125 -12.13671875 145.28125 C-12.09228282 149.83516635 -12.02216047 154.3877332 -11.92919922 158.94091797 C-11.90114088 160.48670657 -11.87985169 162.03263461 -11.86572266 163.57861328 C-11.75332252 175.46872212 -11.75332252 175.46872212 -7.13671875 186.28125 C7.99474269 226.11809137 -10.83222484 282.15655676 -27.13671875 319.28125 C-27.79671875 319.94125 -28.45671875 320.60125 -29.13671875 321.28125 C-29.35287842 320.4061377 -29.56903809 319.53102539 -29.79174805 318.62939453 C-30.79993115 314.55435323 -31.81117994 310.48008645 -32.82421875 306.40625 C-33.09674973 305.3092981 -33.09674973 305.3092981 -33.37478638 304.19018555 C-35.66013867 295.00474699 -37.97006214 285.83490837 -40.67651367 276.76220703 C-41.20557006 274.94702467 -41.67253106 273.11409409 -42.13671875 271.28125 C-42.31976563 270.63978027 -42.5028125 269.99831055 -42.69140625 269.33740234 C-43.39150021 266.16297186 -43.56456678 264.1492655 -42.10229492 261.18261719 C-40.58781783 258.98813455 -38.97490733 256.94904533 -37.26171875 254.90625 C-36.13869478 253.50310667 -35.01626962 252.09948381 -33.89453125 250.6953125 C-33.39066895 250.0863916 -32.88680664 249.4774707 -32.36767578 248.85009766 C-31.05530115 247.2853181 -31.05530115 247.2853181 -30.13671875 245.28125 C-30.70003906 245.03761719 -31.26335937 244.79398438 -31.84375 244.54296875 C-34.57011156 243.04277321 -36.5521525 241.21946738 -38.82421875 239.09375 C-42.16757615 236.04670197 -45.51584117 233.0280701 -49.01171875 230.15625 C-49.71039063 229.57617188 -50.4090625 228.99609375 -51.12890625 228.3984375 C-53.0414909 227.1076499 -53.0414909 227.1076499 -55.109375 227.3515625 C-57.79676929 228.58393213 -59.55441397 230.2459822 -61.69921875 232.28125 C-65.43451671 235.73903696 -69.21790635 239.09437993 -73.13671875 242.34375 C-74.04421875 243.09785156 -74.95171875 243.85195313 -75.88671875 244.62890625 C-78.13671875 246.28125 -78.13671875 246.28125 -80.13671875 246.28125 C-78.72107268 248.17785274 -77.3042342 250.07354517 -75.88671875 251.96875 C-75.0978125 253.02449219 -74.30890625 254.08023437 -73.49609375 255.16796875 C-71.25526553 258.26402491 -71.25526553 258.26402491 -68.77734375 260.67578125 C-66.21526534 264.74460577 -67.60792697 268.88753039 -68.60009766 273.37886047 C-69.14323021 275.57895175 -69.72285143 277.76610985 -70.31640625 279.953125 C-70.52983673 280.75679504 -70.74326721 281.56046509 -70.96316528 282.38848877 C-71.64110198 284.93741706 -72.32613192 287.4843699 -73.01171875 290.03125 C-73.68697654 292.55802109 -74.36074135 295.08518647 -75.03424072 297.61242676 C-75.4686628 299.24238711 -75.90367056 300.87219149 -76.33929443 302.50183105 C-78.00517211 308.74567713 -79.6026942 315.00354954 -81.13671875 321.28125 C-83.62319282 318.26237375 -85.00823829 315.42007274 -86.3359375 311.75 C-86.73659424 310.64398438 -87.13725098 309.53796875 -87.55004883 308.3984375 C-87.9705249 307.20476562 -88.39100098 306.01109375 -88.82421875 304.78125 C-89.15128311 303.85554199 -89.15128311 303.85554199 -89.48495483 302.91113281 C-101.62920014 268.41587884 -117.48838762 222.47048909 -103.13671875 186.28125 C-102.44578125 185.17652344 -101.75484375 184.07179688 -101.04296875 182.93359375 C-97.68691458 176.40244911 -98.45231392 168.45858207 -98.38671875 161.28125 C-98.35852192 159.72783181 -98.32858937 158.17444411 -98.296875 156.62109375 C-98.22344803 152.84120091 -98.17360709 149.06166878 -98.13671875 145.28125 C-98.90330811 144.99693115 -99.66989746 144.7126123 -100.4597168 144.41967773 C-103.85253618 142.97683991 -106.2867877 140.82739633 -108.94921875 138.34375 C-109.73752075 137.60958862 -109.73752075 137.60958862 -110.54174805 136.8605957 C-124.78167941 123.24841579 -132.50313864 105.75446515 -134.70703125 86.44140625 C-134.94921835 83.38739304 -134.94921835 83.38739304 -136.13671875 81.28125 C-138.11293605 80.82013263 -140.08925217 80.35942776 -142.06640625 79.90234375 C-145.1089125 78.98959187 -146.93895024 77.54365876 -149.13671875 75.28125 C-151.17638546 71.25924055 -151.37146407 67.92484342 -151.33203125 63.44921875 C-151.32558594 62.15693359 -151.31914062 60.86464844 -151.3125 59.53320312 C-151.29579202 58.1783827 -151.27886217 56.82356499 -151.26171875 55.46875 C-151.25167878 54.09440749 -151.24255471 52.72005797 -151.234375 51.34570312 C-151.21083117 47.99070683 -151.17794442 44.63606801 -151.13671875 41.28125 C-149.94175781 41.25546875 -148.74679688 41.2296875 -147.515625 41.203125 C-135.16143874 41.13932097 -135.16143874 41.13932097 -124.13671875 36.28125 C-119.35503092 30.78076231 -118.46718805 25.75407562 -118.57421875 18.65625 C-118.63945954 12.27268946 -118.42355057 8.41447641 -114.13671875 3.28125 C-108.56909336 -1.62356284 -105.22931955 -2.05213453 -97.9140625 -2.01171875 C-92.72834537 -1.60951732 -87.99918295 -0.29500318 -83.03515625 1.2109375 C-74.06027498 3.80119556 -65.2656931 4.64294781 -55.94921875 4.59375 C-54.85569092 4.58956055 -53.76216309 4.58537109 -52.63549805 4.58105469 C-39.89637153 4.4044746 -28.46694324 1.94411907 -16.3203125 -1.94921875 C-10.09706459 -3.45348849 -5.52715964 -3.00505767 0 0 Z " fill="#FEDCCE" transform="translate(311.13671875,139.71875)"/>
<path d="M0 0 C2.06782739 -0.00711268 4.13565282 -0.01481327 6.20347595 -0.02307129 C10.52120464 -0.03646392 14.83875059 -0.03810742 19.15649414 -0.03222656 C24.66975525 -0.0263223 30.18213827 -0.05697712 35.69522953 -0.09734344 C39.95996262 -0.12327358 44.22448538 -0.12609327 48.48928642 -0.12245178 C50.52132824 -0.12413669 52.55338044 -0.13371812 54.58534431 -0.15159607 C76.47626714 -0.32309367 76.47626714 -0.32309367 84.59022522 7.20983887 C90.08137885 12.9533576 91.95922568 19.64147291 93.08984375 27.33203125 C93.57482272 29.83969118 93.57482272 29.83969118 96.71484375 31.46875 C98.60178829 31.79582039 100.50013183 32.05960943 102.40234375 32.28125 C109.67653197 33.41454744 114.69185795 35.96029061 119.58984375 41.46875 C122.88932306 46.12683843 123.96670944 49.66557469 123.94189453 55.3605957 C123.94166794 57.10183464 123.94166794 57.10183464 123.94143677 58.87825012 C123.9311142 60.12112289 123.92079163 61.36399567 123.91015625 62.64453125 C123.90732635 63.92482712 123.90449646 65.20512299 123.90158081 66.5242157 C123.89397155 69.91578075 123.87434668 73.3071725 123.85217285 76.69866943 C123.83165581 80.16432349 123.82256661 83.63000575 123.8125 87.09570312 C123.79045867 93.88679366 123.75699504 100.67775612 123.71484375 107.46875 C120.38198449 107.61560185 117.0499703 107.70332648 113.71484375 107.78125 C112.78027344 107.82314453 111.84570312 107.86503906 110.8828125 107.90820312 C104.30857979 108.02313726 99.67925458 106.96086439 94.71484375 102.46875 C90.33442461 96.43326456 90.20982305 89.79971708 90.21704102 82.58496094 C90.13616652 77.43969031 89.08910115 74.56911343 85.71484375 70.46875 C80.48340917 66.51848307 76.25902602 64.80012155 69.71484375 65.46875 C66.01966928 66.2822803 62.40530675 67.3357437 58.77734375 68.40625 C37.69715717 74.56595198 8.94894989 76.58580307 -11.28515625 66.46875 C-17.11759822 65.9773426 -22.46388178 65.63799322 -27.84765625 68.09375 C-31.84276275 71.98641787 -34.47446576 75.24724184 -34.71875 80.9296875 C-34.7484147 83.38987966 -34.72264241 85.84466757 -34.68554688 88.3046875 C-34.76789546 94.35004272 -35.96716433 99.04099388 -40.28515625 103.46875 C-46.22432129 107.8519012 -50.98658878 107.97594447 -58.22265625 107.71875 C-59.19267578 107.70070313 -60.16269531 107.68265625 -61.16210938 107.6640625 C-63.53750519 107.61725667 -65.91079469 107.55171385 -68.28515625 107.46875 C-68.37842753 99.59229684 -68.44920759 91.71597654 -68.49240494 83.83910751 C-68.51315272 80.18029828 -68.54123057 76.52187084 -68.58691406 72.86328125 C-68.63083633 69.32300392 -68.65438926 65.78309042 -68.66466522 62.24256134 C-68.67549679 60.25531498 -68.70664615 58.26821206 -68.73834229 56.28118896 C-68.74215661 40.62134097 -63.31064602 28.16728546 -52.67578125 16.828125 C-46.54607821 10.7785488 -40.35887274 6.45881084 -32.28515625 3.46875 C-31.24090233 3.06746887 -31.24090233 3.06746887 -30.17555237 2.65808105 C-20.37443986 -0.55206293 -10.19240755 -0.00427523 0 0 Z " fill="#375E7D" transform="translate(228.28515625,72.53125)"/>
<path d="M0 0 C-0.103125 0.80050781 -0.20625 1.60101563 -0.3125 2.42578125 C0.12860384 7.47090641 2.47575835 10.87495096 5 15.1875 C11.4997926 26.97774284 11.4997926 26.97774284 10.80078125 33.70703125 C9.27617411 38.07261364 6.30022981 40.88390319 3 44 C-1.16988964 49.04776114 -2.46011187 51.30807887 -2 58 C-1.02712995 60.76123411 -0.03106906 63.20635687 1.25 65.8125 C1.60280029 66.54315674 1.95560059 67.27381348 2.3190918 68.02661133 C18.35139287 100.12195941 45.55713749 126.79491282 70.75 151.75 C73.64346837 154.61694596 76.53362878 157.48716937 79.421875 160.359375 C80.41534943 161.34040192 80.41534943 161.34040192 81.42889404 162.34124756 C82.97149999 163.87538814 84.48871792 165.434993 86 167 C86 167.33 86 167.66 86 168 C76.71628901 168.20459487 67.80739006 167.7451231 58.625 166.375 C57.42037109 166.19751221 56.21574219 166.02002441 54.97460938 165.8371582 C4.89773743 158.08419005 -44.09792359 135.36057839 -80.36083984 99.54272461 C-82.06774663 97.89337812 -82.06774663 97.89337812 -84.33056641 96.14672852 C-87.99543048 93.01227679 -90.60334799 90.62691563 -91.76879883 85.84667969 C-91.9947251 82.25335175 -91.9344669 78.78268312 -91.75 75.1875 C-91.73453125 73.99318359 -91.7190625 72.79886719 -91.703125 71.56835938 C-91.20559678 52.52753995 -84.66584261 37.98632558 -71 25 C-62.74663171 17.48658887 -52.39504802 14.42036249 -42 11 C-41.28571838 10.76375916 -40.57143677 10.52751831 -39.83551025 10.28411865 C-34.78875182 8.61633159 -29.73571756 6.9691529 -24.67590332 5.34140015 C-22.93618329 4.78128733 -21.19732564 4.2184887 -19.45935059 3.65298462 C-16.98793332 2.85155784 -14.51239759 2.06446175 -12.03515625 1.28125 C-11.2848262 1.03581955 -10.53449615 0.7903891 -9.76142883 0.53752136 C-6.06574406 -0.61370866 -3.69162492 -1.15554957 0 0 Z " fill="#4A80AA" transform="translate(161,344)"/>
<path d="M0 0 C6.26572603 1.31541523 12.32657576 2.92445771 18.42578125 4.86328125 C19.29462448 5.13714157 20.16346771 5.41100189 21.05863953 5.69316101 C22.88533347 6.27029266 24.71140206 6.84940708 26.53686523 7.43041992 C29.29264065 8.30618882 32.05140821 9.17200367 34.81054688 10.03710938 C56.26533168 16.81102384 74.90957531 23.82168554 86.05395508 44.89501953 C92.21602252 58.60581835 94.4069181 75.27923182 91 90 C87.19209365 97.4439413 80.60901324 102.16087738 74 107 C72.74038016 108.02633359 71.48840358 109.06215532 70.24609375 110.109375 C66.92466527 112.87544309 63.48945615 115.45117113 60 118 C58.84894983 118.85806152 57.69790823 119.71613451 56.546875 120.57421875 C48.35569143 126.61291574 39.85002651 131.9838509 31 137 C30.30874023 137.39687012 29.61748047 137.79374023 28.90527344 138.20263672 C-4.96827914 157.47921145 -46.72268798 170.22955064 -86 169 C-81.64317576 163.78340428 -77.05587461 158.93531328 -72.22265625 154.16015625 C-71.49308212 153.43436874 -70.763508 152.70858124 -70.01182556 151.96080017 C-66.9199727 148.88514638 -63.82217291 145.81550842 -60.72485352 142.74536133 C-58.45118283 140.48990109 -56.18061635 138.23134769 -53.91015625 135.97265625 C-53.22139908 135.29219742 -52.53264191 134.61173859 -51.82301331 133.91065979 C-47.33465616 129.44473879 -43.12075943 124.80550462 -39 120 C-38.0391901 118.90499388 -37.07719568 117.81102426 -36.11328125 116.71875 C-10.9295632 88.87423302 -10.9295632 88.87423302 2.30859375 54.85546875 C1.96784863 51.70249807 1.36779488 50.47940251 -0.625 48.0625 C-1.16769531 47.39089844 -1.71039063 46.71929687 -2.26953125 46.02734375 C-2.84058594 45.35832031 -3.41164063 44.68929687 -4 44 C-4.56074219 43.34128906 -5.12148438 42.68257813 -5.69921875 42.00390625 C-6.72426424 40.81008814 -7.75727232 39.62302599 -8.80078125 38.4453125 C-10.94626942 35.859545 -11.14382916 34.24794253 -10.87890625 30.9765625 C-10.18283203 25.39232662 -7.74905099 21.17049275 -4.9375 16.375 C-1.60200613 10.67781265 0.70947139 6.69956531 0 0 Z " fill="#407093" transform="translate(351,343)"/>
<path d="M0 0 C3.49010734 2.39990609 5.96431345 5.4833144 7.86328125 9.28125 C7.95714054 11.20223676 8.04617646 13.123676 8.10205078 15.04614258 C8.21516583 25.86233561 8.21516583 25.86233561 12.86328125 35.28125 C18.69844526 39.57882139 23.68374253 39.92422686 30.80078125 40.03125 C32.25581055 40.07572266 32.25581055 40.07572266 33.74023438 40.12109375 C36.11466423 40.19127394 38.48814211 40.24422324 40.86328125 40.28125 C40.93768255 44.60453804 40.99200093 48.92748255 41.02807617 53.2512207 C41.04312191 54.72068782 41.06356363 56.19011034 41.08959961 57.65942383 C41.1261708 59.7769677 41.14304926 61.89391565 41.15625 64.01171875 C41.17196045 65.28426514 41.1876709 66.55681152 41.20385742 67.86791992 C40.8363365 71.55129624 40.08349997 73.35791296 37.86328125 76.28125 C34.78719947 78.67375805 32.69408862 80.15891601 28.8125 80.73046875 C25.74280497 81.93741482 25.74280497 81.93741482 25.04077148 84.33764648 C24.41222699 87.18354889 23.93417167 90.02609436 23.48828125 92.90625 C19.85907185 112.42972972 10.11664305 130.71392825 -6.296875 142.5625 C-24.5923694 154.95031608 -41.29728692 158.86915096 -63.13671875 158.28125 C-60.53794341 155.58882509 -57.89109342 153.25751325 -54.88671875 151.03125 C-38.39740942 138.23317495 -28.63309254 120.9877002 -25.56681824 100.373703 C-24.54378078 91.79191493 -24.77191456 83.07789188 -24.72265625 74.44921875 C-24.70391259 72.36028811 -24.68433688 70.27136479 -24.66397095 68.18244934 C-24.61298131 62.726271 -24.57317957 57.2700682 -24.53582764 51.81378174 C-24.49557828 46.22931026 -24.44458219 40.64493759 -24.39453125 35.06054688 C-24.29816548 24.13418433 -24.2136367 13.20776556 -24.13671875 2.28125 C-25.12671875 1.95125 -26.11671875 1.62125 -27.13671875 1.28125 C-24.95285457 0.60276792 -22.76441791 -0.0610051 -20.57421875 -0.71875 C-19.35605469 -1.09 -18.13789063 -1.46125 -16.8828125 -1.84375 C-10.4030936 -3.35726098 -5.77392744 -3.13922269 0 0 Z " fill="#FECABE" transform="translate(311.13671875,139.71875)"/>
<path d="M0 0 C0 4.50874546 -1.99944452 8.15655477 -3.7109375 12.28515625 C-20.94898571 61.96207701 9.12243412 128.34297144 29.57324219 172.88623047 C31.41684303 176.90972211 33.22812201 180.94735113 35.03857422 184.98583984 C36.68610148 188.66007133 38.34288808 192.33008295 40 196 C36.92148973 196.31290507 35.45160198 196.32151412 32.88931274 194.49731445 C31.84509659 193.44096802 31.84509659 193.44096802 30.77978516 192.36328125 C29.98190582 191.56825195 29.18402649 190.77322266 28.36196899 189.95410156 C27.51290985 189.08237305 26.66385071 188.21064453 25.7890625 187.3125 C24.90270111 186.42143555 24.01633972 185.53037109 23.1031189 184.61230469 C20.74566426 182.23709091 18.39988402 179.85140431 16.05865479 177.46026611 C14.1643127 175.53076148 12.25906962 173.61223679 10.3530674 171.69425964 C2.352561 163.64168977 -5.6124434 155.6238049 -13 147 C-13.96080049 145.90498561 -14.9228076 144.81102715 -15.88671875 143.71875 C-52.99500629 101.25321101 -52.99500629 101.25321101 -54.2421875 82.32421875 C-53.76284272 75.74482512 -49.03313926 71.83664632 -44.48828125 67.515625 C-41.36060271 64.33048255 -41.31788055 60.9148116 -41.30078125 56.6171875 C-42.4361418 50.74375808 -45.43797402 45.85185266 -48.44262695 40.72680664 C-53.01244725 32.81615532 -53.01244725 32.81615532 -52 28 C-48.91360176 24.23465116 -45.12966442 22.33084202 -40.8125 20.28125 C-39.37226952 19.57968632 -37.93216963 18.87785453 -36.4921875 18.17578125 C-35.7506543 17.81758301 -35.00912109 17.45938477 -34.24511719 17.09033203 C-30.62606793 15.33275548 -27.03297295 13.5239271 -23.4375 11.71875 C-22.03138007 11.01536492 -20.62513035 10.31223925 -19.21875 9.609375 C-18.52652344 9.26326172 -17.83429688 8.91714844 -17.12109375 8.56054688 C-11.4140625 5.70703125 -5.70703125 2.85351562 0 0 Z " fill="#365E7D" transform="translate(212,316)"/>
<path d="M0 0 C6.26572603 1.31541523 12.32657576 2.92445771 18.42578125 4.86328125 C19.29462448 5.13714157 20.16346771 5.41100189 21.05863953 5.69316101 C22.88533347 6.27029266 24.71140206 6.84940708 26.53686523 7.43041992 C29.29264065 8.30618882 32.05140821 9.17200367 34.81054688 10.03710938 C59.21907611 17.74360892 59.21907611 17.74360892 70 25 C58.67103592 48.8265319 44.42867915 70.04619375 26 89 C25.33983887 89.68594238 24.67967773 90.37188477 23.99951172 91.07861328 C15.06018646 100.33670209 6.07484087 109.19126994 -4.33642578 116.78515625 C-6.00781369 118.00570603 -7.65837503 119.25102809 -9.30859375 120.5 C-22.76120703 130.5448792 -37.41347582 138.39179775 -52.5 145.6875 C-53.5928833 146.21714355 -54.6857666 146.74678711 -55.81176758 147.29248047 C-56.83294678 147.7773291 -57.85412598 148.26217773 -58.90625 148.76171875 C-59.81697266 149.19444092 -60.72769531 149.62716309 -61.66601562 150.07299805 C-64 151 -64 151 -67 151 C-65.51891127 147.5465583 -63.57178301 145.35078674 -60.89453125 142.734375 C-60.07533203 141.92613281 -59.25613281 141.11789062 -58.41210938 140.28515625 C-57.12530273 139.03025391 -57.12530273 139.03025391 -55.8125 137.75 C-49.95906398 132.0180419 -44.31028584 126.23960655 -39 120 C-38.0393078 118.90489061 -37.07713176 117.81108066 -36.11328125 116.71875 C-10.9295632 88.87423302 -10.9295632 88.87423302 2.30859375 54.85546875 C1.96784863 51.70249807 1.36779488 50.47940251 -0.625 48.0625 C-1.16769531 47.39089844 -1.71039063 46.71929687 -2.26953125 46.02734375 C-2.84058594 45.35832031 -3.41164063 44.68929687 -4 44 C-4.56074219 43.34128906 -5.12148438 42.68257813 -5.69921875 42.00390625 C-6.72426424 40.81008814 -7.75727232 39.62302599 -8.80078125 38.4453125 C-10.94626942 35.859545 -11.14382916 34.24794253 -10.87890625 30.9765625 C-10.18283203 25.39232662 -7.74905099 21.17049275 -4.9375 16.375 C-1.60200613 10.67781265 0.70947139 6.69956531 0 0 Z " fill="#497FA9" transform="translate(351,343)"/>
<path d="M0 0 C3.27227473 1.55498495 5.64362064 3.7701516 8.19140625 6.28515625 C9.2409447 7.28652826 10.29305082 8.28521573 11.34765625 9.28125 C12.12496094 10.01577393 12.12496094 10.01577393 12.91796875 10.76513672 C16.23340507 13.80109876 19.83069278 16.488593 23.44140625 19.16015625 C21.80369861 24.33036119 18.43914342 27.91812785 14.72265625 31.72851562 C12.51608719 34.31235726 11.45199169 36.14527699 11.41601562 39.59448242 C11.89992514 42.85150019 12.6279504 45.9683943 13.44140625 49.16015625 C13.61490601 49.85905975 13.78840576 50.55796326 13.96716309 51.27804565 C15.38796302 56.9871943 16.90708446 62.66815572 18.44140625 68.34765625 C19.12241742 70.88449549 19.80178499 73.42175988 20.47924805 75.95954895 C20.89763568 77.52519092 21.31820119 79.09025334 21.74145508 80.65458679 C22.32249614 82.8196025 22.88208081 84.98944411 23.44140625 87.16015625 C23.65673508 87.93387573 23.8720639 88.70759521 24.09391785 89.50476074 C25.33262101 94.29502427 25.70787177 97.2513902 23.6171875 101.91796875 C23.17036621 102.94543213 22.72354492 103.97289551 22.26318359 105.03149414 C21.76512207 106.10520264 21.26706055 107.17891113 20.75390625 108.28515625 C20.25584473 109.40720459 19.7577832 110.52925293 19.24462891 111.68530273 C17.67489008 115.19223415 16.06536 118.67802934 14.44140625 122.16015625 C13.91562988 123.29308105 13.38985352 124.42600586 12.84814453 125.59326172 C3.97468203 144.62688047 3.97468203 144.62688047 2.44140625 146.16015625 C-0.22918226 146.30130786 -2.88291613 146.20262732 -5.55859375 146.16015625 C-9.84246625 137.69746535 -14.06903983 129.20658414 -18.18359375 120.66015625 C-18.53091553 119.95141357 -18.8782373 119.2426709 -19.23608398 118.51245117 C-19.9596793 116.99773396 -20.65747672 115.47051494 -21.33374023 113.93408203 C-22.27159447 111.81012353 -23.27283793 109.71405447 -24.30102539 107.63232422 C-29.48320429 96.46538033 -28.25209276 88.7931451 -24.74609375 77.28515625 C-24.300982 75.69453574 -23.86041249 74.10263739 -23.42431641 72.50952148 C-22.37268022 68.70620653 -21.27224582 64.91983822 -20.14605713 61.13800049 C-19.09242167 57.59066988 -18.08008732 54.0316795 -17.07543945 50.47021484 C-16.66475428 49.03211376 -16.23888982 47.5982071 -15.79370117 46.17041016 C-14.66989817 42.4270347 -14.1407777 39.84532996 -15.55859375 36.16015625 C-17.25987323 33.6330597 -19.16702353 31.30729445 -21.12109375 28.97265625 C-26.55859375 22.40318599 -26.55859375 22.40318599 -26.55859375 20.16015625 C-24.86328125 18.63671875 -24.86328125 18.63671875 -22.43359375 16.78515625 C-19.16482365 14.26246777 -16.01268535 11.7032013 -12.953125 8.9296875 C-12.33904785 8.37909668 -11.7249707 7.82850586 -11.09228516 7.26123047 C-9.87437005 6.1637862 -8.66667448 5.05487883 -7.47021484 3.93408203 C-3.29181971 0.20605284 -3.29181971 0.20605284 0 0 Z " fill="#E18086" transform="translate(257.55859375,365.83984375)"/>
<path d="M0 0 C18.40617577 0 18.40617577 0 25.83984375 6.64453125 C31.26873724 12.5247264 33.23134058 19.08401456 34.375 26.86328125 C34.85997897 29.37094118 34.85997897 29.37094118 38 31 C39.88694454 31.32707039 41.78528808 31.59085943 43.6875 31.8125 C50.96168822 32.94579744 55.9770142 35.49154061 60.875 41 C64.17447931 45.65808843 65.25186569 49.19682469 65.22705078 54.8918457 C65.22689972 56.05267166 65.22674866 57.21349762 65.22659302 58.40950012 C65.21627045 59.65237289 65.20594788 60.89524567 65.1953125 62.17578125 C65.1924826 63.45607712 65.18965271 64.73637299 65.18673706 66.0554657 C65.1791278 69.44703075 65.15950293 72.8384225 65.1373291 76.22991943 C65.11681206 79.69557349 65.10772286 83.16125575 65.09765625 86.62695312 C65.07561492 93.41804366 65.04215129 100.20900612 65 107 C61.66714074 107.14685185 58.33512655 107.23457648 55 107.3125 C54.06542969 107.35439453 53.13085938 107.39628906 52.16796875 107.43945312 C45.59373604 107.55438726 40.96441083 106.49211439 36 102 C31.61958086 95.96451456 31.4949793 89.33096708 31.50219727 82.11621094 C31.42132277 76.97094031 30.3742574 74.10036343 27 70 C21.55667702 65.88973571 17.80568386 64.65394828 11 65 C8.9921136 65.64252365 6.99117408 66.30741771 5 67 C3.35 67 1.7 67 0 67 C0 44.89 0 22.78 0 0 Z " fill="#2B4D66" transform="translate(287,73)"/>
<path d="M0 0 C8.36678801 6.72980775 15.19983492 14.89228065 22.22265625 22.97265625 C24.29359487 25.33489173 26.39512848 27.66795853 28.5 30 C39.33544459 42.01883786 39.33544459 42.01883786 43 47 C39.27580786 55.95819191 27.62568962 63.39988418 20 69 C19.34 69 18.68 69 18 69 C19.41564607 70.89660274 20.83248455 72.79229517 22.25 74.6875 C23.03890625 75.74324219 23.8278125 76.79898438 24.640625 77.88671875 C26.88145322 80.98277491 26.88145322 80.98277491 29.359375 83.39453125 C31.92145341 87.46335577 30.52879178 91.60628039 29.53662109 96.09761047 C28.99348854 98.29770175 28.41386732 100.48485985 27.8203125 102.671875 C27.60688202 103.47554504 27.39345154 104.27921509 27.17355347 105.10723877 C26.49561677 107.65616706 25.81058683 110.2031199 25.125 112.75 C24.44974221 115.27677109 23.7759774 117.80393647 23.10247803 120.33117676 C22.66805595 121.96113711 22.23304819 123.59094149 21.79742432 125.22058105 C20.13154664 131.46442713 18.53402455 137.72229954 17 144 C14.51352593 140.98112375 13.12848046 138.13882274 11.80078125 134.46875 C11.19979614 132.80972656 11.19979614 132.80972656 10.58666992 131.1171875 C9.95595581 129.32667969 9.95595581 129.32667969 9.3125 127.5 C8.98543564 126.57429199 8.98543564 126.57429199 8.65176392 125.62988281 C-4.07739957 89.47319163 -20.44332338 41.26159989 -2.8125 4.0625 C-1 1 -1 1 0 0 Z " fill="#F2F9FD" transform="translate(213,317)"/>
<path d="M0 0 C3.14157545 2.82610343 4.7423495 5.13971327 6.125 9.125 C6.43695313 9.99382812 6.74890625 10.86265625 7.0703125 11.7578125 C18.82348237 52.74575786 2.56731597 104.27687123 -14 142 C-14.99 142.99 -14.99 142.99 -16 144 C-16.21615967 143.1248877 -16.43231934 142.24977539 -16.6550293 141.34814453 C-17.6632124 137.27310323 -18.67446119 133.19883645 -19.6875 129.125 C-19.86918732 128.39369873 -20.05087463 127.66239746 -20.23806763 126.90893555 C-22.52341992 117.72349699 -24.83334339 108.55365837 -27.53979492 99.48095703 C-28.06885131 97.66577467 -28.53581231 95.83284409 -29 94 C-29.18304688 93.35853027 -29.36609375 92.71706055 -29.5546875 92.05615234 C-30.25478146 88.88172186 -30.42784803 86.8680155 -28.96557617 83.90136719 C-27.45109908 81.70688455 -25.83818858 79.66779533 -24.125 77.625 C-23.00197603 76.22185667 -21.87955087 74.81823381 -20.7578125 73.4140625 C-20.00201904 72.50068115 -20.00201904 72.50068115 -19.23095703 71.56884766 C-17.9185824 70.0040681 -17.9185824 70.0040681 -17 68 C-17.56332031 67.75636719 -18.12664062 67.51273437 -18.70703125 67.26171875 C-21.43339281 65.76152321 -23.41543375 63.93821738 -25.6875 61.8125 C-30.27135855 57.60325099 -35.02620619 53.73635236 -40 50 C-39.52879861 45.3048147 -37.73535286 43.22019508 -34.5 39.875 C-33.57714609 38.90059276 -32.65662161 37.92397475 -31.73828125 36.9453125 C-31.27502441 36.45321289 -30.81176758 35.96111328 -30.33447266 35.45410156 C-28.35447866 33.29661085 -26.52263323 31.03114891 -24.6875 28.75 C-18.97361256 21.67614646 -12.98199139 14.84683355 -7 8 C-6.21238281 7.09765625 -5.42476563 6.1953125 -4.61328125 5.265625 C-3.07749826 3.50866434 -1.54022999 1.75306176 0 0 Z " fill="#F3FAFE" transform="translate(298,317)"/>
<path d="M0 0 C0.33 0 0.66 0 1 0 C0.19373396 22.45450929 -6.70237957 68.70237957 -23 85 C-23.21615967 84.1248877 -23.43231934 83.24977539 -23.6550293 82.34814453 C-24.6632124 78.27310323 -25.67446119 74.19883645 -26.6875 70.125 C-26.86918732 69.39369873 -27.05087463 68.66239746 -27.23806763 67.90893555 C-29.52341992 58.72349699 -31.83334339 49.55365837 -34.53979492 40.48095703 C-35.06885131 38.66577467 -35.53581231 36.83284409 -36 35 C-36.18957275 34.36578125 -36.37914551 33.7315625 -36.57446289 33.078125 C-37.33133381 29.79012561 -37.4255009 27.8272166 -35.85571289 24.77539062 C-34.19250528 22.41277899 -32.42704841 20.20686037 -30.5625 18 C-29.93794922 17.22527344 -29.31339844 16.45054687 -28.66992188 15.65234375 C-27.1324551 13.75104896 -25.57646686 11.868971 -24 10 C-23.38503662 10.32307129 -22.77007324 10.64614258 -22.13647461 10.97900391 C-18.5113653 12.71140102 -14.92723579 12.55094315 -11 12 C-6.6313281 9.5616715 -4.08123465 5.63019739 -1.234375 1.609375 C-0.82703125 1.07828125 -0.4196875 0.5471875 0 0 Z " fill="#E3F4FD" transform="translate(305,376)"/>
<path d="M0 0 C3.27046276 2.50491554 6.04873332 5.0269098 8.6875 8.1875 C10.99686532 11.03081617 10.99686532 11.03081617 14 13 C20.28631643 13.31701324 20.28631643 13.31701324 26 11 C27.60540415 12.91564172 29.209355 14.83246912 30.8125 16.75 C31.26431641 17.28882813 31.71613281 17.82765625 32.18164062 18.3828125 C33.46203705 19.91554983 34.73129347 21.45757253 36 23 C36.62261719 23.62390625 37.24523437 24.2478125 37.88671875 24.890625 C40.60726666 30.04534736 37.2855696 38.27298115 35.8203125 43.671875 C35.50016678 44.87738007 35.50016678 44.87738007 35.17355347 46.10723877 C34.49561677 48.65616706 33.81058683 51.2031199 33.125 53.75 C32.44974221 56.27677109 31.7759774 58.80393647 31.10247803 61.33117676 C30.66805595 62.96113711 30.23304819 64.59094149 29.79742432 66.22058105 C28.13154664 72.46442713 26.53402455 78.72229954 25 85 C22.51352593 81.98112375 21.12848046 79.13882274 19.80078125 75.46875 C19.40004395 74.36249268 18.99930664 73.25623535 18.58642578 72.11645508 C18.16603027 70.9230249 17.74563477 69.72959473 17.3125 68.5 C16.87405762 67.25694092 16.43561523 66.01388184 15.98388672 64.7331543 C8.56723505 43.48800015 2.90094592 22.34671758 0 0 Z " fill="#E3F4FD" transform="translate(205,376)"/>
<path d="M0 0 C3.27227473 1.55498495 5.64362064 3.7701516 8.19140625 6.28515625 C9.2409447 7.28652826 10.29305082 8.28521573 11.34765625 9.28125 C12.12496094 10.01577393 12.12496094 10.01577393 12.91796875 10.76513672 C16.23340507 13.80109876 19.83069278 16.488593 23.44140625 19.16015625 C20.82156362 26.11583843 18.09368764 33.21732862 11.44140625 37.16015625 C3.1359478 39.61789395 -6.27092497 39.71210178 -14.55859375 37.16015625 C-20.26754821 33.54668508 -23.6272091 28.11662277 -26.55859375 22.16015625 C-26.55859375 21.50015625 -26.55859375 20.84015625 -26.55859375 20.16015625 C-24.86328125 18.63671875 -24.86328125 18.63671875 -22.43359375 16.78515625 C-19.16482365 14.26246777 -16.01268535 11.7032013 -12.953125 8.9296875 C-12.33904785 8.37909668 -11.7249707 7.82850586 -11.09228516 7.26123047 C-9.87437005 6.1637862 -8.66667448 5.05487883 -7.47021484 3.93408203 C-3.29181971 0.20605284 -3.29181971 0.20605284 0 0 Z " fill="#DD646F" transform="translate(257.55859375,365.83984375)"/>
<path d="M0 0 C-0.56439126 3.95073883 -1.32172405 6.97614005 -4 10 C-6.80452359 10.73186941 -9.19796397 10.74720961 -12 10 C-14.02829372 7.59140121 -15 6.16955691 -15 3 C-13.0636296 2.49564306 -11.12585854 1.99666126 -9.1875 1.5 C-8.10855469 1.2215625 -7.02960938 0.943125 -5.91796875 0.65625 C-3 0 -3 0 0 0 Z " fill="#D7636E" transform="translate(264,502)"/>
<path d="M0 0 C1.75 2.0625 1.75 2.0625 3 4 C-4.75493514 4.09928082 -12.31068715 4.06059488 -20 3 C-19.67 2.34 -19.34 1.68 -19 1 C-16.53948784 0.49246372 -14.17406965 0.11256313 -11.6875 -0.1875 C-10.67139648 -0.32961914 -10.67139648 -0.32961914 -9.63476562 -0.47460938 C-2.86084171 -1.34204245 -2.86084171 -1.34204245 0 0 Z " fill="#417396" transform="translate(244,508)"/>
</svg>
