<?xml version="1.0" encoding="UTF-8"?>
<svg version="1.1" xmlns="http://www.w3.org/2000/svg" width="512" height="512">
<path d="M0 0 C2.16337397 1.27720864 4.32746545 2.55320254 6.4921875 3.828125 C7.62108398 4.49392578 8.74998047 5.15972656 9.91308594 5.84570312 C15.62004315 9.1998026 21.373701 12.47274425 27.125 15.75 C28.30406422 16.42255876 29.48310051 17.09516647 30.66210938 17.76782227 C33.04170908 19.12517169 35.4216137 20.48198436 37.80175781 21.83837891 C43.70301689 25.20152051 49.6019235 28.56878067 55.5 31.9375 C56.08036011 32.26893005 56.66072021 32.60036011 57.25866699 32.9418335 C66.70902474 38.33973857 76.14006071 43.77062721 85.56225586 49.2175293 C92.49530139 53.22262045 99.44343942 57.20018547 106.40063477 61.16308594 C112.06479149 64.38986481 117.72150487 67.62957637 123.375 70.875 C124.24479492 71.37354492 125.11458984 71.87208984 126.01074219 72.38574219 C128.15894662 73.62231739 130.29987921 74.87024495 132.4375 76.125 C134.09458984 77.09179688 134.09458984 77.09179688 135.78515625 78.078125 C138.3182477 79.83562435 139.81015078 81.23696027 141.375 83.875 C141.9237826 87.55968316 141.66438789 89.34445553 139.875 92.625 C136.48683054 95.67435252 133.827608 96.05868853 129.375 96.875 C129.045 98.195 128.715 99.515 128.375 100.875 C140.25509595 108.07159658 152.24666653 115.07238736 164.25195312 122.05761719 C169.19043317 124.93144813 174.12672783 127.80902135 179.0625 130.6875 C180.03888428 131.25686279 181.01526855 131.82622559 182.02124023 132.4128418 C187.51359559 135.61719649 193.00274878 138.82695242 198.48828125 142.04296875 C199.09386871 142.39798965 199.69945618 142.75301056 200.32339478 143.11878967 C203.39830528 144.92176262 206.47255953 146.72584353 209.54589844 148.53149414 C215.46441135 152.00719265 221.39095413 155.46711971 227.33984375 158.890625 C228.43296875 159.52162109 229.52609375 160.15261719 230.65234375 160.80273438 C232.69516238 161.98070087 234.74056963 163.15419456 236.7890625 164.32226562 C249.68253685 171.7692018 249.68253685 171.7692018 251.13671875 176.19140625 C250.93717768 182.23014913 250.93717768 182.23014913 248.25 185.3125 C245.375 186.875 245.375 186.875 242.33984375 187.515625 C239.04582954 188.6257201 239.04582954 188.6257201 237.94921875 192.17578125 C237.62735699 193.50693791 237.33256077 194.84487562 237.0625 196.1875 C236.82950195 197.18426758 236.82950195 197.18426758 236.59179688 198.20117188 C236.1574005 200.08604199 235.76510947 201.98046835 235.375 203.875 C235.08302734 205.05255859 235.08302734 205.05255859 234.78515625 206.25390625 C232.38213964 221.61032665 234.56836988 238.234813 238.4765625 253.16796875 C239.375 256.875 239.375 256.875 239.375 260.875 C240.4475 260.7925 241.52 260.71 242.625 260.625 C246.375 260.875 246.375 260.875 248.8125 262.375 C250.57482141 265.19471425 250.89217712 267.47147591 251.00390625 270.77734375 C250.01840362 274.06439289 248.17491789 276.02110106 245.375 277.875 C241.70338171 279.04738233 237.9771494 279.57000848 234.16796875 280.11328125 C233.08743729 280.28377487 232.00690582 280.45426849 230.89363098 280.62992859 C227.45257731 281.16837426 224.00798435 281.67825948 220.5625 282.1875 C218.22431905 282.54825347 215.88642359 282.91086257 213.54882812 283.27539062 C207.82735312 284.16346067 202.1027119 285.02814248 196.375 285.875 C196.36041748 286.61024902 196.34583496 287.34549805 196.33081055 288.10302734 C196.25560745 291.4858378 196.15918818 294.86773811 196.0625 298.25 C196.03994141 299.40628906 196.01738281 300.56257813 195.99414062 301.75390625 C195.68163522 311.81089843 194.88759301 320.55153521 187.375 327.875 C184.89964158 329.86677365 182.3204414 331.66117456 179.6875 333.4375 C178.16202771 334.48982406 176.63731271 335.54324658 175.11328125 336.59765625 C173.93886475 337.40614014 173.93886475 337.40614014 172.74072266 338.23095703 C168.91268149 340.89122836 165.14541296 343.63396441 161.375 346.375 C154.87522742 351.08651241 148.33634464 355.73798772 141.76953125 360.35546875 C136.6093328 363.98954566 131.4857106 367.67171401 126.375 371.375 C119.87441517 376.08540657 113.3363612 380.73797608 106.76953125 385.35546875 C101.6093328 388.98954566 96.4857106 392.67171401 91.375 396.375 C84.87441517 401.08540657 78.3363612 405.73797608 71.76953125 410.35546875 C66.6093328 413.98954566 61.4857106 417.67171401 56.375 421.375 C49.88192856 426.07996227 43.35730914 430.73586204 36.78930664 435.33569336 C33.02073318 437.98154506 29.28800645 440.66655057 25.58984375 443.41015625 C24.79191406 443.99861328 23.99398438 444.58707031 23.171875 445.19335938 C21.64652968 446.32095322 20.12658021 447.45589941 18.61328125 448.59960938 C9.87322057 455.04177587 4.10153045 456.29683777 -6.625 454.875 C-12.73691877 453.93560045 -18.81756918 452.81138614 -24.90136719 451.70727539 C-26.73483661 451.37812605 -28.56838065 451.04939216 -30.4019928 450.72103882 C-35.37052344 449.83007635 -40.33798528 448.93328147 -45.3052702 448.03540349 C-50.56800221 447.08514252 -55.83169468 446.14023067 -61.09527588 445.19468689 C-69.97960229 443.59796521 -78.86331003 441.99784069 -87.74658203 440.39526367 C-96.75298819 438.77047325 -105.75977877 437.14784272 -114.76708984 435.52807617 C-115.86433113 435.33075634 -116.96157241 435.1334365 -118.09206343 434.93013728 C-122.4946807 434.13845038 -126.89731093 433.34683564 -131.29995823 432.55531573 C-143.10189894 430.43338154 -154.90319131 428.30798435 -166.70251465 426.17153931 C-170.80229927 425.42947053 -174.90211549 424.68757659 -179.00195312 423.94580078 C-179.99040442 423.76691165 -180.97885572 423.58802252 -181.99726009 423.40371251 C-193.95236559 421.24138968 -205.91271433 419.11555306 -217.88544989 417.05308306 C-222.44628623 416.26538741 -227.00494313 415.46515714 -231.56397247 414.66708183 C-234.95215015 414.08040675 -238.34338082 413.51482837 -241.73529053 412.95021057 C-243.70035694 412.60655243 -245.66523677 412.26182474 -247.62988281 411.91577148 C-248.48840599 411.78026571 -249.34692917 411.64475994 -250.2314682 411.50514793 C-255.45375749 410.55420562 -258.20763836 409.20229892 -261.625 404.875 C-262.53238141 401.84851665 -262.08933133 400.1253193 -261.625 396.875 C-260 394.4375 -260 394.4375 -257.625 392.875 C-255.63298503 392.49686316 -253.63270129 392.1582784 -251.625 391.875 C-250.64044994 387.85546542 -249.66332761 383.83416025 -248.6875 379.8125 C-248.40970703 378.67876953 -248.13191406 377.54503906 -247.84570312 376.37695312 C-242.91717836 356.00967608 -244.55249729 338.75473948 -249.07373047 318.49023438 C-249.74749103 315.29389994 -250.22673177 312.11607941 -250.625 308.875 C-251.883125 308.7925 -253.14125 308.71 -254.4375 308.625 C-257.21165204 308.25674973 -258.38322521 308.06388655 -260.625 306.3125 C-262.03319576 302.88002284 -262.52653646 299.5095407 -261.625 295.875 C-259.02950592 292.99668457 -256.33591439 290.88552185 -253.0546875 288.84375 C-252.16837646 288.28727783 -251.28206543 287.73080566 -250.36889648 287.1574707 C-249.42216064 286.56925537 -248.4754248 285.98104004 -247.5 285.375 C-245.48731963 284.10960113 -243.47561194 282.84265395 -241.46484375 281.57421875 C-240.4682373 280.94563965 -239.47163086 280.31706055 -238.44482422 279.66943359 C-234.61276342 277.23084945 -230.83146073 274.72216292 -227.0625 272.1875 C-219.3104901 266.9804628 -211.50455672 261.85853087 -203.6875 256.75 C-189.60773672 247.54618034 -175.60403024 238.23099061 -161.625 228.875 C-164.11966997 226.13028641 -166.90504838 224.30075727 -170.03515625 222.328125 C-171.10830078 221.6475 -172.18144531 220.966875 -173.28710938 220.265625 C-174.42037416 219.5517677 -175.55383868 218.8382274 -176.6875 218.125 C-203.89922608 200.95550597 -203.89922608 200.95550597 -206.23452759 192.1980896 C-207.14454913 186.78397709 -206.88554595 181.24246401 -206.85546875 175.76953125 C-206.85427476 174.39906355 -206.85382425 173.02859502 -206.8540802 171.65812683 C-206.85252265 168.79782933 -206.84428691 165.93765829 -206.83081055 163.07739258 C-206.81377343 159.41563704 -206.80999804 155.75401944 -206.81075573 152.09222889 C-206.81048363 149.26721385 -206.8049968 146.4422288 -206.79775429 143.61722374 C-206.7930392 141.61199177 -206.79129534 139.60675352 -206.78959656 137.60151672 C-206.78321671 136.38312607 -206.77683685 135.16473541 -206.77026367 133.90942383 C-206.76454597 132.30228264 -206.76454597 132.30228264 -206.75871277 130.66267395 C-206.64204561 128.2303708 -206.32700644 126.19563827 -205.625 123.875 C-206.35259521 123.60260498 -207.08019043 123.33020996 -207.82983398 123.04956055 C-212.43155455 121.11586523 -216.49194852 118.37059601 -220.6875 115.6875 C-221.58533203 115.13513672 -222.48316406 114.58277344 -223.40820312 114.01367188 C-224.27509766 113.45873047 -225.14199219 112.90378906 -226.03515625 112.33203125 C-227.21283569 111.5891687 -227.21283569 111.5891687 -228.41430664 110.83129883 C-232.34635951 107.35172515 -234.32381804 104.20572045 -234.99208069 99.03431702 C-235.15456464 95.5500964 -235.17928202 92.08951028 -235.15625 88.6015625 C-235.1600769 87.32324554 -235.16390381 86.04492859 -235.16784668 84.72787476 C-235.17372106 82.02964807 -235.16524965 79.33195351 -235.14648438 76.63378906 C-235.12374063 73.19856994 -235.13679982 69.76460435 -235.16077423 66.32943153 C-235.17882562 63.02421206 -235.16613017 59.71931743 -235.15625 56.4140625 C-235.16434692 55.19192047 -235.17244385 53.96977844 -235.18078613 52.71060181 C-235.08728557 44.12371036 -233.37699279 38.29784555 -228.875 31.0625 C-223.69223445 26.02370016 -217.24190986 24.25075413 -210.26242065 23.18586731 C-209.45944239 23.0524815 -208.65646412 22.91909569 -207.82915318 22.78166789 C-205.16124748 22.34173246 -202.49073897 21.92051609 -199.81982422 21.49926758 C-197.89718532 21.18616134 -195.9747348 20.87189645 -194.05245972 20.55656433 C-188.84793703 19.70616198 -183.64093659 18.87193954 -178.43333578 18.04062486 C-172.97869369 17.16702732 -167.52648861 16.27847735 -162.07400513 15.39152527 C-151.74872186 13.71423628 -141.42133148 12.05031313 -131.0931102 10.39122266 C-119.3568355 8.50529434 -107.62295854 6.60465648 -95.88927436 4.70268786 C-75.83505227 1.45222398 -55.77915107 -1.78768955 -35.72106934 -5.01425171 C-34.87506672 -5.15039283 -34.0290641 -5.28653394 -33.15742505 -5.42680055 C-31.6023485 -5.67702916 -30.04724933 -5.92711723 -28.49212158 -6.1770274 C-25.41784121 -6.6717273 -22.34985008 -7.17582183 -19.28764534 -7.74142933 C-12.24083568 -8.75656622 -5.79121386 -3.45940364 0 0 Z " fill="#E53531" transform="translate(261.625,32.125)"/>
<path d="M0 0 C2.5793457 1.32836914 2.5793457 1.32836914 5.17578125 3.03515625 C6.15611328 3.67171143 7.13644531 4.3082666 8.14648438 4.96411133 C9.19126953 5.65657959 10.23605469 6.34904785 11.3125 7.0625 C12.98495803 8.15257546 14.65742661 9.24263518 16.33053589 10.33171082 C18.06687844 11.46361863 19.80040781 12.599743 21.53369141 13.73632812 C26.99203673 17.30906325 32.49937972 20.80537892 38 24.3125 C44.90877993 28.73018949 51.80840815 33.16122635 58.6875 37.625 C65.85644555 42.27611443 73.06252364 46.86752008 80.27490234 51.45092773 C95.48539399 61.11852416 110.6838433 70.80674342 125.78833008 80.6394043 C127.52163364 81.76565845 129.26055989 82.88324678 131 84 C131.77939941 84.53278564 132.55879883 85.06557129 133.36181641 85.61450195 C141.08357994 89.66974978 152.16715147 86.5726193 160.375 85.125 C162.59361971 84.75182875 164.81236871 84.37942523 167.03125 84.0078125 C168.59746094 83.74145996 168.59746094 83.74145996 170.1953125 83.46972656 C173.41569124 82.9303804 176.64085506 82.4491868 179.875 82 C202.78634942 78.88468611 202.78634942 78.88468611 225.51513672 74.69238281 C228.6705609 74.06545392 231.79653655 73.57727077 234.984375 73.15234375 C244.28653105 71.85154847 253.54056716 70.27448881 262.80230713 68.71514893 C268.13445196 67.81775581 273.46763352 66.92656669 278.80078125 66.03515625 C279.85263611 65.85925964 280.90449097 65.68336304 281.98822021 65.50213623 C290.8633636 64.01944397 299.74201147 62.55990557 308.625 61.125 C309.79925537 60.93446045 310.97351074 60.7439209 312.18334961 60.54760742 C319.08497413 59.4374225 325.99483189 58.41724897 332.91943359 57.46044922 C334.81294969 57.17742724 336.70113407 56.84896808 338.57275391 56.44580078 C341.2057911 55.96220332 343.63808157 55.90184109 346.3125 55.9375 C347.63701172 55.95103516 347.63701172 55.95103516 348.98828125 55.96484375 C349.98408203 55.98224609 349.98408203 55.98224609 351 56 C351.08813808 60.12486211 351.14077078 64.24947739 351.1875 68.375 C351.22520508 70.10943359 351.22520508 70.10943359 351.26367188 71.87890625 C351.33745509 80.58532573 350.74230707 87.92779534 345.79296875 95.27734375 C342.51901193 98.46887928 339.09408022 101.01124035 335.3125 103.5625 C333.78702771 104.61482406 332.26231271 105.66824658 330.73828125 106.72265625 C329.95533691 107.26164551 329.17239258 107.80063477 328.36572266 108.35595703 C324.53768149 111.01622836 320.77041296 113.75896441 317 116.5 C310.50022742 121.21151241 303.96134464 125.86298772 297.39453125 130.48046875 C292.2343328 134.11454566 287.1107106 137.79671401 282 141.5 C275.49941517 146.21040657 268.9613612 150.86297608 262.39453125 155.48046875 C257.2343328 159.11454566 252.1107106 162.79671401 247 166.5 C240.49941517 171.21040657 233.9613612 175.86297608 227.39453125 180.48046875 C222.2343328 184.11454566 217.1107106 187.79671401 212 191.5 C205.50692856 196.20496227 198.98230914 200.86086204 192.41430664 205.46069336 C188.64573318 208.10654506 184.91300645 210.79155057 181.21484375 213.53515625 C180.41691406 214.12361328 179.61898438 214.71207031 178.796875 215.31835938 C177.27152968 216.44595322 175.75158021 217.58089941 174.23828125 218.72460938 C165.49822057 225.16677587 159.72653045 226.42183777 149 225 C142.88808123 224.06060045 136.80743082 222.93638614 130.72363281 221.83227539 C128.89016339 221.50312605 127.05661935 221.17439216 125.2230072 220.84603882 C120.25447656 219.95507635 115.28701472 219.05828147 110.3197298 218.16040349 C105.05699779 217.21014252 99.79330532 216.26523067 94.52972412 215.31968689 C85.64539771 213.72296521 76.76168997 212.12284069 67.87841797 210.52026367 C58.87201181 208.89547325 49.86522123 207.27284272 40.85791016 205.65307617 C39.76066887 205.45575634 38.66342759 205.2584365 37.53293657 205.05513728 C33.1303193 204.26345038 28.72768907 203.47183564 24.32504177 202.68031573 C12.52310106 200.55838154 0.72180869 198.43298435 -11.07751465 196.29653931 C-15.17729927 195.55447053 -19.27711549 194.81257659 -23.37695312 194.07080078 C-24.36540442 193.89191165 -25.35385572 193.71302252 -26.37226009 193.52871251 C-38.32736559 191.36638968 -50.28771433 189.24055306 -62.26044989 187.17808306 C-66.82128623 186.39038741 -71.37994313 185.59015714 -75.93897247 184.79208183 C-79.32715015 184.20540675 -82.71838082 183.63982837 -86.11029053 183.07521057 C-88.07535694 182.73155243 -90.04023677 182.38682474 -92.00488281 182.04077148 C-92.86340599 181.90526571 -93.72192917 181.76975994 -94.6064682 181.63014793 C-99.82875749 180.67920562 -102.58263836 179.32729892 -106 175 C-106.90738141 171.97351665 -106.46433133 170.2503193 -106 167 C-104.375 164.5625 -104.375 164.5625 -102 163 C-100.00798503 162.62186316 -98.00770129 162.2832784 -96 162 C-95.01544994 157.98046542 -94.03832761 153.95916025 -93.0625 149.9375 C-92.78470703 148.80376953 -92.50691406 147.67003906 -92.22070312 146.50195312 C-87.29217836 126.13467608 -88.92749729 108.87973948 -93.44873047 88.61523438 C-94.12249103 85.41889994 -94.60173177 82.24107941 -95 79 C-96.258125 78.9175 -97.51625 78.835 -98.8125 78.75 C-101.58665204 78.38174973 -102.75822521 78.18888655 -105 76.4375 C-106.40819576 73.00502284 -106.90153646 69.6345407 -106 66 C-103.40450592 63.12168457 -100.71091439 61.01052185 -97.4296875 58.96875 C-96.10022095 58.13404175 -96.10022095 58.13404175 -94.74389648 57.2824707 C-93.79716064 56.69425537 -92.8504248 56.10604004 -91.875 55.5 C-89.86231963 54.23460113 -87.85061194 52.96765395 -85.83984375 51.69921875 C-84.8432373 51.07063965 -83.84663086 50.44206055 -82.81982422 49.79443359 C-78.98776342 47.35584945 -75.20646073 44.84716292 -71.4375 42.3125 C-66.10572906 38.7311411 -60.75777974 35.17640817 -55.3828125 31.66015625 C-54.79309662 31.27426834 -54.20338074 30.88838043 -53.59579468 30.49079895 C-50.51448176 28.47555778 -47.43102755 26.46366605 -44.34521484 24.45532227 C-37.95821663 20.29166599 -31.61873867 16.07307885 -25.34375 11.7421875 C-23.50666491 10.48339539 -21.66881023 9.22573434 -19.83078003 7.96832275 C-18.66082864 7.16224093 -17.49513882 6.34993519 -16.33401489 5.53118896 C-14.72415297 4.39624406 -13.09869702 3.28351647 -11.47265625 2.171875 C-10.55750244 1.5334668 -9.64234863 0.89505859 -8.69946289 0.23730469 C-5.24838803 -1.34450298 -3.60886223 -1.0747979 0 0 Z " fill="#FBAC0F" transform="translate(106,262)"/>
<path d="M0 0 C2.16337397 1.27720864 4.32746545 2.55320254 6.4921875 3.828125 C7.62108398 4.49392578 8.74998047 5.15972656 9.91308594 5.84570312 C15.62004315 9.1998026 21.373701 12.47274425 27.125 15.75 C28.30406422 16.42255876 29.48310051 17.09516647 30.66210938 17.76782227 C33.04170908 19.12517169 35.4216137 20.48198436 37.80175781 21.83837891 C43.70301689 25.20152051 49.6019235 28.56878067 55.5 31.9375 C56.08036011 32.26893005 56.66072021 32.60036011 57.25866699 32.9418335 C66.70902474 38.33973857 76.14006071 43.77062721 85.56225586 49.2175293 C92.49530139 53.22262045 99.44343942 57.20018547 106.40063477 61.16308594 C112.06479149 64.38986481 117.72150487 67.62957637 123.375 70.875 C124.24479492 71.37354492 125.11458984 71.87208984 126.01074219 72.38574219 C128.15894662 73.62231739 130.29987921 74.87024495 132.4375 76.125 C134.09458984 77.09179688 134.09458984 77.09179688 135.78515625 78.078125 C138.3182477 79.83562435 139.81015078 81.23696027 141.375 83.875 C141.93430362 87.63032428 141.75410018 89.28691852 139.68408203 92.49804688 C136.96055085 95.30163109 135.82066453 95.58686342 131.9921875 95.96875 C130.83041992 96.10796875 129.66865234 96.2471875 128.47167969 96.390625 C127.82066284 96.46410156 127.169646 96.53757812 126.49890137 96.61328125 C122.44244999 97.11313939 118.41562007 97.80824332 114.3828125 98.46875 C112.4740555 98.77542634 110.56519744 99.08147422 108.65625 99.38696289 C107.65722656 99.54730011 106.65820312 99.70763733 105.62890625 99.87283325 C89.94001288 102.39078679 74.24957223 104.89855483 58.5546875 107.37890625 C30.95305159 111.74222066 3.36404222 116.16383959 -24.19329834 120.80015564 C-31.97668293 122.10696342 -39.76899578 123.35620325 -47.56420898 124.59033203 C-54.49232035 125.68779446 -61.412322 126.82857176 -68.32617188 128.01269531 C-73.41255502 128.875 -73.41255502 128.875 -75.625 128.875 C-76.63185387 131.89556161 -76.77872686 134.01054614 -76.83032227 137.17260742 C-76.85026749 138.25350143 -76.87021271 139.33439545 -76.89076233 140.44804382 C-76.90747482 141.61374405 -76.92418732 142.77944427 -76.94140625 143.98046875 C-76.9725779 145.77198112 -76.9725779 145.77198112 -77.00437927 147.59968567 C-77.06984276 151.42056443 -77.1287451 155.24151276 -77.1875 159.0625 C-77.23068824 161.65039786 -77.27430263 164.23828865 -77.31835938 166.82617188 C-77.42552092 173.17570739 -77.5272934 179.52531234 -77.625 185.875 C-76.63918945 185.70895264 -75.65337891 185.54290527 -74.63769531 185.37182617 C-41.49837541 179.79505257 -41.49837541 179.79505257 -28.65795898 177.91650391 C-19.29007456 176.5440302 -9.94624133 175.02148302 -0.59936523 173.51367188 C2.5178092 173.01181095 5.63566438 172.51429741 8.75366211 172.01757812 C19.95833923 170.23150417 31.15950478 168.4258982 42.35546875 166.5859375 C43.52254868 166.39420456 44.6896286 166.20247162 45.89207458 166.00492859 C50.65940823 165.22136096 55.42665236 164.43725868 60.19360352 163.65136719 C83.47357236 159.81506189 83.47357236 159.81506189 94.2097168 158.3359375 C97.88620369 157.80055707 101.54614546 157.18222108 105.20703125 156.55078125 C106.53318423 156.3247589 107.85935609 156.09884731 109.18554688 155.87304688 C111.19834728 155.53007061 113.21018982 155.1834645 115.22045898 154.82592773 C122.78866008 153.48543119 129.7499549 152.32894521 137.375 153.875 C140.32144585 156.19644219 140.34599708 157.64297662 140.8125 161.375 C140.29404363 165.52265094 139.54970247 166.29555424 136.375 168.875 C128.54401076 171.82847169 119.60173639 172.48297007 111.34155273 173.61401367 C103.37444212 174.7082715 95.43755992 175.95970158 87.5 177.25 C86.83589111 177.35781799 86.17178223 177.46563599 85.48754883 177.57672119 C82.09044812 178.12831649 78.69356634 178.68124113 75.296875 179.23535156 C69.36526339 180.20278324 63.43292511 181.16565767 57.5 182.125 C56.27168457 182.32367676 55.04336914 182.52235352 53.77783203 182.72705078 C45.08165534 184.13015563 36.38140023 185.50667065 27.6796875 186.875 C25.96122871 187.14537834 25.96122871 187.14537834 24.20805359 187.42121887 C19.37799641 188.18110602 14.54793771 188.94097581 9.71755981 189.69882202 C-4.2596125 191.89253614 -18.22855449 194.12632402 -32.18359375 196.45703125 C-34.06952744 196.77083237 -34.06952744 196.77083237 -35.99356079 197.0909729 C-42.02541026 198.0948348 -48.05578098 199.10630595 -54.08398438 200.13183594 C-56.26296208 200.49579463 -58.44199561 200.85941933 -60.62109375 201.22265625 C-62.07678017 201.47508842 -62.07678017 201.47508842 -63.56187439 201.73262024 C-80.40595994 204.51031313 -80.40595994 204.51031313 -86.52734375 200.453125 C-87.34477051 199.928396 -88.16219727 199.40366699 -89.00439453 198.86303711 C-90.27065674 198.00270874 -90.27065674 198.00270874 -91.5625 197.125 C-92.4685498 196.53662354 -93.37459961 195.94824707 -94.30810547 195.34204102 C-96.18060095 194.12548934 -98.04748812 192.90026224 -99.90869141 191.66650391 C-103.98039531 188.9810677 -108.1169732 186.40205314 -112.25 183.8125 C-113.82352146 182.81736191 -115.39643987 181.82126963 -116.96875 180.82421875 C-120.02855873 178.88502027 -123.09088895 176.94994105 -126.15625 175.01953125 C-138.26015095 167.39505729 -150.31139387 159.68953013 -162.35498047 151.97021484 C-165.66418193 149.84989478 -168.9744717 147.73128478 -172.28515625 145.61328125 C-173.37086914 144.9186377 -174.45658203 144.22399414 -175.57519531 143.50830078 C-177.71362786 142.14041354 -179.85229533 140.77289349 -181.99121094 139.40576172 C-186.30899531 136.64461235 -190.62523073 133.88200357 -194.91796875 131.08203125 C-199.87908211 127.84935623 -204.82326597 124.7058289 -210.0625 121.9375 C-214.69005878 119.45845065 -219.14712055 116.7730306 -223.5625 113.9375 C-224.20179443 113.54248291 -224.84108887 113.14746582 -225.49975586 112.74047852 C-226.10698486 112.34272217 -226.71421387 111.94496582 -227.33984375 111.53515625 C-227.87730225 111.19105713 -228.41476074 110.84695801 -228.96850586 110.49243164 C-233.55794625 106.01121681 -234.8591661 102.09141649 -235.14257812 95.80712891 C-235.16887298 93.40541305 -235.17210989 91.00336993 -235.15625 88.6015625 C-235.1600769 87.32324554 -235.16390381 86.04492859 -235.16784668 84.72787476 C-235.17372106 82.02964807 -235.16524965 79.33195351 -235.14648438 76.63378906 C-235.12374063 73.19856994 -235.13679982 69.76460435 -235.16077423 66.32943153 C-235.17882562 63.02421206 -235.16613017 59.71931743 -235.15625 56.4140625 C-235.16434692 55.19192047 -235.17244385 53.96977844 -235.18078613 52.71060181 C-235.08728557 44.12371036 -233.37699279 38.29784555 -228.875 31.0625 C-223.69223445 26.02370016 -217.24190986 24.25075413 -210.26242065 23.18586731 C-209.45944239 23.0524815 -208.65646412 22.91909569 -207.82915318 22.78166789 C-205.16124748 22.34173246 -202.49073897 21.92051609 -199.81982422 21.49926758 C-197.89718532 21.18616134 -195.9747348 20.87189645 -194.05245972 20.55656433 C-188.84793703 19.70616198 -183.64093659 18.87193954 -178.43333578 18.04062486 C-172.97869369 17.16702732 -167.52648861 16.27847735 -162.07400513 15.39152527 C-151.74872186 13.71423628 -141.42133148 12.05031313 -131.0931102 10.39122266 C-119.3568355 8.50529434 -107.62295854 6.60465648 -95.88927436 4.70268786 C-75.83505227 1.45222398 -55.77915107 -1.78768955 -35.72106934 -5.01425171 C-34.87506672 -5.15039283 -34.0290641 -5.28653394 -33.15742505 -5.42680055 C-31.6023485 -5.67702916 -30.04724933 -5.92711723 -28.49212158 -6.1770274 C-25.41784121 -6.6717273 -22.34985008 -7.17582183 -19.28764534 -7.74142933 C-12.24083568 -8.75656622 -5.79121386 -3.45940364 0 0 Z " fill="#02A8F3" transform="translate(261.625,32.125)"/>
<path d="M0 0 C12.02080488 1.50884808 23.88749735 3.78164158 35.78817749 6.02398682 C53.56399704 9.3705848 71.3481053 12.63504993 89.1875 15.625 C103.64302075 18.05004312 118.05520865 20.6578302 132.45874023 23.37402344 C148.95851418 26.48107456 165.49304589 29.36309015 182.04119873 32.19992065 C196.76104039 34.72458636 211.46106506 37.32024764 226.12573242 40.14892578 C232.84097691 41.43934542 239.53839141 42.54650662 246.32177734 43.4206543 C250.11008476 44.24013046 251.82551925 45.85075202 254 49 C256.311384 52.63752048 256.25340101 55.7397539 256.25878906 60 C256.26404602 61.04462402 256.26404602 61.04462402 256.26940918 62.11035156 C256.27819481 64.40700314 256.27238867 66.70334541 256.265625 69 C256.26697256 70.59895893 256.26891386 72.19791747 256.27142334 73.796875 C256.2743703 77.14587307 256.27009073 80.49476436 256.26074219 83.84375 C256.24934786 88.13452657 256.25590963 92.42505292 256.26788712 96.71582031 C256.27511727 100.01694623 256.27281248 103.31801292 256.26763153 106.61914062 C256.26629823 108.20117218 256.26793156 109.78320912 256.27259064 111.36523438 C256.2776749 113.57696764 256.26991922 115.78829679 256.25878906 118 C256.25719788 119.258125 256.25560669 120.51625 256.25396729 121.8125 C256.01519291 124.80931642 255.58186296 126.48770446 254 129 C248.02453835 129.16054116 242.54139948 128.59187584 236.66796875 127.53125 C235.775298 127.37546478 234.88262726 127.21967957 233.96290588 127.05917358 C231.03651056 126.54633312 228.11202185 126.0234098 225.1875 125.5 C223.12864525 125.13651588 221.06972491 124.77340307 219.01074219 124.41064453 C203.43673732 121.65627117 187.88652891 118.77570178 172.34179688 115.86132812 C161.63276138 113.85435569 150.91847949 111.88629364 140.1875 110 C139.52111511 109.8828363 138.85473022 109.76567261 138.16815186 109.6449585 C130.35344732 108.27299723 122.53565268 106.91895602 114.71731567 105.56787109 C109.76971475 104.7128513 104.82229304 103.85679938 99.875 103 C98.88302612 102.82823242 97.89105225 102.65646484 96.86901855 102.47949219 C83.64896077 100.18757669 70.4487352 97.82131383 57.27075195 95.29785156 C49.21620517 93.76365218 41.14974019 92.31948076 33.0703125 90.921875 C30.98184355 90.55864354 28.89338328 90.19536223 26.80493164 89.83203125 C23.6951935 89.29134954 20.58507382 88.75382827 17.47311401 88.22607422 C14.58617297 87.73645603 11.70121439 87.23638341 8.81640625 86.734375 C7.93892731 86.58877136 7.06144836 86.44316772 6.15737915 86.29315186 C4.0920184 85.92889851 2.04305629 85.47362063 0 85 C-1.41746284 82.16507432 -0.58957891 80.63259606 0.1796875 77.58203125 C0.58380859 75.94717773 0.58380859 75.94717773 0.99609375 74.27929688 C1.28613281 73.13525391 1.57617188 71.99121094 1.875 70.8125 C7.30220665 49.19040959 6.53833254 31.42222666 1.57250977 9.78808594 C0.90570655 6.54079691 0.44270758 3.28462101 0 0 Z " fill="#FEF2E3" transform="translate(11,341)"/>
<path d="M0 0 C1.68843011 0.93179504 3.34332208 1.92537802 4.97265625 2.95703125 C5.94501221 3.56893311 6.91736816 4.18083496 7.91918945 4.8112793 C8.95648193 5.47168213 9.99377441 6.13208496 11.0625 6.8125 C12.13653076 7.49030518 13.21056152 8.16811035 14.31713867 8.86645508 C17.54769772 10.90636685 20.7739127 12.95302632 24 15 C25.71308396 16.08145454 27.42658577 17.16224764 29.140625 18.2421875 C33.00277182 20.67613632 36.86133229 23.11569394 40.71875 25.55712891 C43.01973833 27.01248433 45.32213105 28.46559118 47.625 29.91796875 C56.09496655 35.26048135 64.55352212 40.62041991 73 46 C98.6255129 62.34166797 98.6255129 62.34166797 124.44677734 78.37060547 C127 80 127 80 129.02587891 81.58642578 C135.13996242 86.2243104 140.69261064 84.89517325 148 84 C154.2640298 83.12003986 160.49590034 82.04587859 166.73046875 80.98046875 C168.53280989 80.67704327 170.33524637 80.37418357 172.13777161 80.07185364 C176.86480649 79.27771357 181.59071235 78.47705726 186.31634521 77.67462158 C193.80977297 76.40328281 201.30479341 75.14134362 208.79986763 73.87975311 C210.63265407 73.57121468 212.46540107 73.26244188 214.29810905 72.95343781 C225.58005405 71.05222948 236.86722923 69.21896532 248.18118286 67.51679993 C257.80576462 66.05691304 267.40431321 64.45041834 277.00390625 62.8359375 C277.83853079 62.69572741 278.67315533 62.55551731 279.53307152 62.41105843 C287.29628025 61.10671469 295.05890379 59.79892301 302.82055664 58.48535156 C307.12287004 57.75743659 311.42586736 57.03368174 315.72929192 56.31236649 C317.33712652 56.04205843 318.94471005 55.77025145 320.55200386 55.49674606 C324.96381225 54.74618399 329.37816981 54.02112002 333.80138016 53.34075165 C335.31551146 53.10608501 336.82858338 52.86451324 338.34070969 52.61725616 C340.65773851 52.24381641 342.97749969 51.90261187 345.30053711 51.56884766 C346.00088609 51.45103125 346.70123507 51.33321484 347.42280674 51.21182823 C351.10430558 50.71969775 352.73362371 50.8321231 355.91871643 52.83944702 C358.36552817 55.37944997 358.92407525 56.31667729 359.3125 59.8125 C358.92034062 63.81252571 357.78524581 65.15194675 355 68 C352.53466797 68.80273438 352.53466797 68.80273438 349.6171875 69.09375 C348.45541992 69.23296875 347.29365234 69.3721875 346.09667969 69.515625 C345.44566284 69.58910156 344.794646 69.66257812 344.12390137 69.73828125 C340.06744999 70.23813939 336.04062007 70.93324332 332.0078125 71.59375 C330.0990555 71.90042634 328.19019744 72.20647422 326.28125 72.51196289 C325.28222656 72.67230011 324.28320312 72.83263733 323.25390625 72.99783325 C307.56501288 75.51578679 291.87457223 78.02355483 276.1796875 80.50390625 C248.57805159 84.86722066 220.98904222 89.28883959 193.43170166 93.92515564 C185.64831707 95.23196342 177.85600422 96.48120325 170.06079102 97.71533203 C163.13267965 98.81279446 156.212678 99.95357176 149.29882812 101.13769531 C144.21244498 102 144.21244498 102 142 102 C140.99314613 105.02056161 140.84627314 107.13554614 140.79467773 110.29760742 C140.77473251 111.37850143 140.75478729 112.45939545 140.73423767 113.57304382 C140.71752518 114.73874405 140.70081268 115.90444427 140.68359375 117.10546875 C140.6524221 118.89698112 140.6524221 118.89698112 140.62062073 120.72468567 C140.55515724 124.54556443 140.4962549 128.36651276 140.4375 132.1875 C140.39431176 134.77539786 140.35069737 137.36328865 140.30664062 139.95117188 C140.19947908 146.30070739 140.0977066 152.65031234 140 159 C140.98581055 158.83395264 141.97162109 158.66790527 142.98730469 158.49682617 C176.12662459 152.92005257 176.12662459 152.92005257 188.96704102 151.04150391 C198.33492544 149.6690302 207.67875867 148.14648302 217.02563477 146.63867188 C220.1428092 146.13681095 223.26066438 145.63929741 226.37866211 145.14257812 C237.58333923 143.35650417 248.78450478 141.5508982 259.98046875 139.7109375 C261.14754868 139.51920456 262.3146286 139.32747162 263.51707458 139.12992859 C268.28440823 138.34636096 273.05165236 137.56225868 277.81860352 136.77636719 C301.09857236 132.94006189 301.09857236 132.94006189 311.8347168 131.4609375 C315.51120369 130.92555707 319.17114546 130.30722108 322.83203125 129.67578125 C324.15818423 129.4497589 325.48435609 129.22384731 326.81054688 128.99804688 C328.82334728 128.65507061 330.83518982 128.3084645 332.84545898 127.95092773 C340.41366008 126.61043119 347.3749549 125.45394521 355 127 C357.94644585 129.32144219 357.97099708 130.76797662 358.4375 134.5 C357.91904363 138.64765094 357.17470247 139.42055424 354 142 C346.16901076 144.95347169 337.22673639 145.60797007 328.96655273 146.73901367 C320.99944212 147.8332715 313.06255992 149.08470158 305.125 150.375 C304.46089111 150.48281799 303.79678223 150.59063599 303.11254883 150.70172119 C299.71544812 151.25331649 296.31856634 151.80624113 292.921875 152.36035156 C286.99026339 153.32778324 281.05792511 154.29065767 275.125 155.25 C273.89668457 155.44867676 272.66836914 155.64735352 271.40283203 155.85205078 C262.70665534 157.25515563 254.00640023 158.63167065 245.3046875 160 C243.58622871 160.27037834 243.58622871 160.27037834 241.83305359 160.54621887 C237.00299641 161.30610602 232.17293771 162.06597581 227.34255981 162.82382202 C213.3653875 165.01753614 199.39644551 167.25132402 185.44140625 169.58203125 C183.55547256 169.89583237 183.55547256 169.89583237 181.63143921 170.2159729 C175.59958974 171.2198348 169.56921902 172.23130595 163.54101562 173.25683594 C161.36203792 173.62079463 159.18300439 173.98441933 157.00390625 174.34765625 C155.54821983 174.60008842 155.54821983 174.60008842 154.06312561 174.85762024 C137.21904006 177.63531313 137.21904006 177.63531313 131.09765625 173.578125 C130.28022949 173.053396 129.46280273 172.52866699 128.62060547 171.98803711 C127.35434326 171.12770874 127.35434326 171.12770874 126.0625 170.25 C125.1564502 169.66162354 124.25040039 169.07324707 123.31689453 168.46704102 C121.44439905 167.25048934 119.57751188 166.02526224 117.71630859 164.79150391 C113.64460469 162.1060677 109.5080268 159.52705314 105.375 156.9375 C103.80147854 155.94236191 102.22856013 154.94626963 100.65625 153.94921875 C97.59644127 152.01002027 94.53411105 150.07494105 91.46875 148.14453125 C79.36484905 140.52005729 67.31360613 132.81453013 55.27001953 125.09521484 C51.96081807 122.97489478 48.6505283 120.85628478 45.33984375 118.73828125 C44.25413086 118.0436377 43.16841797 117.34899414 42.04980469 116.63330078 C39.91137214 115.26541354 37.77270467 113.89789349 35.63378906 112.53076172 C31.31600469 109.76961235 26.99976927 107.00700357 22.70703125 104.20703125 C17.74591789 100.97435623 12.80173403 97.8308289 7.5625 95.0625 C2.93494122 92.58345065 -1.52212055 89.8980306 -5.9375 87.0625 C-6.57679443 86.66748291 -7.21608887 86.27246582 -7.87475586 85.86547852 C-8.48198486 85.46772217 -9.08921387 85.06996582 -9.71484375 84.66015625 C-10.25230225 84.31605713 -10.78976074 83.97195801 -11.34350586 83.61743164 C-15.93294625 79.13621681 -17.2341661 75.21641649 -17.51757812 68.93212891 C-17.54387298 66.53041305 -17.54710989 64.12836993 -17.53125 61.7265625 C-17.5350769 60.44824554 -17.53890381 59.16992859 -17.54284668 57.85287476 C-17.54872106 55.15464807 -17.54024965 52.45695351 -17.52148438 49.75878906 C-17.49874063 46.32356994 -17.51179982 42.88960435 -17.53577423 39.45443153 C-17.55382562 36.14921206 -17.54113017 32.84431743 -17.53125 29.5390625 C-17.53934692 28.31692047 -17.54744385 27.09477844 -17.55578613 25.83560181 C-17.45411005 16.49788776 -15.6737084 8.87594199 -9 2 C-5.54910877 -0.58816842 -4.05852636 -1.42243876 0 0 Z " fill="#016AB3" transform="translate(44,59)"/>
<path d="M0 0 C-0.27714844 1.16917969 -0.55429687 2.33835938 -0.83984375 3.54296875 C-1.20577401 5.09113523 -1.57165693 6.63931291 -1.9375 8.1875 C-2.11990234 8.95642578 -2.30230469 9.72535156 -2.49023438 10.51757812 C-2.84517328 12.02122839 -3.19631871 13.52577973 -3.54345703 15.03125 C-3.88574547 16.50730026 -4.24523533 17.97937932 -4.61328125 19.44921875 C-6.93649783 34.77306143 -4.84614697 51.34126821 -0.8984375 66.23046875 C-0.14074067 69.40950108 0.07968899 71.78645496 0 75 C-1.16789062 75.16435547 -1.16789062 75.16435547 -2.359375 75.33203125 C-26.25233073 78.71778419 -50.04470266 82.62492928 -73.84002686 86.63433838 C-82.44275266 88.0810226 -91.0534174 89.47269278 -99.67407227 90.80883789 C-103.82439886 91.45867038 -107.94321108 92.17446805 -112.05859375 93.01953125 C-116.74908574 93.97699825 -121.44432663 94.67587727 -126.1875 95.3125 C-137.95165748 96.94970923 -149.66870364 98.85535282 -161.39129639 100.76374817 C-172.24260047 102.52944477 -183.09690162 104.27659238 -193.95126343 106.02337646 C-197.60153232 106.61115714 -201.25157663 107.20031785 -204.90161133 107.78955078 C-215.3102222 109.46711224 -225.72015685 111.13383386 -236.14453125 112.7109375 C-236.91810471 112.82885651 -237.69167816 112.94677551 -238.48869324 113.06826782 C-243.64814716 113.83984463 -248.81231865 114.44865842 -254 115 C-256.35341047 111.46988429 -256.26230223 109.97132922 -256.29052734 105.7878418 C-256.30328705 104.50608566 -256.31604675 103.22432953 -256.32919312 101.9037323 C-256.33225107 100.50222932 -256.33447867 99.10072431 -256.3359375 97.69921875 C-256.34236568 96.26056282 -256.34909406 94.82190819 -256.35610962 93.383255 C-256.36808688 90.36623099 -256.37179012 87.3493215 -256.37060547 84.33227539 C-256.37040253 80.47527719 -256.39767526 76.61901794 -256.43214989 72.76219463 C-256.45444475 69.78952191 -256.45844219 66.81702609 -256.45738602 63.84427834 C-256.45973922 62.42296623 -256.46854705 61.00164904 -256.48405075 59.58041954 C-256.5037541 57.58715758 -256.49533907 55.5936785 -256.48583984 53.6003418 C-256.48868988 52.46799606 -256.49153992 51.33565033 -256.49447632 50.16899109 C-255.8841538 46.25756689 -254.44930158 44.0745981 -252 41 C-249.63037109 39.86547852 -249.63037109 39.86547852 -246.8984375 39.31640625 C-245.83592773 39.0961377 -244.77341797 38.87586914 -243.67871094 38.64892578 C-242.46473633 38.43478027 -241.25076172 38.22063477 -240 38 C-238.98323181 37.81736603 -238.98323181 37.81736603 -237.94592285 37.63104248 C-232.51631475 36.66382174 -227.07282862 35.79494751 -221.625 34.9375 C-220.0155525 34.67948829 -218.40617703 34.42102688 -216.796875 34.16210938 C-207.54396638 32.68018092 -198.28031244 31.30036913 -189 30 C-169.66918644 27.28685713 -169.66918644 27.28685713 -150.48950195 23.69311523 C-147.30833358 23.0612439 -144.15519099 22.56983657 -140.94140625 22.140625 C-132.02755822 20.89372828 -123.16099615 19.3850322 -114.28643799 17.88708496 C-79.94141363 12.09491317 -45.55442488 6.53372283 -11.11523438 1.32861328 C-9.25591362 1.03975759 -7.40093479 0.72323871 -5.546875 0.40234375 C-3 0 -3 0 0 0 Z " fill="#FEF2E3" transform="translate(501,219)"/>
<path d="M0 0 C-0.433125 0.9075 -0.86625 1.815 -1.3125 2.75 C-8.466898 19.85241807 -6.6726448 35.66054699 -2 53 C-1.65746632 54.66480016 -1.32226772 56.33115836 -1 58 C-27.96868893 62.35542579 -54.94300045 66.67432605 -81.92211914 70.96469116 C-95.67630023 73.15197597 -109.4296435 75.34430759 -123.18115234 77.54833984 C-126.17929677 78.02872848 -129.17752689 78.50857924 -132.17578125 78.98828125 C-133.21758545 79.15497314 -134.25938965 79.32166504 -135.33276367 79.4934082 C-137.43315834 79.82936125 -139.53358123 80.16513789 -141.6340332 80.50073242 C-146.81669806 81.32906768 -151.99876598 82.16082511 -157.1796875 83 C-168.38155799 84.81093817 -179.59053666 86.56768184 -190.8125 88.25 C-191.96991699 88.4253125 -193.12733398 88.600625 -194.31982422 88.78125 C-195.39635254 88.94109375 -196.47288086 89.1009375 -197.58203125 89.265625 C-199.00866089 89.47880371 -199.00866089 89.47880371 -200.46411133 89.69628906 C-203 90 -203 90 -207 90 C-207.10134036 82.38292796 -207.17144061 74.76602947 -207.21972656 67.1484375 C-207.23985375 64.55657454 -207.26715816 61.96475704 -207.30175781 59.37304688 C-207.35022501 55.64962551 -207.37295816 51.92680401 -207.390625 48.203125 C-207.41127014 47.04258606 -207.43191528 45.88204712 -207.45318604 44.68634033 C-207.45348816 43.60552185 -207.45379028 42.52470337 -207.45410156 41.41113281 C-207.46742523 39.98550018 -207.46742523 39.98550018 -207.48101807 38.53106689 C-206.85669567 35.24594754 -205.56415464 34.07419669 -203 32 C-200.73950195 31.2421875 -200.73950195 31.2421875 -198.23828125 30.875 C-197.29919922 30.72836914 -196.36011719 30.58173828 -195.39257812 30.43066406 C-194.37615234 30.28854492 -193.35972656 30.14642578 -192.3125 30 C-191.23291016 29.83467773 -190.15332031 29.66935547 -189.04101562 29.49902344 C-186.78304035 29.15370917 -184.52405801 28.81492152 -182.26416016 28.48242188 C-177.50283825 27.77872912 -172.75190574 27.01424943 -168 26.25 C-167.00701904 26.09241211 -166.01403809 25.93482422 -164.9909668 25.77246094 C-157.83442013 24.63252719 -150.68569198 23.45033527 -143.5390625 22.25 C-120.4830838 18.37864659 -97.41577428 14.6102069 -74.31445312 11.01855469 C-63.15248412 9.28238699 -51.99483963 7.52362803 -40.84375 5.71875 C-39.68716888 5.5319165 -38.53058777 5.34508301 -37.33895874 5.15258789 C-30.58206038 4.06081214 -30.58206038 4.06081214 -23.82647705 2.9609375 C-20.76245348 2.46020259 -17.69771353 1.96408107 -14.6328125 1.46875 C-13.72696411 1.31917847 -12.82111572 1.16960693 -11.88781738 1.01550293 C-7.88696175 0.37263533 -4.06854241 -0.19678054 0 0 Z " fill="#FDF2E3" transform="translate(391,128)"/>
<path d="M0 0 C2.5793457 1.32836914 2.5793457 1.32836914 5.17578125 3.03515625 C6.15611328 3.67171143 7.13644531 4.3082666 8.14648438 4.96411133 C9.19126953 5.65657959 10.23605469 6.34904785 11.3125 7.0625 C12.98495803 8.15257546 14.65742661 9.24263518 16.33053589 10.33171082 C18.06687844 11.46361863 19.80040781 12.599743 21.53369141 13.73632812 C26.99203673 17.30906325 32.49937972 20.80537892 38 24.3125 C44.90877993 28.73018949 51.80840815 33.16122635 58.6875 37.625 C65.85644555 42.27611443 73.06252364 46.86752008 80.27490234 51.45092773 C95.48539399 61.11852416 110.6838433 70.80674342 125.78833008 80.6394043 C127.52163364 81.76565845 129.26055989 82.88324678 131 84 C131.77939941 84.53278564 132.55879883 85.06557129 133.36181641 85.61450195 C141.08320804 89.66955447 152.16761436 86.57306198 160.375 85.125 C162.57276825 84.75432727 164.77068415 84.38452887 166.96875 84.015625 C168.0103125 83.83837891 169.051875 83.66113281 170.125 83.47851562 C174.75386273 82.70808671 179.39773171 82.07694185 184.046875 81.44140625 C187.95863854 80.85671143 191.82599071 80.08691078 195.6953125 79.26953125 C198.12102906 78.98584575 199.67364072 79.35215699 202 80 C200.45505859 81.09054687 200.45505859 81.09054687 198.87890625 82.203125 C198.19868408 82.68330078 197.51846191 83.16347656 196.81762695 83.65820312 C195.29930701 84.7299197 193.78091368 85.80153231 192.26245117 86.87304688 C188.27222063 89.68900371 184.28316628 92.50659389 180.296875 95.328125 C179.54462646 95.86018555 178.79237793 96.39224609 178.01733398 96.94042969 C176.58149267 97.95605967 175.14608603 98.97230455 173.71118164 99.98925781 C173.04981201 100.45686523 172.38844238 100.92447266 171.70703125 101.40625 C170.84815308 102.01436523 170.84815308 102.01436523 169.97192383 102.63476562 C169.32118896 103.08529297 168.6704541 103.53582031 168 104 C167.09032471 104.72413086 166.18064941 105.44826172 165.2434082 106.19433594 C161.30066132 108.3893345 158.67528033 108.20272751 154.3984375 107.484375 C153.66313812 107.378974 152.92783875 107.273573 152.17025757 107.16497803 C149.77380871 106.80868683 147.38762719 106.41111145 145 106 C144.20339966 105.86408447 143.40679932 105.72816895 142.58605957 105.58813477 C137.49515508 104.70478147 132.41897694 103.75173955 127.34545898 102.77392578 C122.61042814 101.8620191 117.87158019 100.9703754 113.1328125 100.078125 C111.7062735 99.80905334 111.7062735 99.80905334 110.25091553 99.5345459 C101.68319726 97.92548257 93.09692215 96.44341183 84.5 95 C71.59714138 92.82927367 58.73337703 90.48233371 45.875 88.0625 C31.77078394 85.4085349 17.65316406 82.87910244 3.5 80.5 C-11.44147709 77.98769717 -26.34213721 75.29887045 -41.23208618 72.49780273 C-60.79055693 68.82016076 -80.38859185 65.38254749 -100 62 C-96.62137094 58.49188285 -93.02903919 55.99951146 -88.875 53.5 C-83.11013693 49.96263437 -77.42532587 46.33645101 -71.8125 42.5625 C-66.34782937 38.89274999 -60.86797791 35.24805883 -55.359375 31.64453125 C-54.77113953 31.25963028 -54.18290405 30.87472931 -53.57684326 30.47816467 C-50.50231882 28.46748693 -47.42563507 26.46018445 -44.34667969 24.45629883 C-37.95920463 20.2922994 -31.61922181 16.07341231 -25.34375 11.7421875 C-23.50666491 10.48339539 -21.66881023 9.22573434 -19.83078003 7.96832275 C-18.66082864 7.16224093 -17.49513882 6.34993519 -16.33401489 5.53118896 C-14.72415297 4.39624406 -13.09869702 3.28351647 -11.47265625 2.171875 C-10.55750244 1.5334668 -9.64234863 0.89505859 -8.69946289 0.23730469 C-5.24838803 -1.34450298 -3.60886223 -1.0747979 0 0 Z " fill="#F4D076" transform="translate(106,262)"/>
<path d="M0 0 C23.80298599 13.54606293 47.47860648 27.3135876 71.10546875 41.1640625 C71.71182159 41.51951141 72.31817444 41.87496033 72.94290161 42.24118042 C76.01524458 44.04245747 79.08710196 45.84455571 82.15820312 47.64794922 C88.15430494 51.16776522 94.15698837 54.6753566 100.17578125 58.15625 C101.29597656 58.80529297 102.41617187 59.45433594 103.5703125 60.12304688 C105.69219961 61.35144056 107.8158336 62.57682287 109.94140625 63.79882812 C110.8746875 64.33958984 111.80796875 64.88035156 112.76953125 65.4375 C113.59042236 65.91058594 114.41131348 66.38367188 115.25708008 66.87109375 C115.83224365 67.24363281 116.40740723 67.61617188 117 68 C117 68.33 117 68.66 117 69 C114.92667656 69.33850179 112.85335306 69.67700316 110.7800293 70.01550293 C108.89143775 70.3238461 107.0028473 70.63219596 105.11425781 70.94055176 C99.69655833 71.82510516 94.27883801 72.70953068 88.86108398 73.59375 C77.77156627 75.40377517 66.68228383 77.21520655 55.59375 79.03125 C51.58337468 79.68775287 47.57295274 80.34397028 43.5625 81 C42.5665683 81.16294556 41.5706366 81.32589111 40.54452515 81.49377441 C28.90412355 83.39720534 17.26111974 85.28321135 5.61328125 87.140625 C3.94553398 87.40667542 3.94553398 87.40667542 2.24409485 87.67810059 C-3.06789235 88.52502665 -8.38021441 89.36976208 -13.69311523 90.2109375 C-23.29272318 91.73522531 -32.87990104 93.30960913 -42.453125 94.9921875 C-54.32421052 97.07858015 -66.22051552 98.98988241 -78.125 100.875 C-82.4988374 101.56813438 -86.87255255 102.26203022 -91.24609375 102.95703125 C-92.8640963 103.2140406 -92.8640963 103.2140406 -94.51478577 103.47624207 C-101.42360334 104.57774435 -108.32490228 105.71809556 -115.22265625 106.88671875 C-116.93405085 107.17417659 -118.64547572 107.4614543 -120.35693359 107.74853516 C-122.74457256 108.14904272 -125.13137999 108.55271794 -127.51641846 108.96844482 C-129.66964675 109.34368824 -131.82467093 109.70626801 -133.98046875 110.06640625 C-135.77327271 110.3749353 -135.77327271 110.3749353 -137.60229492 110.68969727 C-143.60859616 111.23823566 -148.03615237 110.43497395 -153.05859375 107.09375 C-153.93837891 106.51496094 -154.81816406 105.93617188 -155.72460938 105.33984375 C-157.06749023 104.42912109 -157.06749023 104.42912109 -158.4375 103.5 C-159.35982422 102.89285156 -160.28214844 102.28570312 -161.23242188 101.66015625 C-166.06893224 98.44536254 -166.06893224 98.44536254 -168 97 C-168 96.67 -168 96.34 -168 96 C-158.91385911 94.5038138 -149.82761522 93.00825498 -140.74125004 91.51343155 C-136.5191025 90.8188154 -132.29698675 90.1240073 -128.07495117 89.42871094 C-95.83557186 84.11972274 -95.83557186 84.11972274 -80.58984375 81.67578125 C-79.11512352 81.43900665 -79.11512352 81.43900665 -77.61061096 81.19744873 C-72.57969298 80.39469231 -67.54665164 79.63462381 -62.5 78.9375 C-56.1633354 78.0599962 -49.88419197 76.93869132 -43.59375 75.78125 C-38.70041522 74.91739122 -33.78221017 74.24206956 -28.86230469 73.54882812 C-22.73297651 72.67785911 -16.61102704 71.76123122 -10.49169922 70.82275391 C-9.06306707 70.60491634 -7.63401602 70.38981093 -6.20458984 70.17724609 C-4.10150493 69.8641824 -1.99991468 69.54240819 0.1015625 69.21875 C1.33213379 69.03248047 2.56270508 68.84621094 3.83056641 68.65429688 C6.6142145 68.07964144 8.62387946 67.52765846 11 66 C12.50934217 62.98131566 12.17510672 60.32702771 12 57 C10.39499762 53.82730296 10.39499762 53.82730296 7.94140625 53.5859375 C7.15636719 53.51632813 6.37132812 53.44671875 5.5625 53.375 C1.36715571 52.54264369 1.36715571 52.54264369 -0.15234375 50.296875 C-0.95512018 47.88420637 -1.48523924 45.48983572 -2 43 C-2.27457031 42.12085938 -2.54914063 41.24171875 -2.83203125 40.3359375 C-6.51480318 28.1272963 -6.5960307 13.99606178 -2 2 C-1.34 1.34 -0.68 0.68 0 0 Z " fill="#FD6666" transform="translate(389,133)"/>
</svg>
